<?xml version="1.0" encoding="UTF-8"?>
<svg enable-background="new 0 0 579.2 283.8" version="1.1" viewBox="0 0 579.2 283.8" xml:space="preserve" xmlns="http://www.w3.org/2000/svg">
<style type="text/css">
	.st0{fill:#0087FF;}
	.st1{fill:#FFFFFF;}
	.st2{fill:#00BAFF;}
	.st3{fill:#0087F8;}
	.st4{fill:#00ECFF;}
	.st5{fill:none;stroke:#00ECFF;stroke-width:2.7707;stroke-miterlimit:10;}
	.st6{fill:#D0C900;}
	.st7{fill:#858585;}
	.st8{fill:#00CF00;}
	.st9{fill:#A99C00;}
	.st10{fill:#0C0D0A;}
	.st11{fill:#904800;}
	.st12{fill:#BDBCBC;}
	.st13{fill:none;stroke:#0087FF;stroke-width:18;stroke-linejoin:round;}
	.st14{font-family:'SnotmasterV';}
	.st15{font-size:94.0892px;}
	.st16{letter-spacing:-18.4;}
	.st17{font-size:61.92px;}
	.st18{fill:none;stroke:#1C5BAA;stroke-width:7.2;stroke-linejoin:round;}
	.st19{fill:none;stroke:#FFFFFF;stroke-width:1.08;stroke-linejoin:round;}
	.st20{fill:#FFEC00;}
</style>
	<ellipse class="st0" cx="187" cy="100.3" rx="19.1" ry="18.3"/>
	<circle class="st0" cx="476.3" cy="90.4" r="9.8"/>
	<circle class="st0" cx="313.6" cy="87.7" r="9.8"/>
		<path class="st1" d="m517.6 135.3c-0.8 0-1.5-0.1-2.2-0.4-4.8-1.7-25.1-5-52.4-5-18.3 0-50.8 0.3-74.8 0.5-33.5 0.3-71.5 0.7-103.3 0.7-37 0-65.7-0.8-85.1-2.4-24.7-2.1-26-4.7-27.1-6.8l-0.5-1.1 0.1-1.2c0.4-5 6.2-5.4 12.3-5.8 3.9-0.3 8.3-0.6 11.9-1.9 3.8-1.4 6.3-2.9 8.3-4.1s3.5-2.1 5.3-2.1c1.6 0 3 0.6 4.8 1.3 0.4 0.2 0.8 0.3 1.2 0.5 5.2 2.3 16.2 7.1 54.2 7.1h222.2c33 0 44.9 2.3 46.7 3.2l0.1 0.1c2.5 1.3 3.5 3.9 2.5 6.4l-0.5 1.3-1.2 0.8c-1.4 0.9-3.3 1.3-5.6 1.8l-1.5 0.3c-1.2 0.3-2.3 0.5-3.4 0.8-3.1 0.8-5.3 2.5-6.6 3.8-1.4 1.7-3.8 2.2-5.4 2.2z"/>
		<path class="st0" d="m210 110.2c0.7 0 1.7 0.4 3.1 1 5.5 2.3 15.4 7.9 57.1 7.9h222.2c35.4 0 44.6 2.6 44.9 2.7 0.6 0.3 0.7 0.6 0.5 1.1-0.9 0.6-3.3 1-5.6 1.5-1.1 0.3-2.3 0.5-3.5 0.8-4.1 1-7 3.3-8.6 5-0.4 0.4-1.6 0.8-2.5 0.8-0.3 0-0.5 0-0.7-0.1-5-1.8-25.3-5.2-53.9-5.2-17.3 0-47.8 0.3-74.9 0.5-33.5 0.3-71.4 0.7-103.2 0.7-82.9 0-107-4.2-108.3-6.9 0.1-1.3 4.6-1.6 8.3-1.9 4.2-0.3 8.9-0.6 13-2.1 4.2-1.5 7-3.2 9.1-4.4 1.3-0.8 2.4-1.4 3-1.4m0-8.7c-3 0-5.2 1.3-7.5 2.7-1.9 1.1-4.1 2.5-7.6 3.7-3 1.1-7.1 1.4-10.7 1.6-2 0.1-4.3 0.3-6.3 0.6-8.5 1.4-9.8 6.9-10 9.2l-0.2 2.4 1 2.1c2.2 4.5 7.3 5.9 11.8 6.8 4.4 0.9 10.7 1.7 18.8 2.4 19.5 1.6 48.3 2.5 85.4 2.5 31.8 0 69.8-0.4 103.3-0.7 24-0.2 56.4-0.5 74.8-0.5 28.6 0 47.6 3.5 51 4.7 1.1 0.4 2.4 0.6 3.7 0.6 2.6 0 6.2-0.9 8.7-3.4 0.9-0.9 2.4-2.1 4.5-2.6 1-0.3 2.2-0.5 3.2-0.7l1.5-0.3c2.6-0.5 5-1 7.1-2.4l2.3-1.5 1-2.6c1.7-4.6-0.1-9.4-4.6-11.8l-0.1-0.1-0.1-0.1c-3.4-1.7-18.2-3.6-48.6-3.6h-222.2c-37.2 0-47.5-4.5-52.5-6.7-0.4-0.2-0.8-0.4-1.2-0.5-2-0.9-4-1.8-6.5-1.8z"/>
		<path class="st2" d="m122.6 250.2l-1-3.9c-2.1-8.4-4.7-18.8-13.1-24.7-8.3 5.9-11 16.3-13.1 24.7l-1 3.9h-48.1c-1.2 0-3.5-0.5-4.8-4-3.8-10.3 2-44.1 16.6-61.2-10.2-1.2-18.9-5.3-23.5-11.3l-1.2-1.5 1-1.6c9-14.3 24.3-25.4 43.3-31.5-1.4-3.9-2.2-8.1-2.2-12.3 0-18 13.3-32.7 29.6-32.7s29.6 14.7 29.6 32.7c0 2.8-0.3 5.6-1 8.3 10.6-4.8 21.5-7.3 32-7.3 2.5 0 5.1 0.2 7.5 0.5l1.9 0.2 0.4 1.9c2 8.8-1.7 20.5-9.9 30.4-3.9 4.8-9.9 10.5-16.3 15.5 1.6 1.3 3.4 2.7 5.6 4.6 17.6 15.1 24.9 54.1 20.7 65.4-1.3 3.5-3.6 4-4.8 4h-48.2z"/>
		<path d="m105.1 96.9c14.8 0 26.8 13.4 26.8 29.9 0 5-1.1 9.7-3 13.8 12.1-6.6 24.8-10.1 36.8-10.1 2.4 0 4.8 0.1 7.2 0.4 1.8 7.7-1.6 18.6-9.3 28.1-4.3 5.3-11.4 11.8-18.8 17.3 2.5 1.7 5.2 3.9 8.4 6.6 19.5 16.8 25.1 64.5 17.7 64.5s-46 0-46 0c-2.4-9.4-5-22.2-15.9-29h-0.6c-10.9 6.8-13.5 19.6-15.9 29h-46c-7.4 0-1.8-47.7 17.7-64.5 0.1-0.1 0.3-0.2 0.4-0.3-12.2 0-22.8-4.3-27.6-10.6 9-14.3 25.1-25.5 44.7-31.2-2-4.2-3.2-9-3.2-14.1-0.2-16.4 11.8-29.8 26.6-29.8m0-5.6c-17.8 0-32.3 15.9-32.3 35.4 0 3.6 0.5 7.2 1.5 10.6-18.4 6.5-33.3 17.7-42.2 31.8l-2.1 3.3 2.4 3.1c4.3 5.6 11.8 9.7 20.7 11.5-6.5 9.3-10.3 20.7-12.1 27.6-2.9 11.1-4.7 25.5-2.1 32.6 1.3 3.6 4.1 5.8 7.4 5.8h50.3l1.1-4.2c0.2-0.6 0.3-1.2 0.5-1.8 2-7.8 4.1-16.4 10.4-21.9 6.3 5.5 8.4 14.1 10.4 21.9 0.2 0.6 0.3 1.2 0.5 1.8l1.1 4.2h50.3c3.3 0 6.1-2.2 7.4-5.8 2.6-7.1 0.8-21.4-2.1-32.6-2.4-9.2-8.2-26.2-19.4-35.9-1-0.9-2-1.7-2.9-2.5 5.5-4.6 10.6-9.5 14.1-13.7 8.7-10.6 12.6-23.2 10.4-32.8l-0.9-3.8-3.9-0.5c-2.6-0.3-5.2-0.5-7.9-0.5-9.3 0-18.9 1.9-28.4 5.6 0.1-1.3 0.2-2.5 0.2-3.8-0.1-19.5-14.6-35.4-32.4-35.4z"/>
		<path class="st3" d="m82.2 142c-1.6 0.8-3.1 1.5-4.7 2.3-1.5 0.8-3.1 1.6-4.6 2.4s-3 1.6-4.4 2.5c-1.5 0.8-3 1.6-4.6 2.2l-2.5-4.5c1.4-1.1 3-1.9 4.7-2.6 1.7-0.6 3.4-1.2 5.1-1.8 1.7-0.5 3.4-1 5.2-1.3 1.7-0.4 3.5-0.7 5.3-0.9l0.5 1.7z"/>
		<path class="st3" d="m127.9 140.5c0.5-2.4 1-4.6 1.2-6.9 0.3-2.3 0.4-4.6 0.3-6.9-0.1-4.6-1.2-9.1-3.2-13.1-2.1-4-4.9-7.6-8.6-10.1-3.6-2.6-8-3.9-12.3-3.9-1.1 0.1-2.2 0-3.3 0.3-0.5 0.1-1.1 0.1-1.6 0.3l-1.6 0.5c-2.1 0.7-4.1 1.6-5.9 3-0.9 0.6-1.7 1.4-2.6 2.1l-1.2 1.2-0.6 0.6-0.5 0.7-1.1 1.3-0.9 1.4-0.5 0.7-0.4 0.7-0.8 1.5c-2 4.1-3 8.6-3.1 13.2s0.7 9.1 1.9 13.8l-1.7 0.8c-3-4.2-4.3-9.4-4.3-14.6s1.1-10.4 3.2-15.1l0.9-1.7 0.5-0.9 0.5-0.8 1.1-1.7 1.2-1.6 0.6-0.8 0.7-0.7 1.4-1.4c1-0.8 2-1.8 3.1-2.5 2.1-1.6 4.6-2.8 7.1-3.7l1.9-0.6c0.6-0.2 1.3-0.3 2-0.4 1.3-0.3 2.7-0.3 4-0.4 5.4 0 10.8 1.7 15.1 4.8 4.4 3 7.8 7.3 10.1 12s3.3 10 3.4 15.1c0 2.6-0.3 5.2-1 7.7s-1.8 4.9-3.3 6.9l-1.7-0.8z"/>
		<path class="st4" d="m172.6 131.9c-1.9-0.2-3.8 0.1-5.6 0.5-0.9 0.2-1.8 0.5-2.6 0.8-0.4 0.2-0.8 0.3-1.1 0.5-0.1 0.1-0.3 0.2-0.4 0.3s-0.3 0.2-0.2 0.2l-2.9-5.1c0.5-0.2 0.8-0.3 1.2-0.4 0.3-0.1 0.6-0.1 1-0.1 0.7-0.1 1.2-0.1 1.8-0.1 1.1 0.1 2.2 0.2 3.2 0.4s2.1 0.5 3.1 0.8 2 0.7 2.9 1.3l-0.4 0.9z"/>
		<path class="st3" d="m168.2 247l-0.5-0.4c-0.1-0.1-0.2-0.1-0.2-0.2l-0.2-0.2c-0.2-0.2-0.3-0.4-0.4-0.6-0.2-0.3 0-0.7 0-1 0.1-0.7 0.2-1.5 0.2-2.2 0.1-1.5 0.1-3.1 0.1-4.7-0.1-3.2-0.2-6.4-0.5-9.6-0.6-6.4-1.7-12.8-3.4-19-1.8-6.2-4.1-12.2-7.5-17.7-1.7-2.7-3.7-5.2-5.9-7.5-2.2-2.2-4.8-4.2-7.5-5.8l-2.4-1.4 2.1-1.6c3.6-2.8 6.7-6.2 9.6-9.6 2.9-3.5 6-6.6 8.8-10.1s5.3-7.1 7.4-11c1-1.9 1.9-4 2.6-6 0.6-2.1 1.1-4.2 0.9-6.4l1.5-0.3c0.4 1.2 0.6 2.4 0.7 3.7 0.1 1.2 0 2.5-0.1 3.7-0.3 2.5-0.9 4.8-1.7 7.1-1.6 4.6-4 8.8-6.7 12.7s-5.7 7.6-9.4 10.7c-3.6 3.1-7.6 5.7-11.2 8.6l-0.2-3c6.1 3.4 11.2 8.4 15.2 14.1 4 5.6 7 11.9 9.3 18.4s3.9 13.1 4.9 19.9c0.5 3.4 0.8 6.8 0.9 10.3 0 1.7 0 3.5-0.1 5.3-0.1 0.9-0.1 1.8-0.2 2.7-0.1 0.5-0.1 1-0.4 1.4-0.3 0.5-0.9 0.9-2 1.2l-3.7-1.5z"/>
		<path class="st3" d="m90.2 247.4c-1.1-0.7-1.6-1.2-1.7-1.6-0.1-0.2 0-0.4 0.1-0.6l0.2-0.5 0.7-2.1c0.4-1.4 1-2.8 1.5-4.2 1.1-2.8 2.4-5.5 4.1-8.1 0.8-1.3 1.7-2.5 2.6-3.7 1-1.2 2-2.3 3.1-3.3 2.2-2 4.8-3.8 7.5-4.9h0.1 0.1c2.8 1.1 5.3 2.8 7.5 4.9s4.1 4.5 5.7 7.1 2.9 5.3 4 8.1l1.5 4.2 0.6 2.1 0.3 1.1c0 0.2-0.1 0.4-0.4 0.7-0.2 0.3-0.7 0.6-1.5 1l-0.9 0.2c-0.9 0-1.4 0-1.8-0.1s-0.6-0.2-0.6-0.4l-0.3-1-0.6-2c-0.4-1.4-0.8-2.7-1.2-4-0.8-2.7-1.8-5.3-2.9-7.8-1.2-2.5-2.5-5-4.1-7.2-1.6-2.3-3.5-4.4-5.7-6.4h0.2c-2.2 2-4.1 4-5.7 6.3-0.8 1.1-1.6 2.3-2.2 3.5-0.7 1.2-1.3 2.4-1.9 3.7-1.1 2.5-2.1 5.1-3 7.8-0.4 1.3-0.8 2.7-1.2 4l-0.5 2-0.1 0.5c0 0.2-0.1 0.3-0.2 0.5-0.3 0.3-0.9 0.5-2.2 0.5l-1.1-0.3z"/>
	<path class="st5" d="m64.8 182.9"/>
		<path class="st4" d="m63.8 151.2c-4.7 3.1-9.4 6.2-13.6 9.9-2.2 1.8-4.2 3.7-6.2 5.7l-6.1 6.1-1.3-0.8c1-2.8 2.5-5.5 4.3-7.9 1.7-2.5 3.8-4.7 6-6.8 4.4-4.1 9.3-7.7 14.7-10.2l2.2 4z"/>
		<path class="st4" d="m64.8 183.7c-3.9 4.2-6.7 9.2-9 14.3s-4.2 10.5-5.7 16c-0.7 2.7-1.5 5.5-2 8.2-0.6 2.8-1 5.6-1.5 8.3-0.4 2.8-0.9 5.5-1.2 8.3-0.1 1.4-0.3 2.7-0.3 4.1 0 0.7 0 1.3 0.1 1.9s0.2 1.1 0.4 1.5l-0.8 1.4c-1-0.4-1.6-1.3-2-2-0.4-0.8-0.7-1.5-0.9-2.3-0.5-1.5-0.7-3.1-0.8-4.6-0.3-3-0.1-6 0.2-9s0.9-5.9 1.6-8.7c0.7-2.9 1.4-5.7 2.4-8.5 1.9-5.6 4.2-11.1 7.2-16.2 1.5-2.6 3.2-5 5.1-7.3s4.1-4.4 6.5-6.1l0.7 0.7z"/>
		<path class="st3" d="m37.6 172c2 1.6 4 2.9 6.1 4s4.4 2.1 6.6 2.9c2.3 0.8 4.7 1.5 7.1 2 2.4 0.6 4.9 1 7.4 1.5v1c-2.6 0.5-5.2 0.5-7.8 0.3s-5.2-0.7-7.8-1.5c-2.5-0.8-5-2-7.2-3.6s-4.1-3.6-5.3-6l0.9-0.6z"/>
		<ellipse class="st6" cx="116.4" cy="123.7" rx="5.5" ry="9.4"/>
		<path d="m123 123.7c0 2.1-0.2 4.3-1 6.4-0.4 1-1 2-1.9 2.9s-2.2 1.6-3.6 1.6c-1.5 0-2.8-0.8-3.6-1.6-0.9-0.9-1.5-1.9-1.9-2.9-0.9-2.1-1.1-4.2-1.1-6.3 0.1-2.1 0.5-4.2 1.5-6.2 0.5-1 1.1-1.9 1.9-2.7s2-1.4 3.2-1.4 2.4 0.6 3.2 1.4 1.4 1.7 1.9 2.7c0.9 1.9 1.3 4 1.4 6.1zm-2.3 0c0-1.8-0.2-3.7-0.8-5.4-0.3-0.8-0.8-1.6-1.4-2.2s-1.4-1-2.1-1-1.5 0.4-2.1 1-1.1 1.4-1.4 2.2c-0.7 1.7-0.9 3.6-0.9 5.4 0.1 1.8 0.5 3.7 1.3 5.2 0.4 0.8 0.9 1.5 1.4 2 0.6 0.5 1.2 0.7 1.7 0.7 1.1 0 2.3-1.2 3.1-2.7s1.1-3.3 1.2-5.2z"/>
		<ellipse class="st6" cx="95.3" cy="123.7" rx="5.5" ry="9.4"/>
		<path d="m101.9 123.7c0 2.1-0.2 4.3-1 6.4-0.4 1-1 2.1-1.9 2.9-0.9 0.9-2.2 1.6-3.7 1.6s-2.8-0.8-3.6-1.6c-0.9-0.9-1.5-1.9-1.9-2.9-0.9-2.1-1.1-4.2-1.1-6.4 0.1-2.1 0.5-4.2 1.5-6.2 0.5-1 1.1-1.9 1.9-2.7s2-1.4 3.2-1.4c1.3 0 2.4 0.6 3.2 1.4s1.4 1.7 1.9 2.7c1 2 1.4 4.1 1.5 6.2zm-2.2 0c0-1.8-0.2-3.7-0.8-5.4-0.3-0.8-0.8-1.6-1.4-2.2s-1.3-0.9-2.1-1c-0.7 0-1.5 0.4-2.1 1s-1.1 1.4-1.4 2.2c-0.7 1.7-0.9 3.6-0.9 5.4 0.1 1.8 0.5 3.7 1.3 5.2 0.4 0.8 0.9 1.5 1.4 2 0.6 0.5 1.1 0.7 1.7 0.7 1.1 0 2.3-1.2 3.1-2.7 0.7-1.5 1.1-3.3 1.2-5.2z"/>
	<path class="st3" d="m128.8 153c-0.4-4.3-2.5-9.5-2.5-12-1.5 3.9-8.7-4-9.7-4.8-1.6-1.3-3.5-2.9-5.6-3.3-1.8-0.3-4.6 0.7-4.6 0.7s-3.8-1.6-6.3-0.9c-2.2 0.7-3.3 2.3-4.9 3.8-2.2 2.1-9.2 7.1-12.5 5.3-2.8 3.5 9.1 1.9 2.5 23.1-0.1-0.7-0.2-1.3-0.2-1.9 0-3.3 3.1-2.2 3.6-0.8 0.8 2.4 2.5 4.3 3.5 6.6 1.7 3.9-0.6 2.8-1.4 5.7 2.3-1.2 6.7-0.6 8.8 1 1.2 1.5 2.6 5.4 1.8 7.7-0.2 0.6-0.6 1.4-1.2 1.5-4.9 1.2-3.5-6.4-3.5-6.4v0.1c-0.1 0.4-2.2 5.3-1.5 9 1.6 8.3 10 15.4 16.3 16-0.2-4.5 6.8-6.3 8.7-9.1-0.8 0.6 2.4-6.9 3.7-9 1.9-3.1 3.2-6.7 3.1-10 0.1-1.9 3.3-11.9 4.4-11.6-4.5-1.5-2.2-7.8-2.5-10.7z"/>
	<path class="st1" d="m128.6 152.5c-0.4-4.3-2.8-8.2-6.7-10.6 2.2 1 4.3 1.1 4.3-1.4-1.5 3.9-8.7-4-9.7-4.8-1.6-1.3-3.5-2.9-5.6-3.3-1.8-0.3-4.6 0.7-4.6 0.7s-3.8-1.6-6.3-0.9c-2.2 0.7-3.3 2.3-4.9 3.8-2.2 2.1-9.2 7.1-12.5 5.3 1.3 1.3 4.4 2.1 7.2 2v0.1c-0.1 0.1-0.2 0.2-0.2 0.4-0.1 0.2-0.3 0.3-0.4 0.5-4.8 5-7.4 13.7-4 20.2-0.1-0.7-0.2-1.3-0.2-1.9 0-3.3 1.9-5.6 3.8-7.9-0.5 1-0.8 2.1-0.7 3.5-0.1 1.1 0 2.3 0.5 3.6 0.8 2.4 2.5 4.3 3.5 6.6 1.7 3.9-0.6 2.8-1.4 5.7 2.3-1.2 3.9-2.9 5-4.8 0.4 2.6 1.8 4.2 3.8 5.8 1.2 1.5 2.6 5.4 1.8 7.7-0.2 0.6-0.6 1.4-1.2 1.5-4.9 1.2-3.5-6.4-3.5-6.4v0.1c-0.1 0.4-1.9 4.3-1 7.9 0.9 3.4 3.5 5.9 7.1 4.9v-0.2h0.1c0.1 0 0.1 0 0.2 0.1-1.5 5.4 2.1 11.8 8.4 12.3-4.1-3.5-1.9-7.3 1-11.1 1.2 2.1 5.8 4.8 7.7 2-0.8 0.6-1.4 0.4-1.9-0.2-0.3-0.7-0.3-1.9-0.1-2.4 0.8-2.2 4.3-4.2 5.6-6.4 1.9-3.1 3.2-6.7 3.1-10 0.1-1.9-0.5-3.8-1.8-5.7-0.2-0.4-0.4-0.7-0.6-1 0.7-0.7 1.3-1.4 1.7-2 0.9-1.5 1.4-3.1 1.4-4.7 0-0.1 0-0.1 0.1-0.2 0.6 1.2 2.5 1.7 3.7 2-4.7-1.6-2.4-7.8-2.7-10.8z"/>
		<path class="st7" d="m118.7 179.4c0.7 1.3 0.7 3 0.2 4.3-0.4 1.3-1.1 2.4-1.8 3.5-0.7 1-1.5 1.9-2.3 2.7l-2.4 2.4c-0.8 0.7-1.7 1.4-2.4 2.2s-1.3 1.6-1.5 2.6 0.1 1.9 0.8 2.7c0.6 0.8 1.5 1.5 2.5 2 0.4 0.2 0.6 0.8 0.4 1.2-0.2 0.3-0.6 0.5-0.9 0.5h-0.2c-1.8-0.3-3.6-1-5.1-2.1-1.5-1.2-2.9-2.6-3.8-4.5-0.9-1.8-1.2-4-0.7-6 0.4-2 1.6-3.8 3.4-4.7 0.2-0.1 0.5 0 0.6 0.2 0 0.1 0.1 0.2 0.1 0.2-0.1 1.9-0.3 3.3-0.3 4.7s0.2 2.7 0.5 4c0.4 1.3 1.1 2.6 2.1 3.7 1 1 2.3 2 3.8 2.6l-0.8 1.6c-0.9-0.8-1.8-1.6-2.5-2.7-0.7-1-1.2-2.3-1.2-3.7 0-1.3 0.4-2.6 0.9-3.8s1.1-2.3 1.8-3.3c1.4-2 3-3.5 4.4-5.1 0.7-0.8 1.3-1.6 1.8-2.3 0.5-0.8 0.8-1.5 0.8-2.4v-0.1c0-0.6 0.5-1 1.1-1 0.2 0 0.6 0.3 0.7 0.6z"/>
		<path class="st7" d="m96.6 168.7c0.1 0.5 0.2 0.9 0.4 1.2s0.4 0.6 0.8 0.9 0.9 0.6 1.3 0.9c0.5 0.3 0.9 0.7 1.3 1 0.9 0.6 1.8 1.3 2.7 2.1 0.4 0.4 0.9 0.8 1.2 1.4 0.4 0.5 0.7 1.3 0.6 2.1 0 0.4-0.4 0.8-0.9 0.7-0.4 0-0.7-0.3-0.7-0.7v-0.1c-0.1-0.6-0.7-1.3-1.5-2-0.8-0.6-1.7-1.2-2.6-1.9-0.5-0.3-0.9-0.7-1.3-0.9-0.4-0.3-0.9-0.6-1.4-0.9-0.5-0.4-1.1-0.9-1.4-1.6-0.3-0.6-0.5-1.3-0.6-1.9s0.3-1.1 0.9-1.2c0.5-0.1 1.1 0.3 1.2 0.9z"/>
		<path class="st7" d="m90.1 143.9c-1.1 1.3-2.1 2.7-2.9 4.2s-1.4 3-1.9 4.6c-0.4 1.6-0.7 3.2-0.6 4.9 0.1 1.6 0.5 3.3 1.3 4.7 0.3 0.5 0.1 1.1-0.4 1.4s-1.1 0.1-1.4-0.4l-0.1-0.1c-0.4-0.8-0.8-1.6-0.9-2.5-0.2-0.9-0.2-2 0.1-2.9 0.6-1.9 1.9-3.3 3-4.3 1.2-1.1 2.5-1.9 3.5-2.8 1.1-0.9 1.9-2.1 2.2-3.5 0-0.2 0.1-0.3 0.3-0.4h0.1c0.3-0.2 0.7-0.1 1 0.2 0.1 0.2 0.1 0.4 0.1 0.6-0.3 1.2-0.9 2.4-1.5 3.5-0.7 1.1-1.4 2.1-2 3-0.6 1-1 1.9-1 2.9s0.3 2 0.7 3 1.1 1.9 1.7 2.9c0.7 1 1.5 2 1.9 3.3 0.4 1.2 0.8 2.7 0.5 4.2-0.2 0.8-0.5 1.5-1 2-0.4 0.5-0.9 1-1.3 1.4l-0.9-1c2.8-1.8 4.3-4.7 5-7.9s0.8-6.6 0.9-10c0-1.7 0.1-3.6 0.5-5.5s1.3-3.8 2.7-5.2c0.7-0.7 1.3-1.4 2.1-2.1 0.8-0.6 1.6-1.1 2.3-1.6s1.4-0.9 1.8-1.4 0.7-1.1 0.9-1.8c0.1-0.6 0.7-0.9 1.2-0.8s0.8 0.5 0.9 1c0.1 1.7 0.7 3.3 1.8 4.7s2.6 2.6 4.1 3.7c1.5 1.2 3.3 2.3 4.7 4 0.7 0.9 1.3 1.9 1.7 3s0.5 2.4 0.3 3.6c-0.1 1.2-0.5 2.3-0.9 3.2-0.4 1-0.9 1.8-1.3 2.7-0.9 1.7-1.6 3.2-1.7 5s0.2 3.7 0.8 5.5 1.5 3.5 2.9 4.7l-0.3 0.4c-1-0.9-1.8-2.1-1.8-3.5-0.1-1.4 0.4-2.7 1-3.9 1.2-2.4 2.9-4.4 4.3-6.4 1.2-2 1.9-4.2 2-6.3 0.1-1.1-0.1-2.2-0.6-3.2s-1.5-1.8-2.5-2.4c-0.2-0.1-0.3-0.3-0.2-0.5s0.3-0.2 0.5-0.2c1.3 0.4 2.5 1.1 3.5 2.2s1.7 2.5 1.9 3.9c0.2 1.5 0 2.9-0.5 4.3s-1.2 2.5-2.1 3.7c-1.8 2.1-3.8 3.6-5.2 5.6-0.7 1-1.3 2.1-1.4 3.3s0.6 2.3 1.5 3.1c0.1 0.1 0.1 0.3 0 0.4s-0.3 0.1-0.4 0c-1.6-1.3-2.6-3-3.5-4.8-0.8-1.8-1.5-3.7-1.7-5.7-0.1-1-0.1-2.1 0-3.2 0.2-1.1 0.4-2.1 0.7-3s0.6-1.8 0.8-2.7 0.4-1.7 0.4-2.4-0.1-1.4-0.3-2.1-0.5-1.4-0.9-2.1c-0.8-1.4-2-2.9-3.4-4.2s-2.9-2.7-4.2-4.3-2.1-3.7-2.3-5.9l2.1 0.1c-0.2 1-0.6 2-1.3 2.9-0.7 0.8-1.5 1.4-2.2 1.9s-1.4 1-1.9 1.5-0.9 1.2-1.3 1.9c-1.3 2.8-1.8 5.7-2.1 9.2s-0.6 7.1-1.8 10.6c-0.6 1.8-1.4 3.5-2.6 5s-2.8 2.7-4.5 3.4h-0.1c-0.3 0.1-0.7 0-0.9-0.4-0.1-0.2 0-0.5 0.1-0.7 0.6-1.1 1.2-2 1.2-2.9 0-0.8-0.4-1.8-0.9-2.8-0.5-0.9-1-1.9-1.6-3s-1.2-2.2-1.6-3.5-0.7-2.6-0.5-4c0.1-1.4 0.8-2.7 1.6-3.7s1.6-1.9 2.2-2.8c0.7-0.9 1.1-2 1.4-3.1l1.1 0.7h-0.1l0.3-0.4c-0.3 1.7-1 3.2-1.9 4.6s-2 2.6-3 3.7-2 2-2.5 3-0.6 2.2-0.1 3.6l-1.8 0.8c-1.3-3.5-1.6-7.3-0.6-10.9 0.5-1.8 1.3-3.4 2.2-5 1-1.5 2.1-2.9 3.4-4.2 0.2-0.2 0.6-0.2 0.8 0 0.6 0.1 0.6 0.4 0.4 0.7z"/>
		<path class="st7" d="m113.3 189.1c0.2 0.6 0.6 1.3 1 1.9 0.5 0.6 1 1.2 1.6 1.6 0.6 0.5 1.3 0.9 2 1s1.3-0.1 1.6-0.7l0.8 0.7c-0.3 0.2-0.7 0.5-1.2 0.5s-1-0.3-1.3-0.5c-0.6-0.6-0.9-1.3-1.1-2-0.1-0.3-0.2-0.7-0.3-1.1 0-0.4-0.1-0.7 0-1.3 0.2-0.8 0.6-1.5 1-2.1 0.8-1.2 1.7-2.1 2.6-3.1 0.4-0.5 0.8-0.9 1.2-1.4 0.2-0.2 0.4-0.4 0.5-0.6 0.2-0.2 0.2-0.3 0.4-0.6 1.2-2.2 2.2-4.3 2.6-6.5 0.4-2.1-0.1-4.2-1.3-6.2-0.4-0.6-0.2-1.5 0.5-1.9 0.6-0.3 1.3-0.2 1.7 0.2 1 1 1.8 2.3 2.3 3.8s0.6 3 0.4 4.5c-0.4 3-1.7 5.5-3.1 7.8-0.1 0.2-0.4 0.7-0.7 1s-0.5 0.6-0.8 0.8c-0.5 0.5-1.1 0.9-1.6 1.3-1 0.8-2.1 1.5-3 2.3-0.4 0.4-0.8 0.8-1.1 1.2-0.1 0-0.1 0.4-0.1 0.6v0.8c0.1 0.6 0.3 1.1 0.5 1.5 0.1 0.2 0.3 0.2 0.4 0.3 0.1 0 0.4-0.1 0.6-0.2 0.2-0.2 0.6-0.1 0.7 0.1s0.2 0.4 0 0.6c-0.3 0.4-0.7 0.8-1.2 1s-1 0.2-1.5 0.2c-0.9-0.1-1.7-0.6-2.5-1l-2.1-1.5c-0.7-0.6-1.3-1.1-2-1.9l-0.1-0.1c-0.4-0.5-0.3-1.3 0.2-1.7s1.3-0.3 1.7 0.2c0.5 0.2 0.6 0.4 0.7 0.5z"/>
		<path class="st7" d="m96.9 177c0.1 0.1 0.2 0.3 0.2 0.5v0.1 0.1 0.1 0.1 0.3l-0.1 0.5-0.1 1c-0.1 0.6-0.1 1.3-0.1 1.9 0 1.3-0.1 2.5 0.2 3.7 0.2 0.6 0.4 1.2 0.9 1.6 0.4 0.4 0.9 0.6 1.4 0.6 0.9 0.2 1.8 0.1 3.3 0.8 0.3 0.1 0.4 0.5 0.3 0.8 0 0 0 0.1-0.1 0.1-0.5 0.7-1.3 1.1-2.1 1.2s-1.8 0-2.6-0.6c-0.8-0.5-1.3-1.3-1.7-2s-0.6-1.4-0.9-2.1c-0.5-1.4-0.9-2.8-0.7-4.3 0.1-0.7 0.2-1.4 0.4-2.1 0.1-0.3 0.2-0.7 0.3-1l0.2-0.5 0.1-0.2 0.1-0.1c0 0.2 0.1 0.4 0.2 0.5-0.2-0.3-0.2-0.7 0-0.9s0.6-0.4 0.8-0.1z"/>
		<path d="m118.7 179.4c0.7 1.2 0.8 2.7 0.5 4-0.2 1.3-0.8 2.4-1.3 3.5-0.6 1-1.2 2-1.9 2.9s-1.4 1.7-2.1 2.5c-1.5 1.5-3.2 2.9-3.9 4.7-0.3 0.9-0.4 1.9 0 2.8s1.1 1.6 1.9 2.1c0.4 0.3 0.5 0.8 0.2 1.2-0.2 0.2-0.4 0.4-0.7 0.4h-0.2c-2 0-4.1-0.5-5.8-1.8-1.7-1.2-3.2-2.9-4-4.9-0.9-2-1-4.3-0.5-6.4 0.6-2.1 2.1-4 4.1-4.6 0.2-0.1 0.5 0 0.6 0.3v0.3c-0.6 1.9-0.9 3.4-1 4.8-0.2 1.5 0 2.9 0.4 4.4 0.4 1.4 1.1 2.9 2.2 3.9s2.5 1.9 4.2 2.2l-0.7 1.6c-0.8-0.9-1.5-1.9-2-3-0.5-1.2-0.4-2.5-0.2-3.6 0.5-2.3 1.4-4.6 2.5-6.5s2.5-3.5 3.7-5.2c0.6-0.8 1.1-1.6 1.5-2.4s0.6-1.5 0.6-2.4v-0.1c0-0.6 0.5-1 1.1-1 0.3-0.3 0.7 0 0.8 0.3z"/>
		<path d="m96.6 168.7c0.2 1 0.5 2 1.1 2.8s1.4 1.6 2.2 2.3c0.8 0.6 1.9 1.1 2.9 1.9 0.5 0.4 1 0.8 1.5 1.3s0.9 1.3 0.8 2.2c0 0.4-0.4 0.8-0.9 0.7-0.4 0-0.7-0.3-0.7-0.7v-0.1c-0.1-0.6-0.8-1.3-1.8-1.9-0.9-0.6-2-1-3.1-1.9-1-0.7-1.9-1.6-2.7-2.7s-1.2-2.4-1.4-3.7c-0.1-0.6 0.3-1.1 0.9-1.2 0.5 0 1.1 0.4 1.2 1z"/>
		<path d="m116.4 137.8c1.9 0.9 3.7 1.9 5.5 2.7 0.9 0.4 1.8 0.7 2.5 0.7h0.4 0.2c0.1 0 0.4 0 0.6-0.2s0.3-0.4 0.4-0.6l0.5 0.1c-0.2 0.5-0.6 1-1.2 1.1-0.6 0.2-1.1 0.1-1.6-0.1-1-0.3-1.9-0.8-2.8-1.3-1.7-1.1-3.3-2.4-4.8-3.6-1.4-1.1-3.1-2.2-4.6-2.7-0.8-0.2-1.3-0.2-2.2 0-0.8 0.2-1.7 0.5-2.4 0.8-0.3 0.1-0.7 0.2-1 0.1l-0.3-0.1c-1.8-0.5-4-1-5.2-0.7-0.7 0.2-1.5 0.5-2.3 1.1s-1.8 1.4-2.8 2.1c-1.9 1.3-3.8 2.6-5.8 3.8-1 0.6-2.1 1.2-3.3 1.6s-2.7 0.6-4.2-0.1l1.6-2.2c0.5 0.5 1.5 0.9 2.4 1.3 1 0.3 2.1 0.5 3.1 0.6 1.1 0.1 2.2 0 3.2-0.2s2-0.6 2.7-1.4c0.2-0.2 0.5-0.2 0.7 0 0.2 0.1 0.2 0.4 0.1 0.5-0.6 1.3-1.8 2-3 2.4s-2.4 0.7-3.7 0.7c-1.3 0.1-2.5 0-3.8-0.3s-2.5-0.7-3.7-1.8c-0.6-0.5-0.6-1.4-0.1-1.9 0.4-0.5 1.1-0.6 1.7-0.3h0.1c0.5 0.3 1.4 0.3 2.3 0.1 1-0.1 2-0.5 3-0.9 2-0.8 3.8-2.1 5.3-3.7 0.7-0.8 1.3-1.7 2-2.7s1.8-2 3.2-2.5c0.3-0.1 0.7-0.2 1.1-0.3s0.8-0.1 1.1-0.1c0.7 0 1.4 0 2 0.2 1.3 0.2 2.4 0.6 3.6 1.2h-1.3c1.1-0.3 2.1-0.5 3.3-0.6 0.6 0 1.2 0 1.8 0.1 0.7 0.1 1.2 0.3 1.8 0.5 1.1 0.5 2 1.1 2.8 1.8 0.4 0.3 0.8 0.7 1.2 1l1.1 1.1c1.3 1.5 2.6 2.9 4 4.2 0.7 0.6 1.5 1.3 2.3 1.6 0.4 0.2 0.9 0.3 1.3 0.2s0.7-0.5 0.8-0.9c0-0.1 0.2-0.2 0.3-0.2s0.2 0.1 0.2 0.3c0 0.3 0.1 0.6 0.2 0.9s0.2 0.8 0 1.2-0.7 0.7-1.1 0.9c-0.4 0.1-0.8 0.2-1.2 0.2-1.4-0.1-2.4-0.6-3.4-1-1-0.5-1.9-1.1-2.7-1.8-0.9-0.7-1.7-1.3-2.4-2.1-0.2-0.2-0.2-0.5 0-0.7 0.1-0.2 0.3-0.2 0.5-0.1z"/>
		<path d="m90.1 143.9c-1.2 1.3-2.3 2.8-3.1 4.4-0.9 1.6-1.5 3.3-1.9 5.1-0.4 1.7-0.7 3.5-0.6 5.3s0.6 3.5 1.5 5l-1.9 0.6c-0.4-1.7-0.6-3.6-0.1-5.4s1.5-3.4 2.6-4.6c1.1-1.3 2.3-2.3 3.3-3.4s1.8-2.4 2.2-3.9c0-0.2 0.1-0.3 0.3-0.4h0.1c0.3-0.2 0.7-0.1 1 0.2 0.1 0.2 0.1 0.4 0.1 0.6-0.7 2.5-2.1 4.7-3.2 6.8-0.6 1-1 2.1-1.2 3.1s-0.1 2.1 0.3 3.1c0.6 2.1 2.2 3.8 3.5 6.1 0.3 0.6 0.5 1.3 0.7 1.9 0.1 0.7 0.3 1.5 0 2.5-0.2 0.5-0.5 0.9-0.8 1.1s-0.5 0.4-0.7 0.6c-0.4 0.3-0.6 0.8-0.8 1.3l-1-0.8c1.5-0.8 2.7-2 3.5-3.3 0.8-1.4 1.3-2.9 1.8-4.5 0.4-1.6 0.6-3.2 0.8-4.9l0.3-5.1c0.1-1.7 0.2-3.7 0.8-5.6 0.3-0.9 0.7-1.9 1.3-2.7s1.2-1.6 1.9-2.3c1.3-1.4 2.8-2.5 3.9-3.7 1.2-1.1 2.1-2.4 2.3-3.9 0.1-0.6 0.7-0.9 1.2-0.8s0.8 0.5 0.9 1c0.1 1.7 0.7 3.4 1.7 4.8 1 1.5 2.3 2.8 3.7 4.1s3 2.5 4.4 4 2.7 3.6 2.8 6c0.1 1.2-0.1 2.4-0.4 3.5s-0.8 2-1.2 2.9c-0.9 1.7-1.8 3.3-2.1 4.9-0.7 3.4 0.7 7.5 3.6 9.9l-0.3 0.4c-0.9-0.8-1.8-2-1.8-3.4s0.7-2.6 1.4-3.7 1.5-2.1 2.3-3.1 1.6-1.9 2-2.8c1-1.9 1.3-4.1 1-6.3-0.2-2.2-1.1-4.6-2.7-6.4-0.1-0.2-0.1-0.4 0.1-0.5 0.1-0.1 0.4-0.1 0.5 0 1 0.8 1.9 1.8 2.7 2.9s1.4 2.3 1.9 3.6c0.9 2.6 0.5 5.8-1.1 8.1-0.8 1.3-1.9 2.1-2.8 2.9-1 0.8-1.9 1.6-2.8 2.4-0.8 0.9-1.6 1.8-1.7 3-0.1 1.1 0.6 2.2 1.5 3 0.1 0.1 0.1 0.3 0 0.4s-0.3 0.1-0.4 0c-1.5-1.2-2.8-2.8-3.7-4.6s-1.5-3.8-1.6-5.9c0-2.2 0.7-4.2 1.2-6 0.6-1.8 1-3.4 0.7-4.8-0.2-1.4-0.8-2.8-1.7-4.4-0.9-1.5-2.1-3-3.4-4.4s-2.7-2.9-3.8-4.6c-1.2-1.7-1.9-3.8-2.1-5.9l2.1 0.1c-0.2 1-0.5 2-1 2.8s-1.1 1.6-1.7 2.3c-1.2 1.4-2.6 2.5-3.4 3.8-0.8 1.4-1.3 2.8-1.7 4.3-0.2 0.7-0.3 1.5-0.5 2.3-0.1 0.8-0.2 1.6-0.3 2.5-0.2 1.7-0.3 3.5-0.6 5.3s-0.7 3.6-1.4 5.4c-0.6 1.8-1.6 3.5-3 4.8-1.3 1.4-2.9 2.5-4.5 3.3-0.3 0.2-0.8 0.1-0.9-0.3-0.1-0.2-0.1-0.3-0.1-0.5 0.2-0.7 0.5-1.3 0.9-1.9 0.2-0.3 0.4-0.5 0.6-0.8 0.1-0.2 0.1-0.3 0.1-0.4 0-0.2-0.2-0.6-0.5-1.1l-0.8-1.4c-0.5-1-1.1-2-1.7-3.2-0.6-1.1-1.2-2.4-1.4-3.7-0.3-1.3-0.3-2.8 0-4.1s1-2.5 1.7-3.6c1.4-2.1 2.9-4 3.3-6.3l1.1 0.7h-0.1l0.3-0.4c-0.3 1.7-0.9 3.3-1.7 4.9-0.8 1.5-1.8 2.9-2.7 4.1-0.9 1.3-1.7 2.4-2.3 3.6s-0.9 2.6-0.7 4.1v0.2c0 0.5-0.4 1-0.9 1.1-0.4 0-0.8-0.2-1-0.6-0.8-1.9-1.3-3.8-1.4-5.8s0-4 0.5-5.9 1.3-3.7 2.3-5.4 2.3-3.2 3.7-4.5c0.2-0.2 0.6-0.2 0.8 0.1 0.2 0.2 0.2 0.6 0 0.8z"/>
		<path d="m113.3 190.7c0.1 0.5 0.5 1.1 1 1.6s1.1 0.9 1.7 1.2 1.3 0.5 2 0.4 1.2-0.4 1.5-1l0.8 0.7c-0.3 0.2-0.6 0.5-1.1 0.6-0.2 0.1-0.5 0.1-0.8 0s-0.5-0.3-0.6-0.5c-0.6-0.7-0.7-1.5-0.7-2.2 0-0.4 0-0.8 0.1-1.2s0.3-0.8 0.4-1.1c0.3-0.7 0.8-1.3 1.2-1.8 0.8-1.1 1.7-2 2.5-2.9 0.4-0.4 0.7-0.8 0.9-1.2 0.3-0.5 0.6-1 0.8-1.6 1-2.1 1.8-4.4 2-6.6s-0.2-4.3-1.4-6.2c-0.4-0.6-0.2-1.5 0.5-1.9 0.6-0.3 1.3-0.2 1.7 0.2 1 1.1 1.8 2.4 2.2 3.8 0.5 1.4 0.6 2.9 0.6 4.3-0.1 1.4-0.3 2.9-0.7 4.2s-0.9 2.6-1.6 3.8c-0.3 0.6-0.7 1.2-1 1.8-0.5 0.7-1 1.3-1.5 1.7-1.1 0.9-2.1 1.6-3.1 2.4-0.9 0.7-1.8 1.4-1.9 2.4-0.1 0.5 0 1.1 0.1 1.4l0.2 0.2c0.2 0 0.4-0.1 0.6-0.3s0.6-0.1 0.7 0.1 0.1 0.4 0 0.6c-0.5 0.8-1.4 1.3-2.3 1.4s-1.8-0.1-2.6-0.3c-0.8-0.3-1.6-0.6-2.3-1.1s-1.4-1-2.1-1.8l-0.1-0.1c-0.4-0.5-0.4-1.3 0.2-1.7s1.3-0.4 1.7 0.2c0.2 0.1 0.3 0.3 0.4 0.5z"/>
		<path d="m122.3 140.7c1.8 1.2 3.5 2.8 4.7 4.6 1.3 1.8 2.1 3.9 2.6 6.1l0.2 0.8c0 0.3 0.1 0.6 0.1 0.9v1.7c0 1.1-0.1 2.1-0.1 3s-0.1 1.7-0.1 2.5c0 0.2 0.1 0.4 0.1 0.6l0.3 0.6c0.1 0.2 0.3 0.3 0.5 0.5l0.6 0.3-0.2 0.6c-0.7-0.2-1.4-0.4-2.1-0.7s-1.5-0.5-2.2-1.3l-0.2-0.2c-0.3-0.4-0.3-0.9 0-1.2s0.9-0.3 1.2 0c0.2 0.2 0.3 0.5 0.2 0.7-0.1 0.5 0.5 1.1 1.1 1.4s1.3 0.5 2 0.6c0.2 0 0.3 0.2 0.3 0.4s-0.2 0.3-0.4 0.3c-0.3-0.1-0.5-0.1-0.8-0.2s-0.6-0.2-0.9-0.3-0.6-0.3-0.8-0.5-0.5-0.4-0.7-0.7c-0.9-1.1-1.1-2.4-1.1-3.5 0-2.3 0.8-4.3 0.7-6-0.1-1.9-0.9-3.7-1.9-5.3-1.1-1.6-2.6-2.9-4.2-3.9-0.5-0.3-0.7-0.9-0.4-1.4s1-0.7 1.5-0.4z"/>
		<path d="m100.3 174.7c1.2 1.4 1.7 3.1 2 4.9 0.1 0.9 0.1 1.8-0.2 2.8-0.3 0.9-0.9 1.9-1.9 2.5-0.2 0.1-0.5 0.2-0.7 0.3-0.3 0.1-0.5 0.1-0.8 0.1-0.5 0.1-1.1 0.1-1.6-0.1-0.6-0.2-1.1-0.7-1.4-1.2s-0.4-1-0.4-1.5c-0.1-1.9 0.2-3.5 0.4-5.1 0-0.4 0.4-0.7 0.8-0.6 0.2 0 0.4 0.1 0.5 0.3 0.1 0.1 0.2 0.3 0.2 0.4 0 0.2-0.1 0.4 0 0.3v0.1l-0.1 0.1-0.1 0.3-0.2 0.5c-0.1 0.3-0.2 0.7-0.3 1-0.2 0.7-0.3 1.4-0.3 2.1s0 1.4 0.2 2c0.1 0.6 0.3 1.2 0.6 1.8 0.5 1.2 1.2 2.2 2.1 2.9s2 1.1 3.5 1.2c0.3 0 0.5 0.3 0.5 0.5s-0.1 0.3-0.2 0.4c-1.4 0.9-3.5 1.1-5.1 0.1-1.6-0.9-2.7-2.6-3.2-4.2-0.2-0.8-0.4-1.7-0.4-2.5s0.1-1.7 0.3-2.4c0.2-0.8 0.4-1.5 0.6-2.3 0.1-0.4 0.3-0.7 0.4-1.1l0.2-0.5 0.1-0.3v-0.1c0-0.1-0.1 0.1 0 0.3 0 0.2 0.1 0.3 0.2 0.4l1.3-0.4c-0.2 1.6-0.4 3.3-0.2 4.7 0.1 0.3 0.2 0.6 0.3 0.8s0.2 0.3 0.4 0.3c0.4 0.1 1.2 0 1.6-0.2 1-0.5 1.3-1.9 1.2-3.4 0-0.7-0.2-1.5-0.4-2.2s-0.5-1.4-0.9-2c-0.2-0.3-0.1-0.7 0.2-0.9 0.2-0.4 0.6-0.4 0.8-0.1z"/>
		<path class="st8" d="m131.8 97.2l-0.4-0.2c-2.7-1.3-4.9-1.9-7-1.9-0.9 0-1.8 0.1-2.6 0.3-0.6 0.2-1.2 0.3-1.7 0.3-2 0-3.1-1.2-4-2.2-1.2-1.3-1.6-2.8-1.9-4.2-0.3-1-0.5-2-1-2.6-1.2-1.6-3-2.7-4.8-3.6-3.4-1.9-6.1-4.2-9-6.7l-0.3-0.3c-0.7-0.6-1.2-1.8-0.8-2.8 2-6.5 2.7-12.7 2-18.8-0.8-3-2-5.1-3.8-6.8-0.5-0.5-0.7-1.2-0.4-1.9s1-1.2 1.8-1.2h0.3 0.1c0.7 0.1 1.4 0.2 2 0.3 1.6 0.2 3.3 0.4 4.9 0.6h0.6c1.4 0 2.7-0.5 4.2-1.6 3.1-2.3 5.6-5.5 7.7-9.9 0.3-0.7 1.1-1.1 2-1.1 1 0 1.8 0.5 2.1 1.3 2.6 6.6 10.2 11.2 18.6 11.2 2.2 0 4.3-0.3 6.2-1l0.3-0.1h0.4c0.9 0 1.6 0.6 1.9 1.2 0.4 0.7 0.4 1.4 0 2-2.2 3.7-3 8.5-2.4 14.5 0.5 4.8 2.2 11 7.6 13.7 1 0.5 1.6 1.4 1.7 1.6l0.6 1.1-1 0.9c-0.1 0.1-0.7 0.6-1.7 0.9-5 1.5-8.3 5.2-10.4 11.6-0.1 0.2-0.1 0.4-0.2 0.6l-1.1 2.5-1-1.1c-0.9 0.3-2.2 0.9-3.3 1.3-4.6 1.8-5.1 2-5.6 2h-0.6z"/>
		<path d="m119.6 34.7c0.2 0 0.5 0.1 0.6 0.3 3 7.8 11.8 12.3 20.1 12.3 2.3 0 4.6-0.3 6.7-1.1h0.1c0.3 0 0.6 0.5 0.5 0.7-2.7 4.6-3.2 10.2-2.7 15.5 0.6 6 2.8 12.2 8.5 15 0.6 0.3 0.9 0.9 0.9 0.9s-0.4 0.4-1 0.6c-6.3 1.9-9.6 6.8-11.5 12.6-0.1 0.2-0.2 0.4-0.2 0.6-0.5 0-8.9 3.5-9.4 3.5-2.5-1.2-5.1-2-7.7-2-1 0-2 0.1-3 0.4-0.5 0.1-0.9 0.2-1.3 0.2-1.3 0-1.9-0.7-2.9-1.7-1.6-1.7-1.3-4.6-2.7-6.6-1.4-1.8-3.4-3-5.4-4.1-3.4-1.8-6.1-4.2-9-6.7-0.2-0.2-0.4-0.7-0.3-1 2-6.4 2.8-12.9 2.1-19.6-0.8-3-2-5.6-4.3-7.7-0.1-0.1 0.1-0.3 0.2-0.3h0.1c2.4 0.3 4.7 0.7 7.1 0.9h0.8c1.9 0 3.6-0.8 5.2-2 3.7-2.8 6.2-6.4 8.2-10.5-0.1-0.2 0.1-0.2 0.3-0.2m24.9 25.6s0-0.1 0.1-0.1c-0.1 0-0.1 0-0.1 0.1m0.8 5.6c0-0.2-0.1-0.4-0.1-0.5 0 0.2 0 0.3 0.1 0.5m-25.7-34.6c-1.5 0-2.8 0.8-3.5 2.1-2 4.1-4.3 7.1-7.2 9.2-1.2 0.9-2.2 1.3-3.2 1.3h-0.4l-4.8-0.6c-0.7-0.1-1.4-0.2-2.1-0.3h-0.6c-1.5 0-2.8 0.9-3.3 2.3-0.5 1.3-0.2 2.8 0.9 3.8 1.5 1.4 2.6 3.3 3.3 5.9 0.6 5.9-0.1 11.8-2 18.1-0.5 1.7 0.3 3.6 1.3 4.5l0.3 0.3c2.9 2.5 5.7 4.9 9.3 6.9 1.6 0.9 3.3 1.9 4.3 3.2 0.3 0.4 0.5 1.2 0.7 2 0.4 1.5 0.8 3.3 2.3 4.9 1.1 1.1 2.6 2.7 5.2 2.7 0.7 0 1.4-0.1 2.1-0.3s1.4-0.3 2.1-0.3c1.8 0 3.8 0.5 6.3 1.7l0.7 0.3h0.8c0.9 0 1.3-0.2 6.2-2.1 0.7-0.3 1.5-0.6 2.3-0.9l2 2.2 2-4.8 0.1-0.1c0.1-0.2 0.2-0.4 0.3-0.7 1.9-5.8 4.9-9.2 9.3-10.5 1.3-0.4 2.1-1.1 2.3-1.3l1.9-1.8-1.2-2.3c-0.2-0.4-0.9-1.6-2.4-2.3-2.6-1.3-5.9-4.5-6.7-12.4-0.5-5.5 0.2-10.1 2.2-13.4 0.7-1.1 0.7-2.5 0-3.7s-2-2-3.4-2c-0.4 0-0.8 0.1-1.1 0.2-1.7 0.6-3.6 0.9-5.6 0.9-9 0-15.1-5.3-17-10.1-0.6-1.6-2-2.6-3.7-2.6z"/>
		<polygon class="st9" points="148.8 136.1 124.4 79.9 134.9 74.3 196.4 194.3 201.4 206.9 190.3 209.4"/>
		<path d="m134.1 77l60.5 118.1 4.1 10.4-7.4 1.6-40.7-71.9-23.6-54.4 7.1-3.8m1.7-5.4l-3.6 1.9-7.2 3.8-3.3 1.7 1.5 3.4 23.6 54.4 0.1 0.2 0.1 0.2 40.7 71.9 1.5 2.6 2.9-0.6 7.4-1.6 4.6-1-1.7-4.3-4.1-10.4-0.1-0.2-0.1-0.2-60.5-118.2-1.8-3.6z"/>
	<path class="st9" d="m145.4 66.5h0.2c0 0.2 0.1 0.4 0.1 0.6l-0.3-0.6z"/>
	<path class="st9" d="m65.2 77c-0.1-0.2-0.3-0.5-0.4-0.7 0.2 0.3 0.3 0.5 0.4 0.7z"/>
	<path class="st6" d="m153.6 116.9c-0.1-0.2-0.2-0.3-0.3-0.5 0.1 0.2 0.2 0.3 0.3 0.5z"/>
	<path class="st9" d="m150.1 115.1c0-0.1-0.1-0.3-0.1-0.4 0 0.1 0 0.3 0.1 0.4z"/>
	<path class="st8" d="m110.6 82.2c0.2 0.1 0.4 0.2 0.6 0.2-0.2-0.1-0.4-0.2-0.6-0.2z"/>
	<path class="st9" d="m63.6 75.5c-0.1 0-0.1-0.1-0.2-0.1 0.1 0 0.2 0 0.2 0.1z"/>
	<path class="st10" d="m129.3 139.5l-0.1 0.1v-0.1s0.1 0.1 0.1 0v0z"/>
	<path class="st9" d="m61.4 74.3c0.1 0.1 0.1 0.1 0 0 0.1 0.1 0.1 0 0 0z"/>
		<path class="st6" d="m122.5 79.9c-8.4 0-15.3-7-15.3-15.5s6.9-15.5 15.3-15.5 15.3 7 15.3 15.5-6.9 15.5-15.3 15.5zm-7.3-8.7c1.9 2 4.3 3 7.5 3.1l0.4-0.1c0.3-0.1 0.7-0.1 1.1-0.2-0.9-1.9-1.9-3.9-3-5.9-1.1 0.5-2.1 1-3.1 1.6-1.1 0.5-2 1-2.9 1.5zm10.9-5.5c0.5 1.1 1.1 2.2 1.7 3.3 0.4 0.8 0.9 1.7 1.3 2.5 2-1.9 2.9-4.2 3-7.4v-0.3c0-0.3-0.1-0.7-0.2-1.1-2.1 1-4 2-5.8 3zm-13.5-0.5c0 0.3 0.1 0.6 0.2 1 2.1-1 4.1-2 5.9-3-0.5-1.1-1.1-2.2-1.6-3.3-0.4-0.9-0.9-1.7-1.3-2.6-2.1 2-3.1 4.3-3.1 7.6l-0.1 0.3zm8-10.2c0.9 1.9 1.9 3.9 3 5.8 1.7-0.8 3.6-1.8 5.8-2.9-2-2-4.3-3-6.9-3-0.6-0.1-1.3-0.1-1.9 0.1z"/>
		<path d="m122.5 50.3c7.7 0 13.9 6.3 13.9 14.1s-6.2 14.1-13.9 14.1-13.9-6.3-13.9-14.1 6.2-14.1 13.9-14.1m1 12h0.2l7.2-3.6c0.2-0.1 0.3-0.5 0.5-0.8-0.3-0.2-0.5-0.5-0.8-0.7-2.3-2.4-5-3.7-8.1-3.7-1 0-2 0.1-3 0.4-0.2 0.1-0.6 0.7-0.5 1 1.2 2.4 2.4 4.8 3.7 7.2 0 0 0.5 0.2 0.8 0.2m-11.1 5.6h0.1c2.4-1.2 4.9-2.4 7.3-3.7 0.3-0.1 0.5-0.9 0.3-1.1-1.1-2.4-2.4-4.7-3.5-7.1-0.2-0.4-0.4-0.6-0.6-0.6s-0.4 0.1-0.6 0.3c-2.7 2.3-4.1 5.2-4.2 9.3 0.1 0.5 0.2 1.5 0.5 2.5-0.1 0.2 0.4 0.4 0.7 0.4m16.3 5.6c0.2 0 0.4-0.1 0.6-0.3 2.7-2.3 4-5.1 4.1-9.1-0.1-0.5-0.2-1.5-0.5-2.5-0.1-0.2-0.6-0.5-0.9-0.5h-0.1c-2.4 1.1-4.7 2.3-7.1 3.6-0.3 0.1-0.5 0.8-0.3 1.1 1.1 2.4 2.4 4.7 3.5 7.1 0.3 0.4 0.5 0.6 0.7 0.6m-6 2.2c0.6-0.1 1.7-0.2 2.7-0.5 0.2-0.1 0.5-0.7 0.4-0.9-1.2-2.4-2.4-4.9-3.7-7.3-0.1-0.2-0.5-0.3-0.8-0.3h-0.2c-2.4 1.2-4.9 2.5-7.3 3.7-0.7 0.4-0.7 0.6-0.2 1.2 2.3 2.6 5.2 3.9 9.1 4.1m-0.2-28.2c-9.2 0-16.7 7.6-16.7 16.9s7.5 16.9 16.7 16.9 16.7-7.6 16.7-16.9-7.5-16.9-16.7-16.9zm1.7 11.4c-0.5-0.9-0.9-1.8-1.4-2.7 1.5 0.1 2.8 0.5 4.1 1.4-1 0.4-1.9 0.9-2.7 1.3zm-10.3 5.2c0.1-1.7 0.6-3.1 1.4-4.3 0.1 0.3 0.3 0.5 0.4 0.8 0.3 0.7 0.7 1.4 1 2.1l-2.8 1.4zm14 2.2c0.9-0.5 1.8-0.9 2.7-1.4-0.1 1.6-0.6 3-1.3 4.1l-0.3-0.6c-0.4-0.7-0.7-1.4-1.1-2.1zm-10.2 5.2c0.3-0.2 0.7-0.3 1-0.5 0.6-0.3 1.3-0.6 1.9-1 0.5 0.9 1 1.9 1.5 2.8-1.8-0.1-3.2-0.6-4.4-1.3z"/>
	<path class="st6" d="m61 72.6c-0.1-0.1-0.1-0.1 0 0-0.1-0.1 0-0.1 0 0v0z"/>
	<path class="st10" d="m128.6 159.9h0.2c-0.1 0-0.1 0.1-0.2 0.1 0.1 0 0.1 0 0-0.1z"/>
	<path class="st11" d="m125.4 153.5l0.1 0.1-0.1-0.1z"/>
	<path class="st11" d="m125.2 153l0.1 0.1c-0.1 0-0.2 0-0.1-0.1z"/>
	<polygon class="st11" points="125.8 154.4 125.9 154.4 125.9 154.5 125.8 154.5"/>
	<path class="st11" d="m125.6 153.9s0.1 0 0.1 0.1v0.1c0-0.1-0.1-0.1-0.1-0.2z"/>
	<path class="st12" d="m35 171.8c-0.1 0.1-0.1 0.2-0.2 0.3 0.1-0.1 0.1-0.2 0.2-0.3z"/>
	<path class="st12" d="m131.8 72.8c0.1-0.1 0.1-0.3 0.2-0.4-0.1 0.1-0.1 0.2-0.2 0.4z"/>
	<path class="st12" d="m132.2 58.2c0.1 0 0.1 0 0 0 0.1 0 0.1 0 0 0z"/>
	<path class="st12" d="m131.8 72.8z"/>
	<path class="st12" d="m130.4 79.4l-0.1 0.1c0.1 0 0.1 0 0.1-0.1v0z"/>
	<path class="st12" d="m86.1 148.3c0 0.1-0.1 0.2-0.1 0.2 0-0.1 0-0.1 0.1-0.2z"/>
		<path class="st6" d="m179.1 172.2c0.7 0.5 1 1.2 1.4 1.9 0.3 0.7 0.7 1.4 1 2.1l1.8 4.2-0.3 0.1c-0.8-1.3-1.6-2.6-2.3-3.9-0.4-0.7-0.7-1.3-1.1-2-0.3-0.7-0.7-1.3-0.7-2.2l0.2-0.2z"/>
		<path class="st6" d="m136.7 90.7c0.4 0.6 0.4 1.2 0.4 1.8v1.8c-0.1 1.2-0.1 2.4-0.3 3.6h-0.3c-0.2-1.2-0.3-2.4-0.4-3.6 0-0.6-0.1-1.2-0.1-1.8s-0.1-1.2 0.3-1.8h0.4z"/>
		<path class="st6" d="m133.8 96.8c-0.5-1.2-1.1-2.4-1.6-3.7-0.5-1.2-1.1-2.4-1.7-3.6l-0.4-0.9 0.9-0.2 3.7-0.9 0.1 0.3-3.1 2.3 0.5-1.1 0.9 3.9c0.3 1.3 0.6 2.6 1 3.9h-0.3z"/>
		<path class="st6" d="m134.9 89.6c0.4 0.3 0.4 0.6 0.4 0.9s0 0.6-0.1 0.9c-0.1 0.6-0.1 1.3-0.3 1.9h-0.3c-0.2-0.6-0.2-1.3-0.3-1.9v-0.9c0-0.3-0.1-0.6 0.4-0.9h0.2z"/>
		<path class="st6" d="m197.4 204.2c-3.8-4.7-6.3-10.1-9-15.4s-5.3-10.6-7.9-15.9-5.2-10.6-7.7-16c-1.3-2.7-2.5-5.4-3.7-8.1s-2.5-5.4-3.7-8.1l0.7-0.3c1.4 2.6 2.9 5.2 4.3 7.8l4.2 7.8c2.8 5.2 5.5 10.5 8.2 15.8s5.4 10.5 8 15.8 5.4 10.5 6.9 16.4l-0.3 0.2z"/>
		<path class="st6" d="m161.1 131.7c-1.7-1.8-3-3.7-4.2-5.8-1.2-2-2.2-4.2-3.3-6.2-2.2-4.2-4.3-8.4-6.4-12.6s-4.2-8.4-6.2-12.7c-1-2.1-2-4.3-3-6.4s-2-4.3-2.9-6.4l0.7-0.4c1.2 2 2.4 4.1 3.5 6.1 1.2 2.1 2.3 4.1 3.4 6.2 2.3 4.1 4.5 8.3 6.7 12.4 2.2 4.2 4.4 8.3 6.5 12.5 1.1 2.1 2.2 4.2 3.2 6.3 0.9 2.2 1.8 4.4 2.3 6.8l-0.3 0.2z"/>
		<polygon class="st11" points="198 205.4 192.3 207.6 191.4 208 190.9 207.1 159.7 152 158.9 150.5 159.6 149.6 165.7 140.6 165.9 140.7 165.1 151.6 164.9 149.2 192.9 206 191.5 205.4 197.5 203.7"/>
		<path class="st11" d="m161.2 132.5l-9.2 0.3h-0.9l-0.5-1.1-4.9-9.7-0.9-1.8 1.2-0.7 2.7-1.8c0.4-0.3 0.8-0.7 1.3-1 0.4-0.4 0.8-0.7 1.1-1.2h0.3c0.1 0.6 0.1 1.2 0.1 1.8s-0.1 1.2-0.2 1.8c-0.2 1.2-0.4 2.3-0.6 3.5l0.3-2.5 2.7 10.5-1.4-1 9.1 1.3-0.2 1.6z"/>
		<path class="st2" d="m154.2 153.4c14-13.1 11.1-18.3 11.1-18.3-7-2.6-23-2-31.7 2.1"/>
		<path d="m154 153.1c0.6-0.8 1.1-1.5 1.7-2.2s1.1-1.5 1.7-2.2c1.1-1.5 2.1-3 3.1-4.5 0.9-1.5 1.8-3 2.4-4.6 0.3-0.8 0.5-1.5 0.6-2.2 0.1-0.4 0.1-0.7 0.1-1v-0.4-0.1l0.1 0.1 1.1 1c-2.2-0.7-4.8-1.1-7.3-1.3-2.6-0.2-5.2-0.2-7.8-0.2-5.2 0.2-10.5 0.7-15.5 2.1l-0.6-1.2c2.3-1.6 5-2.6 7.6-3.4 2.7-0.8 5.4-1.3 8.2-1.6s5.6-0.4 8.4-0.2 5.6 0.6 8.5 1.6l0.7 0.3 0.4 0.7c0 0.1 0.1 0.2 0.1 0.3l0.1 0.2c0 0.1 0.1 0.2 0.1 0.3 0 0.2 0.1 0.4 0.1 0.6 0.1 0.4 0.1 0.7 0.1 1s0 0.6-0.1 0.9c0 0.3-0.1 0.6-0.2 0.9-0.2 1.1-0.7 2.1-1.1 3-0.9 1.9-2.1 3.4-3.3 4.9-1.3 1.5-2.6 2.8-4.1 4.1-1.4 1.3-2.9 2.4-4.5 3.5l-0.6-0.4z"/>
		<path class="st4" d="m163.4 136.7c-2.9-0.2-5.7 0.1-8.5 0.5s-5.6 0.9-8.4 1.4-5.6 1.2-8.3 1.8l-8.4 1.7-0.6-1.1c1.1-1.1 2.4-1.9 3.8-2.7 1.3-0.8 2.7-1.3 4.2-1.9 2.8-1 5.8-1.6 8.8-2s6-0.6 9-0.4 6.1 0.6 8.9 2l-0.5 0.7z"/>
		<path class="st1" d="m110.9 71.3c-0.6-0.9-1.1-1.8-1.4-2.8s-0.5-2.1-0.6-3.1c-0.1-1.1 0-2.1 0.1-3.2 0.2-1.1 0.6-2 1-3l0.3 0.1c-0.4 1-0.7 1.9-0.8 2.9s-0.1 2 0 3c0.2 2 0.9 3.9 1.6 5.9l-0.2 0.2z"/>
		<path class="st1" d="m118 65.8c0.3-0.3 0.6-0.5 0.9-0.8 0.3-0.2 0.6-0.5 1.1-0.4l0.2 0.3c-0.2 0.5-0.6 0.5-0.9 0.7s-0.7 0.3-1.1 0.4l-0.2-0.2z"/>
		<path class="st1" d="m129.2 60.2c0.3-0.3 0.6-0.5 0.9-0.8 0.3-0.2 0.6-0.5 1.1-0.4l0.2 0.3c-0.2 0.5-0.6 0.5-0.9 0.7s-0.7 0.3-1.1 0.4l-0.2-0.2z"/>
		<path class="st1" d="m120.6 63.7c-0.2-0.2-0.2-0.4-0.3-0.7s-0.2-0.6-0.3-0.8l-0.7-1.7 0.3-0.2c0.4 0.5 0.7 1 1 1.6 0.1 0.3 0.3 0.6 0.4 0.9 0.1 0.2 0.1 0.3 0.1 0.5s0 0.4-0.2 0.6l-0.3-0.2z"/>
		<path class="st1" d="m126.2 75.3c-0.1-0.3 0.1-0.4 0.1-0.6 0.1-0.1 0.1-0.3 0-0.4-0.1-0.3-0.4-0.6-0.5-1.1l0.3-0.1c0.2 0.3 0.6 0.5 0.9 1 0.1 0.3 0.1 0.6 0 0.8-0.1 0.3-0.2 0.5-0.5 0.5l-0.3-0.1z"/>
		<path class="st1" d="m132.1 58.1c-0.2-0.1-0.3-0.3-0.5-0.6-0.2-0.2-0.4-0.5-0.6-0.7l-1.3-1.4 0.2-0.2c0.5 0.3 1 0.7 1.5 1.2l0.7 0.7c0.1 0.1 0.2 0.3 0.3 0.4 0.1 0.2 0.2 0.4-0.1 0.7l-0.2-0.1z"/>
		<path class="st1" d="m113.3 54.7c0.2-0.6 0.7-0.9 1.1-1.3s0.9-0.7 1.4-1c1-0.6 2.1-0.9 3.2-1.1l0.1 0.3-1.5 0.6c-0.5 0.2-0.9 0.5-1.4 0.8-0.4 0.3-0.9 0.6-1.3 1s-0.8 0.7-1.4 0.9l-0.2-0.2z"/>
		<path class="st1" d="m135 68.2c0 0.6-0.1 1.1-0.4 1.7-0.2 0.5-0.5 1-0.8 1.5-0.6 1-1.4 1.8-2.4 2.5l-0.2-0.2c0.4-0.4 0.7-0.8 1.1-1.3 0.3-0.4 0.6-0.9 0.9-1.4s0.5-1 0.7-1.5 0.4-1 0.8-1.5l0.3 0.2z"/>
		<path d="m125.3 80.3c1.6-0.3 3.3-0.8 4.8-1.5s2.9-1.6 3.9-2.7l0.1-0.1c0.6-0.7 1.7-0.7 2.4-0.1 0.5 0.5 0.7 1.2 0.5 1.8-0.4 1.2-1.2 2.3-2.1 3.1s-1.9 1.5-2.9 2-2.1 0.9-3.3 1.1c-1.1 0.2-2.3 0.3-3.6 0.1-1-0.2-1.7-1.1-1.5-2.1 0.1-0.8 0.7-1.4 1.5-1.5l0.2-0.1z"/>
		<path d="m127.2 84c1.6-0.4 3.4-1 4.9-1.8 0.8-0.4 1.6-0.8 2.2-1.3 0.7-0.5 1.3-1 1.8-1.5l0.3-0.3c0.9-0.8 2.2-0.8 3 0.1 0.6 0.6 0.7 1.4 0.5 2.1-0.4 1.4-1.3 2.6-2.2 3.5-0.9 1-2 1.7-3.1 2.3s-2.3 1-3.6 1.3c-1.2 0.3-2.5 0.4-3.9 0.2-1.3-0.2-2.1-1.4-1.9-2.6 0.1-0.9 0.8-1.6 1.7-1.9l0.3-0.1z"/>
		<path class="st12" d="m125.3 81.2c0.9-0.1 1.8-0.2 2.7-0.5s1.8-0.6 2.6-1c1.7-0.8 3.2-1.9 4.2-3.3 0.3-0.4 0.8-0.5 1.2-0.2 0.3 0.2 0.5 0.7 0.3 1.1-0.5 1.1-1.2 2-2 2.7s-1.8 1.3-2.7 1.8c-1 0.5-2 0.8-3.1 1.1-1.1 0.2-2.2 0.3-3.3 0.2-0.5-0.1-0.9-0.5-0.8-1 0-0.5 0.4-0.9 0.9-0.9z"/>
		<path class="st12" d="m126.8 85.2c1.9-0.2 3.9-0.8 5.6-1.7 1.8-0.9 3.4-2.1 4.4-3.6 0.3-0.4 0.9-0.6 1.3-0.3s0.5 0.7 0.4 1.1c-0.5 1.2-1.2 2.1-2.1 2.9s-1.9 1.5-2.9 2-2.1 0.9-3.3 1.2c-1.1 0.3-2.3 0.4-3.5 0.3-0.6 0-1-0.5-0.9-1.1 0.1-0.3 0.5-0.7 1-0.8z"/>
		<path class="st6" d="m58.1 144.3c-1.4 0-2.5-0.6-3.4-1.6-1.9-2.5-1.5-7-1-9.3 1.2-4.9 4.6-9.1 7.9-13.2 1.3-1.6 2.5-3 3.5-4.5 1.4-2 3-4.3 3.8-6.8 0.5-1.6 0.6-3.4 0.6-5.3 0-1.1 0-2.2 0.2-3.3 0.1-0.5 0.1-1.1 0.2-1.8 0.1-0.4 0.1-0.9 0.2-1.4l-0.2 0.2c-1.1 1.3-2.7 2-4.7 2-2.9 0-5.8-1.4-7.4-2.8-1.2-1.1-2.2-2.4-2.9-3.9-0.5-1.2-0.5-2.6-0.5-3.8v-0.7l-0.1-4.2 2.9 2.9 0.4 0.4c0.9 1 1.6 1.6 2.1 2-0.1-0.3-0.2-0.7-0.3-0.9-0.7-3.6-1.3-7.3-1.8-10.9-0.1-0.6-0.2-1.3-0.3-2.1-0.5-3.1-1.2-7 0.4-9.9 2.3-4.3 7.4-5.9 11.6-7.2 0.9-0.3 1.9-0.6 2.7-0.9 1.5-0.6 3.3-1.2 5.1-1.4h0.8c4.5 0 9.1 3.3 12.2 6 2.3 2.1 4.3 4.5 6.1 6.8 0.8 1 1.6 2 2.5 3 2.5 2.9 5.4 5.7 8.2 8.3 1.6 1.6 3.3 3.2 4.9 4.8 2.5 2.6 4.6 5 6.3 7.3 0.4 0.6 0.8 1.3 1.2 1.9 0.8 1.4 1.7 2.8 2.8 3.3 1.3 0.6 2.8 0.8 4.3 1.2 1.6 0.3 3.3 0.7 4.9 1.3 4.6 1.9 8.1 3.7 11.2 5.7 0.3 0.2 0.6 0.4 1 0.6 3 1.9 7.5 4.8 8 8.4 0.5 3.3-2.8 5.8-5.8 6.8-1.9 0.7-3.7 0.8-5.6 0.9-0.5 0-1 0.1-1.5 0.1h-0.4l-0.2 0.3h-0.8l-1.2 0.5-0.1-0.5h0.1l-0.3-1.4c0-0.3 0-0.6 0.1-0.8-0.3-2.7-0.9-5.1-1.8-7.2-0.2 0-0.4 0.1-0.6 0.1-1.2 0.3-2.9 0.6-4.9 1-3.9 0.8-9 1.8-13.3 2.7-4.6 0.9-8.6 1.7-9.3 1.9-13.9 3.3-21.1 8.8-28.2 14.2-5.3 4-10.3 7.9-17.6 10.4-0.7 0.6-1.3 0.8-2 0.8z"/>
		<path d="m78.1 57.8c4 0 8.3 3.1 11.1 5.6 3.2 2.9 5.7 6.4 8.5 9.7 4.1 4.7 8.8 8.8 13.2 13.2 2.2 2.2 4.3 4.6 6.2 7.2 1.4 1.9 2.4 4.8 4.7 5.8 2.9 1.2 6.3 1.3 9.3 2.5 3.8 1.5 7.5 3.3 10.9 5.6 2.4 1.6 7.8 4.6 8.3 7.9 0.3 2.4-2.7 4.3-4.7 5.1-2.1 0.8-4.4 0.7-6.6 0.9-0.7 0.1-1.1 0.1-1.2 0.2-0.7-6.2-2.6-9.4-2.6-9.6 0 0.2-27.4 5.5-29.4 6-24.6 5.8-29.3 18.9-45.9 24.6-0.6 0.2-1.1 0.3-1.5 0.3-3.7 0-3.4-6-2.8-8.8 1.5-6.3 7.4-11.8 11.1-17 1.6-2.2 3.2-4.7 4-7.3 0.9-2.8 0.5-6.1 0.8-9s1.5-7.5-0.6-10c0 0-1.7 5.4-2.1 5.8-0.8 1-2.1 1.4-3.4 1.4-2.3 0-4.9-1.2-6.3-2.4-1-0.9-1.9-2.1-2.4-3.3-0.5-1.1-0.4-2.7-0.4-3.9 0.6 0.6 3.1 3.5 4.6 3.5 0.4 0 0.7-0.2 0.9-0.6 0.4-0.7-0.4-2.2-0.5-2.9-0.7-3.6-1.3-7.2-1.7-10.8-0.4-3.3-1.7-7.9-0.1-11 2.4-4.5 9-5.7 13.4-7.3 1.5-0.6 3.1-1.1 4.7-1.3 0-0.1 0.3-0.1 0.5-0.1m59.4 63.5c0 0.1 0 0.1-0.1 0.1 0 0-0.1-0.1 0.1-0.1m-59.4-66.8h-0.9c-2.1 0.2-3.9 0.9-5.5 1.5-0.8 0.3-1.7 0.6-2.6 0.9-4.4 1.4-9.9 3.1-12.5 8-1.8 3.4-1.1 7.6-0.6 11 0.1 0.7 0.2 1.4 0.3 2 0.3 2.2 0.6 4.4 1 6.6l-4.4-4.4 0.2 8.3v0.7c0 1.3 0 2.9 0.6 4.4 0.7 1.7 1.9 3.3 3.3 4.5 1.8 1.6 5.1 3.2 8.5 3.2 1 0 1.9-0.1 2.7-0.4-0.1 1-0.1 2-0.1 3 0 1.8-0.1 3.5-0.5 4.8-0.8 2.3-2.3 4.5-3.6 6.4-1 1.4-2.2 2.8-3.4 4.4-3.3 4-7 8.5-8.2 13.8-0.2 0.7-1.6 7 1.3 10.7 1.1 1.5 2.8 2.3 4.7 2.3 0.8 0 1.7-0.2 2.6-0.5 7.5-2.6 12.6-6.5 18-10.6 6.9-5.3 14-10.7 27.5-13.9 0.6-0.2 4.8-1 9.2-1.8 4.4-0.9 9.4-1.9 13.3-2.7 1.6-0.3 3-0.6 4.1-0.9 0.5 1.6 0.9 3.3 1.2 5.2-0.1 0.4-0.1 0.8 0 1.3 0.1 0.4 0.2 0.7 0.4 1l0.5 2.8 2.8-1.1c0.4 0 0.8-0.2 1.1-0.3h0.1c0.5 0 1-0.1 1.4-0.1 1.8-0.1 3.9-0.2 6-1 3.6-1.3 7.5-4.3 6.9-8.6-0.6-4.4-5.5-7.5-8.8-9.6-0.3-0.2-0.7-0.4-0.9-0.6-3.2-2.1-6.8-4-11.5-5.9-1.8-0.7-3.5-1.1-5.2-1.4-1.5-0.3-2.8-0.6-4-1.1-0.6-0.3-1.4-1.6-2-2.6-0.4-0.7-0.8-1.4-1.3-2.1-1.8-2.4-3.9-4.9-6.5-7.5-1.6-1.7-3.3-3.3-5-4.8-2.9-2.7-5.6-5.3-8.1-8.2-0.8-1-1.6-1.9-2.4-3-1.9-2.4-3.9-4.9-6.3-7-4.9-4.6-9.4-6.7-13.4-6.7z"/>
		<path class="st9" d="m94.5 88.7c-1.1 0.7-2 1.6-3.1 2.2-1.1 0.7-2.3 1.2-3.6 1.6-2.5 0.8-5.1 1.1-7.6 1.5l0.4-1.5c0.7 0.7 1.9 1.1 3 1.4 1.2 0.2 2.4 0.3 3.7 0.4v0.2c-1.2 0.2-2.5 0.4-3.8 0.4s-2.7-0.2-3.9-1l-2.3-1.4 2.8-0.1c2.5-0.1 5.1-0.2 7.5-0.7 1.2-0.3 2.4-0.6 3.5-1.2 1.1-0.5 2.1-1.3 3.3-1.9l0.1 0.1z"/>
		<path class="st6" d="m111.9 101.7c-0.6 0.9-1.5 1.5-2.4 2.1-0.9 0.5-1.9 0.9-2.9 1.2-2 0.6-4 0.9-6.1 1l-0.1-0.7c1.9-0.8 3.8-1.3 5.7-2 0.9-0.3 1.8-0.7 2.7-1.1s1.8-0.8 2.7-1.2l0.4 0.7z"/>
		<path class="st6" d="m113.4 106.1c-1.4 1.6-3.4 2.5-5.3 3.1-2 0.6-4 1-6 1.2l-0.1-0.4c1.9-0.6 3.9-1.2 5.8-1.8 1.9-0.7 3.7-1.4 5.4-2.4l0.2 0.3z"/>
	<path class="st9" d="m105.3 114.4c-0.4 0.3-0.9 1.8-1.4 1.9-14.8 4.9-24 6.9-34.2 17.1-1.3 1.3-11.9 12.6-13.9 8.2s-1.8-7.9 0.2-10.9c1.8-2.7 6.4-9.5 12.4-16.6 2.2-2.5 4.2 9.2 36.9 0.3z"/>
	<path class="st9" d="m146.1 113.8c1.2 0.9 1.3 2.2 0.3 3.1-0.9 0.9-2.2 1.7-3.4 2-1.5 0.3-3-0.1-4.6 0-0.4 0-0.9 0.1-1.3 0.1 0.1 0.8 0.1 1.6 0.1 2.4 0.7-0.1 1.4-0.2 2-0.2 3.5-0.3 7-0.3 9.7-2.9 0.7-0.6 0.8-1.8 1.2-2.7l-4-1.8z"/>
	<path class="st9" d="m107.3 111.7c-0.2 0.1-0.3 0.1-0.5 0.2 0.2-0.1 0.4-0.1 0.5-0.2z"/>
	<path class="st9" d="m98.9 103.2c0.1 0 0.2-0.1 0.3-0.1-0.1 0-0.2 0-0.3 0.1z"/>
	<path class="st11" d="m93.8 114.4c-3-0.4-4.2-1.1-6.6-3-9.2 1.3-13.8-1.8-16-3.3 0.1 3.2 0 3.4 0.3 3.7 7.7 8.1 28.1 3.5 22.3 2.6z"/>
	<path class="st11" d="m134.9 111.7s2.3-1.1 9.3 1.9c0.8 0.3 2.1 1.3 2 1.6-0.3 1-1.5 1.4-2.2 2.3-1.8 0.4-3.2 0.6-5 0.5-2.2-0.2-2.1-0.3-2.1-0.3-0.3-1.8-1.2-4.6-2-6z"/>
	<path class="st11" d="m92.6 104.5c-1.2 0.6-2.5 1.1-3.6 1.8-0.7 0.4-1.5 1.1-0.4 2.1-4.4 0.9-8.7 0-13-1-0.6-0.1-1.2-0.3-1.7-0.5-2.8-0.9-3.1-1.8-1.7-4.4 0.1-0.2 0.5-0.3 0.6-0.2 3.4 1.9 7.1 1.9 10.8 2 3 0.1 6 0.1 9 0.2z"/>
	<path class="st9" d="m61.8 91.7c-0.1 0.4 0 0.9-0.2 1.1s-0.7 0.1-1 0c-0.4-0.2-0.6-0.6-0.9-0.9-2.1-2.2 0.2 0.1 1.2-0.2 0 0.1 0.8 0 0.9 0z"/>
	<path class="st9" d="m115 100.8c0.2-0.2 0.4-0.3 0.6-0.5-0.2 0.2-0.4 0.4-0.6 0.5z"/>
	<path class="st9" d="m116.1 99.8l0.2-0.2c-0.1 0.1-0.1 0.2-0.2 0.2z"/>
	<path class="st9" d="m115.9 100l0.2-0.2-0.2 0.2z"/>
	<path class="st9" d="m115.7 100.3l0.2-0.2c-0.1 0.1-0.2 0.1-0.2 0.2z"/>
	<path class="st9" d="m116.6 99.4c0-0.1 0.1-0.1 0.1-0.2 0 0.1-0.1 0.1-0.1 0.2z"/>
	<path class="st6" d="m112.5 101s0.1-0.1 0 0c0.1-0.1 0 0 0 0z"/>
	<path class="st9" d="m63.2 74.8c0.3-0.1 0.6-0.4 0.8-0.4 2.7 0.6 5.4 1.2 8.1 2.1 1.6 0.5 1.3 2.2 1.7 3.4 1 3.6 2.1 7.1 3 10.7 0.1 0.5-0.3 1.4-0.8 1.8-1.2 1.3-1.2 1.9 0.5 2.4 3.6 1.1 7.3 2 10.9 3 0.9 0.3 2.1 0.5 2.7 1.1 1.5 1.7 3.4 1.8 5.4 2 0.9 0.1 1.8 0.4 2.8 0.6-2.3 0.2-4.6 0.7-6.8 0.6-4.6-0.1-9.3 0-13.8-0.7-5.9-0.9-5.4-1.4-5.9-6.2-0.2-1.4 0.1-2.8-0.1-4.2-0.4-4.2-0.9-8.3-1.4-12.5-0.2-1.3-1-1.9-2.3-2.3-1.7-0.3-3.3-0.9-4.8-1.4z"/>
		<path class="st9" d="m91 109.7c1.1-0.8 1.8-1 2.5-1s1.3 0.2 1.9 0.3 1.3 0.2 1.9 0.2 1.3 0.1 1.9 0c2.6-0.1 5.1-0.6 7.6-1.4 1.2-0.5 2.5-0.9 3.6-1.6 1.2-0.6 2.3-1.3 3.5-2.1 0.6-0.3 1.1-0.8 1.6-1.2l1.6-1.3c1-1 2-1.9 3.7-2.3l0.3 0.2c-0.2 1.7-1.1 2.9-2 4l-1.6 1.6c-0.5 0.5-1 1.1-1.6 1.6-1.2 1-2.3 2-3.6 2.8-1.2 0.9-2.6 1.5-4 2.2-2.8 1.2-5.9 1.9-9.1 1.9-1.6 0.1-3.1-0.1-4.7-0.4-0.4-0.1-0.8-0.2-1.1-0.3-0.4-0.1-0.8-0.2-1.1-0.4s-0.7-0.5-1-0.9-0.5-0.9-0.6-1.5l0.3-0.4z"/>
		<path class="st9" d="m88.8 107.7c0.1-0.4 0.1-0.5 0.2-0.6s0.1-0.3 0.2-0.4c0.1-0.2 0.3-0.4 0.5-0.6 0.3-0.4 0.7-0.7 1-0.9 0.7-0.5 1.4-0.8 2-1 1.3-0.4 2.6-0.5 3.8-0.5 2.1 0 4.2-0.2 6.3-0.6s4.2-0.9 6.2-1.7c2-0.7 4-1.7 5.6-3.1l0.6 0.6c-1.5 1.7-3.5 3-5.5 4.1s-4.1 1.9-6.3 2.6-4.4 1.3-6.7 1.6c-1 0.1-1.9 0.4-2.7 0.7-0.4 0.2-0.7 0.4-0.9 0.6l-0.2 0.2v0.1c0-0.1 0 0 0.1-0.2l-4.2-0.9z"/>
	<path class="st9" d="m57.4 92c0.5 0.6 1.1 1.1 1.5 1.7 1.6 2 4.1 2.8 6.6 1.9 1.7-0.6 3.2-3 3-5.3-0.2-3.4-0.5-6.8-1-10.2-0.1-0.9-1.1-1.6-1.7-2.4-0.2-0.2-0.4-0.5-0.6-0.7 0.4-0.1 0.7-0.4 1.1-0.4 2.4 0.1 3.4 1.5 3.6 3.8 0.3 2.7 1.1 5.3 1.2 8 0.2 3.1-0.9 5.7-2.8 8.2-0.5 0.6-1.6 1.2-4.1 1.1-3.5-0.7-5.5-2.7-6.8-5.7z"/>
	<path class="st9" d="m80.7 58c-0.7 0.9-1.4 1.8-2.1 2.7-0.2 0.2-0.7 0.2-1 0.3 0-0.4 0-0.7 0.1-1.1 0.1-0.7 0.2-1.4 0.4-2.1 0.8 0.1 1.7 0.1 2.6 0.2z"/>
	<path class="st9" d="m75.1 58.4l-0.3 2.4c0 0.2-0.2 0.3-0.4 0.5-0.1-0.2-0.1-0.4-0.2-0.6-0.2-0.6-0.3-1.1-0.4-1.7 0.4-0.1 0.8-0.4 1.3-0.6z"/>
		<path class="st9" d="m60.4 65.8c-0.3 1-0.4 1.9-0.3 2.9 0.1 0.5 0.2 0.9 0.3 1.2 0.1 0.2 0.1 0.2 0.3 0.4 0.1 0.1 0.3 0.3 0.5 0.4 0.8 0.5 1.7 0.9 2.6 1.3s1.8 0.9 2.7 1.3l-0.1 0.6c-1.1 0-2.1-0.3-3.1-0.6s-2-0.7-2.9-1.4c-0.2-0.2-0.5-0.3-0.7-0.6-0.2-0.2-0.5-0.6-0.5-0.9-0.2-0.6-0.3-1.2-0.2-1.8 0.1-1.1 0.5-2.2 1.1-3.1l0.3 0.3z"/>
		<path class="st9" d="m59.4 72c0.4-0.1 0.7 0 0.9 0.2s0.4 0.4 0.5 0.6c0.3 0.4 0.6 0.9 0.7 1.5l-0.2 0.2c-0.6-0.1-1-0.4-1.4-0.8-0.2-0.2-0.4-0.3-0.6-0.5-0.1-0.2-0.3-0.5-0.2-0.9l0.3-0.3z"/>
	<ellipse class="st0" cx="362.5" cy="100.3" rx="19.1" ry="18.3"/>
		<text transform="matrix(.9226 0 0 1 161.03 107.43)"><tspan class="st13 st14 st15" x="0" y="0">Magic</tspan><tspan class="st13 st14 st15 st16" x="181.2" y="0"> </tspan><tspan class="st13 st14 st15" x="190.8" y="0">Meeple</tspan><tspan class="st13 st14 st17 games-word" x="273.3" y="54.7">Games</tspan></text>
		<text transform="matrix(.9226 0 0 1 161.03 107.43)"><tspan class="st18 st14 st15" x="0" y="0">Magic</tspan><tspan class="st18 st14 st15 st16" x="181.2" y="0"> </tspan><tspan class="st18 st14 st15" x="190.8" y="0">Meeple</tspan><tspan class="st18 st14 st17 games-word" x="273.3" y="54.7">Games</tspan></text>
		<text transform="matrix(.9226 0 0 1 161.03 107.43)"><tspan class="st1 st14 st15" x="0" y="0">Magic</tspan><tspan class="st1 st14 st15 st16" x="181.2" y="0"> </tspan><tspan class="st1 st14 st15" x="190.8" y="0">Meeple</tspan><tspan class="st1 st14 st17 games-word" x="273.3" y="54.7">Games</tspan></text>
		<text transform="matrix(.9226 0 0 1 161.03 107.43)"><tspan class="st19 st14 st15" x="0" y="0">Magic</tspan><tspan class="st19 st14 st15 st16" x="181.2" y="0"> </tspan><tspan class="st19 st14 st15" x="190.8" y="0">Meeple</tspan><tspan class="st19 st14 st17" x="273.3" y="54.7">Games</tspan></text>
			<path class="st0" d="m294.2 60.3c0.3 0.9 0.9 1.7 1.7 2.3 0.4 0.3 0.8 0.5 1.3 0.6h0.2-0.1-0.2c-0.5-0.1-1-0.1-1.4-0.2l-2.9-0.6-2.4-0.5-1.3-2.2-1.5-2.5-0.7-1.3-0.1-0.2v-0.1l0.1 0.1c0.3 0.4 0.6 0.8 1 1.1 0.8 0.6 1.8 1 2.8 1s2-0.4 2.8-1c0.4-0.3 0.7-0.7 1-1.1l0.1-0.1v0.1l-0.1 0.2-0.7 1.3-1.5 2.5-1.3 2.2-2.4 0.5-2.9 0.6c-0.5 0.1-1 0.1-1.5 0.1h-0.2-0.1 0.1c0.5-0.1 0.9-0.3 1.3-0.6 0.8-0.5 1.3-1.3 1.6-2.2s0.3-1.9 0-2.7c-0.2-0.4-0.4-0.9-0.7-1.2l-0.1-0.1 0.1 0.1 0.1 0.1c0.4 0.3 0.7 0.7 1 1l1.9 2.2 1.7 1.8-0.3 2.3c-0.1 1-0.3 1.9-0.4 2.9-0.1 0.5-0.3 0.9-0.4 1.4v0.2 0.1-0.1c0-0.4 0-0.8-0.2-1.3-0.2-0.8-0.7-1.5-1.4-2s-1.5-0.8-2.4-0.7c-0.4 0-0.9 0.1-1.3 0.3l-0.1 0.1h0.1l0.2-0.1 1.3-0.8c0.8-0.5 1.7-1 2.6-1.4l2.3-1 2 1c0.9 0.4 1.7 0.9 2.6 1.4 0.4 0.3 0.8 0.5 1.3 0.7l0.2 0.1h0.1l-0.1-0.1c-0.4-0.2-0.8-0.3-1.3-0.3-0.9 0-1.7 0.2-2.4 0.7s-1.2 1.2-1.5 2.1c-0.1 0.4-0.2 0.9-0.2 1.3v0.1-0.1-0.2l-0.4-1.4c-0.3-0.9-0.4-1.9-0.6-2.9l-0.3-2.3 1.7-1.9c0.6-0.7 1.3-1.4 2-2.1l1-1 0.1-0.1 0.1-0.1-0.1 0.1c-0.3 0.4-0.6 0.8-0.7 1.2-0.5 0.8-0.5 1.8-0.2 2.7zm10.2-3.3c0.5 1.4 0.4 2.9-0.1 4.3-0.3 0.7-0.6 1.3-1.1 1.9l-0.4 0.4c-0.3 0.4-0.6 0.7-0.9 1.1-0.6 0.7-1.2 1.5-1.9 2.2l1.4-4.3c0.1 1 0.1 1.9 0.1 2.9v1.5 0.2 0.1 0.2c0 0.7 0 1.4-0.2 2-0.4 1.3-1.2 2.5-2.3 3.3s-2.5 1.2-3.8 1.1c-0.7 0-1.3-0.2-2-0.4l-0.5-0.2c-0.5-0.2-0.9-0.3-1.4-0.5-0.9-0.3-1.9-0.6-2.8-0.9h4.3c-0.9 0.4-1.8 0.8-2.7 1l-1.4 0.4-0.2 0.1h-0.1l-0.2 0.1c-0.6 0.2-1.3 0.4-2 0.4-1.3 0-2.7-0.4-3.8-1.2s-1.9-1.9-2.2-3.2c-0.2-0.6-0.3-1.3-0.2-2v-0.2-0.1-0.2c0-0.5-0.1-1-0.1-1.5 0-1 0.1-1.9 0.2-2.9l1.4 4.1-2-2.1c-0.3-0.4-0.7-0.7-0.9-1.1l-0.1-0.1-0.1-0.1-0.2-0.2c-0.5-0.5-0.8-1.2-1.1-1.8-0.5-1.3-0.5-2.8-0.1-4.2 0.4-1.3 1.3-2.5 2.5-3.3 0.6-0.4 1.2-0.7 1.9-0.9l0.2-0.1h0.1l0.2-0.1c0.5-0.2 0.9-0.3 1.4-0.5l2.8-0.6-3.6 2.7 1.4-2.5 0.7-1.3 0.4-0.5c0.4-0.6 0.9-1.2 1.5-1.7 1.2-0.9 2.6-1.5 4.1-1.5s3 0.5 4.1 1.4c0.6 0.5 1.1 1 1.5 1.7l0.3 0.5 0.7 1.3 1.4 2.5-3.7-2.6 2.9 0.6c0.5 0.1 0.9 0.2 1.4 0.4l0.2 0.1h0.1l0.3 0.1c0.7 0.2 1.4 0.5 2 0.9 1.2 0.7 2.1 1.9 2.6 3.3z"/>
			<path class="st20" d="m299.3 58.7c-0.1-0.4-0.4-0.6-0.8-0.7l-4.6-0.9-2.3-4.1c-0.2-0.3-0.5-0.5-0.9-0.5s-0.7 0.2-0.9 0.5l-2.3 4.1-4.6 1c-0.4 0.1-0.7 0.4-0.8 0.7-0.1 0.4 0 0.8 0.2 1.1l3.2 3.5-0.5 4.7c0 0.4 0.1 0.8 0.4 1 0.2 0.1 0.4 0.2 0.6 0.2s0.3 0 0.4-0.1l4.3-1.9 4.3 1.9c0.4 0.2 0.8 0.1 1.1-0.1s0.5-0.6 0.4-1l-0.5-4.7 3.1-3.5c0.2-0.5 0.3-0.9 0.2-1.2z"/>
			<path class="st1" d="m298 59.1c0 0.1 0 0.1 0.1 0.1h0.1l-0.3-0.1-1.4-0.3-2.9-0.6-0.6-0.1-0.3-0.5-1.5-2.5-0.7-1.3-0.2-0.3 0.1 0.1s0.1 0.1 0.2 0.1 0.1 0 0.2-0.1l0.1-0.1-0.2 0.3-0.7 1.3-1.4 2.5-0.3 0.5-0.6 0.1-2.9 0.6-1.4 0.3-0.3 0.1h0.1l0.1-0.1v-0.1-0.1l0.2 0.2 1 1.1c0.7 0.7 1.3 1.4 2 2.1l0.4 0.5-0.1 0.6c-0.1 1-0.3 1.9-0.4 2.9l-0.2 1.4v0.3-0.1h-0.1l0.3-0.1 1.3-0.6c0.9-0.4 1.8-0.8 2.6-1.2l0.5-0.2 0.5 0.2c0.9 0.4 1.8 0.8 2.6 1.2 0.4 0.2 0.9 0.4 1.3 0.6l0.3 0.1h-0.1l-0.1 0.1v-0.3l-0.2-1.4c-0.1-1-0.3-1.9-0.4-2.9l-0.1-0.6 0.4-0.4 2-2.2 1-1.1 0.2-0.2v0.1c-0.2 0-0.2 0-0.2 0.1zm2.5-0.8c0.2 0.5 0.2 1.1 0 1.6-0.1 0.3-0.2 0.5-0.4 0.7l-0.3 0.3-1 1.1-1.9 2.2 0.3-1c0.1 1 0.2 1.9 0.3 2.9l0.1 1.5v0.4c0 0.3 0 0.5-0.1 0.8-0.1 0.5-0.4 0.9-0.9 1.2-0.4 0.3-0.9 0.5-1.5 0.4-0.3 0-0.5-0.1-0.8-0.2l-0.4-0.2c-0.4-0.2-0.9-0.4-1.3-0.6-0.9-0.4-1.8-0.7-2.7-1.1h1.1c-0.9 0.4-1.8 0.8-2.7 1.2l-1.3 0.6-0.4 0.2c-0.2 0.1-0.5 0.2-0.7 0.2-0.5 0-1-0.1-1.4-0.4s-0.7-0.7-0.9-1.2c-0.1-0.2-0.1-0.5-0.1-0.8v-0.4l0.1-1.5c0.1-1 0.1-1.9 0.2-2.9l0.3 1c-0.7-0.7-1.3-1.4-2-2.2l-1-1.1-0.3-0.3c-0.2-0.2-0.3-0.4-0.4-0.7-0.2-0.5-0.2-1.1 0-1.6s0.5-1 0.9-1.3c0.2-0.1 0.5-0.3 0.7-0.3l0.4-0.1 1.4-0.3 2.9-0.6-0.9 0.7 1.4-2.5 0.7-1.3 0.2-0.4c0.1-0.2 0.3-0.4 0.5-0.6 0.4-0.3 1-0.5 1.5-0.5s1.1 0.2 1.5 0.5c0.2 0.2 0.4 0.4 0.5 0.6l0.2 0.4 0.7 1.3 1.5 2.5-0.9-0.6 2.9 0.6 1.4 0.3 0.4 0.1c0.3 0.1 0.5 0.2 0.7 0.3 1 0.1 1.4 0.5 1.5 1.1z"/>
</svg>
