<?xml version="1.0" encoding="UTF-8"?>
<svg enable-background="new 0 0 579.2 283.8" version="1.1" viewBox="0 0 579.2 283.8" xml:space="preserve" xmlns="http://www.w3.org/2000/svg">
<style type="text/css">
	.st0{fill:#0087FF;}
	.st1{fill:none;stroke:#FFFFFF;stroke-width:1.08;stroke-linejoin:round;}
	.st2{font-family:'SnotmasterV';}
	.st3{font-size:94.0892px;}
	.st4{letter-spacing:-16.3;}
	.st5{fill:#FFFFFF;}
	.st6{fill:#A99C00;}
	.st7{fill:#BDBCBC;}
	.st8{fill:none;stroke:#0087FF;stroke-width:18;stroke-linejoin:round;}
	.st9{fill:none;stroke:#1C5BAA;stroke-width:7.2;stroke-linejoin:round;}
	.st10{fill:#FFEC00;}
	.st11{display:none;}
	.st12{display:inline;enable-background:new    ;}
	.st13{fill:#1C5BAA;}
	.st14{fill:#00BAFF;}
	.st15{fill:#0087F8;}
	.st16{fill:#00ECFF;}
	.st17{fill:none;stroke:#00ECFF;stroke-width:2.7755;stroke-miterlimit:10;}
	.st18{fill:#D0C900;stroke:#000000;stroke-width:0.6661;stroke-miterlimit:10;}
	.st19{fill:#858585;}
	.st20{fill:#00CF00;}
	.st21{fill:#D0C900;}
	.st22{fill:#0C0D0A;}
	.st23{fill:#904800;}
	.st24{fill:none;stroke:#000000;stroke-width:0.6661;stroke-miterlimit:10;}
	.st25{fill:none;stroke:#000000;stroke-width:0.6637;stroke-miterlimit:10;}
</style>
<path class="st0" d="m544.8 127.7c3-6.9 0.7-13.9-6.9-15.6 6-4.7 11.3-14.8 3.9-20.9 0.6-2.8-0.1-5.5-1.4-8 5.4-6.7 1.8-14.7-5.1-18-7.5-3.5-16.3-3.1-23.3 1.3 0-5.1 0.5-10.5 0.1-15.6 0-4.7 1.4-9.3-1-13.6-3-5.4-9.4-7.2-14.9-4.4-11.9 6.2-8 23.2-7.9 34-5.8-3.8-12.8-4.9-19.5-3.1-4.6-2-9.7-1.1-13.5 2.1-9.2-4.8-20.1-4-28.1 2.8-8.4-10.3-26.4-6.1-34 2.4-1.1-7-1.8-14.1-2.4-21.2-0.3-4.2 0.3-8.9-1.8-12.7-2.7-4.7-8.3-6.3-13.2-4.2-6.1 2.5-8 9.3-10.4 14.8-2.7-7.7-5.7-18.1-16.2-15.6s-11 12.1-11.4 20.7c-0.6 13-2.7 26-5.4 38.7-2.3-2.5-5.7-3.8-9.1-3.3v-0.5c7.6-2.5 12.1-12.6 6.8-19.3-6.5-8.1-20.6-6.8-28.7-2.5v-1.1c4.5-5.4 3.4-11.8-4.1-13.1-2.8-6.1-10.2-7.1-13.4-0.6-2.2 1.2-5.1 2.1-6.5 4.3-2.9 0.6-5.3 2.3-7.1 4.5-9.7-1.8-19.8 3.6-24.1 12.3-8.8-17.4-21.8-7.8-27.8 5.6-1.3-7.7-2.4-15.4-3.1-23.1-0.4-4.8 0.3-12.2-1.7-16.6-2.4-5.4-8.3-7.6-13.8-5.4-6.1 2.5-8 9.4-10.4 14.8-2-5.7-3.2-12.9-9.6-15.3-6.2-2.3-12.9 1.7-16 7-4.1 7-2.6 21.7-3.6 29.9-1.2 9.2-2.6 18.2-5 27.2-1.4 5.1-4.1 10.4-0.7 15.4 3.1 4.6 9.5 5.7 14.2 3.1-0.7 1.5-0.9 3.7-1 5.5 5.3 12.4 27.1 11 38.3 11.8 2.7 12.9 18.1 11.1 23.3 1.2 3 0.1 6.1 0.2 9.2 0.3 3.2 4.3 9.2 5.8 13.9 2.8 4.5 2.5 10 1.2 13.5-2.3 38.8 0.4 77.6-0.2 116.5-0.6 3.5 11.9 18.2 8.9 22.9-0.2h1.7c-4.2 14.5 4.6 37.2 21.8 37.5-0.7 18.9 23.7 16.3 22.4-1.4 0.5-0.3 0.9-0.5 1.3-0.9 1.5 7.6 1.8 16.1 11.6 17.1 8.8 0.9 12.9-7.8 15.5-14.8 0.5 0.1 1 0.1 1.5 0.1 1.6 6.7 5.7 15.4 13.8 15 7.2-0.4 12.9-8.9 10.9-15.7 2.5 0.7 5.1 0.9 7.6 0.5-3.1 14.5 16 19.2 20.8 5.4 2.4-7 3.5-11.6 7.5-18 3.2-5.1 6-10.6 1-15.8 1.1-4.4-0.7-9.3-4.8-11.5 2.5-0.4 4.8-1.7 6.9-3.2z"/>
<text class="st1 st2 st3 st4" transform="matrix(.9226 0 0 1 328.21 107.43)"> </text>
<path class="st5" d="m517.6 134.3c-0.8 0-1.5-0.1-2.2-0.4-4.8-1.7-25.1-5-52.4-5-18.3 0-50.8 0.3-74.8 0.5-33.5 0.3-71.5 0.7-103.3 0.7-37 0-65.7-0.8-85.1-2.4-24.7-2.1-26-4.7-27.1-6.8l-0.5-1.1 0.1-1.2c0.4-5 6.2-5.4 12.3-5.8 3.9-0.3 8.3-0.6 11.9-1.9 3.8-1.4 6.3-2.9 8.3-4.1s3.5-2.1 5.3-2.1c1.6 0 3 0.6 4.8 1.3 0.4 0.2 0.8 0.3 1.2 0.5 5.2 2.3 16.2 7.1 54.2 7.1h222.2c33 0 44.9 2.3 46.7 3.2l0.1 0.1c2.5 1.3 3.5 3.9 2.5 6.4l-0.5 1.3-1.2 0.8c-1.4 0.9-3.3 1.3-5.6 1.8l-1.5 0.3c-1.2 0.3-2.3 0.5-3.4 0.8-3.1 0.8-5.3 2.5-6.6 3.8-1.4 1.7-3.8 2.2-5.4 2.2z"/>
<path class="st6" d="m154.4 112.8c0-0.1-0.1-0.3-0.1-0.4 0 0.1 0 0.3 0.1 0.4z"/>
<path class="st7" d="m136.5 55.9c0.1 0 0.1 0 0 0 0.1 0 0.1 0 0 0z"/>
<text class="st8 st2 st3 st4" transform="matrix(.9226 0 0 1 328.21 107.43)"> </text>
<text class="st9 st2 st3 st4" transform="matrix(.9226 0 0 1 328.21 107.43)"> </text>
<text class="st5 st2 st3 st4" transform="matrix(.9226 0 0 1 328.21 107.43)"> </text>
<path class="st10" d="m299.3 58.7c-0.1-0.4-0.4-0.6-0.8-0.7l-4.6-0.9-2.3-4.1c-0.2-0.3-0.5-0.5-0.9-0.5s-0.7 0.2-0.9 0.5l-2.3 4.1-4.6 1c-0.4 0.1-0.7 0.4-0.8 0.7-0.1 0.4 0 0.8 0.2 1.1l3.2 3.5-0.5 4.7c0 0.4 0.1 0.8 0.4 1 0.2 0.1 0.4 0.2 0.6 0.2s0.3 0 0.4-0.1l4.3-1.9 4.3 1.9c0.4 0.2 0.8 0.1 1.1-0.1s0.5-0.6 0.4-1l-0.5-4.7 3.1-3.5c0.2-0.5 0.3-0.9 0.2-1.2z"/>
<path class="st5" d="m300.5 58.3c-0.2-1-0.4-1.5-5.9-2.6-0.8-1.3-1.5-3.2-2.6-4.3-0.9-0.7-2.1-0.7-3 0-1.1 1.1-1.7 2.9-2.5 4.2-5 1-4.5 1.1-5.3 1.5-0.8 0.6-1.3 1.9-0.9 2.9 0.2 0.5 3.3 3.8 3.4 3.9-0.3 4.3-0.4 4.6-0.2 5 1.2 3.1 4.9 0.5 6.9-0.4 4 1.6 4 1.9 4.6 1.9 0.6 0.1 1.1-0.1 1.5-0.4 0.5-0.3 0.8-0.7 0.9-1.2 0.2-0.5 0.2-1.1-0.2-5 1.4-1.6 4.1-3.4 3.3-5.5zm-2.4 0.9l-3.5 3.6 0.7 5-4.5-2-4.6 2.1 0.7-5.1-3.4-3.7 4.8-1 2.3-4.1 2.4 4.1 5.1 1.1z"/>
<g class="st11">
	<g class="st12">
		<path class="st5" d="m177.8 42c0.3 0.8 0.6 1.6 0.9 2.4 0.2 0.8 0.5 1.7 0.8 2.6 0.4 0.9 0.8 1.9 1.2 3s0.7 2.1 1.1 3.1c1 2.9 2.1 5.7 3.3 8.4 1.1 2.7 2.3 5.5 3.5 8.3 0.1 0.4 0.2 0.8 0.4 1.1 0.1 0.4 0.4 0.8 0.7 1.2 1.7-5.1 3.6-10 5.6-14.8 2.1-4.8 4.2-9.5 6.3-14.3 0.3-0.5 0.8-0.9 1.3-1.3s1.1-0.5 1.7-0.5c0.3 0 0.5 0.1 0.6 0.3s0.2 0.5 0.3 0.7c0 1.1 0 2.3 0.1 3.4s0.1 2.2 0.3 3.3c0.5 7 1.2 13.9 2.2 20.7s2.2 13.7 3.6 20.7c0.8 4 1.6 7.8 2.5 11.5 0.8 3.6 1.8 7.4 3 11.4 0.6 1.9 1.2 3.8 1.7 5.8 0.6 2 1.2 3.9 1.9 5.7 0.2 0.1 0.5 0.3 0.7 0.7 0.2 0.3 0.3 0.6 0.3 0.9 0.1 1.3-0.2 2.5-0.8 3.5-0.7 1-1.5 1.8-2.5 2.5-0.5 0.2-1 0.4-1.5 0.3-0.6 0-1.1-0.2-1.5-0.6-0.3-0.3-0.5-0.7-0.6-1.1s-0.2-0.9-0.3-1.4c-2.2-7.4-4.1-14.7-5.6-22-1.5-7.2-2.9-14.8-4-22.7-0.3-1.7-0.6-3.4-0.8-5-0.3-1.7-0.4-3.3-0.6-5-0.6-3.8-1-7.6-1.3-11.6s-0.6-7.8-0.9-11.7h-0.3c-1.2 2.4-2.3 4.8-3.4 7.2s-2.1 4.9-3.1 7.3c-0.5 1.7-1 3.5-1.6 5.3-0.5 1.9-1 3.6-1.4 5.3 0.1 1.1-0.1 2-0.6 2.9s-1.2 1.6-2 2.2c-0.8 0.5-1.6 0.5-2.4 0.1-0.3-0.1-0.5-0.3-0.6-0.7-0.1-0.3-0.2-0.6-0.2-0.8-0.5-1.4-1.1-2.7-1.6-4-0.6-1.3-1.1-2.6-1.7-4-0.1-0.2-0.2-0.4-0.3-0.7-0.1-0.2-0.1-0.5-0.3-0.8-0.5-1.1-0.9-2.2-1.3-3.3-0.4-1.2-0.9-2.2-1.5-3.2l-1.5-3.6c-0.5-1.2-1-2.4-1.4-3.4-0.3-0.4-0.5-0.8-0.7-1.2-0.1-0.4-0.3-0.8-0.6-1.2l-0.2 0.1c-1.2 8.2-2.4 16.3-3.8 24.2s-2.9 15.8-4.6 23.8c-0.2 0.9-0.5 1.7-0.8 2.6-0.3 0.8-0.8 1.4-1.6 1.7-0.2 0.1-0.5 0.1-0.7 0.1s-0.5 0-0.8-0.1c-0.4-0.1-0.6-0.3-0.7-0.8s-0.1-0.9 0-1.2c0.6-1 1.1-2.1 1.3-3.2s0.5-2.2 0.8-3.2c0.5-1.5 0.8-3 1.1-4.5s0.6-2.9 1-4.2c0-0.7 0.1-1.3 0.2-2 0.1-0.6 0.3-1.3 0.6-2l0.3-2.4c0.2-0.8 0.3-1.6 0.3-2.4l0.3-1.5s0.2-1.1 0.3-1.7c0.3-3 0.7-6.1 1.2-9.1 0.4-3.1 0.7-6.2 0.9-9.4l0.5-5.4c0-0.2 0-0.4 0.1-0.5 0-2.1 0.1-4.2 0.3-6.2-0.4-0.5-0.5-1.1-0.3-1.8s0.5-1.3 0.8-1.8c0.6-0.8 1.4-1.6 2.3-2.3s1.8-1 2.9-0.7c0.5 0.3 0.8 0.6 1.2 1z"/>
		<path class="st5" d="m239.4 79.3c0.4 0.8 0.8 1.8 1.1 2.9 0.4 0.7 0.7 1.4 0.9 2.1s0.4 1.5 0.7 2.4c0.8 0 1.6-0.2 2.6-0.5 0.5 0.1 1 0.1 1.6 0s1.1 0.1 1.5 0.6c0.3 0.6 0.4 1.3 0.3 2.1s-0.4 1.4-0.7 2.1c-0.5 0.6-0.9 1.1-1.3 1.5s-1 0.7-1.7 1c0.3 1.6 0.6 3.1 1 4.6s0.7 3 1 4.4c0.5 1.6 0.8 3.3 1 4.9s0.4 3.3 0.8 5c-0.1 0.2-0.1 0.3 0 0.4v0.3c0.1 0.9 0.2 1.8 0.4 2.5 0.1 0.8 0.3 1.5 0.4 2.4-0.1 0.4-0.1 0.8 0.1 1s0.2 0.6 0.1 1c0.1 1.1 0.2 2.1 0.2 3s0.2 1.9 0.5 3c0 0.7-0.2 1.3-0.7 1.8s-1 1-1.5 1.4h-0.3s-0.3 0-0.4 0c-0.3 0-0.6 0-0.6-0.1-0.3-0.3-0.5-0.6-0.7-0.9s-0.2-0.7-0.2-1.2c0.1-0.6 0-1.1-0.1-1.7s-0.2-1.1-0.3-1.6c-0.8-5.1-1.7-10-2.9-14.8s-2.6-9.5-4.3-14.2c-0.1 0-0.1-0.1-0.2-0.2s-0.1-0.1-0.3 0.1c-0.6 0.1-1.2 0.2-1.8 0.5s-1.1 0.5-1.8 0.7c-2.3 0.9-4.3 2.3-6.2 4.2s-3.6 4-5.1 6c-0.4 0.4-0.8 0.8-1.2 1.1s-0.9 0.4-1.6 0.2c-0.5-0.3-0.7-0.7-0.8-1.1s0-0.8 0.1-1.3c0.1-0.4 0.3-0.9 0.5-1.4s0.3-0.9 0.3-1.3c0.1-0.8 0.2-1.5 0.4-2.1 0.1-0.7 0.4-1.4 0.7-2.1 0.3-1.1 0.5-1.9 0.8-2.4 0-0.3 0-0.6 0.1-0.8s0.1-0.4 0.3-0.8c0.3-1.1 0.7-2.1 1-3.2s0.7-2.1 1.1-3.1c-0.1-0.1-0.1-0.2 0.1-0.2s0.2 0 0.2-0.1c0.5-1.4 1-2.7 1.5-3.9s1.1-2.4 1.7-3.8c0.4-0.7 0.8-1.4 1.1-2.1s0.7-1.4 1-2.1 0.8-1.3 1.3-1.9 1.1-1.1 1.9-1.6c0.5-0.2 1-0.4 1.4-0.5s0.9 0.1 1.5 0.6c0.5 0.6 1 1.3 1.3 2.1s0.8 1.6 1.2 2.3c0.2 1.1 0.5 2 1 2.8zm-5.9 5.2c-0.7-1.4-1.4-2.8-2.3-4.2-3.1 5.5-5.3 11.4-6.5 17.8 0.6-0.7 1.2-1.4 1.7-2.1s1.2-1.3 2-2l0.1-0.4c0.8-0.6 1.6-1.3 2.3-1.9 0.8-0.7 1.6-1.2 2.4-1.6 0.3-0.4 0.7-0.7 1.2-0.7s0.9-0.3 1.2-0.7c-0.7-1.3-1.4-2.8-2.1-4.2z"/>
		<path class="st5" d="m269.3 69.3c2.3 0.5 4.4 1.7 6.4 3.5 1.9 1.8 3.2 4 3.9 6.4 0.9 3 1 5.9 0.3 8.8s-2.1 5.3-4.1 7.4c-1.5 1.5-3.3 2.5-5.3 3.1s-4 0.7-5.9 0.4c-0.6 0.1-1.2 0-1.8-0.3s-1.1-0.5-1.8-0.6c-0.4 0.8-0.8 1.5-1.1 2.2s-0.7 1.4-1.1 2.1l-0.8 1.3c0.9-0.2 1.9-0.4 2.9-0.6s1.9-0.4 2.9-0.4c0.2-0.1 0.5-0.2 0.9-0.2 0.3 0 0.6-0.1 0.9-0.2l0.3 0.2c0.5 0 0.9 0 1.3-0.1s0.9-0.1 1.3 0c1.4-0.1 2.9-0.1 4.4 0 0.1-0.1 0.4-0.1 0.9-0.1 0.5-0.1 1.1-0.1 1.6 0s1 0.4 1.3 0.9c0.3 0.4 0.4 0.9 0.3 1.4s-0.2 0.9-0.4 1.4c-0.6 1-1.3 1.8-2.1 2.4s-1.7 1.1-2.6 1.5c-1.4 1.1-2.8 2.4-4.1 3.7-1.4 1.3-2.6 2.8-3.7 4.4-0.9 1.4-1.6 2.8-2.3 4.2s-1.1 3-1.3 4.7c-0.1 0.6-0.4 1.1-1 1.6-0.5 0.5-1.1 0.8-1.7 0.9-0.2 0-0.5 0-0.8-0.1s-0.5-0.3-0.7-0.7c-0.3-0.6-0.4-1.3-0.1-2.1 0.2-0.9 0.5-1.7 0.8-2.6 0.3-0.8 0.6-1.6 0.9-2.4 1.1-2.3 2.4-4.3 4-6.2s3.3-3.6 5.1-5.2c-0.5-0.3-1.1-0.4-1.9-0.3h-2c-0.1-0.1-0.2-0.2-0.2-0.1s-0.1 0.1-0.1 0c-0.5-0.1-0.9 0-1.3 0s-0.9 0.1-1.3 0l-0.3 0.2c-0.9 0-1.7 0.1-2.6 0.2-0.9 0.2-1.7 0.4-2.5 0.6-0.5 0.2-1 0.2-1.5 0s-0.9-0.4-1.4-0.8c-0.2-0.3-0.4-0.6-0.5-0.9s-0.1-0.7 0-1.1c0.8-1.5 1.8-2.9 3-4.2s2.1-2.8 2.7-4.5c0.3-0.4 0.5-0.8 0.7-1.2 0.1-0.4 0.3-0.8 0.6-1.3-0.6-0.4-1.1-0.8-1.5-1.4s-0.9-1.1-1.3-1.7c-1.4-1.9-2.3-4.2-2.6-6.8-0.4-2.6-0.2-5 0.5-7.2 0.3-1.4 0.9-2.7 1.7-3.9s1.7-2.3 2.8-3.2 2.2-1.6 3.5-2.2 2.6-0.9 3.9-1h1c0.4 0 0.7 0 1-0.1 0.3 0.1 0.7 0.2 1 0.2 0.2-0.2 0.5-0.1 0.9 0zm2.1 7.4c-0.5-0.3-0.9-0.6-1.3-0.9s-0.8-0.6-1.3-1c-1.4-0.7-2.9-1.1-4.4-1.4-1.6-0.2-3.1 0-4.5 0.5-0.1 0.1-0.3 0.2-0.4 0.2-0.2 0-0.3 0.1-0.4 0.2-1.3 0.7-2.1 1.7-2.6 3.1-0.4 1.4-0.6 2.7-0.5 4 0.6 3.7 2.3 6.7 4.9 8.9l0.5 0.3c1.2 1.2 2.5 2.1 3.9 2.6 1.4 0.6 3 0.8 4.5 0.8 0.1 0 0.3 0 0.4 0.1 0.2 0.1 0.3 0 0.3-0.1 0.5-0.1 1.1-0.1 1.6-0.2s1.1-0.2 1.5-0.6c1.2-0.9 2.1-2.1 2.6-3.6s0.6-3 0.2-4.6c-0.1-0.6-0.3-1.2-0.5-1.8s-0.4-1.2-0.7-1.7c-0.1-0.2-0.2-0.4-0.2-0.5 0-0.2-0.1-0.3-0.3-0.3-0.1-0.4-0.3-0.7-0.5-1s-0.5-0.6-0.7-0.9c-0.3-0.4-0.7-0.8-1-1.3-0.3-0.2-0.7-0.6-1.1-0.8zm9.7-11.6c-0.2-0.2-0.5-0.4-0.7-0.3-0.3 0-0.5 0-0.8-0.1-0.7 0.1-1.3 0.5-1.8 1.1s-1 1.2-1.4 1.7c-0.3 0.6-0.6 1.2-1 1.8s-0.4 1.4-0.1 2.1c0.3 0.1 0.5 0.3 0.7 0.4 0.2 0.2 0.4 0.2 0.7 0.1 0.4 0 0.7-0.1 0.9-0.3s0.3-0.4 0.3-0.7c0.1-0.3 0.1-0.6 0.2-0.9s0.2-0.6 0.4-0.8c0.5-0.3 1.1-0.7 1.7-1 0.6-0.4 1-0.9 1.2-1.6 0.1-0.6 0-1.1-0.3-1.5z"/>
		<path class="st5" d="m292.4 78.6c-0.2 1.6-0.3 3.2-0.3 4.8-0.1 3.3-0.1 6.4-0.1 9.5 0.1 3 0.1 6.2 0.1 9.4-0.1 1.4-0.6 2.6-1.4 3.6s-1.8 1.6-3 1.9c-0.5 0.1-0.9 0.1-1.3 0s-0.8-0.4-1-0.9c-0.1-0.8-0.1-1.4 0-2s0.2-1.3 0.2-2.2c0.3-4 0.5-7.9 0.6-11.8s-0.1-7.9-0.5-12c0.1-1.4 0.5-2.7 1.2-3.9 0.8-1.1 1.8-1.9 3.1-2.4 0.4 0 0.9 0 1.3 0.1 0.5 0.1 0.9 0.4 1.1 0.9 0.2 1.7 0.1 3.4 0 5zm-0.2-13.9c-0.4 1.6-1.1 2.9-2.2 3.9-0.5 0.4-1 0.8-1.6 1-0.5 0.3-1.1 0.3-1.6 0.2-0.4-0.1-0.7-0.4-0.9-0.9-0.1-0.2-0.1-0.5-0.1-0.8 0.1-0.3 0.1-0.5 0.1-0.8v0.1l0.1-0.4c0-0.1 0-0.2 0.1-0.4 0.2-0.4 0.4-1 0.4-1.6 0.1-0.6-0.1-1.2-0.3-1.7-0.2-0.8 0-1.6 0.4-2.3 0.5-0.7 1-1.2 1.7-1.6s1.4-0.5 2.1-0.5c0.7 0.1 1.3 0.5 1.7 1.2 0.4 1.5 0.4 3 0.1 4.6z"/>
		<path class="st5" d="m323.5 76.2c-0.2 0.7-0.6 1.3-1.1 2-0.5 0.6-1.1 1.1-1.8 1.3-0.9 0.2-1.6 0-2.3-0.4-0.7-0.5-1.4-0.9-2-1.3-0.5-0.1-1-0.3-1.5-0.7-0.5-0.3-1-0.4-1.6-0.4-0.2-0.2-0.5-0.2-1-0.2-0.5 0.1-0.8 0-1.1-0.1-0.5 0.1-1 0.1-1.5 0-0.5 0-0.9 0-1.3 0.2-1.7 0.4-3.2 1.2-4.4 2.5-0.2 0.3-0.4 0.6-0.7 1-0.3 0.3-0.4 0.7-0.6 1.1-0.1 0.3-0.2 0.5-0.4 0.7-0.4 1.4-0.6 2.9-0.4 4.2 0.1 1.4 0.4 2.7 0.9 4s1.1 2.5 1.9 3.7 1.6 2.2 2.6 3.2c1.3 1.3 2.9 2.3 4.6 3.1s3.6 1 5.6 0.7c1.3-0.2 2.6-0.7 3.7-1.3s2.2-1.3 3.3-2.1l0.9-0.1v0.1c0.1 0 0.1 0 0.1 0.1 0.3 0.1 0.5 0.3 0.6 0.4l0.3 0.9c0.1 0.3 0 0.6-0.2 0.9l-1.9 3.1c-0.8 0.9-1.6 1.6-2.4 2.3s-1.7 1.2-2.7 1.6c-0.9 0.3-1.7 0.5-2.5 0.7-0.8 0.1-1.7 0.1-2.7 0-1.6-0.1-3.2-0.5-4.8-1-1.6-0.6-3-1.4-4.2-2.5-1-1-1.9-2.1-2.8-3.3s-1.7-2.5-2.3-3.9c-1-2.6-1.6-5.4-1.7-8.3s0.6-5.6 2-8.1c0-0.3 0.1-0.6 0.3-0.9 1.6-2.5 3.6-4.3 6-5.4s4.9-1.8 7.6-2.1c1.7 0 3.3 0.2 4.9 0.6s3 1.1 4.3 1.9c0.2 0.4 0.4 1 0.3 1.8z"/>
	</g>
	<g class="st12">
		<path class="st5" d="m353.8 42c0.3 0.8 0.6 1.6 0.9 2.4 0.2 0.8 0.5 1.7 0.8 2.6 0.4 0.9 0.8 1.9 1.2 3s0.7 2.1 1.1 3.1c1 2.9 2.1 5.7 3.3 8.4 1.1 2.7 2.3 5.5 3.5 8.3 0.1 0.4 0.2 0.8 0.4 1.1 0.1 0.4 0.4 0.8 0.7 1.2 1.7-5.1 3.6-10 5.6-14.8 2.1-4.8 4.2-9.5 6.3-14.3 0.3-0.5 0.8-0.9 1.3-1.3s1.1-0.5 1.7-0.5c0.3 0 0.5 0.1 0.6 0.3s0.2 0.5 0.3 0.7c0 1.1 0 2.3 0.1 3.4s0.1 2.2 0.3 3.3c0.5 7 1.2 13.9 2.2 20.7s2.2 13.7 3.6 20.7c0.8 4 1.6 7.8 2.5 11.5 0.8 3.6 1.8 7.4 3 11.4 0.6 1.9 1.2 3.8 1.7 5.8 0.6 2 1.2 3.9 1.9 5.7 0.2 0.1 0.5 0.3 0.7 0.7 0.2 0.3 0.3 0.6 0.3 0.9 0.1 1.3-0.2 2.5-0.8 3.5-0.7 1-1.5 1.8-2.5 2.5-0.5 0.2-1 0.4-1.5 0.3-0.6 0-1.1-0.2-1.5-0.6-0.3-0.3-0.5-0.7-0.6-1.1s-0.2-0.9-0.3-1.4c-2.2-7.4-4.1-14.7-5.6-22-1.5-7.2-2.9-14.8-4-22.7-0.3-1.7-0.6-3.4-0.8-5-0.3-1.7-0.4-3.3-0.6-5-0.6-3.8-1-7.6-1.3-11.6s-0.6-7.8-0.9-11.7h-0.3c-1.2 2.4-2.3 4.8-3.4 7.2s-2.1 4.9-3.1 7.3c-0.5 1.7-1 3.5-1.6 5.3-0.5 1.9-1 3.6-1.4 5.3 0.1 1.1-0.1 2-0.6 2.9s-1.2 1.6-2 2.2c-0.8 0.5-1.6 0.5-2.4 0.1-0.3-0.1-0.5-0.3-0.6-0.7-0.1-0.3-0.2-0.6-0.2-0.8-0.5-1.4-1.1-2.7-1.6-4-0.6-1.3-1.1-2.6-1.7-4-0.1-0.2-0.2-0.4-0.3-0.7-0.1-0.2-0.1-0.5-0.3-0.8-0.5-1.1-0.9-2.2-1.3-3.3-0.4-1.2-0.9-2.2-1.5-3.2l-1.5-3.6c-0.5-1.2-1-2.4-1.4-3.4-0.3-0.4-0.5-0.8-0.7-1.2-0.1-0.4-0.3-0.8-0.6-1.2l-0.2 0.1c-1.2 8.2-2.4 16.3-3.8 24.2s-2.9 15.8-4.6 23.8c-0.2 0.9-0.5 1.7-0.8 2.6-0.3 0.8-0.8 1.4-1.6 1.7-0.2 0.1-0.5 0.1-0.7 0.1s-0.5 0-0.8-0.1c-0.4-0.1-0.6-0.3-0.7-0.8s-0.1-0.9 0-1.2c0.6-1 1.1-2.1 1.3-3.2s0.5-2.2 0.8-3.2c0.5-1.5 0.8-3 1.1-4.5s0.6-2.9 1-4.2c0-0.7 0.1-1.3 0.2-2 0.1-0.6 0.3-1.3 0.6-2l0.3-2.4c0.2-0.8 0.3-1.6 0.3-2.4l0.3-1.5c0.1-0.5 0.2-1.1 0.3-1.7 0.3-3 0.7-6.1 1.2-9.1 0.4-3.1 0.7-6.2 0.9-9.4l0.5-5.4c0-0.2 0-0.4 0.1-0.5 0-2.1 0.1-4.2 0.3-6.2-0.4-0.5-0.5-1.1-0.3-1.8s0.5-1.3 0.8-1.8c0.6-0.8 1.4-1.6 2.3-2.3s1.8-1 2.9-0.7c0.5 0.3 0.9 0.6 1.2 1z"/>
		<path class="st5" d="m420 74.1c0.3 0.2 0.6 0.5 0.7 0.8 0.2 0.2 0.3 0.5 0.3 0.8 0 0.4 0 0.7-0.1 0.9-0.3 0.7-0.7 1.2-1.3 1.5s-1.1 0.6-1.8 0.9c-0.4 0.1-0.8 0.1-1.1 0.1h-1c-0.6 0-1.2-0.2-1.8-0.8-1.2-0.9-2.6-1.5-4.2-1.8s-3.1-0.2-4.5 0.3c-0.8 0.4-1.6 0.8-2.3 1.2s-1.2 1-1.6 1.8c-1 1.2-1.6 2.6-1.8 4.1-0.1 1.6-0.1 3.1 0.2 4.5 0.3-0.1 0.5-0.3 0.7-0.6 0.2-0.2 0.4-0.4 0.7-0.6 1.3-1 2.8-1.3 4.5-0.8h0.5c0.1 0 0.3 0 0.6 0.1 0.6 0 1.2 0.1 1.8 0.2s1.2 0.2 1.8 0.1h3.3c1.1 0 2.2-0.2 3.1-0.7 1.3-0.1 2.2 0.1 2.7 0.8 0.2 0.3 0.3 0.6 0.5 0.9 0.1 0.3 0.2 0.6 0.1 1.1-0.3 0.8-0.7 1.3-1.3 1.8-0.6 0.4-1.2 0.8-1.9 1-0.7 0.3-1.4 0.4-2.2 0.5s-1.5 0.2-2.2 0.2c-1.7 0.2-3.4 0.3-5 0.3h-5.1l-0.1 0.1c-0.1-0.1-0.2-0.1-0.3 0 0.2 0.9 0.5 1.6 1.1 2.3 0.5 0.6 1.1 1.3 1.5 2 1 1 2.1 1.9 3.3 2.6s2.6 1.1 4.1 1.3c1.4 0.3 3 0.3 4.5-0.2 1.6-0.4 2.8-1.3 3.7-2.5 0.4-0.4 0.9-0.6 1.3-0.8 0.5-0.2 1-0.1 1.4 0.2 0.4 0.5 0.5 1 0.3 1.4s-0.3 0.9-0.5 1.4c-1.3 2.3-3 4-4.9 5.1-0.5 0.3-1 0.6-1.6 0.8-1 0.4-2.2 0.6-3.3 0.8-1.2 0.2-2.4 0.1-3.5-0.1-1.6-0.2-3.2-0.8-4.6-1.6s-2.8-1.8-3.9-3c-1.2-1.2-2.2-2.5-3-4s-1.4-3-1.7-4.7c-0.9-3.6-0.8-7.1 0.2-10.4 1-3.4 2.8-6.2 5.5-8.4 2-1.6 4.3-2.7 6.9-3.3s5.2-0.3 7.7 0.7c0.6 0.1 1 0.3 1.4 0.5 0.3 0.2 0.8 0.3 1.2 0.5 0.4 0.4 0.6 0.5 1 0.7z"/>
		<path class="st5" d="m451.5 74.1c0.3 0.2 0.6 0.5 0.7 0.8 0.2 0.2 0.3 0.5 0.3 0.8 0 0.4 0 0.7-0.1 0.9-0.3 0.7-0.7 1.2-1.3 1.5s-1.1 0.6-1.8 0.9c-0.4 0.1-0.8 0.1-1.1 0.1h-1c-0.6 0-1.2-0.2-1.8-0.8-1.2-0.9-2.6-1.5-4.2-1.8s-3.1-0.2-4.5 0.3c-0.8 0.4-1.6 0.8-2.3 1.2s-1.2 1-1.6 1.8c-1 1.2-1.6 2.6-1.8 4.1-0.1 1.6-0.1 3.1 0.2 4.5 0.3-0.1 0.5-0.3 0.7-0.6 0.2-0.2 0.4-0.4 0.7-0.6 1.3-1 2.8-1.3 4.5-0.8h0.5c0.1 0 0.3 0 0.6 0.1 0.6 0 1.2 0.1 1.8 0.2s1.2 0.2 1.8 0.1h3.3c1.1 0 2.2-0.2 3.1-0.7 1.3-0.1 2.2 0.1 2.7 0.8 0.2 0.3 0.3 0.6 0.5 0.9 0.1 0.3 0.2 0.6 0.1 1.1-0.3 0.8-0.7 1.3-1.3 1.8-0.6 0.4-1.2 0.8-1.9 1-0.7 0.3-1.4 0.4-2.2 0.5s-1.5 0.2-2.2 0.2c-1.7 0.2-3.4 0.3-5 0.3h-5.1l-0.1 0.1c-0.1-0.1-0.2-0.1-0.3 0 0.2 0.9 0.5 1.6 1.1 2.3 0.5 0.6 1.1 1.3 1.5 2 1 1 2.1 1.9 3.3 2.6s2.6 1.1 4.1 1.3c1.4 0.3 3 0.3 4.5-0.2 1.6-0.4 2.8-1.3 3.7-2.5 0.4-0.4 0.9-0.6 1.3-0.8 0.5-0.2 1-0.1 1.4 0.2 0.4 0.5 0.5 1 0.3 1.4s-0.3 0.9-0.5 1.4c-1.3 2.3-3 4-4.9 5.1-0.5 0.3-1 0.6-1.6 0.8-1 0.4-2.2 0.6-3.3 0.8-1.2 0.2-2.4 0.1-3.5-0.1-1.6-0.2-3.2-0.8-4.6-1.6s-2.8-1.8-3.9-3c-1.2-1.2-2.2-2.5-3-4s-1.4-3-1.7-4.7c-0.9-3.6-0.8-7.1 0.2-10.4 1-3.4 2.8-6.2 5.5-8.4 2-1.6 4.3-2.7 6.9-3.3s5.2-0.3 7.7 0.7c0.6 0.1 1 0.3 1.4 0.5 0.3 0.2 0.8 0.3 1.2 0.5 0.4 0.4 0.6 0.5 1 0.7z"/>
		<path class="st5" d="m465.5 72.2c0.4 0.4 0.6 0.8 0.4 1.4-0.1 0.6-0.1 1.1 0 1.5 2.6-1.9 5.5-2.9 8.6-3.1s6.1 0.6 8.9 2.4c2.8 2 5 4.6 6.4 7.8s1.9 6.6 1.4 10.2c-0.2 1.6-0.6 3.2-1.3 4.7s-1.5 2.9-2.5 4.2-2.1 2.4-3.4 3.3-2.6 1.6-4 2.1c-2.9 1.1-5.9 1.2-9.1 0.3-1-0.3-2-0.7-3-1.2s-1.9-1.3-2.4-2.3c-0.3-0.9-0.2-1.6 0.3-2.3s1.1-1.2 1.7-1.6c0.4-0.3 0.8-0.5 1.2-0.7 0.4-0.1 0.9-0.1 1.4 0.2 0.3 0.6 0.7 1.1 1.3 1.5s1.2 0.7 1.8 1c0.8 0.4 1.7 0.7 2.6 1 1 0.3 1.9 0.5 2.9 0.6s2 0 2.9-0.2c1-0.2 1.8-0.7 2.6-1.5 0.8-0.6 1.4-1.4 1.9-2.4 0.5-0.9 0.8-1.9 1-3 0.2-1 0.2-2.1 0.1-3.2s-0.3-2.1-0.6-3.1c-0.5-1.4-1.1-2.8-1.8-4.2-0.7-1.3-1.6-2.6-2.6-3.6l-0.5-0.5s-0.4-0.3-0.7-0.5c-1.5-1.6-3.3-2.8-5.3-3.7s-4.1-1.1-6.3-0.8c-0.6 0.1-1.3 0.2-2 0.3-0.7 0.2-1.4 0.5-2 1 0.1 0.1 0.1 0.3 0.1 0.5-0.1 0.2 0 0.4 0.1 0.6-0.1 0.1-0.1 0.1-0.1 0.2 0.1 0.1 0.1 0.2 0.1 0.3-0.3 3.3-0.5 6.5-0.7 9.6s-0.2 6.3-0.1 9.5c-0.1 0.1-0.1 0.3 0 0.4s0.1 0.3 0 0.4c0 3.6 0.1 7.2 0.3 10.6s0.4 6.9 0.5 10.5c0.1 0.9 0.2 2 0.1 3.2 0 1.2-0.4 2.1-1.3 3-0.6 0.6-1.2 1.2-1.8 1.6-0.6 0.5-1.4 0.6-2.2 0.5-0.3-0.1-0.6-0.3-0.9-0.5s-0.5-0.5-0.5-1v-3.4s0.1-2.4 0.2-3.5c-0.1-0.4-0.1-0.9 0-1.5 0.2-7.4 0.3-14.5 0.3-21.4-0.1-6.8-0.3-13.9-0.7-21.3 0.3-1.3 0.9-2.3 1.7-3.2 0.9-0.9 1.9-1.4 3-1.6 0.3-0.1 0.6 0 0.8 0.1 0.7 0.6 0.9 0.7 1.2 0.8z"/>
		<path class="st5" d="m503.6 42.3c-0.1 1.3-0.2 2.5-0.3 3.7-0.1 1.1-0.1 2.3-0.1 3.6-0.1 0.8-0.1 1.5-0.1 2.1 0.1 0.7 0 1.4-0.1 2.1 0.1 0.1 0.1 0.3 0 0.4s-0.1 0.3 0 0.4c-0.1 2.9-0.1 5.7-0.1 8.5 0.1 2.8 0 5.6-0.1 8.4 0.1 3 0.1 6 0 8.9 0 2.9 0 5.8 0.1 8.6 0.1 2.2 0.1 4.5 0.2 6.8 0.1 2.4 0.2 4.6 0.4 6.8-0.2 1.1-0.7 2.2-1.4 3.1s-1.5 1.6-2.5 1.9c-0.3 0.1-0.7 0.2-1 0.2-0.5 0-0.8 0-1-0.1-0.7-0.3-1-1-1-2 0.2-4.9 0.4-9.6 0.5-14.2 0.1-4.5 0.2-9.2 0.2-13.9v-5s0-3.2 0-4.9c0.1-0.1 0.1-0.2 0-0.3v-0.3c-0.1-3.4-0.1-6.8-0.1-10.2s-0.2-6.8-0.4-10.2c0.1-0.6 0.2-1.1 0.3-1.7 0.1-0.5 0.3-1.1 0.7-1.6-0.1-0.1 0.1-0.4 0.4-0.8 0.5-0.6 1-1.1 1.5-1.5s1.1-0.7 1.8-0.8c0.4 0 0.8 0.1 1 0.4 0.3 0.3 0.5 0.6 0.6 0.9l0.5 0.7z"/>
		<path class="st5" d="m533 74.1c0.3 0.2 0.6 0.5 0.7 0.8 0.2 0.2 0.3 0.5 0.3 0.8 0 0.4 0 0.7-0.1 0.9-0.3 0.7-0.7 1.2-1.3 1.5s-1.1 0.6-1.8 0.9c-0.4 0.1-0.8 0.1-1.1 0.1s-0.7 0-1 0c-0.6 0-1.2-0.2-1.8-0.8-1.2-0.9-2.6-1.5-4.2-1.8s-3.1-0.2-4.5 0.3c-0.8 0.4-1.6 0.8-2.3 1.2s-1.2 1-1.6 1.8c-1 1.2-1.6 2.6-1.8 4.1-0.1 1.6-0.1 3.1 0.2 4.5 0.3-0.1 0.5-0.3 0.7-0.6 0.2-0.2 0.4-0.4 0.7-0.6 1.3-1 2.8-1.3 4.5-0.8h0.5c0.1 0 0.3 0 0.6 0.1 0.6 0 1.2 0.1 1.8 0.2s1.2 0.2 1.8 0.1h3.3c1.1 0 2.2-0.2 3.1-0.7 1.3-0.1 2.2 0.1 2.7 0.8 0.2 0.3 0.3 0.6 0.5 0.9 0.1 0.3 0.2 0.6 0.1 1.1-0.3 0.8-0.7 1.3-1.3 1.8-0.6 0.4-1.2 0.8-1.9 1-0.7 0.3-1.4 0.4-2.2 0.5s-1.5 0.2-2.2 0.2c-1.7 0.2-3.4 0.3-5 0.3h-5.1l-0.1 0.1c-0.1-0.1-0.2-0.1-0.3 0 0.2 0.9 0.5 1.6 1.1 2.3 0.5 0.6 1.1 1.3 1.5 2 1 1 2.1 1.9 3.3 2.6s2.6 1.1 4.1 1.3c1.4 0.3 3 0.3 4.5-0.2 1.6-0.4 2.8-1.3 3.7-2.5 0.4-0.4 0.9-0.6 1.3-0.8 0.5-0.2 1-0.1 1.4 0.2 0.4 0.5 0.5 1 0.3 1.4s-0.3 0.9-0.5 1.4c-1.3 2.3-3 4-4.9 5.1-0.5 0.3-1 0.6-1.6 0.8-1 0.4-2.2 0.6-3.3 0.8-1.2 0.2-2.4 0.1-3.5-0.1-1.6-0.2-3.2-0.8-4.6-1.6s-2.8-1.8-3.9-3c-1.2-1.2-2.2-2.5-3-4s-1.4-3-1.7-4.7c-0.9-3.6-0.8-7.1 0.2-10.4 1-3.4 2.8-6.2 5.5-8.4 2-1.6 4.3-2.7 6.9-3.3s5.2-0.3 7.7 0.7c0.6 0.1 1 0.3 1.4 0.5 0.3 0.2 0.8 0.3 1.2 0.5 0.4 0.4 0.6 0.5 1 0.7z"/>
	</g>
	<g class="st12">
		<path class="st5" d="m434.7 118.9c0.2 0 0.4 0.1 0.7 0.1 0.5 0.2 1.1 0.4 1.7 0.7 0.2-0.1 0.2-0.1 0.2 0.1 0 0.1 0 0.2 0.1 0.1 0.3 0 0.6 0.2 0.7 0.6 0.1 0.5 0 0.9-0.1 1.3-0.2 0.4-0.4 0.8-0.7 1.1-0.5 0.5-1.1 0.9-1.7 1-0.3-0.1-0.6-0.3-0.8-0.6s-0.5-0.5-0.8-0.5c-0.5-0.3-0.9-0.5-1.4-0.8-0.5-0.2-1-0.4-1.5-0.5-0.1-0.1-0.2-0.2-0.4-0.1-0.2 0-0.4 0-0.6-0.1-0.7-0.1-1.4-0.1-2.1 0.1s-1.3 0.4-1.9 0.8-1.2 0.9-1.7 1.4-1 1.2-1.4 1.8c-1.1 1.5-1.9 3.1-2.5 4.8s-1 3.5-1.3 5.3c-0.2 1.8-0.3 3.7-0.1 5.6 0.1 1.9 0.4 3.8 0.9 5.6 0.4 1.2 0.9 2.5 1.6 3.7s1.5 2.3 2.3 3.3c1.4 1.5 3 2.6 4.9 3.3 1.8 0.7 3.8 0.8 5.9 0.4 0.1-0.1 0.1-0.1 0.2-0.1s0.2 0 0.2-0.1l1.8-0.6c0.6-0.2 1.1-0.5 1.6-1v-13.4-1.1c0-0.4 0-0.7-0.1-1.1-0.1-0.1-0.2-0.1-0.3-0.1s-0.2 0-0.3-0.1h-3.1s-2.1 0.2-3.1 0.5c-0.2 0-0.4 0-0.6 0.1s-0.4 0.1-0.6 0c-0.2 0.1-0.4 0.1-0.6-0.1-0.2-0.1-0.4-0.3-0.5-0.5-0.2-0.5-0.2-0.9-0.1-1.4 0.2-0.5 0.4-0.9 0.7-1.3 0.4-0.7 1-1.2 1.8-1.4s1.5-0.2 2.2-0.1h3.4s2.3-0.2 3.4-0.5h0.5s0.4 0.1 0.5 0.3c0.2 0.4 0.3 0.7 0.3 1.1v1.1s0 0.7-0.1 1.1v1c0 0.8-0.1 1.5-0.1 2.3v2.2s0 1.5 0 2.3c0 0.7 0 1.5 0.1 2.3-0.1 0-0.1 0.1-0.1 0.1s0.1 0.1 0.1 0.2c0 3.8 0 7.6 0.1 11.4s0.3 7.5 0.6 11.3c0 0.8-0.2 1.5-0.7 2.2s-1 1.1-1.6 1.5c-0.3 0.1-0.5 0.2-0.8 0.2-0.3 0.1-0.6 0-0.9-0.2-0.4-0.4-0.6-0.8-0.6-1.4v-1.5-1.5s0-0.9 0.1-1.4l0.3-10.9v-0.2l-1.8 1.5c-0.6 0.5-1.3 0.8-2 1-0.8 0.3-1.6 0.6-2.3 0.7-0.3 0-0.6 0.1-0.9 0.1s-0.6 0-1 0-0.7 0-1 0-0.6 0-0.9-0.1c-0.6-0.1-1.3-0.3-1.9-0.5s-1.2-0.5-1.9-0.8c-1.4-0.9-2.7-1.9-3.9-3.2-1.1-1.3-2.1-2.6-2.8-4.1-0.8-1.5-1.4-3.1-1.8-4.8s-0.7-3.4-0.8-5.2h-0.1v-2.6c0-0.9 0-1.8 0.2-2.6 0.1-0.4 0.1-0.8 0.1-1.3s0.1-0.9 0.3-1.2c0.1-0.5 0.2-1.1 0.3-1.5l0.3-1.5 0.2-0.1 0.6-2.1c0.3-0.6 0.5-1.3 0.8-2 0.3-0.5 0.6-1.1 0.9-1.6s0.6-1.1 1-1.5c1.7-2.5 3.8-4.4 6.3-5.6 2.5-1.3 5.1-1.7 8-1.2 0 0.4 0.2 0.5 0.4 0.5z"/>
		<path class="st5" d="m458.6 143.6c0.3 0.6 0.5 1.2 0.7 1.9 0.3 0.5 0.5 0.9 0.6 1.4s0.3 1 0.5 1.5c0.5 0 1.1-0.1 1.7-0.3 0.3 0.1 0.6 0.1 1 0s0.7 0 1 0.4c0.2 0.4 0.3 0.9 0.2 1.4s-0.2 1-0.4 1.4c-0.3 0.4-0.6 0.7-0.9 1s-0.7 0.5-1.1 0.7c0.2 1 0.4 2 0.7 3 0.2 1 0.5 2 0.7 2.9 0.3 1.1 0.5 2.1 0.6 3.2s0.3 2.2 0.5 3.3v0.3s0 0.1 0 0.2c0.1 0.6 0.2 1.2 0.3 1.7l0.3 1.5c-0.1 0.3-0.1 0.5 0.1 0.7s0.1 0.4 0.1 0.7c0.1 0.7 0.1 1.4 0.1 2s0.1 1.3 0.3 2c0 0.5-0.2 0.9-0.5 1.2s-0.6 0.7-1 0.9h-0.2-0.3c-0.2 0-0.4 0-0.4-0.1-0.2-0.2-0.3-0.4-0.5-0.6-0.1-0.2-0.2-0.4-0.1-0.8 0-0.4 0-0.7-0.1-1.1s-0.1-0.7-0.2-1.1c-0.5-3.3-1.1-6.6-1.9-9.7s-1.7-6.3-2.8-9.4c0 0-0.1 0-0.1-0.1s-0.1-0.1-0.2 0.1c-0.4 0-0.8 0.1-1.2 0.3s-0.8 0.3-1.2 0.4c-1.5 0.6-2.8 1.5-4.1 2.8-1.2 1.3-2.4 2.6-3.3 4-0.3 0.3-0.5 0.5-0.8 0.7s-0.6 0.2-1 0.2c-0.3-0.2-0.5-0.4-0.5-0.7s0-0.5 0.1-0.8 0.2-0.6 0.3-0.9 0.2-0.6 0.2-0.8c0.1-0.5 0.2-1 0.3-1.4s0.2-0.9 0.4-1.4c0.2-0.7 0.4-1.3 0.5-1.6 0-0.2 0-0.4 0.1-0.5 0-0.1 0.1-0.3 0.2-0.5l0.6-2.1c0.2-0.7 0.4-1.4 0.7-2-0.1-0.1-0.1-0.1 0.1-0.1s0.2 0 0.1-0.1c0.3-0.9 0.6-1.8 1-2.6 0.3-0.8 0.7-1.6 1.1-2.5 0.3-0.5 0.5-0.9 0.7-1.4s0.4-0.9 0.7-1.4c0.2-0.5 0.5-0.9 0.8-1.3s0.7-0.7 1.2-1c0.3-0.2 0.7-0.3 0.9-0.3 0.3 0 0.6 0.1 1 0.4 0.3 0.4 0.6 0.8 0.9 1.4 0.2 0.6 0.5 1.1 0.8 1.5 0.1 0.4 0.4 1 0.7 1.5zm-3.9 3.5c-0.5-0.9-1-1.8-1.5-2.8-2.1 3.6-3.5 7.5-4.3 11.7 0.4-0.5 0.8-0.9 1.1-1.4s0.8-0.9 1.3-1.3l0.1-0.2c0.5-0.4 1-0.8 1.5-1.3s1-0.8 1.6-1c0.2-0.3 0.4-0.4 0.8-0.5 0.3 0 0.6-0.2 0.8-0.5-0.5-0.9-0.9-1.8-1.4-2.7z"/>
		<path class="st5" d="m497 139.9c-0.1 0.4-0.2 0.8-0.4 1.1v0.2c-0.8 1.4-1.5 2.9-2.1 4.4s-1.1 3-1.5 4.6c-0.4 2.1-0.7 4.3-0.9 6.6s0 4.5 0.5 6.6c0.4 1.7 1 3.4 1.7 4.9s1.6 3 2.7 4.3c0.2 0.3 0.2 0.7 0.1 1.2s-0.3 0.8-0.4 1.2c-0.3 0.6-0.7 1.1-1.1 1.5s-0.9 0.7-1.5 0.7c-0.6-0.1-1.1-0.4-1.4-1s-0.6-1.1-1-1.6l-0.3-0.6s-0.2-0.4-0.3-0.5c-1-2.2-1.7-4.5-2-6.8-0.3-2.4-0.4-4.7-0.2-7.1 0.2-3.1 0.7-6.1 1.6-9s2-5.7 3.3-8.3c-1.2 0.1-2.5 0.2-3.7 0.2-1.3 0.1-2.6 0.2-3.9 0.2h-0.2-1.4s-0.9 0-1.3 0c0.3 0.7 0.4 1.5 0.2 2.3s-0.2 1.6-0.1 2.4v2.8c0 1.1 0 2.2 0.1 3.3s0.2 2.1 0.3 3.2c0 0.1-0.1 0.2-0.1 0.3s0 0.2 0.1 0.3c0 0.1-0.1 0.3-0.1 0.5 0 0.1 0 0.2-0.1 0.5-0.2 0.7-0.5 1.4-0.8 2.1-0.4 0.7-0.9 1.2-1.7 1.4-0.2 0.1-0.4 0.2-0.6 0.1-0.2 0-0.4-0.1-0.6-0.1s-0.2-0.1-0.3-0.2c0-0.1-0.1-0.2-0.3-0.3-0.3-0.7-0.4-1.5-0.1-2.3 0.2-0.8 0.3-1.6 0.4-2.3 0.2-1.2 0.3-2.4 0.3-3.6s0-2.4-0.2-3.6c-0.1-0.6-0.1-1.1-0.2-1.7-0.1-0.5-0.1-1.1-0.3-1.5 0.1-0.7 0.3-1.4 0.5-2 0.3-0.6 0.7-1.1 1.2-1.6-0.2-0.1-0.3-0.1-0.5-0.1s-0.4 0-0.5 0h-4.4-2.1s-1.5-0.1-2.2-0.1v0.1c0.7 3.1 1.2 6.3 1.4 9.7 0.3 3.4 0.1 6.7-0.4 9.8-0.2 1.1-0.4 2.1-0.6 3.1s-0.5 2-0.9 3c-0.8 2.3-1.9 4.4-3.1 6.5-0.2 0.2-0.4 0.4-0.5 0.7-0.2 0.3-0.4 0.5-0.5 0.7s-0.4 0.4-0.6 0.5-0.5 0.1-0.7 0.1c-0.3-0.1-0.4-0.3-0.4-0.6s0.1-0.6 0.1-0.9c0.1 0 0.2-0.1 0.1-0.2 0-0.1 0-0.2 0.1-0.1 0-0.1 0.1-0.2 0.1-0.3 0.1-0.1 0.1-0.2 0.1-0.3l0.2-0.1c0.1-0.2 0.2-0.5 0.3-0.7s0.2-0.5 0.3-0.7c0.2-0.2 0.4-0.5 0.5-0.8 0.2-0.4 0.3-0.7 0.4-1 0.9-2.2 1.5-4.5 1.9-6.9 0.3-2.4 0.4-4.8 0.3-7.3s-0.4-4.9-0.8-7.3c-0.5-2.4-1-4.7-1.7-7 0-0.1 0-0.2-0.1-0.4-0.1-0.1-0.1-0.2-0.2-0.4 0-0.7 0.2-1.4 0.5-2s0.8-1.2 1.3-1.6c0.3-0.1 0.5-0.3 0.8-0.4s0.6-0.2 0.9 0c0.3 0 0.6 0.1 0.9 0.1s0.7 0 1 0 0.7 0 1 0 0.7 0.1 1 0.1c0.2 0 0.4-0.1 0.6 0h0.6c1.9 0.1 3.8 0.2 5.7 0.2 1.9 0.1 3.8 0.1 5.7 0 0.4-0.1 0.7-0.1 0.9-0.1h1.1c0.5 0 0.9 0 1.3-0.1 0.4 0 0.9-0.1 1.3-0.1s0.8 0 1.2 0h1.1c0.5-0.1 0.9-0.1 1.2-0.1s0.7-0.1 1.2-0.2c0.6 0 1 0.4 1.1 0.9 0.2 0.7 0.2 1.1 0.1 1.5z"/>
		<path class="st5" d="m516.2 140.2c0.2 0.1 0.4 0.3 0.5 0.6 0.1 0.1 0.2 0.3 0.2 0.6 0 0.2 0 0.5-0.1 0.6-0.2 0.5-0.5 0.8-0.8 1l-1.2 0.6c-0.3 0-0.5 0.1-0.7 0.1s-0.4 0-0.6 0c-0.4 0-0.8-0.2-1.2-0.5-0.8-0.6-1.7-1-2.7-1.2s-2-0.1-3 0.2c-0.5 0.3-1 0.6-1.5 0.8s-0.8 0.6-1 1.2c-0.7 0.8-1.1 1.7-1.2 2.7s0 2 0.1 3c0.2-0.1 0.4-0.2 0.5-0.4s0.3-0.3 0.4-0.4c0.8-0.7 1.8-0.8 3-0.5h0.3c0.1 0 0.2 0 0.4 0.1 0.4 0 0.8 0 1.2 0.1s0.8 0.1 1.2 0.1h2.1s1.4-0.1 2-0.5c0.8-0.1 1.4 0.1 1.8 0.5l0.3 0.6c0.1 0.2 0.1 0.4 0.1 0.7-0.2 0.5-0.5 0.9-0.9 1.2s-0.8 0.5-1.3 0.7-0.9 0.3-1.4 0.3c-0.5 0.1-1 0.1-1.4 0.2-1.1 0.1-2.2 0.2-3.3 0.2h-3.4l-0.1 0.1h-0.2c0.1 0.6 0.4 1.1 0.7 1.5 0.4 0.4 0.7 0.8 1 1.3 0.6 0.7 1.4 1.2 2.2 1.7s1.7 0.8 2.7 0.8c1 0.2 1.9 0.2 3-0.1 1-0.3 1.8-0.8 2.5-1.7 0.3-0.2 0.6-0.4 0.9-0.5s0.6-0.1 0.9 0.2 0.3 0.6 0.2 0.9l-0.3 0.9c-0.9 1.5-1.9 2.6-3.2 3.3-0.3 0.2-0.7 0.4-1 0.6-0.7 0.2-1.4 0.4-2.2 0.5s-1.6 0.1-2.3-0.1c-1.1-0.2-2.1-0.5-3-1-1-0.5-1.8-1.2-2.6-2s-1.4-1.7-2-2.6c-0.5-1-0.9-2-1.1-3.1-0.6-2.4-0.5-4.6 0.1-6.9 0.7-2.2 1.9-4.1 3.6-5.5 1.3-1.1 2.8-1.8 4.5-2.2s3.4-0.2 5.1 0.4c0.4 0.1 0.7 0.2 0.9 0.3s0.5 0.2 0.8 0.3c0.1 0.1 0.3 0.2 0.5 0.3z"/>
		<path class="st5" d="m533.8 140.6c-0.2 0.4-0.5 0.7-0.8 1.1-0.4 0.4-0.7 0.6-1.1 0.8-0.3 0.2-0.6 0.5-0.9 0.7s-0.6 0.4-0.9 0.7c-1 0.7-1.8 1.4-2.7 2.2-0.8 0.8-1.6 1.6-2.5 2.4 1.6-0.1 3.2-0.1 4.9-0.1s3.3 0.2 4.9 0.4c0.5-0.1 1-0.1 1.4 0.2 0.2 0.2 0.3 0.4 0.3 0.6 0.1 0.2 0 0.4 0 0.6-0.1 0.5-0.3 1-0.6 1.4s-0.7 0.8-1.1 1.2c-2.4 3.1-4.5 6.4-6.2 9.9s-2.7 7.3-3 11.3c-0.2 0.5-0.4 0.9-0.8 1.3s-0.8 0.7-1.3 0.9c-0.5 0.1-0.9 0-1.1-0.2-0.3-0.2-0.4-0.4-0.4-0.7s0-0.6 0-0.8c0.9-5.2 2.7-9.9 5.4-14.1 0.6-1.1 1.3-2.2 2.1-3.2 0.7-1.1 1.6-2.1 2.4-3.1-0.4-0.2-0.9-0.3-1.3-0.3-0.5 0-0.9-0.1-1.4-0.2-1.1-0.1-2.1-0.2-3.2-0.2h-3.2c-0.2 0.1-0.4 0.1-0.7 0.2-0.3 0-0.5 0-0.8-0.1-0.2-0.1-0.3-0.2-0.4-0.3s-0.2-0.3-0.3-0.4c-0.1-0.4-0.1-0.8 0-1.1s0.3-0.6 0.5-1c1.7-2.1 3.5-4.1 5.3-6s3.7-3.7 5.6-5.3c0.3-0.1 0.6-0.2 0.9-0.2s0.6 0.1 0.9 0.3c0.3 0 0.3 0.5 0.1 1.1z"/>
	</g>
</g>
<g class="st11">
	<g class="st12">
		<path class="st1" d="m177.8 42c0.3 0.8 0.6 1.6 0.9 2.4 0.2 0.8 0.5 1.7 0.8 2.6 0.4 0.9 0.8 1.9 1.2 3s0.7 2.1 1.1 3.1c1 2.9 2.1 5.7 3.3 8.4 1.1 2.7 2.3 5.5 3.5 8.3 0.1 0.4 0.2 0.8 0.4 1.1 0.1 0.4 0.4 0.8 0.7 1.2 1.7-5.1 3.6-10 5.6-14.8 2.1-4.8 4.2-9.5 6.3-14.3 0.3-0.5 0.8-0.9 1.3-1.3s1.1-0.5 1.7-0.5c0.3 0 0.5 0.1 0.6 0.3s0.2 0.5 0.3 0.7c0 1.1 0 2.3 0.1 3.4s0.1 2.2 0.3 3.3c0.5 7 1.2 13.9 2.2 20.7s2.2 13.7 3.6 20.7c0.8 4 1.6 7.8 2.5 11.5 0.8 3.6 1.8 7.4 3 11.4 0.6 1.9 1.2 3.8 1.7 5.8 0.6 2 1.2 3.9 1.9 5.7 0.2 0.1 0.5 0.3 0.7 0.7 0.2 0.3 0.3 0.6 0.3 0.9 0.1 1.3-0.2 2.5-0.8 3.5-0.7 1-1.5 1.8-2.5 2.5-0.5 0.2-1 0.4-1.5 0.3-0.6 0-1.1-0.2-1.5-0.6-0.3-0.3-0.5-0.7-0.6-1.1s-0.2-0.9-0.3-1.4c-2.2-7.4-4.1-14.7-5.6-22-1.5-7.2-2.9-14.8-4-22.7-0.3-1.7-0.6-3.4-0.8-5-0.3-1.7-0.4-3.3-0.6-5-0.6-3.8-1-7.6-1.3-11.6s-0.6-7.8-0.9-11.7h-0.3c-1.2 2.4-2.3 4.8-3.4 7.2s-2.1 4.9-3.1 7.3c-0.5 1.7-1 3.5-1.6 5.3-0.5 1.9-1 3.6-1.4 5.3 0.1 1.1-0.1 2-0.6 2.9s-1.2 1.6-2 2.2c-0.8 0.5-1.6 0.5-2.4 0.1-0.3-0.1-0.5-0.3-0.6-0.7-0.1-0.3-0.2-0.6-0.2-0.8-0.5-1.4-1.1-2.7-1.6-4-0.6-1.3-1.1-2.6-1.7-4-0.1-0.2-0.2-0.4-0.3-0.7-0.1-0.2-0.1-0.5-0.3-0.8-0.5-1.1-0.9-2.2-1.3-3.3-0.4-1.2-0.9-2.2-1.5-3.2l-1.5-3.6c-0.5-1.2-1-2.4-1.4-3.4-0.3-0.4-0.5-0.8-0.7-1.2-0.1-0.4-0.3-0.8-0.6-1.2l-0.2 0.1c-1.2 8.2-2.4 16.3-3.8 24.2s-2.9 15.8-4.6 23.8c-0.2 0.9-0.5 1.7-0.8 2.6-0.3 0.8-0.8 1.4-1.6 1.7-0.2 0.1-0.5 0.1-0.7 0.1s-0.5 0-0.8-0.1c-0.4-0.1-0.6-0.3-0.7-0.8s-0.1-0.9 0-1.2c0.6-1 1.1-2.1 1.3-3.2s0.5-2.2 0.8-3.2c0.5-1.5 0.8-3 1.1-4.5s0.6-2.9 1-4.2c0-0.7 0.1-1.3 0.2-2 0.1-0.6 0.3-1.3 0.6-2l0.3-2.4c0.2-0.8 0.3-1.6 0.3-2.4l0.3-1.5s0.2-1.1 0.3-1.7c0.3-3 0.7-6.1 1.2-9.1 0.4-3.1 0.7-6.2 0.9-9.4l0.5-5.4c0-0.2 0-0.4 0.1-0.5 0-2.1 0.1-4.2 0.3-6.2-0.4-0.5-0.5-1.1-0.3-1.8s0.5-1.3 0.8-1.8c0.6-0.8 1.4-1.6 2.3-2.3s1.8-1 2.9-0.7c0.5 0.3 0.8 0.6 1.2 1z"/>
		<path class="st1" d="m239.4 79.3c0.4 0.8 0.8 1.8 1.1 2.9 0.4 0.7 0.7 1.4 0.9 2.1s0.4 1.5 0.7 2.4c0.8 0 1.6-0.2 2.6-0.5 0.5 0.1 1 0.1 1.6 0s1.1 0.1 1.5 0.6c0.3 0.6 0.4 1.3 0.3 2.1s-0.4 1.4-0.7 2.1c-0.5 0.6-0.9 1.1-1.3 1.5s-1 0.7-1.7 1c0.3 1.6 0.6 3.1 1 4.6s0.7 3 1 4.4c0.5 1.6 0.8 3.3 1 4.9s0.4 3.3 0.8 5c-0.1 0.2-0.1 0.3 0 0.4v0.3c0.1 0.9 0.2 1.8 0.4 2.5 0.1 0.8 0.3 1.5 0.4 2.4-0.1 0.4-0.1 0.8 0.1 1s0.2 0.6 0.1 1c0.1 1.1 0.2 2.1 0.2 3s0.2 1.9 0.5 3c0 0.7-0.2 1.3-0.7 1.8s-1 1-1.5 1.4h-0.3s-0.3 0-0.4 0c-0.3 0-0.6 0-0.6-0.1-0.3-0.3-0.5-0.6-0.7-0.9s-0.2-0.7-0.2-1.2c0.1-0.6 0-1.1-0.1-1.7s-0.2-1.1-0.3-1.6c-0.8-5.1-1.7-10-2.9-14.8s-2.6-9.5-4.3-14.2c-0.1 0-0.1-0.1-0.2-0.2s-0.1-0.1-0.3 0.1c-0.6 0.1-1.2 0.2-1.8 0.5s-1.1 0.5-1.8 0.7c-2.3 0.9-4.3 2.3-6.2 4.2s-3.6 4-5.1 6c-0.4 0.4-0.8 0.8-1.2 1.1s-0.9 0.4-1.6 0.2c-0.5-0.3-0.7-0.7-0.8-1.1s0-0.8 0.1-1.3c0.1-0.4 0.3-0.9 0.5-1.4s0.3-0.9 0.3-1.3c0.1-0.8 0.2-1.5 0.4-2.1 0.1-0.7 0.4-1.4 0.7-2.1 0.3-1.1 0.5-1.9 0.8-2.4 0-0.3 0-0.6 0.1-0.8s0.1-0.4 0.3-0.8c0.3-1.1 0.7-2.1 1-3.2s0.7-2.1 1.1-3.1c-0.1-0.1-0.1-0.2 0.1-0.2s0.2 0 0.2-0.1c0.5-1.4 1-2.7 1.5-3.9s1.1-2.4 1.7-3.8c0.4-0.7 0.8-1.4 1.1-2.1s0.7-1.4 1-2.1 0.8-1.3 1.3-1.9 1.1-1.1 1.9-1.6c0.5-0.2 1-0.4 1.4-0.5s0.9 0.1 1.5 0.6c0.5 0.6 1 1.3 1.3 2.1s0.8 1.6 1.2 2.3c0.2 1.1 0.5 2 1 2.8zm-5.9 5.2c-0.7-1.4-1.4-2.8-2.3-4.2-3.1 5.5-5.3 11.4-6.5 17.8 0.6-0.7 1.2-1.4 1.7-2.1s1.2-1.3 2-2l0.1-0.4c0.8-0.6 1.6-1.3 2.3-1.9 0.8-0.7 1.6-1.2 2.4-1.6 0.3-0.4 0.7-0.7 1.2-0.7s0.9-0.3 1.2-0.7c-0.7-1.3-1.4-2.8-2.1-4.2z"/>
		<path class="st1" d="m269.3 69.3c2.3 0.5 4.4 1.7 6.4 3.5 1.9 1.8 3.2 4 3.9 6.4 0.9 3 1 5.9 0.3 8.8s-2.1 5.3-4.1 7.4c-1.5 1.5-3.3 2.5-5.3 3.1s-4 0.7-5.9 0.4c-0.6 0.1-1.2 0-1.8-0.3s-1.1-0.5-1.8-0.6c-0.4 0.8-0.8 1.5-1.1 2.2s-0.7 1.4-1.1 2.1l-0.8 1.3c0.9-0.2 1.9-0.4 2.9-0.6s1.9-0.4 2.9-0.4c0.2-0.1 0.5-0.2 0.9-0.2 0.3 0 0.6-0.1 0.9-0.2l0.3 0.2c0.5 0 0.9 0 1.3-0.1s0.9-0.1 1.3 0c1.4-0.1 2.9-0.1 4.4 0 0.1-0.1 0.4-0.1 0.9-0.1 0.5-0.1 1.1-0.1 1.6 0s1 0.4 1.3 0.9c0.3 0.4 0.4 0.9 0.3 1.4s-0.2 0.9-0.4 1.4c-0.6 1-1.3 1.8-2.1 2.4s-1.7 1.1-2.6 1.5c-1.4 1.1-2.8 2.4-4.1 3.7-1.4 1.3-2.6 2.8-3.7 4.4-0.9 1.4-1.6 2.8-2.3 4.2s-1.1 3-1.3 4.7c-0.1 0.6-0.4 1.1-1 1.6-0.5 0.5-1.1 0.8-1.7 0.9-0.2 0-0.5 0-0.8-0.1s-0.5-0.3-0.7-0.7c-0.3-0.6-0.4-1.3-0.1-2.1 0.2-0.9 0.5-1.7 0.8-2.6 0.3-0.8 0.6-1.6 0.9-2.4 1.1-2.3 2.4-4.3 4-6.2s3.3-3.6 5.1-5.2c-0.5-0.3-1.1-0.4-1.9-0.3h-2c-0.1-0.1-0.2-0.2-0.2-0.1s-0.1 0.1-0.1 0c-0.5-0.1-0.9 0-1.3 0s-0.9 0.1-1.3 0l-0.3 0.2c-0.9 0-1.7 0.1-2.6 0.2-0.9 0.2-1.7 0.4-2.5 0.6-0.5 0.2-1 0.2-1.5 0s-0.9-0.4-1.4-0.8c-0.2-0.3-0.4-0.6-0.5-0.9s-0.1-0.7 0-1.1c0.8-1.5 1.8-2.9 3-4.2s2.1-2.8 2.7-4.5c0.3-0.4 0.5-0.8 0.7-1.2 0.1-0.4 0.3-0.8 0.6-1.3-0.6-0.4-1.1-0.8-1.5-1.4s-0.9-1.1-1.3-1.7c-1.4-1.9-2.3-4.2-2.6-6.8-0.4-2.6-0.2-5 0.5-7.2 0.3-1.4 0.9-2.7 1.7-3.9s1.7-2.3 2.8-3.2 2.2-1.6 3.5-2.2 2.6-0.9 3.9-1h1c0.4 0 0.7 0 1-0.1 0.3 0.1 0.7 0.2 1 0.2 0.2-0.2 0.5-0.1 0.9 0zm2.1 7.4c-0.5-0.3-0.9-0.6-1.3-0.9s-0.8-0.6-1.3-1c-1.4-0.7-2.9-1.1-4.4-1.4-1.6-0.2-3.1 0-4.5 0.5-0.1 0.1-0.3 0.2-0.4 0.2-0.2 0-0.3 0.1-0.4 0.2-1.3 0.7-2.1 1.7-2.6 3.1-0.4 1.4-0.6 2.7-0.5 4 0.6 3.7 2.3 6.7 4.9 8.9l0.5 0.3c1.2 1.2 2.5 2.1 3.9 2.6 1.4 0.6 3 0.8 4.5 0.8 0.1 0 0.3 0 0.4 0.1 0.2 0.1 0.3 0 0.3-0.1 0.5-0.1 1.1-0.1 1.6-0.2s1.1-0.2 1.5-0.6c1.2-0.9 2.1-2.1 2.6-3.6s0.6-3 0.2-4.6c-0.1-0.6-0.3-1.2-0.5-1.8s-0.4-1.2-0.7-1.7c-0.1-0.2-0.2-0.4-0.2-0.5 0-0.2-0.1-0.3-0.3-0.3-0.1-0.4-0.3-0.7-0.5-1s-0.5-0.6-0.7-0.9c-0.3-0.4-0.7-0.8-1-1.3-0.3-0.2-0.7-0.6-1.1-0.8zm9.7-11.6c-0.2-0.2-0.5-0.4-0.7-0.3-0.3 0-0.5 0-0.8-0.1-0.7 0.1-1.3 0.5-1.8 1.1s-1 1.2-1.4 1.7c-0.3 0.6-0.6 1.2-1 1.8s-0.4 1.4-0.1 2.1c0.3 0.1 0.5 0.3 0.7 0.4 0.2 0.2 0.4 0.2 0.7 0.1 0.4 0 0.7-0.1 0.9-0.3s0.3-0.4 0.3-0.7c0.1-0.3 0.1-0.6 0.2-0.9s0.2-0.6 0.4-0.8c0.5-0.3 1.1-0.7 1.7-1 0.6-0.4 1-0.9 1.2-1.6 0.1-0.6 0-1.1-0.3-1.5z"/>
		<path class="st1" d="m292.4 78.6c-0.2 1.6-0.3 3.2-0.3 4.8-0.1 3.3-0.1 6.4-0.1 9.5 0.1 3 0.1 6.2 0.1 9.4-0.1 1.4-0.6 2.6-1.4 3.6s-1.8 1.6-3 1.9c-0.5 0.1-0.9 0.1-1.3 0s-0.8-0.4-1-0.9c-0.1-0.8-0.1-1.4 0-2s0.2-1.3 0.2-2.2c0.3-4 0.5-7.9 0.6-11.8s-0.1-7.9-0.5-12c0.1-1.4 0.5-2.7 1.2-3.9 0.8-1.1 1.8-1.9 3.1-2.4 0.4 0 0.9 0 1.3 0.1 0.5 0.1 0.9 0.4 1.1 0.9 0.2 1.7 0.1 3.4 0 5zm-0.2-13.9c-0.4 1.6-1.1 2.9-2.2 3.9-0.5 0.4-1 0.8-1.6 1-0.5 0.3-1.1 0.3-1.6 0.2-0.4-0.1-0.7-0.4-0.9-0.9-0.1-0.2-0.1-0.5-0.1-0.8 0.1-0.3 0.1-0.5 0.1-0.8v0.1l0.1-0.4c0-0.1 0-0.2 0.1-0.4 0.2-0.4 0.4-1 0.4-1.6 0.1-0.6-0.1-1.2-0.3-1.7-0.2-0.8 0-1.6 0.4-2.3 0.5-0.7 1-1.2 1.7-1.6s1.4-0.5 2.1-0.5c0.7 0.1 1.3 0.5 1.7 1.2 0.4 1.5 0.4 3 0.1 4.6z"/>
		<path class="st1" d="m323.5 76.2c-0.2 0.7-0.6 1.3-1.1 2-0.5 0.6-1.1 1.1-1.8 1.3-0.9 0.2-1.6 0-2.3-0.4-0.7-0.5-1.4-0.9-2-1.3-0.5-0.1-1-0.3-1.5-0.7-0.5-0.3-1-0.4-1.6-0.4-0.2-0.2-0.5-0.2-1-0.2-0.5 0.1-0.8 0-1.1-0.1-0.5 0.1-1 0.1-1.5 0-0.5 0-0.9 0-1.3 0.2-1.7 0.4-3.2 1.2-4.4 2.5-0.2 0.3-0.4 0.6-0.7 1-0.3 0.3-0.4 0.7-0.6 1.1-0.1 0.3-0.2 0.5-0.4 0.7-0.4 1.4-0.6 2.9-0.4 4.2 0.1 1.4 0.4 2.7 0.9 4s1.1 2.5 1.9 3.7 1.6 2.2 2.6 3.2c1.3 1.3 2.9 2.3 4.6 3.1s3.6 1 5.6 0.7c1.3-0.2 2.6-0.7 3.7-1.3s2.2-1.3 3.3-2.1l0.9-0.1v0.1c0.1 0 0.1 0 0.1 0.1 0.3 0.1 0.5 0.3 0.6 0.4l0.3 0.9c0.1 0.3 0 0.6-0.2 0.9l-1.9 3.1c-0.8 0.9-1.6 1.6-2.4 2.3s-1.7 1.2-2.7 1.6c-0.9 0.3-1.7 0.5-2.5 0.7-0.8 0.1-1.7 0.1-2.7 0-1.6-0.1-3.2-0.5-4.8-1-1.6-0.6-3-1.4-4.2-2.5-1-1-1.9-2.1-2.8-3.3s-1.7-2.5-2.3-3.9c-1-2.6-1.6-5.4-1.7-8.3s0.6-5.6 2-8.1c0-0.3 0.1-0.6 0.3-0.9 1.6-2.5 3.6-4.3 6-5.4s4.9-1.8 7.6-2.1c1.7 0 3.3 0.2 4.9 0.6s3 1.1 4.3 1.9c0.2 0.4 0.4 1 0.3 1.8z"/>
	</g>
	<g class="st12">
		<path class="st1" d="m353.8 42c0.3 0.8 0.6 1.6 0.9 2.4 0.2 0.8 0.5 1.7 0.8 2.6 0.4 0.9 0.8 1.9 1.2 3s0.7 2.1 1.1 3.1c1 2.9 2.1 5.7 3.3 8.4 1.1 2.7 2.3 5.5 3.5 8.3 0.1 0.4 0.2 0.8 0.4 1.1 0.1 0.4 0.4 0.8 0.7 1.2 1.7-5.1 3.6-10 5.6-14.8 2.1-4.8 4.2-9.5 6.3-14.3 0.3-0.5 0.8-0.9 1.3-1.3s1.1-0.5 1.7-0.5c0.3 0 0.5 0.1 0.6 0.3s0.2 0.5 0.3 0.7c0 1.1 0 2.3 0.1 3.4s0.1 2.2 0.3 3.3c0.5 7 1.2 13.9 2.2 20.7s2.2 13.7 3.6 20.7c0.8 4 1.6 7.8 2.5 11.5 0.8 3.6 1.8 7.4 3 11.4 0.6 1.9 1.2 3.8 1.7 5.8 0.6 2 1.2 3.9 1.9 5.7 0.2 0.1 0.5 0.3 0.7 0.7 0.2 0.3 0.3 0.6 0.3 0.9 0.1 1.3-0.2 2.5-0.8 3.5-0.7 1-1.5 1.8-2.5 2.5-0.5 0.2-1 0.4-1.5 0.3-0.6 0-1.1-0.2-1.5-0.6-0.3-0.3-0.5-0.7-0.6-1.1s-0.2-0.9-0.3-1.4c-2.2-7.4-4.1-14.7-5.6-22-1.5-7.2-2.9-14.8-4-22.7-0.3-1.7-0.6-3.4-0.8-5-0.3-1.7-0.4-3.3-0.6-5-0.6-3.8-1-7.6-1.3-11.6s-0.6-7.8-0.9-11.7h-0.3c-1.2 2.4-2.3 4.8-3.4 7.2s-2.1 4.9-3.1 7.3c-0.5 1.7-1 3.5-1.6 5.3-0.5 1.9-1 3.6-1.4 5.3 0.1 1.1-0.1 2-0.6 2.9s-1.2 1.6-2 2.2c-0.8 0.5-1.6 0.5-2.4 0.1-0.3-0.1-0.5-0.3-0.6-0.7-0.1-0.3-0.2-0.6-0.2-0.8-0.5-1.4-1.1-2.7-1.6-4-0.6-1.3-1.1-2.6-1.7-4-0.1-0.2-0.2-0.4-0.3-0.7-0.1-0.2-0.1-0.5-0.3-0.8-0.5-1.1-0.9-2.2-1.3-3.3-0.4-1.2-0.9-2.2-1.5-3.2l-1.5-3.6c-0.5-1.2-1-2.4-1.4-3.4-0.3-0.4-0.5-0.8-0.7-1.2-0.1-0.4-0.3-0.8-0.6-1.2l-0.2 0.1c-1.2 8.2-2.4 16.3-3.8 24.2s-2.9 15.8-4.6 23.8c-0.2 0.9-0.5 1.7-0.8 2.6-0.3 0.8-0.8 1.4-1.6 1.7-0.2 0.1-0.5 0.1-0.7 0.1s-0.5 0-0.8-0.1c-0.4-0.1-0.6-0.3-0.7-0.8s-0.1-0.9 0-1.2c0.6-1 1.1-2.1 1.3-3.2s0.5-2.2 0.8-3.2c0.5-1.5 0.8-3 1.1-4.5s0.6-2.9 1-4.2c0-0.7 0.1-1.3 0.2-2 0.1-0.6 0.3-1.3 0.6-2l0.3-2.4c0.2-0.8 0.3-1.6 0.3-2.4l0.3-1.5c0.1-0.5 0.2-1.1 0.3-1.7 0.3-3 0.7-6.1 1.2-9.1 0.4-3.1 0.7-6.2 0.9-9.4l0.5-5.4c0-0.2 0-0.4 0.1-0.5 0-2.1 0.1-4.2 0.3-6.2-0.4-0.5-0.5-1.1-0.3-1.8s0.5-1.3 0.8-1.8c0.6-0.8 1.4-1.6 2.3-2.3s1.8-1 2.9-0.7c0.5 0.3 0.9 0.6 1.2 1z"/>
		<path class="st1" d="m420 74.1c0.3 0.2 0.6 0.5 0.7 0.8 0.2 0.2 0.3 0.5 0.3 0.8 0 0.4 0 0.7-0.1 0.9-0.3 0.7-0.7 1.2-1.3 1.5s-1.1 0.6-1.8 0.9c-0.4 0.1-0.8 0.1-1.1 0.1h-1c-0.6 0-1.2-0.2-1.8-0.8-1.2-0.9-2.6-1.5-4.2-1.8s-3.1-0.2-4.5 0.3c-0.8 0.4-1.6 0.8-2.3 1.2s-1.2 1-1.6 1.8c-1 1.2-1.6 2.6-1.8 4.1-0.1 1.6-0.1 3.1 0.2 4.5 0.3-0.1 0.5-0.3 0.7-0.6 0.2-0.2 0.4-0.4 0.7-0.6 1.3-1 2.8-1.3 4.5-0.8h0.5c0.1 0 0.3 0 0.6 0.1 0.6 0 1.2 0.1 1.8 0.2s1.2 0.2 1.8 0.1h3.3c1.1 0 2.2-0.2 3.1-0.7 1.3-0.1 2.2 0.1 2.7 0.8 0.2 0.3 0.3 0.6 0.5 0.9 0.1 0.3 0.2 0.6 0.1 1.1-0.3 0.8-0.7 1.3-1.3 1.8-0.6 0.4-1.2 0.8-1.9 1-0.7 0.3-1.4 0.4-2.2 0.5s-1.5 0.2-2.2 0.2c-1.7 0.2-3.4 0.3-5 0.3h-5.1l-0.1 0.1c-0.1-0.1-0.2-0.1-0.3 0 0.2 0.9 0.5 1.6 1.1 2.3 0.5 0.6 1.1 1.3 1.5 2 1 1 2.1 1.9 3.3 2.6s2.6 1.1 4.1 1.3c1.4 0.3 3 0.3 4.5-0.2 1.6-0.4 2.8-1.3 3.7-2.5 0.4-0.4 0.9-0.6 1.3-0.8 0.5-0.2 1-0.1 1.4 0.2 0.4 0.5 0.5 1 0.3 1.4s-0.3 0.9-0.5 1.4c-1.3 2.3-3 4-4.9 5.1-0.5 0.3-1 0.6-1.6 0.8-1 0.4-2.2 0.6-3.3 0.8-1.2 0.2-2.4 0.1-3.5-0.1-1.6-0.2-3.2-0.8-4.6-1.6s-2.8-1.8-3.9-3c-1.2-1.2-2.2-2.5-3-4s-1.4-3-1.7-4.7c-0.9-3.6-0.8-7.1 0.2-10.4 1-3.4 2.8-6.2 5.5-8.4 2-1.6 4.3-2.7 6.9-3.3s5.2-0.3 7.7 0.7c0.6 0.1 1 0.3 1.4 0.5 0.3 0.2 0.8 0.3 1.2 0.5 0.4 0.4 0.6 0.5 1 0.7z"/>
		<path class="st1" d="m451.5 74.1c0.3 0.2 0.6 0.5 0.7 0.8 0.2 0.2 0.3 0.5 0.3 0.8 0 0.4 0 0.7-0.1 0.9-0.3 0.7-0.7 1.2-1.3 1.5s-1.1 0.6-1.8 0.9c-0.4 0.1-0.8 0.1-1.1 0.1h-1c-0.6 0-1.2-0.2-1.8-0.8-1.2-0.9-2.6-1.5-4.2-1.8s-3.1-0.2-4.5 0.3c-0.8 0.4-1.6 0.8-2.3 1.2s-1.2 1-1.6 1.8c-1 1.2-1.6 2.6-1.8 4.1-0.1 1.6-0.1 3.1 0.2 4.5 0.3-0.1 0.5-0.3 0.7-0.6 0.2-0.2 0.4-0.4 0.7-0.6 1.3-1 2.8-1.3 4.5-0.8h0.5c0.1 0 0.3 0 0.6 0.1 0.6 0 1.2 0.1 1.8 0.2s1.2 0.2 1.8 0.1h3.3c1.1 0 2.2-0.2 3.1-0.7 1.3-0.1 2.2 0.1 2.7 0.8 0.2 0.3 0.3 0.6 0.5 0.9 0.1 0.3 0.2 0.6 0.1 1.1-0.3 0.8-0.7 1.3-1.3 1.8-0.6 0.4-1.2 0.8-1.9 1-0.7 0.3-1.4 0.4-2.2 0.5s-1.5 0.2-2.2 0.2c-1.7 0.2-3.4 0.3-5 0.3h-5.1l-0.1 0.1c-0.1-0.1-0.2-0.1-0.3 0 0.2 0.9 0.5 1.6 1.1 2.3 0.5 0.6 1.1 1.3 1.5 2 1 1 2.1 1.9 3.3 2.6s2.6 1.1 4.1 1.3c1.4 0.3 3 0.3 4.5-0.2 1.6-0.4 2.8-1.3 3.7-2.5 0.4-0.4 0.9-0.6 1.3-0.8 0.5-0.2 1-0.1 1.4 0.2 0.4 0.5 0.5 1 0.3 1.4s-0.3 0.9-0.5 1.4c-1.3 2.3-3 4-4.9 5.1-0.5 0.3-1 0.6-1.6 0.8-1 0.4-2.2 0.6-3.3 0.8-1.2 0.2-2.4 0.1-3.5-0.1-1.6-0.2-3.2-0.8-4.6-1.6s-2.8-1.8-3.9-3c-1.2-1.2-2.2-2.5-3-4s-1.4-3-1.7-4.7c-0.9-3.6-0.8-7.1 0.2-10.4 1-3.4 2.8-6.2 5.5-8.4 2-1.6 4.3-2.7 6.9-3.3s5.2-0.3 7.7 0.7c0.6 0.1 1 0.3 1.4 0.5 0.3 0.2 0.8 0.3 1.2 0.5 0.4 0.4 0.6 0.5 1 0.7z"/>
		<path class="st1" d="m465.5 72.2c0.4 0.4 0.6 0.8 0.4 1.4-0.1 0.6-0.1 1.1 0 1.5 2.6-1.9 5.5-2.9 8.6-3.1s6.1 0.6 8.9 2.4c2.8 2 5 4.6 6.4 7.8s1.9 6.6 1.4 10.2c-0.2 1.6-0.6 3.2-1.3 4.7s-1.5 2.9-2.5 4.2-2.1 2.4-3.4 3.3-2.6 1.6-4 2.1c-2.9 1.1-5.9 1.2-9.1 0.3-1-0.3-2-0.7-3-1.2s-1.9-1.3-2.4-2.3c-0.3-0.9-0.2-1.6 0.3-2.3s1.1-1.2 1.7-1.6c0.4-0.3 0.8-0.5 1.2-0.7 0.4-0.1 0.9-0.1 1.4 0.2 0.3 0.6 0.7 1.1 1.3 1.5s1.2 0.7 1.8 1c0.8 0.4 1.7 0.7 2.6 1 1 0.3 1.9 0.5 2.9 0.6s2 0 2.9-0.2c1-0.2 1.8-0.7 2.6-1.5 0.8-0.6 1.4-1.4 1.9-2.4 0.5-0.9 0.8-1.9 1-3 0.2-1 0.2-2.1 0.1-3.2s-0.3-2.1-0.6-3.1c-0.5-1.4-1.1-2.8-1.8-4.2-0.7-1.3-1.6-2.6-2.6-3.6l-0.5-0.5s-0.4-0.3-0.7-0.5c-1.5-1.6-3.3-2.8-5.3-3.7s-4.1-1.1-6.3-0.8c-0.6 0.1-1.3 0.2-2 0.3-0.7 0.2-1.4 0.5-2 1 0.1 0.1 0.1 0.3 0.1 0.5-0.1 0.2 0 0.4 0.1 0.6-0.1 0.1-0.1 0.1-0.1 0.2 0.1 0.1 0.1 0.2 0.1 0.3-0.3 3.3-0.5 6.5-0.7 9.6s-0.2 6.3-0.1 9.5c-0.1 0.1-0.1 0.3 0 0.4s0.1 0.3 0 0.4c0 3.6 0.1 7.2 0.3 10.6s0.4 6.9 0.5 10.5c0.1 0.9 0.2 2 0.1 3.2 0 1.2-0.4 2.1-1.3 3-0.6 0.6-1.2 1.2-1.8 1.6-0.6 0.5-1.4 0.6-2.2 0.5-0.3-0.1-0.6-0.3-0.9-0.5s-0.5-0.5-0.5-1v-3.4s0.1-2.4 0.2-3.5c-0.1-0.4-0.1-0.9 0-1.5 0.2-7.4 0.3-14.5 0.3-21.4-0.1-6.8-0.3-13.9-0.7-21.3 0.3-1.3 0.9-2.3 1.7-3.2 0.9-0.9 1.9-1.4 3-1.6 0.3-0.1 0.6 0 0.8 0.1 0.7 0.6 0.9 0.7 1.2 0.8z"/>
		<path class="st1" d="m503.6 42.3c-0.1 1.3-0.2 2.5-0.3 3.7-0.1 1.1-0.1 2.3-0.1 3.6-0.1 0.8-0.1 1.5-0.1 2.1 0.1 0.7 0 1.4-0.1 2.1 0.1 0.1 0.1 0.3 0 0.4s-0.1 0.3 0 0.4c-0.1 2.9-0.1 5.7-0.1 8.5 0.1 2.8 0 5.6-0.1 8.4 0.1 3 0.1 6 0 8.9 0 2.9 0 5.8 0.1 8.6 0.1 2.2 0.1 4.5 0.2 6.8 0.1 2.4 0.2 4.6 0.4 6.8-0.2 1.1-0.7 2.2-1.4 3.1s-1.5 1.6-2.5 1.9c-0.3 0.1-0.7 0.2-1 0.2-0.5 0-0.8 0-1-0.1-0.7-0.3-1-1-1-2 0.2-4.9 0.4-9.6 0.5-14.2 0.1-4.5 0.2-9.2 0.2-13.9v-5s0-3.2 0-4.9c0.1-0.1 0.1-0.2 0-0.3v-0.3c-0.1-3.4-0.1-6.8-0.1-10.2s-0.2-6.8-0.4-10.2c0.1-0.6 0.2-1.1 0.3-1.7 0.1-0.5 0.3-1.1 0.7-1.6-0.1-0.1 0.1-0.4 0.4-0.8 0.5-0.6 1-1.1 1.5-1.5s1.1-0.7 1.8-0.8c0.4 0 0.8 0.1 1 0.4 0.3 0.3 0.5 0.6 0.6 0.9l0.5 0.7z"/>
		<path class="st1" d="m533 74.1c0.3 0.2 0.6 0.5 0.7 0.8 0.2 0.2 0.3 0.5 0.3 0.8 0 0.4 0 0.7-0.1 0.9-0.3 0.7-0.7 1.2-1.3 1.5s-1.1 0.6-1.8 0.9c-0.4 0.1-0.8 0.1-1.1 0.1s-0.7 0-1 0c-0.6 0-1.2-0.2-1.8-0.8-1.2-0.9-2.6-1.5-4.2-1.8s-3.1-0.2-4.5 0.3c-0.8 0.4-1.6 0.8-2.3 1.2s-1.2 1-1.6 1.8c-1 1.2-1.6 2.6-1.8 4.1-0.1 1.6-0.1 3.1 0.2 4.5 0.3-0.1 0.5-0.3 0.7-0.6 0.2-0.2 0.4-0.4 0.7-0.6 1.3-1 2.8-1.3 4.5-0.8h0.5c0.1 0 0.3 0 0.6 0.1 0.6 0 1.2 0.1 1.8 0.2s1.2 0.2 1.8 0.1h3.3c1.1 0 2.2-0.2 3.1-0.7 1.3-0.1 2.2 0.1 2.7 0.8 0.2 0.3 0.3 0.6 0.5 0.9 0.1 0.3 0.2 0.6 0.1 1.1-0.3 0.8-0.7 1.3-1.3 1.8-0.6 0.4-1.2 0.8-1.9 1-0.7 0.3-1.4 0.4-2.2 0.5s-1.5 0.2-2.2 0.2c-1.7 0.2-3.4 0.3-5 0.3h-5.1l-0.1 0.1c-0.1-0.1-0.2-0.1-0.3 0 0.2 0.9 0.5 1.6 1.1 2.3 0.5 0.6 1.1 1.3 1.5 2 1 1 2.1 1.9 3.3 2.6s2.6 1.1 4.1 1.3c1.4 0.3 3 0.3 4.5-0.2 1.6-0.4 2.8-1.3 3.7-2.5 0.4-0.4 0.9-0.6 1.3-0.8 0.5-0.2 1-0.1 1.4 0.2 0.4 0.5 0.5 1 0.3 1.4s-0.3 0.9-0.5 1.4c-1.3 2.3-3 4-4.9 5.1-0.5 0.3-1 0.6-1.6 0.8-1 0.4-2.2 0.6-3.3 0.8-1.2 0.2-2.4 0.1-3.5-0.1-1.6-0.2-3.2-0.8-4.6-1.6s-2.8-1.8-3.9-3c-1.2-1.2-2.2-2.5-3-4s-1.4-3-1.7-4.7c-0.9-3.6-0.8-7.1 0.2-10.4 1-3.4 2.8-6.2 5.5-8.4 2-1.6 4.3-2.7 6.9-3.3s5.2-0.3 7.7 0.7c0.6 0.1 1 0.3 1.4 0.5 0.3 0.2 0.8 0.3 1.2 0.5 0.4 0.4 0.6 0.5 1 0.7z"/>
	</g>
	<g class="st12">
		<path class="st1" d="m434.7 118.9c0.2 0 0.4 0.1 0.7 0.1 0.5 0.2 1.1 0.4 1.7 0.7 0.2-0.1 0.2-0.1 0.2 0.1 0 0.1 0 0.2 0.1 0.1 0.3 0 0.6 0.2 0.7 0.6 0.1 0.5 0 0.9-0.1 1.3-0.2 0.4-0.4 0.8-0.7 1.1-0.5 0.5-1.1 0.9-1.7 1-0.3-0.1-0.6-0.3-0.8-0.6s-0.5-0.5-0.8-0.5c-0.5-0.3-0.9-0.5-1.4-0.8-0.5-0.2-1-0.4-1.5-0.5-0.1-0.1-0.2-0.2-0.4-0.1-0.2 0-0.4 0-0.6-0.1-0.7-0.1-1.4-0.1-2.1 0.1s-1.3 0.4-1.9 0.8-1.2 0.9-1.7 1.4-1 1.2-1.4 1.8c-1.1 1.5-1.9 3.1-2.5 4.8s-1 3.5-1.3 5.3c-0.2 1.8-0.3 3.7-0.1 5.6 0.1 1.9 0.4 3.8 0.9 5.6 0.4 1.2 0.9 2.5 1.6 3.7s1.5 2.3 2.3 3.3c1.4 1.5 3 2.6 4.9 3.3 1.8 0.7 3.8 0.8 5.9 0.4 0.1-0.1 0.1-0.1 0.2-0.1s0.2 0 0.2-0.1l1.8-0.6c0.6-0.2 1.1-0.5 1.6-1v-13.4-1.1c0-0.4 0-0.7-0.1-1.1-0.1-0.1-0.2-0.1-0.3-0.1s-0.2 0-0.3-0.1h-3.1s-2.1 0.2-3.1 0.5c-0.2 0-0.4 0-0.6 0.1s-0.4 0.1-0.6 0c-0.2 0.1-0.4 0.1-0.6-0.1-0.2-0.1-0.4-0.3-0.5-0.5-0.2-0.5-0.2-0.9-0.1-1.4 0.2-0.5 0.4-0.9 0.7-1.3 0.4-0.7 1-1.2 1.8-1.4s1.5-0.2 2.2-0.1h3.4s2.3-0.2 3.4-0.5h0.5s0.4 0.1 0.5 0.3c0.2 0.4 0.3 0.7 0.3 1.1v1.1s0 0.7-0.1 1.1v1c0 0.8-0.1 1.5-0.1 2.3v2.2s0 1.5 0 2.3c0 0.7 0 1.5 0.1 2.3-0.1 0-0.1 0.1-0.1 0.1s0.1 0.1 0.1 0.2c0 3.8 0 7.6 0.1 11.4s0.3 7.5 0.6 11.3c0 0.8-0.2 1.5-0.7 2.2s-1 1.1-1.6 1.5c-0.3 0.1-0.5 0.2-0.8 0.2-0.3 0.1-0.6 0-0.9-0.2-0.4-0.4-0.6-0.8-0.6-1.4v-1.5-1.5s0-0.9 0.1-1.4l0.3-10.9v-0.2l-1.8 1.5c-0.6 0.5-1.3 0.8-2 1-0.8 0.3-1.6 0.6-2.3 0.7-0.3 0-0.6 0.1-0.9 0.1s-0.6 0-1 0-0.7 0-1 0-0.6 0-0.9-0.1c-0.6-0.1-1.3-0.3-1.9-0.5s-1.2-0.5-1.9-0.8c-1.4-0.9-2.7-1.9-3.9-3.2-1.1-1.3-2.1-2.6-2.8-4.1-0.8-1.5-1.4-3.1-1.8-4.8s-0.7-3.4-0.8-5.2h-0.1v-2.6c0-0.9 0-1.8 0.2-2.6 0.1-0.4 0.1-0.8 0.1-1.3s0.1-0.9 0.3-1.2c0.1-0.5 0.2-1.1 0.3-1.5l0.3-1.5 0.2-0.1 0.6-2.1c0.3-0.6 0.5-1.3 0.8-2 0.3-0.5 0.6-1.1 0.9-1.6s0.6-1.1 1-1.5c1.7-2.5 3.8-4.4 6.3-5.6 2.5-1.3 5.1-1.7 8-1.2 0 0.4 0.2 0.5 0.4 0.5z"/>
		<path class="st1" d="m458.6 143.6c0.3 0.6 0.5 1.2 0.7 1.9 0.3 0.5 0.5 0.9 0.6 1.4s0.3 1 0.5 1.5c0.5 0 1.1-0.1 1.7-0.3 0.3 0.1 0.6 0.1 1 0s0.7 0 1 0.4c0.2 0.4 0.3 0.9 0.2 1.4s-0.2 1-0.4 1.4c-0.3 0.4-0.6 0.7-0.9 1s-0.7 0.5-1.1 0.7c0.2 1 0.4 2 0.7 3 0.2 1 0.5 2 0.7 2.9 0.3 1.1 0.5 2.1 0.6 3.2s0.3 2.2 0.5 3.3v0.3s0 0.1 0 0.2c0.1 0.6 0.2 1.2 0.3 1.7l0.3 1.5c-0.1 0.3-0.1 0.5 0.1 0.7s0.1 0.4 0.1 0.7c0.1 0.7 0.1 1.4 0.1 2s0.1 1.3 0.3 2c0 0.5-0.2 0.9-0.5 1.2s-0.6 0.7-1 0.9h-0.2-0.3c-0.2 0-0.4 0-0.4-0.1-0.2-0.2-0.3-0.4-0.5-0.6-0.1-0.2-0.2-0.4-0.1-0.8 0-0.4 0-0.7-0.1-1.1s-0.1-0.7-0.2-1.1c-0.5-3.3-1.1-6.6-1.9-9.7s-1.7-6.3-2.8-9.4c0 0-0.1 0-0.1-0.1s-0.1-0.1-0.2 0.1c-0.4 0-0.8 0.1-1.2 0.3s-0.8 0.3-1.2 0.4c-1.5 0.6-2.8 1.5-4.1 2.8-1.2 1.3-2.4 2.6-3.3 4-0.3 0.3-0.5 0.5-0.8 0.7s-0.6 0.2-1 0.2c-0.3-0.2-0.5-0.4-0.5-0.7s0-0.5 0.1-0.8 0.2-0.6 0.3-0.9 0.2-0.6 0.2-0.8c0.1-0.5 0.2-1 0.3-1.4s0.2-0.9 0.4-1.4c0.2-0.7 0.4-1.3 0.5-1.6 0-0.2 0-0.4 0.1-0.5 0-0.1 0.1-0.3 0.2-0.5l0.6-2.1c0.2-0.7 0.4-1.4 0.7-2-0.1-0.1-0.1-0.1 0.1-0.1s0.2 0 0.1-0.1c0.3-0.9 0.6-1.8 1-2.6 0.3-0.8 0.7-1.6 1.1-2.5 0.3-0.5 0.5-0.9 0.7-1.4s0.4-0.9 0.7-1.4c0.2-0.5 0.5-0.9 0.8-1.3s0.7-0.7 1.2-1c0.3-0.2 0.7-0.3 0.9-0.3 0.3 0 0.6 0.1 1 0.4 0.3 0.4 0.6 0.8 0.9 1.4 0.2 0.6 0.5 1.1 0.8 1.5 0.1 0.4 0.4 1 0.7 1.5zm-3.9 3.5c-0.5-0.9-1-1.8-1.5-2.8-2.1 3.6-3.5 7.5-4.3 11.7 0.4-0.5 0.8-0.9 1.1-1.4s0.8-0.9 1.3-1.3l0.1-0.2c0.5-0.4 1-0.8 1.5-1.3s1-0.8 1.6-1c0.2-0.3 0.4-0.4 0.8-0.5 0.3 0 0.6-0.2 0.8-0.5-0.5-0.9-0.9-1.8-1.4-2.7z"/>
		<path class="st1" d="m497 139.9c-0.1 0.4-0.2 0.8-0.4 1.1v0.2c-0.8 1.4-1.5 2.9-2.1 4.4s-1.1 3-1.5 4.6c-0.4 2.1-0.7 4.3-0.9 6.6s0 4.5 0.5 6.6c0.4 1.7 1 3.4 1.7 4.9s1.6 3 2.7 4.3c0.2 0.3 0.2 0.7 0.1 1.2s-0.3 0.8-0.4 1.2c-0.3 0.6-0.7 1.1-1.1 1.5s-0.9 0.7-1.5 0.7c-0.6-0.1-1.1-0.4-1.4-1s-0.6-1.1-1-1.6l-0.3-0.6s-0.2-0.4-0.3-0.5c-1-2.2-1.7-4.5-2-6.8-0.3-2.4-0.4-4.7-0.2-7.1 0.2-3.1 0.7-6.1 1.6-9s2-5.7 3.3-8.3c-1.2 0.1-2.5 0.2-3.7 0.2-1.3 0.1-2.6 0.2-3.9 0.2h-0.2-1.4s-0.9 0-1.3 0c0.3 0.7 0.4 1.5 0.2 2.3s-0.2 1.6-0.1 2.4v2.8c0 1.1 0 2.2 0.1 3.3s0.2 2.1 0.3 3.2c0 0.1-0.1 0.2-0.1 0.3s0 0.2 0.1 0.3c0 0.1-0.1 0.3-0.1 0.5 0 0.1 0 0.2-0.1 0.5-0.2 0.7-0.5 1.4-0.8 2.1-0.4 0.7-0.9 1.2-1.7 1.4-0.2 0.1-0.4 0.2-0.6 0.1-0.2 0-0.4-0.1-0.6-0.1s-0.2-0.1-0.3-0.2c0-0.1-0.1-0.2-0.3-0.3-0.3-0.7-0.4-1.5-0.1-2.3 0.2-0.8 0.3-1.6 0.4-2.3 0.2-1.2 0.3-2.4 0.3-3.6s0-2.4-0.2-3.6c-0.1-0.6-0.1-1.1-0.2-1.7-0.1-0.5-0.1-1.1-0.3-1.5 0.1-0.7 0.3-1.4 0.5-2 0.3-0.6 0.7-1.1 1.2-1.6-0.2-0.1-0.3-0.1-0.5-0.1s-0.4 0-0.5 0h-4.4-2.1s-1.5-0.1-2.2-0.1v0.1c0.7 3.1 1.2 6.3 1.4 9.7 0.3 3.4 0.1 6.7-0.4 9.8-0.2 1.1-0.4 2.1-0.6 3.1s-0.5 2-0.9 3c-0.8 2.3-1.9 4.4-3.1 6.5-0.2 0.2-0.4 0.4-0.5 0.7-0.2 0.3-0.4 0.5-0.5 0.7s-0.4 0.4-0.6 0.5-0.5 0.1-0.7 0.1c-0.3-0.1-0.4-0.3-0.4-0.6s0.1-0.6 0.1-0.9c0.1 0 0.2-0.1 0.1-0.2 0-0.1 0-0.2 0.1-0.1 0-0.1 0.1-0.2 0.1-0.3 0.1-0.1 0.1-0.2 0.1-0.3l0.2-0.1c0.1-0.2 0.2-0.5 0.3-0.7s0.2-0.5 0.3-0.7c0.2-0.2 0.4-0.5 0.5-0.8 0.2-0.4 0.3-0.7 0.4-1 0.9-2.2 1.5-4.5 1.9-6.9 0.3-2.4 0.4-4.8 0.3-7.3s-0.4-4.9-0.8-7.3c-0.5-2.4-1-4.7-1.7-7 0-0.1 0-0.2-0.1-0.4-0.1-0.1-0.1-0.2-0.2-0.4 0-0.7 0.2-1.4 0.5-2s0.8-1.2 1.3-1.6c0.3-0.1 0.5-0.3 0.8-0.4s0.6-0.2 0.9 0c0.3 0 0.6 0.1 0.9 0.1s0.7 0 1 0 0.7 0 1 0 0.7 0.1 1 0.1c0.2 0 0.4-0.1 0.6 0h0.6c1.9 0.1 3.8 0.2 5.7 0.2 1.9 0.1 3.8 0.1 5.7 0 0.4-0.1 0.7-0.1 0.9-0.1h1.1c0.5 0 0.9 0 1.3-0.1 0.4 0 0.9-0.1 1.3-0.1s0.8 0 1.2 0h1.1c0.5-0.1 0.9-0.1 1.2-0.1s0.7-0.1 1.2-0.2c0.6 0 1 0.4 1.1 0.9 0.2 0.7 0.2 1.1 0.1 1.5z"/>
		<path class="st1" d="m516.2 140.2c0.2 0.1 0.4 0.3 0.5 0.6 0.1 0.1 0.2 0.3 0.2 0.6 0 0.2 0 0.5-0.1 0.6-0.2 0.5-0.5 0.8-0.8 1l-1.2 0.6c-0.3 0-0.5 0.1-0.7 0.1s-0.4 0-0.6 0c-0.4 0-0.8-0.2-1.2-0.5-0.8-0.6-1.7-1-2.7-1.2s-2-0.1-3 0.2c-0.5 0.3-1 0.6-1.5 0.8s-0.8 0.6-1 1.2c-0.7 0.8-1.1 1.7-1.2 2.7s0 2 0.1 3c0.2-0.1 0.4-0.2 0.5-0.4s0.3-0.3 0.4-0.4c0.8-0.7 1.8-0.8 3-0.5h0.3c0.1 0 0.2 0 0.4 0.1 0.4 0 0.8 0 1.2 0.1s0.8 0.1 1.2 0.1h2.1s1.4-0.1 2-0.5c0.8-0.1 1.4 0.1 1.8 0.5l0.3 0.6c0.1 0.2 0.1 0.4 0.1 0.7-0.2 0.5-0.5 0.9-0.9 1.2s-0.8 0.5-1.3 0.7-0.9 0.3-1.4 0.3c-0.5 0.1-1 0.1-1.4 0.2-1.1 0.1-2.2 0.2-3.3 0.2h-3.4l-0.1 0.1h-0.2c0.1 0.6 0.4 1.1 0.7 1.5 0.4 0.4 0.7 0.8 1 1.3 0.6 0.7 1.4 1.2 2.2 1.7s1.7 0.8 2.7 0.8c1 0.2 1.9 0.2 3-0.1 1-0.3 1.8-0.8 2.5-1.7 0.3-0.2 0.6-0.4 0.9-0.5s0.6-0.1 0.9 0.2 0.3 0.6 0.2 0.9l-0.3 0.9c-0.9 1.5-1.9 2.6-3.2 3.3-0.3 0.2-0.7 0.4-1 0.6-0.7 0.2-1.4 0.4-2.2 0.5s-1.6 0.1-2.3-0.1c-1.1-0.2-2.1-0.5-3-1-1-0.5-1.8-1.2-2.6-2s-1.4-1.7-2-2.6c-0.5-1-0.9-2-1.1-3.1-0.6-2.4-0.5-4.6 0.1-6.9 0.7-2.2 1.9-4.1 3.6-5.5 1.3-1.1 2.8-1.8 4.5-2.2s3.4-0.2 5.1 0.4c0.4 0.1 0.7 0.2 0.9 0.3s0.5 0.2 0.8 0.3c0.1 0.1 0.3 0.2 0.5 0.3z"/>
		<path class="st1" d="m533.8 140.6c-0.2 0.4-0.5 0.7-0.8 1.1-0.4 0.4-0.7 0.6-1.1 0.8-0.3 0.2-0.6 0.5-0.9 0.7s-0.6 0.4-0.9 0.7c-1 0.7-1.8 1.4-2.7 2.2-0.8 0.8-1.6 1.6-2.5 2.4 1.6-0.1 3.2-0.1 4.9-0.1s3.3 0.2 4.9 0.4c0.5-0.1 1-0.1 1.4 0.2 0.2 0.2 0.3 0.4 0.3 0.6 0.1 0.2 0 0.4 0 0.6-0.1 0.5-0.3 1-0.6 1.4s-0.7 0.8-1.1 1.2c-2.4 3.1-4.5 6.4-6.2 9.9s-2.7 7.3-3 11.3c-0.2 0.5-0.4 0.9-0.8 1.3s-0.8 0.7-1.3 0.9c-0.5 0.1-0.9 0-1.1-0.2-0.3-0.2-0.4-0.4-0.4-0.7s0-0.6 0-0.8c0.9-5.2 2.7-9.9 5.4-14.1 0.6-1.1 1.3-2.2 2.1-3.2 0.7-1.1 1.6-2.1 2.4-3.1-0.4-0.2-0.9-0.3-1.3-0.3-0.5 0-0.9-0.1-1.4-0.2-1.1-0.1-2.1-0.2-3.2-0.2h-3.2c-0.2 0.1-0.4 0.1-0.7 0.2-0.3 0-0.5 0-0.8-0.1-0.2-0.1-0.3-0.2-0.4-0.3s-0.2-0.3-0.3-0.4c-0.1-0.4-0.1-0.8 0-1.1s0.3-0.6 0.5-1c1.7-2.1 3.5-4.1 5.3-6s3.7-3.7 5.6-5.3c0.3-0.1 0.6-0.2 0.9-0.2s0.6 0.1 0.9 0.3c0.3 0 0.3 0.5 0.1 1.1z"/>
	</g>
</g>
	<path class="st13" d="m327.8 94.8c-3.9-3.8-9.3 3.6-14 2.3-6.9-2-15-17.5-0.8-16.7 5.6 3.7 8.8 3.3 11.3 1.1 3.2-2.9 3.9-7.8 0-10.4-7.6-5.1-23.3-3.4-28.6 10.1 0.3-4 1.7-10-3.2-11.7-4.8-1.7-9.1 2.9-10.1 7.2-0.4-1.1-1-2.2-1.7-3.2 0.4-0.6 0.6-1.2 0.7-1.7 3.9-2.3 5.5-10.8-1.1-10.4-3.4-0.7-6.1 2.9-7.5 5.5-0.9-0.4-1.8-0.7-2.7-0.9-3.4-0.9-20.2 0.3-20.9 17.5-1.4-0.9-3-0.7-4.6-0.7-1.8-5.1-4.7-16.2-11.6-14.4-8.1 2.1-12 18-16 29.9-9.7-42.7-6.1-53-8.3-57.4-1.5-4.4-7.1-3.4-9.5-0.4-2.2 2.6-3.1 4.7-9.8 22.2-2.3-5.5-4.1-11.2-6.5-16.7-1.1-3.4-1.8-7.4-5.9-8.3-5.1-1.1-11.6 5.8-9.7 10.9-1.7 20.6-1.6 16.8-2.9 29.4-2.8 16.7-4.4 22.5-5 24.1-1.1 3.1-2.5 7.6 2.1 8.9 9.2 2.8 9.7-13.1 10.5-17 1.7-8.9 3.3-17.8 4.7-26.7 5.6 11 4.9 16.5 8.6 18 9.5 4.4 10.1-11.4 13.7-20 0.1 0.7 3 33.9 12.3 65.2 0.6 3 2.2 5.7 5.6 5.8 5.1 0.6 9-5.6 8.7-10.1-0.1-2.6-0.4 0.8-5.1-15.1 3.4 0 5.2-3.2 7.1-5.5 3.1-3.7 5.2-5.5 8.1-6.5 3 9 4.5 18.1 6.4 27.4-0.3 1.8 0.4 3.6 1.6 4.9 2.6 3.5 7.5 0.6 9.1-2.2 1.3 4.2 6.2 4.8 9.2 1.9 3.5-3.1 0.5-9 11.9-18.2 4-1.9 9.2-7.1 5.9-11.8-0.6-0.9-1.5-1.7-2.5-2.1 3.7-3 5.2-7.1 5.4-7.6-0.1 4-0.3 8.1-0.6 12.1-0.3 3.2-0.2 6.7 3.6 7.7 3.2 0.8 6.6-1.1 8.3-3.6 2.5-3.5 1.9-7.9 1.8-11.9 2.4 8.3 9.2 14.7 17.9 15.3 10.2 1 20.6-11.6 14.1-16.2zm-67.9-16.3c2-5.1 15 2.6 12.9 9.7-1.7 5.9-15.2-1.2-12.9-9.7zm-11.3 16.5c0.8-0.8 1.6-1.7 2.1-2.8 1.2 2.8 2.6 4.2 3.2 5-1.2 2.1-2.3 3.7-3.7 5.7-2-8.5-1.9-7.6-1.6-7.9zm1.3 33.2c-0.1-0.3-0.2-0.5-0.3-0.8 0.1 0.3 0.2 0.6 0.3 0.8zm3.2-4.2c-0.5-2.4 0.4 0.6-1.2-10.1 2.6 1 3.9-0.1 6.7-0.5-4.1 5.2-5.1 9.4-5.5 10.6z"/>
	<path class="st13" d="m399.8 122.5c-1.2-3.3-5.4-18.2-6.1-21.6-9.1-37.3-7.7-57.9-9-60.3-1.5-4.4-7.1-3.4-9.5-0.4-2.2 2.6-3.1 4.7-9.8 22.2-3.9-9.2-4.3-11.6-6.5-16.7-5.9-17.8-17.7-3-15.6 2.6 0 0.1-2.5 37.9-7.9 53.5-1.1 3.1-2.5 7.6 2.1 8.9 9.2 2.8 9.7-13.1 10.5-16.9 1.7-8.9 3.3-17.8 4.7-26.7 5.7 11.2 4.9 16.5 8.6 18 5.2 2.4 10.1-3.3 10-8.2 0.1-0.4 2-7.8 3.6-11.8 0 0.6 2.9 33.6 12.3 65.2 0.6 3 2.2 5.7 5.6 5.8 6.3 0.9 11.2-9.2 7-13.6z"/>
	<path class="st13" d="m506.7 51.5c0-3.2 1.6-9-0.4-11.7-2.9-6-10-2.2-11.8 2-1.9 3.2-1.1 7.2-1 10.8 0.2 5.2 0.2 29.5 0.2 29.6-3.8-10.4-14.9-16.7-25.5-12.4-4.7-5-10.8-0.1-12.4 4.1-1.5-3.6-6.7-4.9-6.8-4.9-12.4-4.7-24.5 6-25.5 18.2-0.2-0.7-1.3-4.1-5-4.6 4-0.8 8.1-5.5 5.4-9.5-1.4-2.5-5.6-3.9-6.4-4.1-15.7-6-28.3 11.3-24.8 25.6 1.1 5.7 6.8 14.9 16.2 16.1 9.7 1.7 16.9-5.8 17.6-9.9v-0.1c6.6 11.6 21.7 14.1 29.5 3.7-0.2 19.2-1 21.6-0.3 24 2.1 7.7 13.6 2.9 13.8-4.6 0.1-1.4-0.5-12.1-0.6-13.7 12.2 4.4 21.3-4.4 24.6-11.7-0.1 4.1-1.8 11.3 3.5 12.8 1.3 0.4 10.8 1.2 10.1-12.6 8.5 19.3 30.7 12.6 32.5 2.2 2.1-4.2-2.6-8.2-6.6-6.4 6.7-3.9 3.8-11.1-1.3-11.7 4-0.8 8.1-5.5 5.4-9.5-3.1-5.6-23.6-10.1-30.4 7.7m-5.8-39.3c-0.1-0.2-0.3-0.5-0.5-0.7 0.2 0.2 0.3 0.4 0.5 0.7zm-31.8 38.6c5-0.7 6.3 1.3 10.1 4 6.3 6 5.9 17.5-2.4 15-4-1.3-5.1-3.2-5-3.2-1-0.7-2.4-0.9-3.6-0.7 0.1-1.4 0.1-5.2 0.9-15.1z"/>
	<path class="st13" d="m539.9 148.8c-0.7-3.9-5-3.6-5.4-3.7 2.8-1.9 4.8-7.2 0.7-8.9-5.8-3.1-12.9 7.4-16.1 11.1-0.3-0.5-0.7-1-1.1-1.3 9.4-6.4-7.6-17-17.4-6.2 0.2-3.7-2.3-6.3-6.2-5.6-0.1 0-18.9 0.8-23.6 0.1-1.3-0.4-2.9-0.1-4 0.6-6 2.6-2.4 9.5-4 9.7 0-0.1-1.5-3.3-1.5-3.3-2-7.3-9.4-7.7-12.3-1.4-2 3.4-2.8 6.4-3.7 7.9-0.3-8.3 2-15.6-4.2-16.1-2.2-0.2-4.8 0.5-7.1 0.5-8-0.9-10.9 8.2-6.4 11.2 2.4 1.8 5.3 0.1 7.2 0.2v10.1c-0.4 0.1-2.4 1.1-4.9 0.2-4.6-1.7-8.3-8-7.3-17.6 2.5-14.5 7.9-10.8 9.6-10 5.3 5.4 15.7-6.6 4.2-10.4-3-2.4-8.9-0.7-11.9 0.8-14.6 7-13 27.3-12.8 27.9 1.4 15.5 13 23.9 22.8 20.6-0.1 1.8-2.5 15.7 5.4 14.4 7.5-0.8 6-9.7 5.8-13.5 4.6 0 5.8-5.4 9.5-7.5 0.8 2.6 3.7 16.4 3.7 16.5-0.3 2.5 1.5 5.7 5.4 5.4 6.1 1.6 10.3-10.3 11.4-17.9 1.4 3.9 6.6 4.4 9.4 1 0.6 20 12.8 20.7 15 12.7 3-6.7-8.2-8.6-3.5-25.6 0 12.4 12.1 18.9 20 14 2.5-1.4 4.9-4.1 5.3-7.1 1.3 0-0.2-0.2 3.1-0.2-2 3.1-11 17.4-5.1 21.8 4.6 3.8 8.5-2.2 9.2-6.1 2.6-15.2 12.2-18.8 10.8-24.3zm-64.3-2.6c0 0.1 0 0.2 0.1 0.3-0.1-0.1-0.1-0.2-0.1-0.3z"/>
	<path class="st5" d="m220.7 124.9c-7-18.7-15.2-60.1-15.2-82.3-2.1-9.2-13.5 20.4-16.4 29.2-5.1-9.8-9.5-27.7-11.7-29.8 0-0.1 0-0.1-0.1-0.2-2.5-3.2-8.8 3.2-6.7 5.8-2.4 27.3-1 14.3-1.4 18 0 0.1 0 0.4-0.1 0.9-0.7 5.5-4.6 33.8-7.8 38.8-0.4 1.2 0.6 2.5 1.1 2.5 3.4 1.5 5.9-6.7 12.3-52.3h0.1c9.6 20.8 8.4 24.5 11.2 26.3 1.1 3.7 5.8-2.3 5.6-4.5 2.1-8.8 5.4-16.8 9.4-25 2.5 33 7 55.8 12.1 73.5 0.4 1.4 0.7 5.3 2 6.3 2.2 4.1 9.9-3.8 5.6-7.2z"/>
	<path class="st5" d="m244.4 93.6c4.4-1.8 4-6.2 3.1-6.9-0.6-1.4-4.5-0.4-5.5-0.4-0.4-1.5-4.7-12.6-6.2-13.7-5.7-7.9-20 32.4-16 35.1 4.4 0.9 7.4-11.7 17.6-12.7 0.3-0.4 4.1 10.9 6.3 23.5 0.5 2.9-0.1 11 3.9 11 3.3-2 2.9-3-3.2-35.9zm-9.1-5.1c-4.5 2.7-5.1 2.5-10.2 8.5 1.2-5.8 3.3-11.3 6.2-16.3 1.7 3 1.8 3.5 4 7.8z"/>
	<path class="st5" d="m279.2 64.3c-3.2 0.6-6.7 7.7-2.4 7.9 1.6 0 1-1.9 1.8-2.7 6.4-3.8 0.9-5 0.6-5.2z"/>
	<path class="st5" d="m277.2 74.7c-2.8-3.9-6.2-4.6-10.3-6.1-23.2 6.3-13 24.3-8.9 27.6-2.2 5.9-5 7.6-6.9 11-0.4 1.3 0.3 1.9 0.9 2.6 3 2 5.3-0.9 14.3-0.1-1.8 1.6-14.9 16.2-10 18.7 1.5 4.8 6.4-8.4 6.5-8.6 2.2-4.1 5.5-7.3 9-10.2 8.7-3.9 4.6-8.9 1.5-8.1-9.1 0-10.4 0.4-14.9 1.3 0.9-1.6 1.7-3.3 2.6-4.9 14.6 6.6 24.7-12.4 16.2-23.2zm-20.6 2.7c3.9-8.7 21.8-0.9 19.5 11.1-2.5 13.2-24.5 0.4-19.5-11.1z"/>
	<path class="st5" d="m289.7 72.1c-6.4 2.4-3.8 10.8-3.8 16 0 5.8-1.7 12.5-0.8 18.2 1.8 3.9 5.6-0.3 6.2-1.2 1.6-2.7 0.9-6.8 0.9-9.8-0.1-7.2 0.8-14.5 0.4-21.6-0.2-0.3-1.1-1.8-2.9-1.6z"/>
	<path class="st5" d="m324 97.2c-17.7 13.1-30.4-16.9-15.6-20.1 8-2.1 12.7 7.1 15.3-0.6 0.3-4.2-8.3-6.1-14.9-3.9-16.5 5.4-12.8 28.1-0.4 33.8 13.5 6.2 22-9.9 15.6-9.2z"/>
	<path class="st5" d="m397.6 125.9c-4.4-6-16-56.4-16-83.3-2.5-10.8-16.3 29-16.4 29.2-5-9.6-5.9-17.3-11.8-30-2.5-3.2-8.8 3.2-6.7 5.8-3.7 42.5-7.7 55.1-9.3 57.7-0.4 1.3 0.6 2.5 1.1 2.5 3.4 1.5 5.9-6.7 12.3-52.3h0.1c9.6 20.7 8.4 24.5 11.2 26.3 1 3.7 5.8-2.3 5.6-4.5 2.1-8.8 5.4-16.8 9.4-25 2.5 33.1 7.1 55.8 12.1 73.5 0.4 1.4 0.7 5.3 2 6.3 2 3.9 8.7-3 6.4-6.2z"/>
	<path class="st5" d="m418 106.2c3.4-1.9 7-6.7 4.9-7.9-1.7-3.8-3.1 3.9-11.3 2.8-3.8-0.5-8.8-3.4-9.6-7.5 0.1-0.1 0.1-0.1 0.3 0 0.7-0.8 15.4 2.4 17.8-4 0.1-0.7-0.5-3.6-3.7-3.3-4.8 2.6-10.6-2-16.5 2-0.4-2.7-0.2-5.7 1.7-7.9 3.2-7.5 11.8-0.2 16.4-0.9 13.8-6.8-20.2-16.8-22.4 7.9-1.2 11.1 10.3 26.1 22.4 18.8z"/>
	<path class="st5" d="m449.6 106.2c1.2-0.6 7.3-5 4.6-8.4-2.9-2-2.7 4.4-11 3.3-3.8-0.5-8.8-3.4-9.6-7.5 0.1-0.1 0.1-0.1 0.3 0 0.7-0.8 15.4 2.4 17.8-4 0.1-0.7-0.5-3.6-3.7-3.3-4.8 2.6-10.6-2-16.5 2-0.4-2.7-0.2-5.7 1.7-7.9 3.2-7.5 11.8-0.2 16.4-0.9 13.9-6.9-20.3-16.5-22.4 7.9-1.3 11.1 10.2 26.1 22.4 18.8z"/>
	<path class="st5" d="m503.7 103c-2.2-27.2-0.1-60.3-0.1-60.4-3.5-5.1-6.8 0.7-7.1 4 2.7 40.2-2.9 57.8 0.5 60.7 1.1 2.2 5.8 0.2 6.7-4.3z"/>
	<path class="st5" d="m441.6 149.6c-0.5-0.6 2.4-15-1.6-14.5-0.8 0.2-16.2 0.9-11.2 5 0.7 1.8 2.4-0.1 8.6 0.2 0.8 0.6 0.4 10 0.4 15.1-1 1-2.9 0.9-3.8 1.8-22.7 5-18.4-47.3 1.6-33 1.2-0.2 4.8-3.8 1.5-4.6-0.1-0.3-2.6-0.7-3.3-1.2-13.3-2.3-17.7 14-17.8 14.1-5.4 17.2 7.8 38.4 21.7 27.1-0.1 3.6-2.7 18.9 2.3 16.5 4-2.9 1.6-4.8 1.6-26.5z"/>
	<path class="st5" d="m496.6 172.5c-5.5-10.2-5.7-20.5 0-30.9v-0.2c1.3-2.2-0.3-3.7-1.1-3.8-6.8 2.4-15.1-0.8-21.9 0.4-1.6-0.2-7.1-1.6-7.3 3.9 0.2 0.2 7.3 22.7-0.4 31.1-0.1 0.4-0.3 0.9-0.5 1.3-1-5.4 1.2 4.5-3.5-21.1 2.3-1 5.1-5.4-1.7-5-0.2-0.9-3-8.1-4-8.8-3.8-5.9-13 21-11 22.5 1.1 3.8 7.6-7.3 12.1-7.8 2.2 6.3 3.1 12.7 4.6 19.1 0 0.2 0.3 5.2 2.5 3.2 0 0.4 0.2 0.6 0.4 0.6-0.1 1.5 4.1-0.2 6.9-11 1.9-7.4 1.2-15.3-0.4-22.7 0-0.3 0.4 0.2 8.9 0.1-0.8 0.9-1.2 1.9-1.3 3 1 4.4-1.5 11.3 0.1 15 4.2 3.6 4.7-3.9 4.8-4.1-0.4-3.6 0.9-10.8-0.5-14.1 3.3 0 6.6-0.3 9.9-0.5-8.7 17.8-2.3 34.5 0.9 34.9 2.2-0.3 3.9-3.5 2.5-5.1zm-42.2-25.7c0.5 0.9 0.9 1.9 1.4 2.8l-1.5 0.9c-1.1 0.6-2.2 1.4-3.1 2.3l-0.2 0.2c-0.6 0.5-1.2 1.1-1.7 1.8 0.8-3.6 2.1-7 3.9-10.2 0.4 0.8 0.8 1.5 1.2 2.2z"/>
	<path class="st5" d="m518.1 156.2c-0.5-2.1-5 2-7.5 1.7-2.4-0.3-5.7-2.1-6.2-4.8 0.5-0.5 10.3 1.5 11.9-2.6 0.1-0.7-0.7-2.7-2.6-2.4-2.2 1.2-6.3 0-7.2 0.2-1.5-0.4-2.5 0.1-3.6 1-0.2-1.7-0.1-3.5 1.1-4.9 2.1-5 7.7-0.1 10.8-0.6 6.3-3.1-2.8-7.8-9.5-4-9.4 5.4-5.9 21.1 4 22.6 3.6 0.5 12.9-4.3 8.8-6.2z"/>
	<path class="st5" d="m535.8 148.5c-0.5-0.3-5-0.7-10.1-0.5 2-1.9 4.3-3.4 6.3-5.3 3.5-1.5 1.9-5.1-0.4-4-2.5 2.1-12.4 9.7-11.4 13.4 0.3 0.6 1.1 1.9 2.6 1.2 2.7-0.1 5.8-0.1 8.4 0.5-9.3 10.8-12.6 23.2-7.7 22.5 3.9-1.8 0.4-4.8 6.2-15.6 2.3-4.3 8.6-8.7 6.1-12.2z"/>
	<path class="st5" d="m459.2 120.4c-0.3 2.7-1.6 8 1.6 9 8.8 1.4 4.4-22.5 4.4-26.4 1.2 4.5 9.5 5.2 12.9 4.6 26-5 9.6-47.9-12-33 1-4.3-5.8-4.3-7.2 1.7 1.3 25.7 0.1 42.7 0.3 44.1zm5.9-18.7c0-4.6-1.2-21 0.8-22.1 0-0.3-0.1-0.7-0.2-1 4.5-3.9 12.2-0.5 15.6 3.1 5.2 2.3 7.2 12.8 4.6 17.4-3 5.4-11.5 5-15.5 0.7-1.8-2.9-5 0.8-5.3 1.9z"/>
	<path class="st5" d="m510.7 98.6c10.4 19 30.8 2.9 25.3-0.3-1.2-2.7-4.3 1.6-5.4 2-6 2.8-14.6-1.5-15.6-6.8 0.6-0.7 15.6 2.3 18.1-4 0.1-0.7-0.5-3.6-3.7-3.3-4.8 2.6-10.6-2-16.5 2-0.4-2.7-0.2-5.7 1.7-7.9 3.2-7.5 11.8-0.2 16.4-0.9 7.2-3.5 1.4-7.3-5.4-7.9-12.6-1-21.9 14.4-14.9 27.1z"/>
	<path class="st14" d="m127.3 247.3l-0.3-1c-0.1-0.4-0.2-0.9-0.4-1.4-1.2-5.1-4.4-18.5-12.1-24.9-0.7-0.6-1.5-0.9-2.4-0.9s-1.7 0.3-2.4 0.9c-7.8 6.4-10.8 19.3-12.1 24.8-0.1 0.6-0.3 1.1-0.4 1.5l-0.3 1h-47.1c-1.1 0-2.6-0.5-3.5-3.1-3.5-9.5 2.3-45.7 18.2-62-7.9-0.5-15.2-2.8-20.5-6.5-1.7-1.2-2.8-3-3.2-5.1-0.3-2 0.2-4.1 1.5-5.8 9.3-12 23.8-21.5 40.8-26.7-1.7-4.1-2.6-8.7-2.6-13.2 0-17.3 12.7-31.3 28.2-31.3 15.6 0 28.2 14.1 28.2 31.3 0 3.7-0.6 7.4-1.8 10.9 11.3-5.6 23-8.5 34.2-8.5h1.6c2.1 0.1 4 1 5.4 2.5s2.1 3.6 1.9 5.7c-0.6 7.3-4.2 15.6-10 22.7-4.2 5.1-10.7 11.2-17.6 16.4 2 1.5 4.2 3.2 7 5.6 17.5 15.1 24 54.1 20.4 63.9-1 2.6-2.4 3.1-3.5 3.1h-47.2z"/>
	<path d="m108.7 95.1c14.8 0 26.8 13.4 26.8 30 0 5-1.1 9.7-3 13.9 12.1-6.6 24.8-10.1 36.9-10.1h1.6c1.7 0 3.3 0.8 4.4 2 1.1 1.3 1.7 2.9 1.6 4.6-0.5 6.8-3.9 14.7-9.7 21.9-4.3 5.3-11.4 11.9-18.9 17.3 2.5 1.7 5.2 3.9 8.4 6.6 19.6 16.8 25.2 64.6 17.7 64.6h-46.1c-1-4-4-19.7-12.9-27-1-0.8-2.1-1.2-3.3-1.2s-2.3 0.4-3.3 1.2c-9 7.5-11.9 22.8-13 27h-46.1s-1.8-47.8 17.7-64.6c0.1-0.1 0.3-0.2 0.4-0.3-9.2 0-17.5-2.5-23.1-6.3-1.4-1-2.3-2.5-2.6-4.1-0.3-1.7 0.2-3.4 1.2-4.7 9.4-12.1 24-21.6 41.6-26.6-2-4.2-3.2-9-3.2-14.1 0.1-16.7 12.1-30.1 26.9-30.1m0-2.8c-16.3 0-29.6 14.7-29.6 32.7 0 4.2 0.7 8.5 2.2 12.4-16.6 5.4-30.8 14.8-40 26.7-1.5 1.9-2.1 4.4-1.8 6.8 0.4 2.4 1.7 4.6 3.7 6 4.8 3.4 11.3 5.6 18.4 6.4-8 9.4-12.4 22.6-14.5 30.4-3.3 12.7-4.2 25.4-2.2 31 1.3 3.5 3.6 4 4.8 4h48.3l0.5-2.1c0.1-0.4 0.2-0.9 0.4-1.6 1.3-5.3 4.2-17.9 11.7-24 0.4-0.4 1-0.6 1.5-0.6 0.4 0 1 0.1 1.5 0.5 7.4 6 10.5 19.2 11.6 24.1 0.1 0.6 0.3 1.1 0.4 1.5l0.5 2.1h48.3c1.2 0 3.5-0.5 4.8-4 2.1-5.5 1.2-18.3-2.2-31-2.3-8.9-7.9-25.3-18.6-34.5-2.1-1.8-3.9-3.3-5.6-4.6 6.5-5.1 12.4-10.7 16.4-15.5 6-7.3 9.7-15.8 10.3-23.4 0.2-2.4-0.6-4.9-2.3-6.7-1.6-1.8-4-2.9-6.4-3h-1.7c-10.5 0-21.4 2.5-32 7.4 0.6-2.7 1-5.5 1-8.3 0.2-18-13-32.7-29.4-32.7z"/>
	<path class="st15" d="m85.6 139.8c-1.6 0.6-3.3 1.2-4.9 1.9-1.6 0.6-3.2 1.4-4.8 2.1-3.2 1.4-6.1 3.1-9.3 4.6l-1-1.8c3-1.9 6.3-3.2 9.6-4.5 1.7-0.6 3.3-1.1 5-1.6s3.4-0.9 5.1-1.3l0.3 0.6z"/>
	<path class="st15" d="m131.9 139c1.4-4.6 2.2-9.3 2.1-14s-1.2-9.3-3.2-13.5c-2.1-4.1-5.1-7.9-8.9-10.5-3.7-2.7-8.3-4.1-12.9-4.1-1.1 0.1-2.3 0-3.4 0.3-0.6 0.1-1.1 0.2-1.7 0.3l-1.6 0.5c-2.2 0.8-4.3 1.7-6.1 3.1-1 0.6-1.8 1.4-2.7 2.2l-1.2 1.2-0.6 0.6-0.5 0.7-1.1 1.4-1 1.5-0.5 0.7-0.4 0.8-0.8 1.5c-2 4.2-3 8.9-3.1 13.6 0 4.7 0.8 9.4 2.3 13.9l-1.1 0.5c-2.6-4.3-3.8-9.4-3.8-14.5s1.1-10.1 3.2-14.8l0.9-1.7 0.4-0.8 0.5-0.8 1-1.6 1.2-1.5 0.6-0.8 0.7-0.7 1.3-1.4c1-0.8 1.9-1.7 3-2.4 2.1-1.6 4.4-2.7 6.9-3.6l1.9-0.6c0.6-0.2 1.3-0.3 1.9-0.4 1.3-0.3 2.6-0.3 3.9-0.4 5.2 0 10.4 1.6 14.6 4.6 4.3 2.9 7.5 7.1 9.8 11.7 2.2 4.6 3.3 9.7 3.4 14.8 0 5.1-1.2 10.2-3.8 14.5l-1.2-0.3z"/>
	<path class="st16" d="m175.3 130.4c-1.7-0.5-3.5-0.7-5.2-0.8-0.9 0-1.7 0-2.6 0.2l-1.2 0.3c-0.4 0.1-0.8 0.3-1.1 0.5l-0.8-1.4c0.5-0.3 1-0.4 1.4-0.5 0.5-0.1 1-0.2 1.4-0.2 0.9-0.1 1.9 0 2.8 0.1 1.8 0.3 3.6 0.7 5.2 1.4l0.1 0.4z"/>
	<path class="st15" d="m174.2 243.9c-0.4-0.9-0.3-1.5-0.2-2.3s0.1-1.5 0.1-2.3c0-1.6-0.1-3.2-0.3-4.7-0.3-3.2-0.8-6.3-1.4-9.5-1.2-6.3-2.8-12.5-4.8-18.5-2.1-6-4.5-11.9-7.8-17.3-1.7-2.7-3.6-5.3-5.7-7.6-2.2-2.3-4.7-4.3-7.4-6l-0.9-0.5 0.8-0.6c3.7-2.8 7.1-5.9 10.4-9.1 3.2-3.3 6.5-6.4 9.2-10.1 2.7-3.6 5.1-7.5 6.9-11.7 1.7-4.2 2.8-8.7 2.1-13.2l0.6-0.1c1.2 4.6 0.4 9.5-1.2 13.9-1.6 4.5-3.9 8.6-6.6 12.4-2.7 3.9-6 7.3-9.6 10.3s-7.3 5.8-10.9 8.7l-0.1-1.1c5.8 3.2 10.9 7.8 15 13 4.1 5.3 7.3 11.3 9.6 17.6s3.8 12.8 4.6 19.4c0.4 3.3 0.6 6.6 0.7 10 0 1.7 0 3.3-0.2 5-0.1 0.8-0.1 1.7-0.3 2.5-0.1 0.8-0.3 1.8-1.2 2.5l-1.4-0.7z"/>
	<path class="st15" d="m94.2 246c-0.5-0.5-0.7-0.9-0.7-1.3s0.2-0.7 0.3-1.1l0.6-2.1c0.4-1.4 0.9-2.8 1.5-4.2 1.1-2.7 2.4-5.4 3.9-7.9s3.3-4.9 5.3-7.1c0.5-0.6 1-1.1 1.5-1.6s1.1-1 1.6-1.5c1-1.1 2.5-1.7 4-1.7s3 0.6 4 1.7c1.1 1 2.2 2 3.1 3.1 2 2.2 3.7 4.6 5.2 7.1s2.8 5.2 3.8 8c0.5 1.4 1 2.8 1.4 4.2l0.6 2.1 0.3 1.1c0 0.2 0 0.4-0.1 0.6s-0.3 0.5-0.7 0.7l-0.4 0.1c-1.8-0.3-1.3-1.2-1.6-1.8l-0.6-2.1c-0.4-1.4-0.8-2.8-1.2-4.1-0.8-2.7-1.8-5.4-2.9-8.1-1.2-2.6-2.6-5.1-4.3-7.4-0.4-0.6-0.9-1.1-1.4-1.6-0.5-0.6-1-1.1-1.5-1.5-1-1.1-2.3-1.7-3.8-1.7-1.4 0-2.8 0.7-3.8 1.7l-1.5 1.5c-0.5 0.5-1 1.1-1.4 1.6-1.8 2.3-3.2 4.8-4.4 7.4s-2.1 5.3-3 8c-0.4 1.4-0.8 2.7-1.2 4.1l-0.6 2.1c-0.1 0.3-0.1 0.7-0.3 1s-0.5 0.6-1.2 0.8l-0.5-0.1z"/>
<path class="st17" d="m68.4 181.3"/>
	<path class="st16" d="m66.7 148.4c-2.4 1.4-4.7 3-7 4.6-2.2 1.7-4.4 3.4-6.4 5.3-4 3.8-7.6 8.1-11.1 12.6l-0.6-0.4c2.5-5.1 6-9.8 10.1-13.9s8.8-7.5 13.9-10.2l1.1 2z"/>
	<path class="st16" d="m68.1 181.9c-4.1 4-7.2 9-9.7 14.1-2.5 5.2-4.5 10.6-6.1 16.1s-2.8 11.1-3.6 16.8c-0.4 2.8-0.8 5.7-0.9 8.5-0.1 1.4-0.1 2.8 0 4.2 0.1 0.7 0.1 1.4 0.3 2s0.4 1.3 0.8 1.6l-0.4 0.7c-0.8-0.4-1.3-1.2-1.6-1.9s-0.5-1.5-0.7-2.2c-0.3-1.5-0.5-3-0.6-4.5-0.1-3 0.1-5.9 0.4-8.8 0.4-2.9 0.9-5.8 1.6-8.7s1.4-5.7 2.3-8.5c1.8-5.6 4-11 6.8-16.2 1.4-2.6 3-5.1 4.8-7.4s3.8-4.5 6.2-6.3l0.4 0.5z"/>
	<path class="st15" d="m42.2 170.5c1.8 1.6 3.7 3 5.8 4.2 2 1.2 4.2 2.2 6.4 3s4.5 1.4 6.8 2c2.3 0.5 4.7 0.9 7.2 1.3v0.8c-2.5 0.4-5 0.4-7.5 0.2s-5-0.8-7.4-1.6-4.7-2-6.8-3.6c-2-1.5-3.9-3.5-5.1-5.7l0.6-0.6z"/>
	<path class="st15" d="m82 131.5c3.2-4.2 6.9-7.7 10.9-11 4.1-3.3 8.6-6.1 13.7-8.1 2.6-1 5.3-1.8 8.1-2.1 2.8-0.4 5.8-0.4 8.7 0.2s5.8 1.7 8.3 3.3c0.6 0.4 1.2 0.9 1.8 1.3 0.5 0.5 1 1.1 1.4 1.7l0.6 0.9c0.2 0.3 0.3 0.7 0.4 1.1 0.2 0.7 0.4 1.5 0.4 2.4l-2.1 1.8c-0.9 0-1.6-0.2-2.2-0.3-0.3-0.1-0.6-0.2-0.9-0.3s-0.6-0.2-0.9-0.3c-0.6-0.2-1-0.5-1.5-0.7s-0.9-0.5-1.4-0.8c-1.8-1.1-3.6-1.8-5.6-2.3-4-0.9-8.4-0.4-12.8 1s-8.7 3.4-12.9 5.9-8.3 5.3-12.2 8.3l-1.8-2z"/>
<ellipse class="st18" cx="120" cy="122" rx="5.5" ry="9.5"/>
<ellipse class="st18" cx="98.9" cy="122" rx="5.5" ry="9.5"/>
<path class="st6" d="m101.8 121.9c0.7-0.3 1.5-0.7 2.2-1-0.4-4.3-2.5-7.6-5.1-7.6-2.8 0-5.1 4-5.1 8.9 0 1.4 0.2 2.7 0.5 3.8l1.5-0.9c1-0.6 2-1.1 3-1.7l3-1.5z"/>
<path class="st6" d="m118.4 117.7c1 0 1.9 0.2 2.8 0.4s1.8 0.5 2.7 0.8c0.3 0.1 0.7 0.3 1 0.5-0.6-3.7-2.5-6.5-4.9-6.5-2 0-3.7 2-4.5 4.9 1-0.1 1.9-0.1 2.9-0.1z"/>
<path class="st15" d="m132.5 151.3c-0.4-4.3-2.5-9.5-2.5-12-1.5 3.9-8.8-4-9.7-4.8-1.6-1.3-3.5-2.9-5.6-3.3-1.8-0.3-4.6 0.7-4.6 0.7s-3.8-1.6-6.3-0.9c-2.2 0.7-3.3 2.3-4.9 3.8-2.2 2.1-9.2 7.1-12.5 5.3-2.8 3.5 9.1 1.9 2.5 23.1-0.1-0.7-0.2-1.3-0.2-1.9 0-3.3 3.1-2.2 3.6-0.8 0.8 2.4 2.5 4.3 3.5 6.6 1.7 3.9-0.6 2.8-1.4 5.7 2.3-1.2 6.8-0.6 8.8 1 1.2 1.5 2.6 5.4 1.8 7.7-0.2 0.6-0.6 1.4-1.2 1.5-5 1.2-3.5-6.4-3.5-6.4v0.1c-0.1 0.4-2.2 5.3-1.5 9 1.6 8.3 10 15.5 16.3 16-0.2-4.5 6.8-6.3 8.7-9.1-0.8 0.6 2.4-6.9 3.7-9 1.9-3.1 3.2-6.7 3.1-10.1 0.1-1.9 3.3-11.9 4.4-11.6-4.6-1.4-2.2-7.6-2.5-10.6z"/>
<path class="st5" d="m132.3 150.8c-0.4-4.3-2.8-8.2-6.7-10.6 2.3 1 4.3 1.1 4.3-1.4-1.5 3.9-8.8-4-9.7-4.8-1.6-1.3-3.5-2.9-5.6-3.3-1.8-0.3-4.6 0.7-4.6 0.7s-3.8-1.6-6.3-0.9c-2.2 0.7-3.3 2.3-4.9 3.8-2.2 2.1-9.2 7.1-12.5 5.3 1.3 1.3 4.4 2.1 7.2 2v0.1c-0.1 0.1-0.2 0.2-0.2 0.4-0.1 0.2-0.3 0.3-0.4 0.5-4.8 5-7.4 13.7-4 20.2-0.1-0.7-0.2-1.3-0.2-1.9 0-3.3 1.9-5.6 3.8-7.9-0.5 1-0.8 2.1-0.7 3.5-0.1 1.1 0 2.3 0.5 3.6 0.8 2.4 2.5 4.3 3.5 6.6 1.7 3.9-0.6 2.8-1.4 5.7 2.3-1.2 3.9-2.9 5-4.8 0.4 2.6 1.8 4.2 3.8 5.8 1.2 1.5 2.6 5.4 1.8 7.7-0.2 0.6-0.6 1.4-1.2 1.5-5 1.2-3.5-6.4-3.5-6.4v0.1c-0.1 0.4-1.9 4.3-1 7.9 0.9 3.4 3.5 5.9 7.2 4.9v-0.2h0.1c0.1 0 0.1 0.1 0.2 0.1-1.5 5.5 2.1 11.8 8.4 12.4-4.1-3.5-1.9-7.3 1-11.2 1.2 2.1 5.8 4.8 7.7 2-0.8 0.6-1.4 0.4-1.9-0.2-0.3-0.7-0.3-1.9-0.1-2.4 0.8-2.2 4.3-4.2 5.6-6.4 1.9-3.1 3.2-6.7 3.1-10.1 0.1-1.9-0.5-3.8-1.8-5.7-0.2-0.4-0.4-0.7-0.6-1 0.7-0.7 1.3-1.4 1.7-2 0.9-1.5 1.4-3.1 1.4-4.7 0-0.1 0-0.1 0.1-0.2 0.6 1.2 2.5 1.7 3.7 2-4.9-1.5-2.6-7.7-2.8-10.7z"/>
	<path class="st19" d="m121.9 177.9c0.5 1.2 0.5 2.6 0.1 3.7-0.3 1.2-0.9 2.3-1.5 3.2-1.3 2-2.8 3.6-4.3 5.3-0.8 0.8-1.5 1.6-2.2 2.4s-1.3 1.7-1.5 2.8c-0.3 1-0.2 2.1 0.4 3 0.5 0.9 1.4 1.6 2.3 2.2 0.2 0.2 0.3 0.5 0.1 0.7-0.1 0.2-0.3 0.3-0.5 0.2h-0.1c-1.7-0.4-3.4-1.1-4.8-2.3-1.4-1.1-2.6-2.6-3.4-4.3s-1-3.7-0.7-5.5 1.3-3.6 2.7-4.7c0.1-0.1 0.2-0.1 0.3 0 0 0.1 0.1 0.1 0 0.2-0.5 1.7-0.9 3.2-1 4.7s0.1 3 0.6 4.5c0.5 1.4 1.4 2.8 2.5 3.9s2.5 1.9 4.1 2.5l-0.4 0.9c-0.9-0.7-1.8-1.6-2.3-2.6-0.6-1.1-0.8-2.3-0.5-3.5 0.5-2.4 1.7-4.4 3-6.3 1.3-1.8 2.8-3.5 4.1-5.2 1.2-1.7 2.3-3.5 2.1-5.4 0-0.3 0.2-0.6 0.5-0.7 0.1-0.1 0.3 0.1 0.4 0.3z"/>
	<path class="st19" d="m100.2 167c0.1 0.5 0.2 0.9 0.4 1.2s0.4 0.5 0.8 0.8 0.8 0.6 1.3 0.9 0.9 0.7 1.3 1c0.9 0.6 1.8 1.3 2.7 2.1 0.4 0.4 0.8 0.9 1.1 1.5s0.5 1.3 0.3 2c-0.1 0.2-0.3 0.3-0.5 0.2-0.1 0-0.2-0.1-0.2-0.2v-0.1c-0.4-0.8-1.1-1.4-1.9-2s-1.7-1.2-2.7-1.8c-0.5-0.3-0.9-0.7-1.3-0.9-0.4-0.3-0.9-0.6-1.4-0.9-0.5-0.4-1.1-0.9-1.4-1.6s-0.5-1.3-0.5-1.9c-0.1-0.6 0.4-1.1 0.9-1.1s0.9 0.3 1.1 0.8z"/>
	<path class="st19" d="m130.1 160.6c0.4-0.9 0.6-1.8 0.7-2.8 0-1-0.1-1.9-0.5-2.8-0.7-1.8-2-3.4-3.3-4.8-0.1-0.1-0.1-0.2 0-0.3s0.2-0.1 0.3 0c1.4 1.4 2.8 3 3.6 4.9 0.4 1 0.6 2 0.6 3s-0.3 2.1-0.7 3c-0.1 0.2-0.3 0.3-0.4 0.2-0.3 0-0.3-0.2-0.3-0.4z"/>
	<path class="st19" d="m117.6 188.6c0.2 0.5 0.5 1.1 1 1.7 0.4 0.5 0.9 1 1.5 1.4 0.5 0.4 1.2 0.6 1.7 0.6 0.6 0 1.1-0.3 1.4-0.8l0.8 0.7c-0.3 0.2-0.7 0.4-1.2 0.5-0.5 0-1-0.2-1.2-0.5-0.6-0.6-0.8-1.2-1-1.9s-0.3-1.3-0.2-2.1c0.2-0.9 0.6-1.4 1-1.9 0.8-1.1 1.8-1.9 2.6-2.8 0.9-0.9 1.8-1.7 2.4-2.6 1.3-2 2.4-4.2 2.7-6.5 0.1-1.1 0-2.3-0.2-3.5s-0.5-2.4-0.8-3.6c-0.1-0.3 0.1-0.5 0.3-0.6s0.5 0.1 0.6 0.3c1 2.3 1.8 4.8 1.7 7.5 0 1.4-0.4 2.7-0.9 3.9s-1.1 2.3-1.8 3.5c-0.8 1.2-1.8 2-2.8 2.8s-1.9 1.6-2.7 2.4c-0.4 0.4-0.7 0.9-0.9 1.3-0.1 0.4 0 1.1 0.1 1.6s0.4 1.1 0.7 1.4c0.2 0.2 0.3 0.2 0.4 0.2s0.3-0.1 0.5-0.3 0.6-0.2 0.8 0.1c0.2 0.2 0.2 0.4 0.1 0.6-0.4 0.7-1.3 1.3-2.3 1.4-0.9 0.1-1.7-0.2-2.5-0.6-0.7-0.4-1.4-0.8-2-1.3s-1.2-1.1-1.8-1.8v-0.1c-0.4-0.5-0.3-1.3 0.2-1.7s1.3-0.3 1.7 0.2c0 0.2 0 0.3 0.1 0.5z"/>
	<path class="st19" d="m100.5 175.4c0.1 0.1 0.2 0.3 0.2 0.5v0.1 0.1 0.1 0.1 0.3l-0.1 0.5-0.1 1c-0.1 0.6-0.1 1.3-0.1 1.9 0 1.3-0.1 2.5 0.2 3.8 0.2 0.6 0.4 1.2 0.9 1.6 0.4 0.4 0.9 0.6 1.4 0.6 0.9 0.2 1.8 0.1 3.3 0.8 0.3 0.1 0.4 0.5 0.3 0.8 0 0 0 0.1-0.1 0.1-0.5 0.7-1.3 1.1-2.1 1.2s-1.8 0-2.6-0.6c-0.8-0.5-1.3-1.3-1.7-2s-0.7-1.4-0.9-2.1c-0.5-1.4-0.9-2.9-0.7-4.3 0.1-0.7 0.2-1.4 0.4-2.1 0.1-0.3 0.2-0.7 0.3-1l0.2-0.5 0.1-0.2 0.1-0.1c0 0.2 0.1 0.4 0.2 0.5-0.2-0.3-0.2-0.7 0-0.9 0.2-0.5 0.6-0.5 0.8-0.2z"/>
	<path class="st19" d="m93.5 142c-1.2 1.3-2.2 2.7-3 4.2-0.9 1.5-1.5 3.1-2 4.7-0.9 3.2-0.9 6.9 0.7 9.9l-1.1 0.5-0.5-1.1c-0.2-0.4-0.2-0.8-0.3-1.2s0-0.9-0.1-1.3c0-0.4 0.2-0.9 0.2-1.3 0.6-1.7 1.8-3 3-4 1.2-1.1 2.4-1.9 3.5-3 1-1.1 1.9-2.3 2.1-3.8 0-0.1 0.1-0.2 0.2-0.3h0.1c0.2-0.1 0.4-0.1 0.6 0.1 0.1 0.1 0.1 0.2 0.1 0.3-0.3 1.2-0.8 2.4-1.5 3.4-0.6 1.1-1.4 2-2.1 3-0.6 1-1.1 2-1.1 3.1s0.3 2.2 0.7 3.2c0.8 2.1 2.6 3.9 3.3 6.4 0.3 1.2 0.7 2.5 0.5 3.8-0.1 0.7-0.3 1.3-0.7 1.8-0.3 0.5-0.7 1-1 1.5l-0.6-0.8c1.4-0.9 2.6-2.1 3.3-3.5 0.8-1.4 1.3-3 1.5-4.7 0.5-3.3 0.3-6.8 0.5-10.3 0.1-0.9 0.1-1.8 0.2-2.8 0.2-0.9 0.5-1.9 0.8-2.7 0.8-1.7 1.9-3.2 3.1-4.6 0.6-0.7 1.1-1.3 1.9-2 0.7-0.6 1.5-1.1 2.2-1.6s1.4-0.9 1.9-1.5 0.8-1.2 0.9-2c0.1-0.4 0.5-0.6 0.8-0.6 0.3 0.1 0.5 0.3 0.6 0.6l0.2 1.3 0.4 1.3 0.6 1.2 0.8 1.1c1.2 1.4 2.7 2.6 4.1 3.9 1.5 1.3 2.9 2.6 4.3 4.1 1.3 1.5 2.5 3.5 2.9 5.7 0.2 1.1 0.1 2.3-0.2 3.3s-0.7 2-1.1 2.9c-0.8 1.8-1.7 3.5-1.9 5.2-0.4 3.5 0.5 7.5 3.2 9.8l-1.2 0.9c-0.3-1-0.6-1.9-0.8-3-0.2-1 0-2.2 0.4-3.2s1.2-1.9 2.1-2.4c0.5-0.3 1-0.5 1.5-0.5h0.9c0.3 0.1 0.7 0.3 0.8 0.7 0.1 0.2 0 0.4-0.2 0.4-0.2 0.1-0.4 0-0.4-0.2l-0.4-0.9c-0.2-0.3-0.3-0.6-0.5-0.9h0.5l-0.6 1.2c-0.1 0.3-0.4 0.4-0.6 0.3-0.3-0.1-0.4-0.4-0.3-0.6 0-0.1 0.1-0.2 0.1-0.2 0.3-0.3 0.6-0.6 0.9-1 0.1-0.1 0.3-0.2 0.4 0l0.1 0.1c0.2 0.3 0.3 0.6 0.5 0.9l0.5 0.8-0.6 0.3c-0.1-0.1-0.5-0.2-0.9-0.1s-0.8 0.3-1.1 0.5c-0.7 0.5-1.2 1.2-1.4 2s-0.2 1.6-0.2 2.5c0 0.4 0.1 0.9 0.2 1.3s0.3 0.8 0.5 1.2 0 0.9-0.4 1.1c-0.3 0.1-0.6 0.1-0.8-0.1l-0.1-0.1c-1.7-1.3-3-3.1-3.7-5.1-0.4-1-0.6-2-0.7-3.1s-0.1-2 0-3.2c0.3-2.3 1.3-4.1 2-5.8 0.8-1.7 1.3-3.4 1.1-4.9-0.2-1.6-1.1-3.1-2.2-4.5-1.2-1.4-2.6-2.7-4-4s-2.8-2.9-3.9-4.6-2-3.7-2.2-5.8l1.4 0.1c-0.2 1-0.6 1.9-1.2 2.7s-1.4 1.3-2.2 1.8c-0.7 0.5-1.4 1-2 1.5-0.5 0.5-1.1 1.2-1.6 1.9-1.1 1.3-2 2.7-2.6 4.2-0.3 0.7-0.6 1.5-0.7 2.3s-0.2 1.6-0.2 2.5c0 3.4 0 7-0.7 10.6-0.4 1.8-0.9 3.6-2 5.2s-2.6 2.8-4.2 3.6h-0.1c-0.2 0.1-0.5 0-0.7-0.2-0.1-0.2 0-0.4 0.1-0.5 0.8-0.9 1.6-1.8 1.7-2.9s-0.3-2.2-0.9-3.2c-1.1-1.9-2.6-3.9-3.5-6.4-0.4-1.2-0.7-2.5-0.6-3.8s0.7-2.6 1.5-3.6c0.7-1 1.5-1.9 2.2-2.9s1.1-2 1.4-3.2l0.6 0.4h-0.1l0.2-0.3c-0.3 1.6-1.1 3.1-2.1 4.4-0.9 1.3-2.1 2.4-3.1 3.5s-2.1 2.1-2.5 3.3c-0.5 1.2-0.4 2.6 0.1 4v0.1c0.1 0.3 0 0.6-0.3 0.7s-0.6 0-0.7-0.3c-0.7-1.7-1.1-3.5-1.2-5.3s0.1-3.6 0.6-5.4c0.5-1.7 1.3-3.4 2.2-4.9s2-2.9 3.3-4.2c0.1-0.1 0.3-0.1 0.5 0 0.2 0.8 0.2 1 0.1 1.1z"/>
	<path d="m121.7 178c0.3 1.1 0.2 2.3-0.1 3.4s-0.9 2.1-1.4 3c-1.2 1.9-2.6 3.5-3.9 5.3-1.3 1.7-2.6 3.5-3.2 5.5-0.3 1-0.3 2.1 0.1 3.1s1.1 1.8 1.9 2.5c0.1 0.1 0.1 0.2 0 0.3 0 0.1-0.1 0.1-0.2 0.1-1.9-0.2-3.7-0.9-5.1-2.1-1.5-1.2-2.6-2.7-3.2-4.5-0.6-1.7-0.8-3.7-0.4-5.5s1.3-3.5 2.6-4.8h0.2v0.2c-1.3 1.3-2.2 2.9-2.5 4.7-0.4 1.8-0.2 3.6 0.4 5.3s1.7 3.2 3.1 4.3 3.1 1.8 4.9 1.9l-0.2 0.4c-0.8-0.7-1.6-1.6-2-2.7s-0.4-2.3-0.1-3.3c0.6-2.2 1.9-4 3.2-5.7s2.7-3.4 3.8-5.2 2-3.9 1.4-5.9c-0.1-0.2 0-0.4 0.2-0.4 0.2-0.2 0.4-0.1 0.5 0.1z"/>
	<path d="m99.5 167.1c0.2 1.1 0.6 2.2 1.2 3.1s1.5 1.7 2.4 2.5c0.9 0.7 2 1.2 3 1.9 0.5 0.3 1 0.7 1.4 1.2s0.8 1.1 0.7 1.8c0 0.1-0.1 0.3-0.3 0.3-0.1 0-0.3-0.1-0.3-0.3 0-1-1-1.9-1.9-2.5-1-0.7-2-1.1-3-1.9-0.9-0.7-1.8-1.6-2.5-2.6s-1.1-2.2-1.3-3.4c0-0.2 0.1-0.4 0.3-0.4 0 0 0.2 0.1 0.3 0.3z"/>
	<path d="m119.9 136.2c1.6 1.2 3.4 2.4 5.2 3.3 0.9 0.4 1.9 0.8 2.8 0.9 0.5 0 0.9-0.1 1.1-0.4s0.3-0.8 0.3-1.3l0.6 0.1c-0.2 0.5-0.6 1-1.2 1.2s-1.2 0-1.6-0.1c-1-0.4-1.8-0.9-2.6-1.5-1.6-1.2-3-2.6-4.4-4-1.4-1.3-3-2.6-4.7-3.2-0.9-0.4-1.8-0.4-2.7-0.3s-1.9 0.4-2.8 0.7h-0.2c-1-0.4-2.1-0.7-3.2-0.9s-2.2-0.2-3.2 0.1c-2.1 0.7-3.3 2.7-5.1 4.1-1.7 1.5-3.6 2.7-5.6 3.8-1 0.5-2.1 1-3.2 1.3s-2.4 0.4-3.5-0.2l0.4-0.5c0.8 0.7 1.9 1.2 3 1.5s2.2 0.4 3.4 0.4c1.1 0 2.3-0.1 3.4-0.4s2.1-0.9 2.7-1.8c0.1-0.1 0.3-0.2 0.4-0.1s0.2 0.3 0.1 0.4c-0.7 1.1-1.9 1.7-3 2-1.2 0.3-2.4 0.5-3.5 0.5-1.2 0-2.4-0.2-3.5-0.5s-2.3-0.7-3.2-1.6c-0.1-0.1-0.1-0.3 0-0.4s0.2-0.1 0.4-0.1c0.9 0.5 2 0.4 3.1 0.1s2.1-0.7 3.1-1.2c2-1 3.8-2.3 5.5-3.7 0.8-0.7 1.6-1.5 2.4-2.4 0.8-0.8 1.8-1.5 2.9-1.9s2.4-0.3 3.5-0.2c1.1 0.2 2.2 0.5 3.3 0.9h-0.2c1-0.3 1.9-0.6 2.9-0.7 0.5-0.1 1-0.1 1.5 0s1 0.2 1.5 0.4c1.9 0.8 3.5 2 5 3.4 1.4 1.4 2.8 2.7 4.4 3.9 0.8 0.6 1.6 1.1 2.5 1.4 0.4 0.1 0.9 0.2 1.2 0.1 0.4-0.1 0.6-0.4 0.8-0.8 0.1-0.2 0.3-0.3 0.4-0.2 0.1 0 0.2 0.2 0.2 0.3 0 0.5-0.1 1.2-0.5 1.7s-1.1 0.7-1.7 0.7c-1.1-0.1-2.1-0.5-3.1-0.9-1.9-0.9-3.7-2.1-5.4-3.3-0.1-0.1-0.2-0.3-0.1-0.5s0.1-0.2 0.2-0.1z"/>
	<path d="m93.5 142c-2.7 2.6-4.5 6-5.5 9.6-0.9 3.6-0.8 7.5 0.9 10.8l-0.6 0.2c-0.3-1.6-0.2-3.4 0.3-4.9 0.6-1.6 1.5-2.9 2.5-4.2s2.1-2.5 3-3.8 1.6-2.7 1.9-4.3c0-0.1 0.1-0.2 0.1-0.2h0.1c0.1-0.1 0.3-0.1 0.4 0.1 0 0.1 0.1 0.2 0 0.2-0.6 2.5-2.1 4.6-3.3 6.6-0.6 1-1.2 2.1-1.4 3.3-0.2 1.1-0.2 2.4 0.1 3.5 0.6 2.3 2.1 4.3 3.3 6.5 0.3 0.6 0.5 1.1 0.7 1.7s0.4 1.2 0.2 2c-0.1 0.4-0.3 0.7-0.5 0.9s-0.4 0.4-0.6 0.7c-0.4 0.4-0.6 0.9-0.8 1.5l-0.4-0.3c1.5-0.8 2.9-1.9 3.9-3.3 1.1-1.4 1.8-2.9 2.3-4.6 1-3.3 1.3-6.8 1.5-10.3 0.1-1.7 0.3-3.5 0.8-5.3 0.5-1.7 1.3-3.3 2.5-4.7 1.1-1.4 2.5-2.5 3.7-3.8 1.2-1.2 2.2-2.7 2.5-4.4 0-0.1 0.2-0.2 0.3-0.2s0.2 0.1 0.2 0.2c0.1 1.9 0.8 3.7 1.8 5.2 1.1 1.6 2.4 2.9 3.7 4.3 1.4 1.4 2.8 2.7 3.9 4.2 1.2 1.5 2.1 3.4 2.3 5.3 0.2 2-0.5 3.9-1.2 5.7s-1.5 3.5-1.7 5.4c-0.3 3.8 1.4 7.6 4.3 10l-0.3 0.4c-0.9-0.8-1.8-2-1.8-3.4s0.8-2.5 1.6-3.5 1.7-1.9 2.6-2.8 1.8-1.8 2.4-2.8c1.3-2.1 1.6-4.7 1.1-7.1s-1.8-4.6-3.5-6.4c-0.1-0.1-0.1-0.2 0-0.3s0.2-0.1 0.3 0c1.8 1.8 3.1 4.1 3.7 6.6s0.2 5.2-1.1 7.4c-0.7 1.1-1.6 2-2.5 2.9s-1.8 1.8-2.5 2.7c-0.8 1-1.4 2-1.5 3.2 0 1.2 0.7 2.2 1.6 3 0.1 0.1 0.1 0.2 0 0.3s-0.2 0.1-0.3 0c-3-2.5-4.8-6.4-4.5-10.4 0.2-2 1-3.8 1.7-5.5 0.7-1.8 1.4-3.6 1.2-5.5s-1.1-3.6-2.2-5.1-2.5-2.8-3.9-4.2-2.7-2.7-3.8-4.4c-1.1-1.6-1.8-3.5-1.9-5.5h0.5c-0.3 1.8-1.4 3.4-2.6 4.6-1.2 1.3-2.6 2.4-3.7 3.7s-1.9 2.9-2.4 4.5c-0.5 1.7-0.7 3.4-0.8 5.1-0.2 3.5-0.4 7-1.5 10.5-0.5 1.7-1.3 3.3-2.4 4.8-1.1 1.4-2.5 2.6-4.1 3.4-0.1 0.1-0.3 0-0.4-0.1v-0.2c0.2-0.6 0.5-1.2 0.9-1.7s0.9-0.9 1-1.3c0.1-0.5 0-1.1-0.2-1.6-0.2-0.6-0.4-1.1-0.7-1.6-1.1-2.1-2.7-4.1-3.3-6.6-0.3-1.2-0.4-2.5-0.1-3.8s0.8-2.4 1.5-3.5c1.3-2.1 2.7-4.1 3.2-6.4l0.5 0.3h-0.1l0.1-0.2c-0.3 1.6-1.1 3.2-2 4.5s-2 2.6-3 3.8-1.9 2.6-2.4 4c-0.5 1.5-0.6 3.1-0.3 4.6 0 0.2-0.1 0.3-0.3 0.4-0.1 0-0.3 0-0.3-0.2-0.9-1.7-1.4-3.6-1.5-5.6-0.1-1.9 0.1-3.9 0.5-5.7 1-3.7 2.9-7.2 5.6-9.9 0.1-0.1 0.3-0.1 0.5 0s0.3 0.9 0.2 1z"/>
	<path d="m116.1 189.5c0.3 0.6 0.9 1.2 1.5 1.6 0.6 0.5 1.2 0.8 1.9 1.1s1.4 0.4 2.1 0.4c0.7-0.1 1.3-0.5 1.7-1l0.4 0.4c-0.3 0.2-0.6 0.4-1 0.5s-0.9-0.1-1.1-0.4c-0.5-0.6-0.5-1.3-0.5-2 0-0.3 0-0.7 0.2-1 0.1-0.3 0.3-0.6 0.5-0.9 0.4-0.6 0.8-1 1.3-1.5 0.9-0.9 1.9-1.7 2.8-2.6 0.4-0.4 0.8-0.9 1.2-1.4 0.3-0.5 0.6-1.1 0.9-1.7 1.1-2.2 2-4.7 2.1-7.2 0.2-2.5-0.5-5-2-7-0.1-0.1-0.1-0.4 0.1-0.5 0.1-0.1 0.4-0.1 0.5 0.1 1.6 2.1 2.3 4.8 2.2 7.4-0.2 2.6-1 5.1-2.2 7.4-0.3 0.6-0.6 1.1-0.9 1.7s-0.8 1.1-1.2 1.5c-0.9 0.9-1.9 1.7-2.8 2.6s-1.8 1.9-1.7 3c0 0.6 0.1 1.2 0.4 1.6 0.2 0.2 0.3 0.3 0.5 0.2s0.5-0.2 0.7-0.4c0.1-0.1 0.3-0.1 0.4 0s0.1 0.2 0 0.4c-0.5 0.7-1.3 1.2-2.1 1.3s-1.7-0.1-2.4-0.4c-0.8-0.3-1.4-0.7-2.1-1.2-0.6-0.5-1.2-1.1-1.6-1.8-0.1-0.1 0-0.3 0.1-0.4-0.2 0 0 0.1 0.1 0.2z"/>
	<path d="m125.6 139.7c1.8 1.1 3.4 2.6 4.6 4.4 1.2 1.7 2 3.8 2.3 5.9 0.2 1 0.1 2.2 0 3.2s-0.2 2.1-0.3 3.1c0 1 0.1 2 0.5 2.9s1.2 1.5 2.2 1.7l-0.1 0.5c-0.7-0.2-1.4-0.4-2.1-0.7s-1.4-0.7-1.8-1.4c-0.1-0.1 0-0.3 0.1-0.3 0.1-0.1 0.3 0 0.3 0.1 0.3 0.6 0.9 0.9 1.5 1.2s1.3 0.4 2 0.6c0.1 0 0.2 0.2 0.2 0.3s-0.2 0.2-0.3 0.2l-0.7-0.4c-0.2-0.1-0.5-0.3-0.7-0.4l-0.6-0.6c-0.1-0.2-0.3-0.4-0.4-0.7-0.5-1-0.6-2.1-0.5-3.2 0-1.1 0.1-2.1 0.2-3.1s0.2-2 0-3c-0.3-2-1.1-3.9-2.2-5.6-1.2-1.7-2.7-3.1-4.4-4.1-0.2-0.1-0.2-0.3-0.1-0.5-0.1-0.2 0.1-0.2 0.3-0.1z"/>
	<path d="m103.7 173.3c1.1 1.4 1.5 3.1 1.7 4.8 0.1 0.8 0 1.7-0.2 2.6-0.2 0.8-0.8 1.7-1.6 2.1l-0.6 0.3-0.7 0.1c-0.4 0.1-0.9 0.1-1.4-0.1-0.5-0.1-0.9-0.5-1.1-0.9s-0.3-0.8-0.4-1.3c-0.2-1.7 0.1-3.3 0.3-5 0-0.2 0.2-0.3 0.3-0.2 0.1 0 0.1 0 0.2 0.1s0.1 0.3 0 0.3v0.1l-0.1 0.1-0.1 0.3-0.2 0.5c-0.1 0.3-0.2 0.7-0.3 1-0.2 0.7-0.4 1.4-0.4 2.1-0.2 1.4-0.1 2.9 0.4 4.3s1.3 2.6 2.5 3.4 2.7 0.9 4.1 0.5c0.1 0 0.3 0 0.3 0.2 0 0.1 0 0.3-0.2 0.3-1.5 0.4-3.2 0.3-4.5-0.6-1.3-0.8-2.2-2.2-2.7-3.6s-0.6-3-0.4-4.5c0.1-0.8 0.3-1.5 0.5-2.2 0.1-0.4 0.2-0.7 0.3-1.1l0.2-0.5 0.1-0.3v-0.1-0.1s0 0.2 0.1 0.2l0.5-0.2c-0.2 1.6-0.5 3.3-0.3 4.8 0.1 0.8 0.4 1.5 1.1 1.7 0.3 0.1 0.7 0.1 1.1 0.1l0.6-0.1 0.5-0.2c0.6-0.3 1.1-1 1.3-1.7s0.2-1.5 0.2-2.3c-0.2-1.6-0.6-3.2-1.6-4.4-0.1-0.1-0.1-0.4 0.1-0.5 0-0.2 0.3-0.2 0.4 0z"/>
	<path class="st20" d="m135.6 94.7l-0.2-0.1c-2.8-1.3-5.1-1.9-7.3-1.9-1 0-1.9 0.1-2.8 0.4-0.5 0.2-1 0.2-1.5 0.2-1.6 0-2.5-1-3.5-2-1.2-1.3-1.7-3-2.2-4.6-0.9-2.8-1.6-5.2-5.5-5.9h-0.2l-0.2-0.1c-10.3-6.9-9.9-8.2-9.7-8.8 2.1-6.6 2.7-12.9 2.1-19.3-0.8-3.2-2.1-5.5-4-7.2-0.3-0.3-0.4-0.7-0.2-1.1s0.6-0.7 1.1-0.7h0.1 0.1c0.7 0.1 1.4 0.2 2.1 0.3 1.6 0.2 3.3 0.4 4.9 0.6h0.7c1.6 0 3-0.6 4.7-1.8 3.2-2.4 5.7-5.6 7.9-10.2 0.2-0.4 0.7-0.7 1.3-0.7 0.7 0 1.2 0.3 1.4 0.8 2.7 6.9 10.6 11.7 19.3 11.7 2.3 0 4.4-0.3 6.4-1h0.1 0.2c0.6 0 1 0.4 1.2 0.8s0.2 0.9 0 1.2c-2.3 3.8-3.1 8.9-2.5 15 0.5 5 2.3 11.5 8.1 14.4 0.9 0.4 1.3 1.2 1.3 1.3l0.3 0.6-0.5 0.5c-0.1 0.1-0.6 0.5-1.4 0.8-5.3 1.6-8.7 5.4-11 12.1-0.1 0.2-0.1 0.3-0.2 0.5l-0.6 1.4-0.6-0.6c-0.8 0.3-2.4 0.9-3.8 1.5-4.4 1.7-5 1.9-5.3 1.9h-0.1z"/>
	<path d="m123.3 32.8c0.3 0 0.5 0.1 0.6 0.3 3 7.9 11.8 12.3 20.1 12.3 2.3 0 4.6-0.3 6.7-1.1h0.1c0.3 0 0.6 0.5 0.5 0.7-2.7 4.6-3.2 10.2-2.7 15.5 0.6 6 2.8 12.3 8.6 15.1 0.6 0.3 1 0.9 1 0.9s-0.4 0.4-1 0.6c-6.3 1.9-9.6 6.8-11.5 12.7-0.1 0.2-0.2 0.4-0.2 0.6-0.5 0-8.9 3.5-9.4 3.5-2.5-1.2-5.1-2-7.7-2-1 0-2 0.1-3 0.4-0.5 0.1-0.9 0.2-1.3 0.2-1.3 0-1.9-0.7-2.9-1.7-2.9-3.1-1.3-9.4-8.1-10.7 0 0-9.7-6.6-9.4-7.8 2-6.4 2.8-13 2.1-19.7-0.8-3-2-5.6-4.3-7.7-0.1-0.1 0.1-0.3 0.2-0.3h0.1c2.4 0.3 4.7 0.7 7.1 0.9h0.8c1.9 0 3.6-0.8 5.2-2 3.7-2.8 6.2-6.4 8.2-10.5-0.3-0.1-0.1-0.2 0.2-0.2m24.8 25.7s0-0.1 0.1-0.1c0 0-0.1 0-0.1 0.1v0m0.8 5.6c0-0.2-0.1-0.4-0.1-0.5 0.1 0.1 0.1 0.3 0.1 0.5m-25.6-33.1c-0.9 0-1.7 0.4-2.1 1.2-2.1 4.4-4.6 7.5-7.7 9.8-1.5 1.1-2.8 1.6-4.2 1.6h-0.6c-1.6-0.2-3.3-0.4-4.9-0.6-0.7-0.1-1.4-0.2-2.1-0.3h-0.4c-0.8 0-1.6 0.5-1.9 1.3-0.3 0.7-0.1 1.5 0.5 2.1 1.8 1.6 3 3.8 3.8 6.8 0.6 6.2 0 12.3-2 18.8-0.4 1.2-0.8 2.5 10.1 9.8l0.3 0.2 0.4 0.1c3.3 0.6 3.9 2.6 4.8 5.3 0.5 1.7 1.1 3.5 2.4 4.9 1 1 2.1 2.2 4.1 2.2 0.5 0 1.1-0.1 1.7-0.3 0.8-0.2 1.7-0.3 2.6-0.3 2 0 4.3 0.6 7 1.9l0.4 0.2h0.4c0.5 0 1-0.1 5.7-2 1.1-0.4 2.4-0.9 3.3-1.3l1.1 1.2 1.1-2.5 0.1-0.2c0.1-0.2 0.2-0.4 0.2-0.6 2.1-6.4 5.4-10 10.4-11.5 1-0.3 1.6-0.8 1.7-0.9l1-0.9-0.7-1.2c-0.1-0.2-0.7-1.1-1.7-1.7-5.4-2.6-7.1-8.9-7.6-13.6-0.6-5.9 0.2-10.7 2.4-14.4 0.4-0.6 0.4-1.4 0-2.1-0.3-0.6-1.1-1.2-2-1.2-0.2 0-0.4 0-0.6 0.1-1.9 0.6-4 1-6.1 1-8.3 0-15.9-4.6-18.5-11.1-0.5-1.2-1.4-1.8-2.4-1.8z"/>
	<polygon class="st6" points="128.6 78.4 138.4 73.3 203.8 203.4 194.3 207.4"/>
	<path d="m137.7 75.3l64.1 127.4-6.8 2.9-64.4-126.5 7.1-3.8m1.3-4l-2.6 1.4-7.2 3.8-2.5 1.3 1.3 2.5 64.5 126.5 1.2 2.4 2.5-1 6.8-2.9 2.8-1.2-1.4-2.8-64.1-127.3-1.3-2.7z"/>
<path class="st6" d="m149.1 64.7h0.2c0 0.2 0.1 0.4 0.1 0.6l-0.3-0.6z"/>
<path class="st6" d="m68.8 75.2c-0.1-0.2-0.3-0.5-0.4-0.7 0.1 0.3 0.2 0.5 0.4 0.7z"/>
<path class="st21" d="m157.3 115.2c-0.1-0.2-0.2-0.3-0.3-0.5 0.1 0.2 0.2 0.3 0.3 0.5z"/>
<path class="st6" d="m153.8 113.4c0-0.1-0.1-0.3-0.1-0.4 0 0.1 0 0.2 0.1 0.4z"/>
<path class="st20" d="m114.2 80.4c0.2 0.1 0.4 0.2 0.6 0.2-0.2-0.1-0.4-0.1-0.6-0.2z"/>
<path class="st6" d="m67.2 73.7c-0.1 0-0.1-0.1-0.2-0.1 0 0 0.1 0 0.2 0.1z"/>
<path class="st6" d="m65 72.5v0 0z"/>
	<path class="st21" d="m126.1 77.3c-8 0-14.5-6.6-14.5-14.7s6.5-14.7 14.5-14.7 14.5 6.6 14.5 14.7-6.5 14.7-14.5 14.7zm-8.6-8.2l0.2 0.2c2.1 2.6 4.9 3.8 8.7 4l0.5-0.1c0.6-0.1 1.3-0.2 2-0.4 0-0.1 0.1-0.2 0.1-0.3-1.1-2.4-2.4-4.8-3.7-7.2 0 0-0.2-0.1-0.3-0.1v-0.6 0.6l-3.6 1.8-3.6 1.8-0.3 0.3zm18.3-9.3c-2.4 1.2-4.7 2.3-7 3.5 0 0-0.1 0.3-0.1 0.4 0.6 1.2 1.2 2.5 1.9 3.8 0.6 1.1 1.1 2.2 1.6 3.3 0.1 0.1 0.1 0.2 0.1 0.2l0.2-0.2c2.6-2.2 3.8-4.9 3.9-8.6l-0.1-0.4c-0.1-0.5-0.2-1.2-0.4-1.9 0.1 0 0 0-0.1-0.1zm-20.1 5.7c0.1 0 0.2 0.1 0.2 0.1l7.2-3.6s0.1-0.3 0.1-0.4c-0.6-1.2-1.2-2.5-1.9-3.7-0.6-1.1-1.1-2.2-1.7-3.3-0.1-0.1-0.1-0.2-0.1-0.2l-0.2 0.2c-2.7 2.2-3.9 5-4 8.8l0.1 0.4c0 0.3 0.1 1 0.3 1.7zm11-5.7s0.2 0.1 0.4 0.1c2.1-1 4.4-2.2 7.1-3.6 0 0 0-0.1 0.1-0.2-0.2-0.2-0.4-0.3-0.5-0.5-2.2-2.3-4.8-3.5-7.7-3.5-0.9 0-1.8 0.1-2.8 0.3-0.1 0.1-0.1 0.2-0.2 0.3 1.2 2.4 2.4 4.8 3.6 7.1z"/>
	<path d="m126.1 48.5c7.7 0 13.9 6.3 13.9 14.1s-6.2 14.1-13.9 14.1-13.9-6.3-13.9-14.1 6.2-14.1 13.9-14.1m1 12h0.2l7.2-3.6c0.2-0.1 0.3-0.5 0.5-0.8-0.3-0.2-0.5-0.5-0.8-0.7-2.3-2.4-5-3.7-8.1-3.7-1 0-2 0.1-3 0.4-0.2 0.1-0.6 0.7-0.5 1 1.2 2.4 2.4 4.8 3.7 7.2 0.1 0 0.5 0.2 0.8 0.2m-11.1 5.6h0.1c2.4-1.2 4.9-2.4 7.3-3.7 0.3-0.1 0.5-0.9 0.3-1.1-1.1-2.4-2.4-4.7-3.6-7.1-0.2-0.4-0.4-0.6-0.6-0.6s-0.4 0.1-0.6 0.3c-2.7 2.3-4.1 5.2-4.2 9.3 0.1 0.5 0.2 1.5 0.5 2.5 0.1 0.2 0.5 0.4 0.8 0.4m16.3 5.6c0.2 0 0.4-0.1 0.6-0.3 2.7-2.3 4-5.1 4.1-9.1-0.1-0.5-0.2-1.5-0.5-2.5-0.1-0.2-0.6-0.5-0.9-0.5h-0.1c-2.4 1.1-4.7 2.3-7.1 3.6-0.3 0.1-0.5 0.8-0.3 1.1 1.1 2.4 2.4 4.7 3.6 7.1 0.3 0.4 0.4 0.6 0.6 0.6m-6 2.2c0.6-0.1 1.7-0.3 2.7-0.5 0.2-0.1 0.5-0.7 0.4-0.9-1.2-2.5-2.4-4.9-3.7-7.3-0.1-0.2-0.5-0.3-0.8-0.3h-0.2c-2.5 1.2-4.9 2.5-7.3 3.7-0.7 0.4-0.7 0.6-0.2 1.2 2.3 2.6 5.2 3.9 9.1 4.1m-0.2-26.5c-8.3 0-15 6.8-15 15.3s6.7 15.3 15 15.3 15-6.8 15-15.3-6.7-15.3-15-15.3zm-2.3 5.5c0.8-0.2 1.5-0.2 2.3-0.2 2.7 0 5.1 1.1 7.3 3.3l0.1 0.1c-2.4 1.3-4.5 2.3-6.4 3.2-1.1-2.1-2.2-4.3-3.3-6.4zm-7.9 10.2c0.1-3.4 1.2-6 3.5-8.1l1.5 3c0.6 1.2 1.2 2.3 1.8 3.5-2 1.1-4.1 2.2-6.5 3.3-0.1-0.5-0.2-1-0.2-1.4-0.1 0-0.1-0.2-0.1-0.3zm13.4 0.6c2-1.1 4.1-2.2 6.3-3.2 0.1 0.5 0.2 1 0.2 1.4 0 0.1 0 0.3 0.1 0.4-0.1 3.3-1.2 5.9-3.4 7.9-0.5-1-1-1.9-1.5-2.9-0.5-1.2-1.1-2.4-1.7-3.6zm-11 5.6c1.1-0.5 2.1-1.1 3.2-1.6 1.1-0.6 2.2-1.1 3.4-1.7 1.1 2.1 2.2 4.3 3.3 6.4l-1.5 0.3c-0.1 0-0.3 0-0.4 0.1-3.5-0.2-6-1.3-8-3.5z"/>
<path class="st21" d="m64.5 70.8c0-0.1-0.1-0.1 0 0v0 0z"/>
<path class="st22" d="m132.3 158.3h0.2c-0.1 0-0.1 0.1-0.2 0.1v-0.1z"/>
<path class="st23" d="m129 151.8l0.1 0.1s-0.1 0-0.1-0.1z"/>
<path class="st23" d="m128.8 151.4l0.1 0.1-0.1-0.1z"/>
<polygon class="st23" points="129.5 152.7 129.5 152.7 129.5 152.8 129.4 152.8"/>
<path class="st23" d="m129.3 152.2s0.1 0 0.1 0.1v0.1c-0.1 0-0.2-0.1-0.1-0.2z"/>
<path class="st7" d="m39.7 170.2c-0.1 0.1-0.1 0.2-0.2 0.3 0.1-0.1 0.2-0.2 0.2-0.3z"/>
<path class="st7" d="m135.4 71c0.1-0.1 0.1-0.3 0.2-0.4 0 0.1-0.1 0.2-0.2 0.4z"/>
<path class="st7" d="m135.9 56.4s0.1 0 0 0c0.1 0 0 0 0 0z"/>
<path class="st7" d="m135.4 71z"/>
<path class="st7" d="m134.1 77.6l-0.1 0.1 0.1-0.1c-0.1 0.1 0 0.1 0 0z"/>
<path class="st7" d="m89.7 146.6c0 0.1-0.1 0.2-0.1 0.2s0-0.1 0.1-0.2z"/>
	<path class="st21" d="m182.9 170.6c0.7 0.5 1 1.2 1.4 1.9 0.3 0.7 0.7 1.4 1 2.1l1.8 4.2-0.3 0.1c-0.9-1.3-1.6-2.6-2.3-3.9-0.4-0.7-0.7-1.3-1.1-2-0.3-0.7-0.8-1.3-0.7-2.2l0.2-0.2z"/>
	<path class="st21" d="m140.4 88.9c0.5 0.6 0.4 1.2 0.4 1.8v1.8c-0.1 1.2-0.1 2.4-0.3 3.6h-0.3c-0.2-1.2-0.3-2.4-0.4-3.6 0-0.6-0.1-1.2-0.1-1.8s-0.1-1.2 0.3-1.8h0.4z"/>
	<path class="st21" d="m141.5 101.2c-1.2-2.3-2.4-4.5-3.6-6.7s-2.4-4.5-3.7-6.7l-0.6-1 1-0.2 3.8-0.9 0.1 0.3-3.1 2.3 0.4-1.2c0.9 2.4 1.9 4.7 2.9 7.1 1 2.3 2 4.7 3 7h-0.2z"/>
	<path class="st21" d="m139.3 79.6c6.3 9.7 11.3 20.1 16.5 30.3 2.6 5.1 5.2 10.3 7.8 15.4 2.7 5.1 5.3 10.2 7.9 15.4 5.2 10.3 10.2 20.6 15.3 30.9 2.6 5.2 5 10.3 7.5 15.5s5 10.4 7.4 15.6l-0.7 0.3c-2.7-5.1-5.4-10.2-8-15.3-2.7-5.1-5.3-10.2-8-15.3l-15.8-30.7c-2.6-5.1-5.3-10.2-8-15.3s-5.3-10.2-7.9-15.4c-5.2-10.3-10.5-20.5-14.4-31.4h0.4z"/>
	<path class="st21" d="m138.6 87.8c0.4 0.3 0.4 0.6 0.4 0.9s0 0.6-0.1 0.9c-0.1 0.6-0.1 1.3-0.3 1.9h-0.3c-0.2-0.6-0.2-1.3-0.3-1.9v-0.9c0-0.3-0.1-0.6 0.4-0.9h0.2z"/>
	<path class="st23" d="m201.8 202.7l-0.3 0.2h-0.1c-0.9 0.5-1.8 0.9-2.6 1.3l-2.7 1.1-1 0.4-0.5-1-15.3-28.9c-2.5-4.8-5.1-9.7-7.5-14.5-1.2-2.4-2.5-4.9-3.7-7.3-1.2-2.5-2.5-4.9-3.5-7.4l-0.4-1 0.6-0.6c1-1 1.8-1.9 2.5-3s1.3-2.4 2-3.7l0.3 0.1v2.2c-0.1 0.7-0.1 1.5-0.3 2.2s-0.5 1.5-0.8 2.2c-0.4 0.7-0.8 1.3-1.2 1.9l0.2-1.7c1.4 2.3 2.6 4.8 3.9 7.2s2.5 4.8 3.7 7.3c2.5 4.8 4.9 9.8 7.3 14.6l14.3 29.4-1.5-0.6 2.7-1c0.9-0.3 1.8-0.6 2.8-0.9h-0.1l0.3-0.1 0.9 1.6z"/>
	<path class="st23" d="m167.1 132.1c-1.5-0.5-3.1-0.8-4.7-0.9-1.6-0.2-3.2-0.2-4.7 0.1l-0.4 0.1-0.2-0.4c-1.1-1.8-2.1-3.6-3.1-5.4-0.5-0.9-1-1.8-1.4-2.7-0.5-0.9-0.9-1.8-1.4-2.8l-0.5-1 1-0.6c1.1-0.6 2.2-1.3 2.8-2.2 0.3-0.5 0.5-0.9 0.7-1.4s0.4-1.1 0.5-1.9l0.1-0.1c0.8 0.4 1.3 1.2 1.4 2.1s-0.3 1.8-0.7 2.5c-1 1.4-2.3 2.4-3.6 3.1l0.5-1.6c0.4 0.9 0.9 1.8 1.4 2.8 0.4 0.9 0.9 1.9 1.3 2.8l2.4 5.7-0.7-0.4c1.7-0.1 3.4 0.1 5 0.4s3.2 0.8 4.7 1.4l-0.4 0.4z"/>
	<path class="st14" d="m157.6 148.5c14.1-5.8 11.4-15.1 11.4-15.1-7-2.6-23-2-31.7 2.1"/>
	<path d="m157.6 148.3c1.5-0.8 3-1.6 4.4-2.6s2.7-2.1 3.7-3.3c1.1-1.3 1.8-2.7 2.3-4.2 0.2-0.8 0.4-1.5 0.4-2.3s0-1.6-0.2-2.3l0.5 0.6c-2.4-0.8-5.1-1.2-7.7-1.4s-5.3-0.2-8 0c-2.7 0.1-5.3 0.4-7.9 0.9s-5.2 1.1-7.7 2.1l-0.2-0.5c2.4-1.3 5-2.2 7.7-2.8s5.4-1 8.1-1.3c2.7-0.2 5.5-0.3 8.2-0.1s5.5 0.6 8.2 1.5l0.4 0.2 0.1 0.4c0.4 2 0.2 3.8-0.4 5.6-0.6 1.7-1.6 3.3-2.9 4.6-1.2 1.3-2.7 2.4-4.2 3.2-1.5 0.9-3.1 1.6-4.8 2.1v-0.4z"/>
	<path class="st15" d="m155 148.7c0.6-0.6 1.3-1.1 2-1.6 0.6-0.6 1.3-1.1 1.9-1.6 1.2-1.1 2.4-2.2 3.5-3.4s2-2.5 3-3.7c0.9-1.3 1.8-2.6 2.6-4.1l0.8 0.1c0.2 1.9-0.4 3.6-1.2 5.3-0.8 1.6-2 3-3.2 4.3-1.3 1.2-2.7 2.3-4.2 3.2-0.8 0.4-1.6 0.8-2.3 1.2-0.8 0.3-1.6 0.6-2.5 0.9l-0.4-0.6z"/>
	<path class="st16" d="m168.3 134.4c-2.9-0.6-5.8-0.8-8.8-0.8-2.9 0-5.9 0.2-8.8 0.5s-5.8 0.8-8.7 1.4c-2.8 0.7-5.7 1.5-8.3 2.8l-0.3-0.4c2.4-1.9 5.3-3 8.2-3.8s5.9-1.3 8.9-1.5c3-0.3 6-0.3 9-0.1s6 0.6 8.8 1.6v0.3z"/>
	<path class="st5" d="m114.5 69.5c-0.6-0.9-1.1-1.8-1.4-2.8s-0.5-2.1-0.6-3.1c-0.1-1.1 0-2.1 0.1-3.2 0.2-1.1 0.6-2.1 1-3l0.3 0.1c-0.4 1-0.7 1.9-0.8 2.9s-0.1 2 0 3c0.2 2 0.9 4 1.6 5.9l-0.2 0.2z"/>
	<path class="st5" d="m121.6 64c0.3-0.3 0.6-0.5 0.9-0.8 0.3-0.2 0.6-0.5 1.1-0.4l0.2 0.3c-0.2 0.5-0.6 0.5-0.9 0.7-0.4 0.2-0.7 0.3-1.1 0.4l-0.2-0.2z"/>
	<path class="st5" d="m132.9 58.4c0.3-0.3 0.6-0.5 0.9-0.8 0.3-0.2 0.6-0.5 1.1-0.4l0.2 0.3c-0.2 0.5-0.6 0.5-0.9 0.7-0.4 0.2-0.7 0.3-1.1 0.4l-0.2-0.2z"/>
	<path class="st5" d="m124.2 61.9c-0.2-0.2-0.2-0.4-0.3-0.7s-0.2-0.6-0.3-0.8l-0.7-1.7 0.3-0.2c0.4 0.5 0.7 1.1 1 1.6 0.1 0.3 0.3 0.6 0.4 0.9 0.1 0.2 0.1 0.3 0.1 0.5s0 0.4-0.2 0.6l-0.3-0.2z"/>
	<path class="st5" d="m129.8 73.5c-0.1-0.3 0.1-0.4 0.1-0.6 0.1-0.1 0.1-0.3 0-0.4-0.1-0.3-0.4-0.6-0.5-1.1l0.3-0.1c0.2 0.3 0.6 0.5 0.9 1 0.1 0.3 0.1 0.6 0 0.8-0.1 0.3-0.2 0.5-0.5 0.5l-0.3-0.1z"/>
	<path class="st5" d="m135.8 56.2c-0.2-0.1-0.3-0.3-0.5-0.6-0.2-0.2-0.4-0.5-0.6-0.7l-1.3-1.4 0.2-0.2c0.5 0.3 1 0.7 1.5 1.2l0.7 0.7c0.1 0.1 0.2 0.3 0.3 0.4 0.1 0.2 0.2 0.4-0.1 0.7l-0.2-0.1z"/>
	<path class="st5" d="m116.9 52.8c0.2-0.6 0.7-1 1.1-1.3 0.4-0.4 0.9-0.7 1.4-1 1-0.6 2.1-0.9 3.2-1.1l0.1 0.3-1.5 0.6c-0.5 0.2-1 0.5-1.4 0.8s-0.9 0.6-1.3 1-0.8 0.7-1.4 0.9l-0.2-0.2z"/>
	<path class="st5" d="m138.7 66.4c0 0.6-0.1 1.1-0.4 1.7-0.2 0.5-0.5 1-0.8 1.5-0.6 1-1.4 1.8-2.4 2.5l-0.2-0.2c0.4-0.4 0.7-0.8 1.1-1.3 0.3-0.4 0.6-0.9 0.9-1.4s0.5-1 0.7-1.5 0.4-1 0.8-1.5l0.3 0.2z"/>
	<path d="m129 78.5c1.6-0.3 3.3-0.8 4.8-1.6 1.5-0.7 2.9-1.6 3.9-2.7l0.1-0.1c0.6-0.7 1.7-0.7 2.4-0.1 0.5 0.5 0.7 1.2 0.5 1.8-0.4 1.2-1.2 2.3-2.1 3.1s-1.9 1.5-2.9 2-2.1 0.9-3.3 1.1c-1.1 0.2-2.3 0.3-3.6 0.1-1-0.2-1.7-1.1-1.5-2.1 0.1-0.8 0.7-1.4 1.5-1.5h0.2z"/>
	<path d="m130.9 82.2c1.6-0.4 3.4-1 4.9-1.8 0.8-0.4 1.6-0.8 2.2-1.3 0.7-0.5 1.3-1 1.8-1.5l0.3-0.3c0.9-0.8 2.2-0.8 3 0.1 0.6 0.6 0.7 1.4 0.5 2.1-0.4 1.4-1.3 2.6-2.2 3.5-0.9 1-2 1.7-3.2 2.3-1.1 0.6-2.3 1-3.6 1.3-1.2 0.3-2.5 0.4-3.9 0.2-1.3-0.2-2.1-1.4-1.9-2.6 0.1-0.9 0.8-1.6 1.7-1.9l0.4-0.1z"/>
	<path class="st7" d="m128.9 79.4c0.9-0.1 1.8-0.2 2.7-0.5s1.8-0.6 2.6-1c1.7-0.8 3.2-1.9 4.2-3.3 0.3-0.4 0.8-0.5 1.2-0.2 0.3 0.2 0.5 0.7 0.3 1.1-0.5 1.1-1.2 2-2 2.7s-1.8 1.3-2.7 1.8c-1 0.5-2 0.8-3.1 1.1-1.1 0.2-2.2 0.3-3.3 0.2-0.5-0.1-0.9-0.5-0.8-1s0.4-0.9 0.9-0.9z"/>
	<path class="st7" d="m130.5 83.4c1.9-0.2 3.9-0.8 5.6-1.7 1.8-0.9 3.4-2.1 4.4-3.6 0.3-0.4 0.9-0.6 1.3-0.3s0.5 0.7 0.4 1.1c-0.5 1.2-1.2 2.1-2.1 2.9s-1.9 1.5-2.9 2-2.1 0.9-3.3 1.2c-1.1 0.3-2.3 0.4-3.5 0.3-0.6 0-1-0.5-0.9-1.1 0.1-0.3 0.5-0.7 1-0.8z"/>
	<path class="st21" d="m61.6 141.8c-1.1 0-2.1-0.5-2.8-1.3-1.8-2.2-1.3-6.6-0.9-8.6 1.1-4.7 4.5-8.9 7.8-12.9 1.3-1.6 2.5-3 3.5-4.5 1.4-2 3.1-4.5 3.9-7 0.6-1.7 0.6-3.7 0.6-5.6 0-1.1 0-2.2 0.2-3.2 0.1-0.5 0.1-1.1 0.2-1.7 0.3-1.9 0.6-4.1 0.2-5.8-0.1 0.2-0.1 0.4-0.2 0.7-1 2.9-1.2 3.2-1.3 3.3-0.9 1.1-2.4 1.7-4.1 1.7-2.7 0-5.4-1.3-6.9-2.6-1.1-1-2.1-2.3-2.7-3.6-0.5-1.1-0.5-2.3-0.5-3.5v-0.7l-0.1-2.2 1.6 1.6 0.4 0.4c1.8 1.9 3 2.9 3.6 2.9 0 0 0.1 0 0.1-0.1 0.1-0.2-0.2-1.1-0.3-1.5-0.1-0.3-0.2-0.7-0.3-0.9-0.7-3.6-1.3-7.2-1.8-10.9l-0.3-2.1c-0.5-3.1-1.1-6.7 0.3-9.4 2.1-4 6.9-5.5 11.2-6.8 1-0.3 1.9-0.6 2.7-0.9 1.6-0.6 3.2-1.2 4.9-1.3h0.7c4.3 0 8.7 3.2 11.7 5.8 2.3 2 4.2 4.4 6.1 6.7 0.8 1 1.6 2 2.5 3 2.6 3 5.4 5.7 8.2 8.4 1.6 1.6 3.3 3.2 4.9 4.8 2.5 2.5 4.5 4.9 6.2 7.3 0.4 0.6 0.8 1.2 1.2 1.9 0.9 1.5 1.8 3.1 3.2 3.7s2.9 0.9 4.5 1.2 3.2 0.6 4.8 1.3c4.5 1.9 8 3.6 11.1 5.7 0.3 0.2 0.6 0.4 1 0.6 2.9 1.8 7.2 4.6 7.7 7.9 0.4 2.9-2.6 5-5.3 6-1.7 0.6-3.6 0.7-5.3 0.9-0.5 0-1 0.1-1.5 0.1-1 0.1-2.1 0.4-2.9 0.7-0.6 0.2-1 0.3-1.4 0.3-0.6 0-0.9-0.4-1-0.7v-0.1-0.1c-0.3-3.3-1.2-6.1-2.7-8.3-0.9 0.2-2.3 0.5-4.8 1-3.1 0.6-7.2 1.3-10.9 2-4.6 0.8-8.9 1.6-9.6 1.8-14 3.3-21.4 8.9-28.5 14.4-5.2 4-10.2 7.8-17.4 10.3-0.3-0.2-0.9-0.1-1.5-0.1z"/>
	<path d="m81.6 56c4 0 8.3 3.1 11.1 5.6 3.2 2.9 5.7 6.4 8.5 9.7 4.1 4.7 8.8 8.8 13.2 13.2 2.2 2.3 4.3 4.6 6.2 7.2 1.4 1.9 2.4 4.8 4.7 5.8 2.9 1.2 6.3 1.3 9.3 2.5 3.8 1.6 7.5 3.3 10.9 5.6 2.4 1.6 7.8 4.6 8.3 7.9 0.3 2.4-2.7 4.3-4.7 5.1-2.1 0.8-4.4 0.7-6.6 0.9-1.8 0.2-3.6 1-4.2 1-0.1 0-0.1 0-0.1-0.1-0.7-6.2-3.1-9.1-3.2-9.2 0 0.2-23.9 4.5-25.8 4.9-24.7 5.8-29.3 19-46 24.7-0.6 0.2-1.1 0.3-1.5 0.3-3.7 0-3.4-6-2.8-8.8 1.5-6.4 7.5-11.8 11.1-17.1 1.6-2.2 3.2-4.7 4-7.3 0.9-2.8 0.5-6.1 0.8-9s1.5-7.5-0.6-10c0 0-1.7 5.4-2.1 5.8-0.8 1-2.1 1.4-3.4 1.4-2.3 0-4.9-1.2-6.3-2.4-1-0.9-1.9-2.1-2.4-3.3-0.5-1.1-0.4-2.7-0.4-3.9 0.6 0.6 3.1 3.5 4.6 3.5 0.4 0 0.7-0.2 0.9-0.6 0.4-0.7-0.4-2.2-0.5-2.9-0.7-3.6-1.3-7.2-1.8-10.8-0.4-3.3-1.8-7.9-0.1-11 2.4-4.6 9-5.7 13.4-7.3 1.5-0.6 3.1-1.1 4.7-1.3 0.4-0.1 0.6-0.1 0.8-0.1m0-1.8h-0.8c-1.9 0.2-3.6 0.8-5.2 1.4-0.8 0.3-1.7 0.6-2.7 0.9-4.2 1.3-9.4 3-11.7 7.3-1.6 3-0.9 6.9-0.4 10l0.3 2.1c0.5 3.7 1.1 7.3 1.8 10.9 0 0.2 0.1 0.4 0.1 0.5-0.4-0.4-1-0.9-1.8-1.7l-0.4-0.4-3-3.2 0.1 4.4v0.7c0 1.2 0 2.6 0.5 3.8 0.6 1.5 1.7 2.9 2.9 3.9 1.6 1.4 4.5 2.8 7.5 2.8 2 0 3.6-0.7 4.7-1.9 0 0.3-0.1 0.7-0.1 1-0.1 0.6-0.2 1.2-0.2 1.8-0.1 1.1-0.1 2.2-0.2 3.3 0 1.9-0.1 3.8-0.6 5.3-0.8 2.5-2.4 4.8-3.8 6.8-1 1.4-2.2 2.9-3.5 4.5-3.3 4.1-6.8 8.3-7.9 13.2-0.6 2.3-1 6.9 1 9.4 0.9 1.1 2.1 1.7 3.5 1.7 0.6 0 1.3-0.1 2.1-0.4 7.3-2.5 12.3-6.3 17.6-10.4 7-5.4 14.3-11 28.2-14.2 0.7-0.2 5-1 9.6-1.8 3.7-0.7 7.7-1.4 10.9-2 1.6-0.3 2.9-0.6 3.9-0.8 0.1 0 0.2 0 0.3-0.1 1.2 2 1.9 4.5 2.2 7.4v0.1 0.1c0.2 0.8 1 1.4 1.9 1.4 0.5 0 0.9-0.1 1.6-0.4 0.7-0.2 1.7-0.6 2.7-0.6 0.5 0 1-0.1 1.5-0.1 1.8-0.1 3.7-0.2 5.6-0.9 3-1.1 6.4-3.6 5.9-7-0.5-3.7-5.1-6.6-8.1-8.5-0.4-0.2-0.7-0.4-1-0.6-3.1-2-6.7-3.9-11.2-5.7-1.7-0.7-3.3-1-5-1.3-1.5-0.3-3-0.6-4.3-1.2-1.1-0.5-1.9-1.9-2.7-3.3-0.4-0.7-0.8-1.3-1.2-1.9-1.7-2.4-3.8-4.8-6.3-7.4-1.6-1.6-3.3-3.3-4.9-4.8-2.8-2.7-5.7-5.4-8.2-8.3-0.8-1-1.7-2-2.5-3-1.9-2.3-3.8-4.8-6.2-6.8-3.3-2.7-7.9-6-12.5-6z"/>
<path class="st6" d="m101.8 99.8c-4.1-1.2-6.2-0.4-8.2-2.6-0.9-1-2.8-1-13.6-4.2-1.7-0.5-1.8-1.1-0.5-2.4s1.1-1.1-2.2-12.5c-0.4-1.2 0-2.9-1.7-3.4-2.6-0.8-5.4-1.4-8.1-2.1-0.2 0-0.5 0.3-0.8 0.4 5.6 1.9 6.7 1.9 6.9 3.8 0.1 0.5 4.6 27.8-2.9 36.7-5.9 7.1-9.4 12.8-11.2 15.5-2 3-2.1 6.5-0.2 10.9 2 4.4 12.5-6.9 13.9-8.3 10.2-10.2 19.5-12.2 34.3-17.1 0.4-0.1 1.4-1.9 1.4-1.9l-7.1-12.8z"/>
<path class="st23" d="m124.9 97.4c-5.5 16.1-40.6 24.1-52.8 13.6 1.5-3.1 2.3-6.9 2.3-13.2 7.4 5.2 43.6 3.7 44.8-8.2l5.7 7.8z"/>
	<path class="st6" d="m116.2 101.2c-0.6 0.9-1.5 1.5-2.4 2.1-0.9 0.5-1.9 0.9-2.9 1.2-2 0.6-4 1-6.1 1l-0.1-0.7c1.9-0.8 3.8-1.3 5.7-2 0.9-0.3 1.8-0.7 2.7-1.1s1.8-0.8 2.7-1.2l0.4 0.7z"/>
	<path class="st6" d="m98.1 86.9c-1.1 0.7-2 1.6-3.1 2.2-1.1 0.7-2.3 1.2-3.6 1.6-2.5 0.8-5.1 1.1-7.6 1.5l0.4-1.5c0.8 0.7 1.9 1.1 3 1.4 1.2 0.2 2.4 0.3 3.7 0.4v0.2c-1.2 0.2-2.5 0.4-3.8 0.4s-2.7-0.2-3.9-1l-2.4-1.4 2.8-0.1c2.5-0.1 5.1-0.2 7.5-0.7 1.2-0.3 2.4-0.6 3.5-1.2 1.1-0.5 2.2-1.3 3.3-1.9l0.2 0.1z"/>
<path class="st23" d="m89.6 105.6c-0.5 0-1.1 0.1-1.8 0.2-0.2-0.1-0.4-0.1-0.7-0.1-3.1 0.2-6.1-0.4-8.8-1.9-0.1 0-0.1-0.1-0.2-0.1 0.6-1.6-1.9-2.9-2.8-1.3-1.6 2.9-0.2 6.6 2.6 8.3 1.5 0.9 3.6 0.9 5.3 1.1 2 0.2 4.2 0.5 6.2 0 1.5-0.3 2.5-2.3 2.6-3.8 0.3-1.6-1-2.4-2.4-2.4z"/>
	<path class="st6" d="m117.1 95.7c-1.4 1.6-3.4 2.5-5.3 3.1-2 0.6-4 1-6 1.2l-0.1-0.4c1.9-0.6 3.9-1.2 5.8-1.8 1.9-0.7 3.7-1.4 5.4-2.4l0.2 0.3z"/>
<path class="st6" d="m149.8 112.1c1.2 0.9 1.3 2.2 0.3 3.1-0.9 0.9-2.2 1.7-3.4 2-1.5 0.3-3.1-0.1-4.6 0-0.4 0-0.9 0.1-1.3 0.1 0.1 0.8 0.1 1.6 0.1 2.4 0.7-0.1 1.4-0.2 2.1-0.2 3.5-0.3 7-0.3 9.8-2.9 0.7-0.6 0.8-1.8 1.2-2.7l-4.2-1.8z"/>
	<path class="st23" d="m136.5 115.7c-0.4-1.4-1-2.7-1.5-3.7 1.1-0.3 3-0.7 5.4-0.7 2.6 0 5 0.5 7.1 1.4 0.5 0.2 1.1 0.6 1.4 0.9-0.2 0.2-0.4 0.4-0.7 0.6s-0.7 0.5-1 0.9c-1.2 0.3-2.3 0.5-3.5 0.5h-1-1.2c-1.6-0.2-3.8 0-5 0.1z"/>
	<path d="m140.4 112.2c2.5 0 4.7 0.4 6.8 1.3 0.1 0 0.2 0.1 0.3 0.1-0.2 0.2-0.4 0.4-0.7 0.6-1 0.2-2 0.4-3 0.4h-0.9-1.3c-1.4 0-3.2 0.1-4.5 0.3-0.3-0.8-0.6-1.5-0.9-2.2 1.2-0.3 2.6-0.5 4.2-0.5m0-1.8c-3.9 0-6.7 1-6.7 1 0.7 1.4 1.7 3.3 2.1 5.2 0 0 3.4-0.4 5.8-0.4h1.1 1c1.3 0 2.5-0.2 4-0.6 0.6-0.9 1.9-1.3 2.2-2.3 0.1-0.3-1.2-1.3-2-1.6-2.6-1-5.2-1.3-7.5-1.3z"/>
<path class="st23" d="m92.8 102.7c-3.8 1.9-0.9 3.7-0.6 3.9-4.4 0.9-8.8 0-13.1-1-0.6-0.1-1.2-0.3-1.7-0.5-2.8-0.9-3.1-1.8-1.7-4.4 0.1-0.2 0.5-0.3 0.6-0.3 3.4 1.9 7.1 1.9 10.8 2 3.1 0.3 2.7 0.3 5.7 0.3z"/>
<path class="st6" d="m65.9 89.8c-0.1 0.4 0 0.9-0.2 1.1s-0.7 0.1-1 0c-0.4-0.2-0.6-0.6-0.9-0.9-2.1-2.2 0.2 0.1 1.2-0.2-0.1 0.1 0.7 0 0.9 0z"/>
<path class="st6" d="m60.9 90.3c0.5 0.6 1.1 1.1 1.5 1.7 1.6 2 4.2 2.8 6.6 1.9 1.7-0.6 3.2-3 3-5.3-0.2-3.4-0.5-6.8-1-10.2-0.1-0.9-1.1-1.6-1.7-2.4-0.2-0.2-0.4-0.5-0.6-0.7 0.4-0.1 0.7-0.4 1.1-0.4 2.4 0.1 3.4 1.5 3.6 3.8 0.3 2.7 1.1 5.4 1.2 8.1 0.2 3.1-0.6 6.1-2.5 8.6-0.2 0.3-0.7 0.4-1.1 0.4-1.1 0-2.2-0.1-3.2-0.1-1.1 0-2.6 0.4-3.1-0.2-1.4-1.6-2.5-3.5-3.8-5.2z"/>
<path class="st6" d="m84.3 56.2c-0.7 0.9-1.4 1.8-2.1 2.7-0.2 0.2-0.7 0.2-1 0.3 0-0.4 0-0.7 0.1-1.1 0.1-0.7 0.2-1.4 0.4-2.1 0.8 0 1.7 0.1 2.6 0.2z"/>
<path class="st6" d="m78.6 56.6l-0.3 2.4c0 0.2-0.2 0.3-0.4 0.5-0.1-0.2-0.1-0.4-0.2-0.6-0.2-0.6-0.3-1.1-0.4-1.7 0.5-0.2 0.9-0.4 1.3-0.6z"/>
	<path class="st6" d="m63.3 63.8c-0.3 1-0.4 2-0.3 2.9 0.1 0.5 0.2 0.9 0.3 1.3 0.1 0.2 0.1 0.2 0.3 0.4 0.1 0.1 0.3 0.3 0.5 0.4 0.8 0.5 1.7 0.9 2.6 1.3s1.8 0.9 2.7 1.3v0.6c-1.1 0-2.1-0.3-3.1-0.6s-2-0.7-2.9-1.4c-0.2-0.2-0.5-0.3-0.7-0.6-0.2-0.2-0.5-0.6-0.5-0.9-0.2-0.6-0.3-1.2-0.2-1.8 0.1-1.1 0.5-2.2 1.2-3.1l0.1 0.2z"/>
	<path class="st6" d="m62.9 70.2c0.4-0.1 0.7 0 0.9 0.2s0.4 0.4 0.5 0.6c0.3 0.4 0.6 0.9 0.7 1.5l-0.2 0.2c-0.6-0.1-1-0.4-1.4-0.8-0.2-0.2-0.4-0.3-0.6-0.5-0.1-0.2-0.3-0.5-0.2-0.9l0.3-0.3z"/>
<path class="st24" d="m119.4 88.1c0.5 14.3-37.7 14.6-45.2 9.4"/>
<path class="st24" d="m72.1 111.3c12.2 10.5 47.6 2.3 53.1-13.9"/>
<path class="st24" d="m74.1 104.3c5.9 3.9 18.7 2.5 18.7 2.5 1.3 0.1-3.3 2.8-13.1 1.9h-0.1"/>
<path class="st25" d="m122.7 91.7c-3.3 7.9-13.6 13.5-25 13.5v-0.1"/>
</svg>
