<?xml version="1.0" encoding="utf-8"?>
<!-- Generator: Adobe Illustrator 22.1.0, SVG Export Plug-In . SVG Version: 6.00 Build 0)  -->
<svg version="1.1" id="Layer_1" xmlns="http://www.w3.org/2000/svg" xmlns:xlink="http://www.w3.org/1999/xlink" x="0px" y="0px"
	 viewBox="0 0 792 792" style="enable-background:new 0 0 792 792;" xml:space="preserve">
<style type="text/css">
	.st0{fill:none;stroke:#161951;stroke-width:2.2575;stroke-miterlimit:10;}
	.st1{fill:none;stroke:#161951;stroke-width:2.2013;stroke-miterlimit:10;}
	.st2{fill:none;stroke:#161951;stroke-width:2.2423;stroke-miterlimit:10;}
	.st3{fill:none;stroke:#161951;stroke-width:2.2536;stroke-miterlimit:10;}
	.st4{fill:none;stroke:#161951;stroke-width:2.3025;stroke-miterlimit:10;}
	.st5{fill:none;stroke:#161951;stroke-width:2.2536;stroke-linejoin:round;stroke-miterlimit:10;}
</style>
<g id="Layer_1_1_">
	<path class="st0" d="M395.9,775.1c-101.2,0-196.3-39.4-267.8-110.9s-111-166.7-111-267.9C17.1,295.2,56.5,200,128,128.5
		s166.7-111,267.9-111s196.3,39.4,267.8,110.9s110.9,166.7,110.9,267.8c0,101.2-39.4,196.3-110.9,267.8
		C592.2,735.7,497,775.1,395.9,775.1z"/>
	<path class="st1" d="M395.9,765.7c-98.7,0-191.4-38.4-261.2-108.2S26.5,495,26.5,396.3s38.4-191.4,108.2-261.2S297.2,27,395.9,27
		s191.4,38.4,261.2,108.2s108.2,162.5,108.2,261.2s-38.4,191.4-108.2,261.2C587.3,727.3,494.5,765.7,395.9,765.7z"/>
	<path class="st2" d="M624.9,563.7c-60.7-13.9-98.7-74.3-84.8-135s74.3-98.7,135-84.8c28.1,6.4,51.3,22.8,66.8,44.6
		c-1.1-47.6-11.7-93.7-31-135.9c-4.6,26.1-18.4,50.6-40.7,68.4c-48.7,38.8-119.6,30.8-158.5-17.8c-38.8-48.7-30.8-119.6,17.8-158.5
		c22.2-17.7,48.9-25.6,75.2-24.5C567.7,92,525.8,71.8,481,60.5c17.2,19.8,27.6,45.6,27.6,73.9c0,62.3-50.5,112.7-112.7,112.7
		s-112.7-50.5-112.7-112.7c0-28.4,10.5-54.3,27.8-74.1c-44.8,11.2-86.9,31.4-124.1,59.5c26.2-1.1,52.9,6.9,75,24.5
		c48.7,38.8,56.7,109.8,17.9,158.5S170,359.5,121.4,320.7C99,302.8,85.2,278.2,80.6,252c-19.5,42-30.2,88-31.4,135.6
		c15.5-21.6,38.6-37.9,66.6-44.3c60.7-13.9,121.2,24.1,135,84.8c13.9,60.7-24.1,121.2-84.8,135c-28.5,6.5-56.9,1.6-80.4-11.7
		c16.5,32.8,38.3,63.2,65,89.9c7.5,7.5,15.2,14.5,23.3,21.2c-7.7-26-6.2-54.8,6.5-81.1c27-56.1,94.4-79.7,150.5-52.7
		s79.7,94.4,52.7,150.5c-12.8,26.6-34.7,45.9-60.2,56c23.5,5,47.7,7.5,72.3,7.5c24.2,0,48-2.5,71.2-7.3
		c-25.3-10.1-47.1-29.3-59.9-55.8c-27-56.1-3.4-123.5,52.7-150.5s123.5-3.4,150.5,52.7c12.7,26.4,14.2,55.4,6.4,81.5
		c8.3-6.9,16.4-14.2,24.1-22c26.5-26.5,48.2-56.6,64.7-89.2C681.6,565.4,653.3,570.2,624.9,563.7z"/>
	<polygon class="st3" points="324.7,247.8 236.3,358.7 267.8,496.9 395.6,558.5 523.4,496.9 555,358.7 466.5,247.8 	"/>
	<circle class="st3" cx="396" cy="394.8" r="128.5"/>
	<path class="st4" d="M395.9,782.7c-103.2,0-200.2-40.2-273.2-113.2S9.5,499.5,9.5,396.3s40.2-200.2,113.2-273.2S292.7,10,395.9,10
		S596.1,50.2,669,123.2c73,73,113.2,170,113.2,273.2S742,596.6,669,669.6C596.1,742.5,499.1,782.7,395.9,782.7z"/>
</g>
<g id="Layer_2_1_">
	<path class="st3" d="M395.2,240.1c-25.1,0-29.4-22.1-29.4-38.8c0,0-63-17.9-63-40c0-16.2,15.4-17.8,25.5-17.8
		c2.5,0,4.7,0.1,6.2,0.1c0.6,0,1.1,0,1.7-0.1c4.7-0.8,14.6-0.4-5.1-32.4s-26-53.7-13-53.7s40.6-0.8,47.4-0.8
		c6.7,0,22.6,35.5,29.7,35.5s22.9-35.5,29.6-35.5s34.3,0.8,47.4,0.8c13,0,6.7,21.7-13,53.7s-9.9,31.6-5.1,32.4
		c0.6,0.1,1.1,0.1,1.7,0.1c1.6,0,3.7-0.1,6.2-0.1c10.1,0,25.5,1.6,25.5,17.8c0,22.1-63,40-63,40C424.5,218,420.2,240.1,395.2,240.1"
		/>
	<path class="st3" d="M273.8,298.9c-15.6,19.6-35.6,9.2-48.7-1.2c0,0-53.3,38.1-70.5,24.3c-12.6-10.1-4.3-23.1,2-31.1
		c1.6-2,3-3.6,4-4.8c0.4-0.4,0.7-0.9,1-1.4c2.3-4.2,8.8-11.7-28.5-16.2S74.9,255.4,83,245.2s24.7-32.3,28.9-37.5s41.9,4.5,46.3-1.1
		c4.4-5.5-13.5-40-9.3-45.3c4.2-5.2,22-26.3,30.2-36.5c8.1-10.2,21.1,8.3,33.8,43.6s18.5,27.4,22.1,24.2c0.4-0.4,0.8-0.8,1.1-1.3
		c1-1.2,2.2-3,3.8-4.9c6.3-7.9,17.2-19,29.8-8.9c17.3,13.8-8,74.2-8,74.2C274.8,262.2,289.4,279.4,273.8,298.9"/>
	<path class="st3" d="M244.2,430.3c5.6,24.4-15,33.6-31.3,37.3c0,0-3.4,65.4-25,70.3c-15.8,3.6-20.7-11.1-23-21
		c-0.6-2.4-0.9-4.6-1.3-6.1c-0.1-0.6-0.3-1.1-0.5-1.6c-1.8-4.4-3.6-14.2-30.4,12.2C106,547.7,86.2,558.7,83.3,546s-9.8-39.4-11.3-46
		c-1.5-6.5,29.6-29.9,28-36.8s-39.7-14.4-41.2-21c-1.5-6.5-6.9-33.7-9.8-46.3s19.7-11.4,55.2,0.7s33,2.6,32.7-2.2
		c-0.1-0.6-0.1-1.1-0.3-1.7c-0.3-1.5-0.9-3.6-1.5-6c-2.3-9.9-4.1-25.3,11.6-28.9c21.5-4.9,53,52.5,53,52.5
		C216.1,406.6,238.6,405.9,244.2,430.3"/>
	<path class="st3" d="M328.4,535.4c22.6,10.9,16.9,32.7,9.6,47.7c0,0,49,43.4,39.4,63.4c-7,14.6-21.6,9.3-30.7,4.9
		c-2.2-1.1-4.2-2.1-5.5-2.8c-0.5-0.3-1-0.5-1.6-0.6c-4.6-1.3-13.3-6-9.4,31.4s0.2,59.6-11.5,54s-37-16.9-43-19.8
		c-6-2.9-4.9-41.8-11.3-44.9s-36,22.1-42.1,19.2c-6-2.9-30.6-15.6-42.3-21.3s3.4-22.5,35-42.7s22.6-24.2,18.7-26.9
		c-0.5-0.3-1-0.6-1.5-0.8c-1.4-0.7-3.4-1.5-5.6-2.6c-9.1-4.4-22.3-12.5-15.3-27.1c9.6-19.9,74.1-8.7,74.1-8.7
		C292.4,542.5,305.8,524.5,328.4,535.4"/>
	<path class="st3" d="M463.1,535.1c22.6-10.9,36.1,7.2,43.3,22.2c0,0,64.5-11.2,74.1,8.7c7,14.6-6.2,22.7-15.3,27.1
		c-2.2,1.1-4.3,1.9-5.6,2.6c-0.5,0.2-1,0.5-1.5,0.8c-3.9,2.8-13,6.7,18.7,26.9s46.7,37,35,42.7c-11.7,5.6-36.3,18.4-42.3,21.3
		s-35.8-22.2-42.2-19.1c-6.4,3.1-5.2,41.9-11.3,44.8c-6,2.9-31.3,14.2-43,19.8s-15.5-16.6-11.6-54s-4.8-32.7-9.4-31.4
		c-0.5,0.2-1.1,0.4-1.6,0.6c-1.4,0.7-3.3,1.7-5.5,2.8c-9.1,4.4-23.7,9.7-30.7-4.9c-9.6-19.9,39.4-63.4,39.4-63.4
		C446.3,567.7,440.6,546,463.1,535.1"/>
	<path class="st3" d="M547,429.6c5.6-24.4,28.1-23.7,44.4-20c0,0,31.5-57.4,53-52.5c15.8,3.6,13.9,19,11.6,28.9
		c-0.6,2.4-1.1,4.5-1.5,6c-0.1,0.6-0.2,1.1-0.3,1.7c-0.3,4.8-2.9,14.3,32.7,2.2c35.5-12.1,58.1-13.5,55.2-0.8s-8.3,39.8-9.7,46.3
		c-1.5,6.5-39.7,14.1-41.2,21c-1.6,6.9,29.5,30.2,28,36.8c-1.5,6.5-8.4,33.3-11.3,46c-2.9,12.7-22.6,1.7-49.4-24.6
		c-26.8-26.3-28.6-16.6-30.4-12.2c-0.2,0.5-0.4,1.1-0.5,1.6c-0.3,1.5-0.7,3.6-1.3,6.1c-2.3,9.9-7.2,24.6-23,21
		c-21.5-4.9-25-70.3-25-70.3C562,463.1,541.4,454,547,429.6"/>
	<path class="st3" d="M516.8,298.3c-15.6-19.6-1-36.7,12-47.2c0,0-25.3-60.4-8-74.2c12.6-10.1,23.5,1,29.8,8.9
		c1.6,2,2.8,3.7,3.8,4.9c0.4,0.5,0.7,0.9,1.1,1.3c3.6,3.2,9.4,11.2,22.1-24.2s25.7-53.8,33.8-43.6s26,31.3,30.2,36.5
		s-13.7,39.8-9.3,45.4s42-4.2,46.2,1s20.8,27.3,28.9,37.5s-12.8,18.8-50.1,23.3s-30.8,12-28.5,16.2c0.3,0.5,0.6,1,1,1.4
		c1,1.2,2.4,2.8,4,4.8c6.3,7.9,14.7,21,2,31.1C618.7,335,565.4,297,565.4,297C552.3,307.4,532.4,317.8,516.8,298.3"/>
	<polygon class="st5" points="333.5,57.5 395.1,240.1 456.7,57.5 317.6,179.3 472.7,179.3 	"/>
	<polygon class="st5" points="92.3,234.4 273.5,300.1 169.1,138.1 177.6,322.8 274.3,201.5 	"/>
	<polygon class="st5" points="80.3,533.3 244.6,432.6 52.9,413.2 202.6,521.7 168,370.5 	"/>
	<polygon class="st5" points="306.5,729 330.1,537.7 195.5,675.6 373.6,626.1 233.9,558.9 	"/>
	<polygon class="st5" points="600.5,674.1 465.7,536.4 489.6,727.6 561.9,557.5 422.3,624.9 	"/>
	<polygon class="st5" points="740.9,410 549.2,429.5 713.6,530.1 625.6,367.4 591.3,518.7 	"/>
	<polygon class="st5" points="621.8,135.6 517.6,297.7 698.7,231.8 516.7,199.2 613.6,320.3 	"/>
</g>
</svg>
