<?xml version="1.0" encoding="utf-8"?>
<!-- Generator: Adobe Illustrator 22.1.0, SVG Export Plug-In . SVG Version: 6.00 Build 0)  -->
<svg version="1.1" xmlns="http://www.w3.org/2000/svg" xmlns:xlink="http://www.w3.org/1999/xlink" x="0px" y="0px"
	 viewBox="0 0 122.7 173.4" style="enable-background:new 0 0 122.7 173.4;" xml:space="preserve">
<style type="text/css">
	.st0{fill:#161951;}
	.st1{fill:#06082D;}
	.st2{fill:#333676;}
</style>
<g id="Layer_3">
	<title>Artboard 1</title>
	<path class="st0" d="M21.8,37.8c-4.9,0-8.1-5-13-12.7c-1.2-1.9-2.9-4.6-4.3-6.5c-1.4,1.9-3.1,4.6-4.3,6.5
		c-4.9,7.6-8.1,12.7-13,12.7c-1.7,0-5.5-0.1-9.9-0.2c-6-0.1-13.4-0.3-17.8-0.3c-3.3,0.1-6.4-1.6-8.1-4.5C-50.8,29-52,21.2-37.5-2.3
		c2.2-3.4,4.1-7,5.6-10.7h-0.3c-0.7,0-1.5,0-2.4,0c-17.7,0-20.3-9.9-20.3-15.8c0-7.8,7-14.8,21.5-21.4c5-2.3,10.2-4.3,15.4-6
		c0.2-4.7,1.5-9.4,3.6-13.6c2.6-4.8,8.1-10.5,18.8-10.5s16.2,5.7,18.8,10.5c2.2,4.2,3.4,8.9,3.6,13.6c5.2,1.7,10.4,3.7,15.4,6
		c14.5,6.7,21.6,13.7,21.6,21.4c0,5.9-2.6,15.8-20.3,15.8c-0.9,0-1.7,0-2.4,0h-0.3c1.5,3.8,3.4,7.3,5.6,10.7
		C60.9,21.2,59.7,29,57.6,32.9c-1.7,2.9-4.8,4.6-8.1,4.5c-4.4,0-11.8,0.2-17.8,0.3C27.3,37.7,23.5,37.8,21.8,37.8z"/>
	<path class="st1" d="M21.8,124.3c-4.9,0-8.1-5-13-12.7c-1.2-1.9-2.9-4.6-4.3-6.5c-1.4,1.9-3.1,4.6-4.3,6.5
		c-4.9,7.6-8.1,12.7-13,12.7c-1.7,0-5.5-0.1-9.9-0.2c-6-0.1-13.4-0.3-17.8-0.3c-3.3,0.1-6.4-1.6-8.1-4.5
		c-2.2-3.9-3.3-11.7,11.1-35.1c2.2-3.4,4.1-7,5.6-10.7h-0.3c-0.7,0-1.5,0-2.4,0c-17.7,0-20.3-9.9-20.3-15.8c0-7.8,7-14.8,21.5-21.5
		c5-2.3,10.2-4.3,15.4-6c0.2-4.7,1.5-9.4,3.6-13.6c2.6-4.7,8.1-10.4,18.8-10.4s16.2,5.7,18.8,10.5c2.2,4.2,3.4,8.9,3.6,13.6
		c5.2,1.7,10.4,3.7,15.4,6C56.8,43,63.9,50,63.9,57.7c0,5.9-2.6,15.8-20.3,15.8c-0.9,0-1.7,0-2.4,0h-0.3c1.5,3.7,3.4,7.3,5.6,10.7
		c14.5,23.4,13.3,31.3,11.1,35.1c-1.7,2.9-4.8,4.6-8.1,4.5c-4.4,0-11.8,0.2-17.8,0.3C27.3,124.2,23.5,124.3,21.8,124.3z"/>
	<path class="st1" d="M83.1,37.8c-4.9,0-8.1-5-13-12.7c-1.2-1.9-2.9-4.6-4.3-6.5c-1.4,1.9-3.1,4.6-4.3,6.5
		c-4.9,7.6-8.1,12.7-13,12.7c-1.7,0-5.5-0.1-9.9-0.2c-6-0.1-13.4-0.3-17.8-0.3c-3.3,0.1-6.5-1.6-8.1-4.5C10.5,29,9.3,21.2,23.8-2.3
		c2.2-3.4,4.1-7,5.6-10.7h-0.3c-0.7,0-1.5,0-2.4,0C9-13,6.4-22.9,6.4-28.8c0-7.8,7-14.8,21.5-21.4c5-2.3,10.2-4.3,15.4-6
		c0.2-4.7,1.5-9.4,3.7-13.6c2.6-4.8,8-10.5,18.8-10.5S82-74.5,84.6-69.8c2.2,4.2,3.4,8.9,3.6,13.6c5.2,1.7,10.4,3.7,15.4,6
		c14.5,6.7,21.6,13.7,21.6,21.4c0,5.9-2.7,15.8-20.3,15.8c-0.9,0-1.7,0-2.4,0h-0.3c1.5,3.8,3.4,7.3,5.6,10.7
		C122.2,21.2,121,29,118.9,32.9c-1.7,2.9-4.8,4.6-8.1,4.5c-4.4,0-11.8,0.2-17.8,0.3C88.6,37.7,84.8,37.8,83.1,37.8z"/>
	<path class="st0" d="M83.1,124.3c-4.9,0-8.1-5-13-12.7c-1.2-1.9-2.9-4.6-4.3-6.5c-1.4,1.9-3.1,4.6-4.3,6.5
		c-4.9,7.6-8.1,12.7-13,12.7c-1.7,0-5.5-0.1-9.9-0.2c-6-0.1-13.4-0.3-17.8-0.3c-3.3,0.1-6.5-1.6-8.1-4.5
		c-2.2-3.9-3.3-11.7,11.1-35.1c2.2-3.4,4.1-7,5.6-10.7H29c-0.7,0-1.5,0-2.4,0C9,73.5,6.4,63.6,6.4,57.7c0-7.7,7-14.7,21.5-21.5
		c5-2.3,10.2-4.3,15.4-6c0.2-4.7,1.5-9.4,3.7-13.6c2.6-4.8,8-10.5,18.8-10.5S82,11.9,84.6,16.7c2.2,4.2,3.4,8.9,3.6,13.6
		c5.2,1.7,10.4,3.7,15.4,6c14.5,6.7,21.6,13.7,21.6,21.4c0,5.9-2.7,15.8-20.3,15.8c-0.8,0-1.7,0-2.4,0h-0.3
		c1.5,3.8,3.4,7.4,5.6,10.7c14.5,23.4,13.3,31.3,11.1,35.1c-1.7,2.9-4.8,4.6-8.1,4.5c-4.4,0-11.8,0.2-17.8,0.3
		C88.6,124.2,84.8,124.3,83.1,124.3z"/>
	<path class="st0" d="M144,37.8c-4.9,0-8.1-5-13-12.7c-1.2-1.9-2.9-4.6-4.3-6.5c-1.4,1.9-3.1,4.6-4.3,6.5c-4.9,7.6-8.1,12.7-13,12.7
		c-1.7,0-5.5-0.1-9.9-0.2c-6-0.1-13.4-0.3-17.8-0.3c-3.3,0.1-6.4-1.6-8.1-4.5C71.4,29,70.2,21.2,84.7-2.3c2.2-3.4,4.1-7,5.6-10.7H90
		c-0.7,0-1.5,0-2.4,0c-17.7,0-20.3-9.9-20.3-15.8c0-7.8,7-14.8,21.6-21.4c5-2.3,10.2-4.3,15.4-6c0.2-4.7,1.5-9.4,3.6-13.6
		c2.6-4.8,8-10.5,18.8-10.5s16.2,5.7,18.8,10.5c2.2,4.2,3.4,8.9,3.6,13.6c5.2,1.7,10.4,3.7,15.4,6c14.5,6.7,21.6,13.7,21.6,21.4
		c0,5.9-2.6,15.8-20.3,15.8c-0.9,0-1.7,0-2.4,0h-0.3c1.5,3.8,3.4,7.3,5.6,10.7C183.1,21.2,182,29,179.8,32.9
		c-1.7,2.9-4.8,4.6-8.1,4.5c-4.4,0-11.8,0.2-17.8,0.3C149.5,37.7,145.7,37.8,144,37.8z"/>
	<path class="st1" d="M144,124.3c-4.9,0-8.1-5-13-12.7c-1.2-1.9-2.9-4.6-4.3-6.5c-1.4,1.9-3.1,4.6-4.3,6.5
		c-4.9,7.6-8.1,12.7-13,12.7c-1.7,0-5.5-0.1-9.9-0.2c-6-0.1-13.4-0.3-17.8-0.3c-3.3,0.1-6.4-1.6-8.1-4.5
		c-2.2-3.9-3.3-11.7,11.1-35.1c2.2-3.4,4.1-7,5.6-10.7H90c-0.7,0-1.5,0-2.4,0c-17.7,0-20.3-9.9-20.3-15.8c0-7.8,7-14.8,21.6-21.5
		c5-2.3,10.2-4.3,15.4-6c0.2-4.7,1.5-9.4,3.6-13.6c2.6-4.8,8-10.5,18.8-10.5s16.2,5.7,18.8,10.5c2.2,4.2,3.4,8.9,3.6,13.6
		c5.2,1.7,10.4,3.7,15.4,6c14.5,6.8,21.5,13.8,21.5,21.5c0,5.9-2.6,15.8-20.3,15.8c-0.9,0-1.7,0-2.4,0h-0.3
		c1.5,3.8,3.4,7.3,5.6,10.7c14.5,23.4,13.3,31.3,11.1,35.1c-1.7,2.9-4.8,4.6-8.1,4.5c-4.4,0-11.8,0.2-17.8,0.3
		C149.5,124.2,145.7,124.3,144,124.3z"/>
	<path class="st0" d="M21.8,210.8c-4.9,0-8.1-5-13-12.7c-1.2-1.9-2.9-4.6-4.3-6.5c-1.4,1.9-3.1,4.6-4.3,6.5
		c-4.9,7.6-8.1,12.7-13,12.7c-1.7,0-5.5-0.1-9.9-0.2c-6-0.1-13.4-0.3-17.8-0.3c-3.3,0.1-6.4-1.6-8.1-4.5
		c-2.2-3.9-3.3-11.7,11.1-35.1c2.2-3.4,4.1-7,5.6-10.7h-0.3c-0.7,0-1.5,0-2.4,0c-17.7,0-20.3-9.9-20.3-15.8c0-7.8,7-14.8,21.5-21.4
		c5-2.3,10.2-4.3,15.4-6c0.2-4.7,1.5-9.4,3.6-13.6c2.6-4.8,8.1-10.5,18.8-10.5s16.2,5.7,18.8,10.5c2.2,4.2,3.4,8.9,3.6,13.6
		c5.2,1.7,10.4,3.7,15.4,6c14.5,6.7,21.6,13.7,21.6,21.4c0,5.9-2.6,15.8-20.3,15.8c-0.9,0-1.7,0-2.4,0h-0.3
		c1.5,3.8,3.4,7.3,5.6,10.7c14.5,23.4,13.3,31.3,11.1,35.1c-1.7,2.9-4.8,4.6-8.1,4.5c-4.4,0-11.8,0.2-17.8,0.3
		C27.3,210.7,23.5,210.8,21.8,210.8z"/>
	<path class="st1" d="M83.1,210.8c-4.9,0-8.1-5-13-12.7c-1.2-1.9-2.9-4.6-4.3-6.5c-1.4,1.9-3.1,4.6-4.3,6.5
		c-4.9,7.6-8.1,12.7-13,12.7c-1.7,0-5.5-0.1-9.9-0.2c-6-0.1-13.4-0.3-17.8-0.3c-3.3,0.1-6.5-1.6-8.1-4.5
		c-2.2-3.9-3.3-11.7,11.1-35.1c2.2-3.4,4.1-7,5.7-10.7h-0.3c-0.7,0-1.5,0-2.4,0C9,160,6.4,150.1,6.4,144.2c0-7.8,7-14.8,21.5-21.4
		c5-2.3,10.2-4.3,15.4-6c0.2-4.7,1.5-9.4,3.7-13.6c2.6-4.8,8-10.5,18.8-10.5s16.2,5.7,18.8,10.5c2.2,4.2,3.4,8.9,3.6,13.6
		c5.2,1.7,10.4,3.7,15.4,6c14.5,6.7,21.6,13.7,21.6,21.4c0,5.9-2.7,15.8-20.3,15.8c-0.9,0-1.7,0-2.4,0h-0.3
		c1.5,3.8,3.4,7.3,5.6,10.7c14.4,23.4,13.2,31.2,11.1,35.1c-1.7,2.9-4.8,4.6-8.1,4.5c-4.4,0-11.8,0.2-17.8,0.3
		C88.6,210.7,84.8,210.8,83.1,210.8z"/>
	<path class="st0" d="M144,210.8c-4.9,0-8.1-5-13-12.7c-1.2-1.9-2.9-4.6-4.3-6.5c-1.4,1.9-3.1,4.6-4.3,6.5
		c-4.9,7.6-8.1,12.7-13,12.7c-1.7,0-5.5-0.1-9.9-0.2c-6-0.1-13.4-0.3-17.8-0.3c-3.3,0.1-6.4-1.6-8.1-4.5
		c-2.2-3.9-3.3-11.7,11.1-35.1c2.2-3.4,4.1-7,5.7-10.7H90c-0.7,0-1.5,0-2.4,0c-17.7,0-20.3-9.9-20.3-15.8c0-7.8,7-14.8,21.6-21.4
		c5-2.3,10.2-4.3,15.4-6c0.2-4.7,1.5-9.4,3.6-13.6c2.6-4.8,8-10.5,18.8-10.5s16.2,5.7,18.8,10.5c2.2,4.2,3.4,8.9,3.6,13.6
		c5.2,1.7,10.4,3.7,15.4,6c14.5,6.7,21.6,13.7,21.6,21.4c0,5.9-2.6,15.8-20.3,15.8c-0.9,0-1.7,0-2.4,0h-0.3
		c1.5,3.8,3.4,7.3,5.6,10.7c14.5,23.4,13.3,31.3,11.1,35.1c-1.7,2.9-4.8,4.6-8.1,4.5c-4.4,0-11.8,0.2-17.8,0.3
		C149.5,210.7,145.7,210.8,144,210.8z"/>
</g>
<g id="Layer_2">
	<path class="st2" d="M4.5-85.6c-10.4,0-18.8,4.7-23.5,13.2c-2.1,3.8-3.4,7.9-4,12.2c-3.6,1.3-8.1,3-12.7,5.1
		c-5.3,2.3-10.4,5.3-15,8.9c-6.4,5.2-9.7,11.1-9.7,17.5c0,4.5,1.5,18.4,19.9,20.8c-0.5,0.8-1,1.8-1.7,2.8
		C-54.6,15.1-58,27.2-53.3,35.5c2.6,4.6,7.5,7.4,12.8,7.2c4.3,0,11.7,0.2,17.6,0.3c4.6,0.1,8.3,0.2,10,0.2c7.7,0,12-6.5,17.3-14.8
		c5.3,8.3,9.6,14.8,17.4,14.8c1.8,0,5.4-0.1,10-0.2c5.9-0.1,13.3-0.3,17.6-0.3c5.3,0.2,10.2-2.6,12.8-7.2
		c4.6-8.2,1.2-20.4-11.2-40.6c-0.6-1-1.2-2-1.7-2.8c18.4-2.4,19.9-16.3,19.9-20.8c0-15-18.6-23.5-24.7-26.3c-4.5-2.1-9-3.8-12.6-5.1
		c-0.6-4.3-1.9-8.4-3.9-12.2C23.3-80.9,14.9-85.6,4.5-85.6L4.5-85.6z"/>
	<path class="st0" d="M4.5-74.8c14.6,0,17.2,12.9,17.2,22.7c0,0,36.8,10.5,36.8,23.4c0,9.5-9,10.4-14.9,10.4c-1.5,0-2.7-0.1-3.6-0.1
		c-0.3,0-0.7,0-1,0.1c-2.8,0.5-8.5,0.2,3,18.9s15.2,31.4,7.6,31.4s-23.8,0.5-27.7,0.5S8.6,11.6,4.5,11.6S-8.9,32.4-12.8,32.4
		s-20.1-0.5-27.7-0.5s-3.9-12.7,7.6-31.4s5.8-18.5,3-18.9c-0.3,0-0.7-0.1-1-0.1c-0.9,0-2.2,0.1-3.6,0.1c-5.9,0-14.9-0.9-14.9-10.4
		c0-12.9,36.8-23.4,36.8-23.4C-12.7-61.9-10.1-74.8,4.5-74.8"/>
	<path class="st2" d="M4.5,0.8C-6,0.9-14.3,5.6-19.1,14.1c-2,3.8-3.4,7.9-3.9,12.2c-3.6,1.2-8.1,3-12.7,5.1
		c-5.3,2.3-10.3,5.3-15,8.9c-6.5,5.2-9.8,11.1-9.8,17.5c0,4.5,1.5,18.4,19.9,20.8c-0.5,0.8-1,1.8-1.7,2.8
		C-54.6,101.6-58,113.7-53.3,122c2.6,4.6,7.5,7.4,12.8,7.2c4.3,0,11.7,0.2,17.6,0.3c4.6,0.1,8.3,0.2,10,0.2c7.7,0,12-6.5,17.3-14.8
		c5.3,8.3,9.6,14.8,17.3,14.8c1.8,0,5.4-0.1,10-0.2c5.9-0.1,13.3-0.3,17.6-0.3c5.3,0.2,10.3-2.6,12.9-7.2
		c4.6-8.2,1.2-20.4-11.2-40.6c-0.6-1-1.2-2-1.7-2.8c18.4-2.4,19.9-16.3,19.9-20.8c0-15-18.6-23.5-24.7-26.4
		c-4.5-2.1-9.1-3.8-12.7-5.1c-0.5-4.3-1.9-8.4-3.9-12.2C23.3,5.6,14.9,0.9,4.5,0.8L4.5,0.8z"/>
	<path class="st1" d="M4.5,11.6c14.6,0,17.2,12.9,17.2,22.7c0,0,36.8,10.5,36.8,23.4c0,9.5-9,10.4-14.9,10.4c-1.5,0-2.7,0-3.6,0
		c-0.3,0-0.7,0-1,0c-2.8,0.5-8.5,0.2,3,18.9s15.2,31.4,7.6,31.4s-23.8,0.5-27.7,0.5S8.6,98.1,4.5,98.1s-13.4,20.8-17.3,20.8
		s-20.1-0.5-27.7-0.5s-3.9-12.7,7.6-31.4s5.8-18.5,3-18.9c-0.3,0-0.7,0-1,0c-0.9,0-2.2,0-3.6,0c-5.9,0-14.9-0.9-14.9-10.4
		c0-12.9,36.8-23.4,36.8-23.4C-12.7,24.5-10.1,11.6,4.5,11.6"/>
	<path class="st2" d="M65.8-85.6c-10.5,0-18.8,4.7-23.5,13.2c-2,3.8-3.3,7.9-3.9,12.2c-3.6,1.3-8.1,3-12.7,5.1
		c-5.3,2.3-10.3,5.3-14.9,8.9C4.2-41,1-35.1,1-28.8c0,4.5,1.5,18.4,19.9,20.8c-0.5,0.8-1.1,1.8-1.7,2.8C6.7,15.1,3.3,27.2,7.9,35.5
		c2.6,4.6,7.5,7.4,12.8,7.2c4.3,0,11.7,0.2,17.6,0.3c4.6,0.1,8.3,0.2,10,0.2c7.7,0,12-6.5,17.3-14.8C71,36.7,75.3,43.2,83,43.2
		c1.8,0,5.4-0.1,10-0.2c5.9-0.1,13.3-0.3,17.7-0.3c5.3,0.2,10.2-2.6,12.8-7.2c4.6-8.2,1.2-20.4-11.2-40.6c-0.6-1-1.2-2-1.7-2.8
		c18.4-2.4,19.9-16.3,19.9-20.8c0-15-18.6-23.5-24.7-26.4c-4.6-2.1-9.1-3.8-12.7-5.1c-0.6-4.3-1.9-8.4-3.9-12.2
		C84.6-80.9,76.2-85.6,65.8-85.6L65.8-85.6z"/>
	<path class="st1" d="M65.8-74.8c14.7,0,17.2,12.9,17.2,22.7c0,0,36.8,10.5,36.8,23.4c0,9.5-9,10.4-14.9,10.4
		c-1.5,0-2.7-0.1-3.6-0.1c-0.3,0-0.7,0-1,0.1c-2.8,0.5-8.5,0.2,3,18.9s15.2,31.4,7.6,31.4S87,32.4,83.1,32.4S69.9,11.6,65.8,11.6
		S52.4,32.4,48.5,32.4s-20.1-0.5-27.7-0.5s-3.9-12.7,7.6-31.4s5.8-18.5,3-18.9c-0.3,0-0.7-0.1-1-0.1c-0.9,0-2.2,0.1-3.6,0.1
		c-5.9,0-14.9-0.9-14.9-10.4c0-12.9,36.8-23.4,36.8-23.4C48.6-61.9,51.1-74.8,65.8-74.8"/>
	<path class="st2" d="M65.8,0.8C55.3,0.9,47,5.6,42.2,14.1c-2,3.8-3.3,7.9-3.9,12.2c-3.6,1.2-8.1,3-12.7,5.1
		c-5.3,2.3-10.3,5.3-14.9,8.9C4.2,45.5,1,51.4,1,57.7c0,4.5,1.5,18.4,19.9,20.8c-0.5,0.8-1.1,1.8-1.7,2.8
		C6.7,101.6,3.3,113.7,7.9,122c2.6,4.6,7.5,7.4,12.8,7.2c4.3,0,11.7,0.2,17.6,0.3c4.6,0.1,8.3,0.2,10,0.2c7.7,0,12-6.5,17.3-14.8
		c5.3,8.3,9.6,14.8,17.3,14.8c1.8,0,5.4-0.1,10-0.2c5.9-0.1,13.3-0.3,17.7-0.3c5.3,0.2,10.3-2.6,12.9-7.2
		c4.6-8.2,1.2-20.4-11.2-40.6c-0.6-1-1.2-2-1.7-2.8c18.4-2.4,19.9-16.3,19.9-20.8c0-15-18.6-23.5-24.7-26.4
		c-4.6-2.1-9.1-3.8-12.7-5.1c-0.6-4.3-1.9-8.4-3.9-12.2C84.6,5.6,76.2,0.9,65.8,0.8L65.8,0.8z"/>
	<path class="st0" d="M65.8,11.6c14.7,0,17.2,12.9,17.2,22.7c0,0,36.8,10.5,36.8,23.4c0,9.5-9,10.4-14.9,10.4c-1.5,0-2.7,0-3.6,0
		c-0.3,0-0.7,0-1,0c-2.8,0.5-8.5,0.2,3,18.9s15.2,31.4,7.6,31.4s-23.8,0.5-27.7,0.5S69.9,98.1,65.8,98.1s-13.4,20.8-17.3,20.8
		s-20.1-0.5-27.7-0.5s-3.9-12.7,7.6-31.4s5.8-18.5,3-18.9c-0.3,0-0.7,0-1,0c-0.9,0-2.2,0-3.6,0c-5.9,0-14.9-0.9-14.9-10.4
		c0-12.9,36.8-23.4,36.8-23.4C48.6,24.5,51.1,11.6,65.8,11.6"/>
	<path class="st2" d="M126.8-85.6c-10.4,0-18.8,4.7-23.5,13.2c-2,3.8-3.3,7.9-3.9,12.2c-3.6,1.3-8.1,3-12.7,5.1
		c-5.3,2.3-10.3,5.3-14.9,8.9c-6.5,5.2-9.8,11.1-9.8,17.5c0,4.5,1.5,18.4,19.9,20.8c-0.5,0.8-1,1.8-1.7,2.8
		C67.6,15.1,64.3,27.2,68.9,35.5c2.6,4.6,7.5,7.4,12.8,7.2c4.3,0,11.7,0.2,17.7,0.3c4.6,0.1,8.3,0.2,10,0.2c7.8,0,12-6.5,17.3-14.8
		c5.3,8.3,9.6,14.8,17.3,14.8c1.8,0,5.4-0.1,10-0.2c5.9-0.1,13.3-0.3,17.6-0.3c5.3,0.2,10.2-2.6,12.8-7.2
		c4.6-8.2,1.2-20.4-11.2-40.6c-0.6-1-1.2-2-1.7-2.8c18.5-2.4,20-16.3,20-20.8c0-15-18.6-23.5-24.7-26.3c-4.6-2.1-9.1-3.8-12.7-5.1
		c-0.6-4.3-1.9-8.4-3.9-12.2C145.5-80.9,137.2-85.6,126.8-85.6L126.8-85.6z"/>
	<path class="st0" d="M126.7-74.8c14.6,0,17.2,12.9,17.2,22.7c0,0,36.8,10.5,36.8,23.4c0,9.5-9,10.4-14.9,10.4
		c-1.5,0-2.7-0.1-3.6-0.1c-0.3,0-0.7,0-1,0.1c-2.8,0.5-8.5,0.2,3,18.9s15.2,31.4,7.6,31.4s-23.8,0.5-27.7,0.5s-13.2-20.8-17.4-20.8
		s-13.4,20.8-17.3,20.8s-20.1-0.5-27.7-0.5s-3.9-12.7,7.6-31.4s5.8-18.5,3-18.9c-0.3,0-0.7-0.1-1-0.1c-0.9,0-2.2,0.1-3.6,0.1
		c-5.9,0-14.9-0.9-14.9-10.4c0-12.9,36.8-23.4,36.8-23.4C109.6-61.9,112.1-74.8,126.7-74.8"/>
	<path class="st2" d="M126.8,0.8c-10.4,0-18.8,4.7-23.5,13.2c-2,3.8-3.3,7.9-3.9,12.2c-3.6,1.2-8.1,3-12.7,5.1
		c-5.3,2.3-10.3,5.3-14.9,8.9C65.2,45.4,62,51.3,62,57.7c0,4.5,1.5,18.4,19.9,20.8c-0.5,0.8-1,1.8-1.7,2.8
		c-12.5,20.3-15.9,32.4-11.3,40.7c2.6,4.6,7.5,7.4,12.8,7.2c4.3,0,11.7,0.2,17.7,0.3c4.6,0.1,8.3,0.2,10,0.2c7.8,0,12-6.5,17.3-14.8
		c5.3,8.3,9.6,14.8,17.3,14.8c1.8,0,5.4-0.1,10-0.2c5.9-0.1,13.3-0.3,17.6-0.3c5.3,0.2,10.3-2.6,12.9-7.2
		c4.6-8.2,1.2-20.4-11.2-40.6c-0.6-1-1.2-2-1.7-2.8c18.4-2.4,19.9-16.3,19.9-20.9c0-15-18.6-23.5-24.7-26.4
		c-4.6-2.1-9.1-3.8-12.7-5.1c-0.6-4.3-1.9-8.4-3.9-12.2C145.5,5.6,137.1,0.9,126.8,0.8L126.8,0.8z"/>
	<path class="st1" d="M126.7,11.6c14.6,0,17.2,12.9,17.2,22.7c0,0,36.8,10.5,36.8,23.4c0,9.5-9,10.4-14.9,10.4c-1.5,0-2.7,0-3.6,0
		c-0.3,0-0.7,0-1,0c-2.8,0.5-8.5,0.2,3,18.9s15.2,31.4,7.6,31.4s-23.8,0.5-27.7,0.5s-13.2-20.8-17.4-20.8s-13.4,20.8-17.3,20.8
		s-20.1-0.5-27.7-0.5s-3.9-12.7,7.6-31.4s5.8-18.5,3-18.9c-0.3,0-0.7,0-1,0c-0.9,0-2.2,0-3.6,0c-5.9,0-14.9-0.9-14.9-10.4
		c0-12.9,36.8-23.4,36.8-23.4C109.6,24.5,112.1,11.6,126.7,11.6"/>
	<path class="st2" d="M4.5,87.4c-10.4,0-18.8,4.7-23.5,13.2c-2.1,3.8-3.4,7.9-4,12.2c-3.6,1.3-8.1,3-12.7,5.1
		c-5.3,2.3-10.4,5.3-15,8.9c-6.5,5.2-9.8,11.1-9.8,17.5c0,4.5,1.5,18.4,19.9,20.8c-0.5,0.9-1,1.8-1.7,2.8
		c-12.5,20.2-15.8,32.4-11.2,40.6c2.6,4.6,7.5,7.4,12.8,7.2c4.3,0,11.7,0.2,17.6,0.3c4.6,0.1,8.3,0.2,10,0.2c7.7,0,12-6.5,17.3-14.8
		c5.3,8.3,9.6,14.8,17.3,14.8c1.8,0,5.4-0.1,10-0.2c5.9-0.1,13.3-0.3,17.6-0.3c5.3,0.2,10.2-2.6,12.8-7.2
		c4.6-8.2,1.2-20.4-11.2-40.6c-0.6-1-1.2-2-1.7-2.8c18.4-2.4,19.9-16.3,19.9-20.8c0-15-18.6-23.5-24.7-26.3
		c-4.5-2.1-9.1-3.8-12.7-5.1c-0.5-4.3-1.8-8.4-3.8-12.2C23.3,92.1,14.9,87.4,4.5,87.4L4.5,87.4z"/>
	<path class="st0" d="M4.5,98.2c14.6,0,17.2,12.9,17.2,22.7c0,0,36.8,10.5,36.8,23.4c0,9.5-9,10.4-14.9,10.4c-1.5,0-2.7-0.1-3.6-0.1
		c-0.3,0-0.7,0-1,0.1c-2.8,0.5-8.5,0.2,3,18.9s15.2,31.4,7.6,31.4s-23.8,0.5-27.7,0.5S8.6,184.6,4.5,184.6s-13.4,20.8-17.3,20.8
		s-20.1-0.5-27.7-0.5s-3.9-12.7,7.6-31.4s5.8-18.5,3-18.9c-0.3,0-0.7-0.1-1-0.1c-0.9,0-2.2,0.1-3.6,0.1c-5.9,0-14.9-0.9-14.9-10.4
		c0-12.9,36.8-23.4,36.8-23.4C-12.7,111.1-10.1,98.2,4.5,98.2"/>
	<path class="st2" d="M65.9,87.4c-10.5,0-18.8,4.7-23.5,13.2c-2,3.8-3.3,7.9-3.9,12.2c-3.6,1.3-8.1,3-12.7,5.1
		c-5.3,2.3-10.3,5.3-14.9,8.9C4.2,132,1,137.9,1,144.2c0,4.5,1.5,18.4,19.9,20.8c-0.5,0.9-1.1,1.8-1.7,2.8
		C6.7,188.1,3.3,200.2,7.9,208.5c2.6,4.6,7.5,7.4,12.8,7.2c4.3,0,11.7,0.2,17.6,0.3c4.6,0.1,8.3,0.2,10,0.2c7.7,0,12-6.5,17.3-14.8
		c5.3,8.3,9.6,14.8,17.3,14.8c1.8,0,5.4-0.1,10-0.2c5.9-0.1,13.3-0.3,17.7-0.3c5.3,0.2,10.2-2.6,12.8-7.2
		c4.6-8.2,1.2-20.4-11.2-40.6c-0.6-1-1.2-2-1.7-2.8c18.4-2.4,19.9-16.3,19.9-20.8c0-15-18.6-23.5-24.7-26.3
		c-4.6-2.1-9.1-3.8-12.7-5.1c-0.6-4.3-1.9-8.4-3.9-12.2C84.6,92.1,76.2,87.4,65.9,87.4L65.9,87.4z"/>
	<path class="st1" d="M65.8,98.2c14.7,0,17.2,12.9,17.2,22.7c0,0,36.8,10.5,36.8,23.4c0,9.5-9,10.4-14.9,10.4
		c-1.5,0-2.7-0.1-3.6-0.1c-0.3,0-0.7,0-1,0.1c-2.8,0.5-8.5,0.2,3,18.9s15.2,31.4,7.6,31.4s-23.8,0.5-27.7,0.5S70,184.6,65.8,184.6
		s-13.4,20.8-17.3,20.8s-20.1-0.5-27.7-0.5s-3.9-12.7,7.6-31.4s5.8-18.5,3-18.9c-0.3,0-0.7-0.1-1-0.1c-0.9,0-2.2,0.1-3.6,0.1
		c-5.9,0-14.9-0.9-14.9-10.4c0-12.9,36.8-23.4,36.8-23.4C48.7,111.1,51.2,98.2,65.8,98.2"/>
	<path class="st2" d="M126.8,87.4c-10.4,0-18.8,4.7-23.5,13.2c-2,3.8-3.3,7.9-3.9,12.2c-3.6,1.3-8.1,3-12.7,5.1
		c-5.3,2.3-10.3,5.3-14.9,8.9c-6.5,5.2-9.8,11.1-9.8,17.5c0,4.5,1.5,18.4,19.9,20.8c-0.5,0.9-1,1.8-1.7,2.8
		c-12.5,20.2-15.8,32.4-11.2,40.6c2.6,4.6,7.5,7.4,12.8,7.2c4.3,0,11.7,0.2,17.7,0.3c4.6,0.1,8.3,0.2,10,0.2c7.8,0,12-6.5,17.3-14.8
		c5.3,8.3,9.6,14.8,17.3,14.8c1.8,0,5.4-0.1,10-0.2c5.9-0.1,13.3-0.3,17.6-0.3c5.3,0.2,10.2-2.6,12.8-7.2
		c4.6-8.2,1.2-20.4-11.2-40.6c-0.6-1-1.2-2-1.7-2.8c18.4-2.4,19.9-16.3,19.9-20.8c0-15-18.6-23.5-24.7-26.3
		c-4.6-2.1-9.1-3.8-12.7-5.1c-0.6-4.3-1.9-8.4-3.9-12.2C145.5,92.1,137.2,87.4,126.8,87.4L126.8,87.4z"/>
	<path class="st0" d="M126.7,98.2c14.6,0,17.2,12.9,17.2,22.7c0,0,36.8,10.5,36.8,23.4c0,9.5-9,10.4-14.9,10.4
		c-1.5,0-2.7-0.1-3.6-0.1c-0.3,0-0.7,0-1,0.1c-2.8,0.5-8.5,0.2,3,18.9s15.2,31.4,7.6,31.4s-23.8,0.5-27.7,0.5s-13.2-20.8-17.3-20.8
		s-13.4,20.8-17.3,20.8s-20.1-0.5-27.7-0.5s-3.9-12.7,7.6-31.4s5.8-18.5,3-18.9c-0.3,0-0.7-0.1-1-0.1c-0.9,0-2.2,0.1-3.6,0.1
		c-5.9,0-14.9-0.9-14.9-10.4c0-12.9,36.8-23.4,36.8-23.4c0-9.8,2.5-22.7,17.2-22.7"/>
</g>
</svg>
