<svg id="Layer_3" data-name="Layer 3" xmlns="http://www.w3.org/2000/svg" viewBox="0 0 122.69 173.36"><defs><style>.cls-1{fill:#161951;}.cls-2{fill:#333676;}.cls-3{fill:#06082d;}</style></defs><title>Artboard 1</title><path class="cls-1" d="M21.78,37.81c-4.9,0-8.11-5-13-12.66-1.2-1.88-2.93-4.58-4.33-6.49-1.4,1.91-3.13,4.61-4.33,6.49-4.87,7.62-8.09,12.66-13,12.66-1.7,0-5.51-.09-9.92-.18-6-.13-13.39-.29-17.77-.29a8.91,8.91,0,0,1-8.1-4.48C-50.79,29-52,21.16-37.51-2.28A60.53,60.53,0,0,0-31.9-13h-.33c-.7,0-1.5,0-2.36,0-17.7,0-20.34-9.89-20.34-15.79,0-7.76,7-14.78,21.55-21.44a145.43,145.43,0,0,1,15.41-6,32.83,32.83,0,0,1,3.63-13.6c2.64-4.78,8.05-10.47,18.81-10.47s16.17,5.69,18.81,10.47a33,33,0,0,1,3.63,13.6,145.4,145.4,0,0,1,15.4,6c14.51,6.66,21.56,13.68,21.56,21.44,0,5.9-2.64,15.79-20.34,15.79-.86,0-1.66,0-2.36,0h-.33A59.81,59.81,0,0,0,46.45-2.28C60.92,21.16,59.73,29,57.57,32.86a8.93,8.93,0,0,1-8.1,4.48c-4.38,0-11.8.16-17.77.29C27.29,37.72,23.47,37.81,21.78,37.81Z"/><path class="cls-2" d="M4.47-74.83c14.65,0,17.18,12.92,17.18,22.69,0,0,36.82,10.47,36.82,23.39,0,9.46-9,10.39-14.94,10.39-1.46,0-2.73-.06-3.63-.06a7,7,0,0,0-1,.06c-2.77.46-8.54.23,3,18.92s15.23,31.38,7.62,31.38-23.77.47-27.69.47S8.62,11.64,4.47,11.64-8.92,32.41-12.84,32.41s-20.08-.47-27.69-.47S-44.45,19.25-32.92.56s5.77-18.46,3-18.92a6.9,6.9,0,0,0-1-.06c-.91,0-2.17.06-3.63.06-5.93,0-14.94-.93-14.94-10.39,0-12.92,36.82-23.39,36.82-23.39,0-9.77,2.52-22.69,17.18-22.69m0-10.8c-10.45,0-18.81,4.71-23.54,13.25A35.7,35.7,0,0,0-23-60.17c-3.59,1.26-8.12,3-12.67,5.07a70.5,70.5,0,0,0-14.95,8.86C-57-41-60.33-35.11-60.33-28.75c0,4.53,1.54,18.41,19.91,20.83-.5.85-1,1.78-1.69,2.81-12.48,20.22-15.84,32.36-11.24,40.6a14.19,14.19,0,0,0,12.82,7.25c4.32,0,11.71.16,17.65.29,4.63.1,8.29.18,10,.18,7.74,0,12-6.51,17.31-14.81C9.77,36.7,14,43.21,21.78,43.21c1.75,0,5.41-.08,10-.18,5.94-.13,13.33-.29,17.65-.29a14.2,14.2,0,0,0,12.82-7.25c4.6-8.24,1.23-20.38-11.25-40.6-.63-1-1.19-2-1.68-2.81,18.37-2.42,19.91-16.3,19.91-20.83,0-15-18.59-23.54-24.7-26.35C40-57.19,35.49-58.91,31.9-60.17A35.71,35.71,0,0,0,28-72.38C23.27-80.92,14.92-85.63,4.47-85.63Z"/><path class="cls-3" d="M21.78,124.28c-4.9,0-8.11-5-13-12.65-1.2-1.88-2.93-4.59-4.33-6.49-1.4,1.9-3.13,4.61-4.33,6.49-4.87,7.62-8.09,12.65-13,12.65-1.7,0-5.51-.08-9.92-.17-6-.13-13.39-.29-17.77-.29a8.91,8.91,0,0,1-8.1-4.48c-2.16-3.86-3.35-11.7,11.12-35.14A60.48,60.48,0,0,0-31.9,73.47h-.33c-.7,0-1.5,0-2.36,0-17.7,0-20.34-9.89-20.34-15.78,0-7.77,7-14.78,21.55-21.45a147.24,147.24,0,0,1,15.41-6,32.88,32.88,0,0,1,3.63-13.61C-11.7,11.94-6.29,6.25,4.47,6.25s16.17,5.69,18.81,10.46a33,33,0,0,1,3.63,13.61,147.21,147.21,0,0,1,15.4,6C56.82,43,63.87,50,63.87,57.73c0,5.89-2.64,15.78-20.34,15.78-.86,0-1.66,0-2.36,0h-.33A59.76,59.76,0,0,0,46.45,84.2c14.47,23.44,13.28,31.28,11.12,35.14a8.93,8.93,0,0,1-8.1,4.48c-4.38,0-11.8.16-17.77.29C27.29,124.2,23.47,124.28,21.78,124.28Z"/><path class="cls-2" d="M4.47,11.65c14.65,0,17.18,12.92,17.18,22.69,0,0,36.82,10.47,36.82,23.39,0,9.45-9,10.38-14.94,10.38-1.46,0-2.73,0-3.63,0a7.31,7.31,0,0,0-1,0c-2.77.46-8.54.23,3,18.93s15.23,31.38,7.62,31.38-23.77.46-27.69.46S8.62,98.11,4.47,98.11s-13.39,20.77-17.31,20.77-20.08-.46-27.69-.46S-44.45,105.73-32.92,87s5.77-18.47,3-18.93a7.15,7.15,0,0,0-1,0c-.91,0-2.17,0-3.63,0-5.93,0-14.94-.93-14.94-10.38,0-12.92,36.82-23.39,36.82-23.39,0-9.77,2.52-22.69,17.18-22.69m0-10.8C-6,.85-14.34,5.55-19.07,14.1A35.63,35.63,0,0,0-23,26.31c-3.59,1.25-8.12,3-12.67,5.07a70.93,70.93,0,0,0-14.95,8.85c-6.47,5.25-9.75,11.14-9.75,17.5,0,4.53,1.54,18.41,19.91,20.82-.5.85-1,1.79-1.69,2.81C-54.59,101.58-57.95,113.73-53.35,122a14.19,14.19,0,0,0,12.82,7.25c4.32,0,11.71.16,17.65.28,4.63.1,8.29.18,10,.18,7.74,0,12-6.5,17.31-14.8,5.3,8.3,9.56,14.8,17.31,14.8,1.75,0,5.41-.08,10-.18,5.94-.12,13.33-.28,17.65-.28A14.2,14.2,0,0,0,62.29,122c4.6-8.24,1.23-20.39-11.25-40.61-.63-1-1.19-2-1.68-2.81,18.37-2.41,19.91-16.29,19.91-20.82,0-15-18.59-23.55-24.7-26.35-4.55-2.1-9.08-3.82-12.67-5.07A35.64,35.64,0,0,0,28,14.1C23.27,5.55,14.92.85,4.47.85Z"/><path class="cls-3" d="M83.06,37.81c-4.89,0-8.1-5-13-12.66-1.2-1.88-2.93-4.58-4.33-6.49-1.41,1.91-3.14,4.61-4.33,6.49-4.87,7.62-8.09,12.66-13,12.66-1.7,0-5.51-.09-9.92-.18-6-.13-13.4-.29-17.77-.29a8.94,8.94,0,0,1-8.11-4.48C10.5,29,9.31,21.16,23.78-2.28A61.26,61.26,0,0,0,29.39-13h-.33c-.7,0-1.5,0-2.36,0C9-13,6.36-22.85,6.36-28.75c0-7.76,7.05-14.78,21.55-21.44a145.43,145.43,0,0,1,15.41-6A32.83,32.83,0,0,1,47-69.76c2.64-4.78,8-10.47,18.81-10.47s16.16,5.69,18.81,10.47a33,33,0,0,1,3.63,13.6,145.4,145.4,0,0,1,15.4,6c14.51,6.66,21.56,13.68,21.56,21.44,0,5.9-2.65,15.79-20.35,15.79-.86,0-1.65,0-2.36,0h-.32a59.81,59.81,0,0,0,5.61,10.72C122.2,21.16,121,29,118.86,32.86a8.93,8.93,0,0,1-8.1,4.48c-4.38,0-11.81.16-17.77.29C88.57,37.72,84.76,37.81,83.06,37.81Z"/><path class="cls-2" d="M65.76-74.83c14.65,0,17.18,12.92,17.18,22.69,0,0,36.82,10.47,36.82,23.39,0,9.46-9,10.39-14.94,10.39-1.46,0-2.73-.06-3.63-.06a7,7,0,0,0-1,.06c-2.77.46-8.54.23,3,18.92s15.23,31.38,7.62,31.38-23.77.47-27.7.47S69.91,11.64,65.76,11.64,52.37,32.41,48.45,32.41s-20.08-.47-27.69-.47S16.83,19.25,28.37.56s5.77-18.46,3-18.92a6.9,6.9,0,0,0-1-.06c-.91,0-2.18.06-3.63.06-5.93,0-14.94-.93-14.94-10.39,0-12.92,36.81-23.39,36.81-23.39,0-9.77,2.53-22.69,17.19-22.69m0-10.8c-10.45,0-18.81,4.71-23.54,13.25a35.92,35.92,0,0,0-3.9,12.21c-3.58,1.26-8.11,3-12.67,5.07a70.66,70.66,0,0,0-14.94,8.86C4.24-41,1-35.11,1-28.75,1-24.22,2.5-10.34,20.87-7.92c-.5.85-1.06,1.78-1.69,2.81C6.7,15.11,3.34,27.25,7.94,35.49a14.19,14.19,0,0,0,12.82,7.25c4.32,0,11.71.16,17.65.29,4.63.1,8.28.18,10,.18,7.74,0,12-6.51,17.31-14.81,5.3,8.3,9.56,14.81,17.3,14.81,1.76,0,5.41-.08,10-.18,5.94-.13,13.34-.29,17.66-.29a14.2,14.2,0,0,0,12.82-7.25c4.59-8.24,1.23-20.38-11.25-40.6-.63-1-1.19-2-1.68-2.81,18.36-2.42,19.91-16.3,19.91-20.83,0-15-18.59-23.54-24.7-26.35-4.56-2.09-9.08-3.81-12.67-5.07a35.71,35.71,0,0,0-3.9-12.21C84.56-80.92,76.2-85.63,65.76-85.63Z"/><path class="cls-1" d="M83.06,124.28c-4.89,0-8.1-5-13-12.65-1.2-1.88-2.93-4.59-4.33-6.49-1.41,1.9-3.14,4.61-4.33,6.49-4.87,7.62-8.09,12.65-13,12.65-1.7,0-5.51-.08-9.92-.17-6-.13-13.4-.29-17.77-.29a8.94,8.94,0,0,1-8.11-4.48c-2.15-3.86-3.34-11.7,11.13-35.14a61.22,61.22,0,0,0,5.61-10.73h-.33c-.7,0-1.5,0-2.36,0C9,73.51,6.36,63.62,6.36,57.73,6.36,50,13.41,43,27.91,36.28a147.24,147.24,0,0,1,15.41-6A32.88,32.88,0,0,1,47,16.71c2.64-4.77,8-10.46,18.81-10.46s16.16,5.69,18.81,10.46A33,33,0,0,1,88.2,30.32a147.21,147.21,0,0,1,15.4,6C118.11,43,125.16,50,125.16,57.73c0,5.89-2.65,15.78-20.35,15.78-.85,0-1.65,0-2.36,0h-.32a59.76,59.76,0,0,0,5.61,10.73c14.46,23.44,13.27,31.28,11.12,35.14a8.93,8.93,0,0,1-8.1,4.48c-4.38,0-11.81.16-17.77.29C88.57,124.2,84.76,124.28,83.06,124.28Z"/><path class="cls-2" d="M65.76,11.65c14.65,0,17.18,12.92,17.18,22.69,0,0,36.82,10.47,36.82,23.39,0,9.45-9,10.38-14.94,10.38-1.46,0-2.73,0-3.63,0a7.31,7.31,0,0,0-1,0c-2.77.46-8.54.23,3,18.93s15.23,31.38,7.62,31.38-23.77.46-27.7.46S69.91,98.11,65.76,98.11s-13.39,20.77-17.31,20.77-20.08-.46-27.69-.46S16.83,105.73,28.37,87s5.77-18.47,3-18.93a7.15,7.15,0,0,0-1,0c-.91,0-2.18,0-3.63,0-5.93,0-14.94-.93-14.94-10.38,0-12.92,36.81-23.39,36.81-23.39,0-9.77,2.53-22.69,17.19-22.69m0-10.8C55.31.85,47,5.55,42.22,14.1a35.85,35.85,0,0,0-3.9,12.21c-3.58,1.25-8.11,3-12.67,5.07a71.09,71.09,0,0,0-14.94,8.85C4.24,45.48,1,51.37,1,57.73,1,62.26,2.5,76.14,20.87,78.55c-.5.85-1.06,1.79-1.69,2.81C6.7,101.58,3.34,113.73,7.94,122a14.19,14.19,0,0,0,12.82,7.25c4.32,0,11.71.16,17.65.28,4.63.1,8.28.18,10,.18,7.74,0,12-6.5,17.31-14.8,5.3,8.3,9.56,14.8,17.3,14.8,1.76,0,5.41-.08,10-.18,5.94-.12,13.34-.28,17.66-.28A14.2,14.2,0,0,0,123.58,122c4.59-8.24,1.23-20.39-11.25-40.61-.63-1-1.19-2-1.68-2.81,18.36-2.41,19.91-16.29,19.91-20.82,0-15-18.59-23.55-24.7-26.35-4.56-2.1-9.08-3.82-12.67-5.07a35.64,35.64,0,0,0-3.9-12.21C84.56,5.55,76.2.85,65.76.85Z"/><path class="cls-1" d="M144,37.81c-4.9,0-8.11-5-13-12.66-1.2-1.88-2.93-4.58-4.33-6.49-1.4,1.91-3.13,4.61-4.33,6.49-4.87,7.62-8.09,12.66-13,12.66-1.7,0-5.51-.09-9.92-.18-6-.13-13.39-.29-17.77-.29a8.91,8.91,0,0,1-8.1-4.48C71.44,29,70.25,21.16,84.72-2.28A60.53,60.53,0,0,0,90.33-13H90c-.7,0-1.5,0-2.36,0C69.94-13,67.3-22.85,67.3-28.75c0-7.76,7-14.78,21.55-21.44a146.27,146.27,0,0,1,15.41-6,32.83,32.83,0,0,1,3.63-13.6c2.64-4.78,8-10.47,18.81-10.47s16.17,5.69,18.81,10.47a33,33,0,0,1,3.63,13.6,146.27,146.27,0,0,1,15.41,6c14.5,6.66,21.55,13.68,21.55,21.44,0,5.9-2.64,15.79-20.34,15.79-.86,0-1.66,0-2.36,0h-.33a60.53,60.53,0,0,0,5.61,10.72C183.15,21.16,182,29,179.8,32.86a8.93,8.93,0,0,1-8.1,4.48c-4.38,0-11.8.16-17.77.29C149.52,37.72,145.7,37.81,144,37.81Z"/><path class="cls-2" d="M126.7-74.83c14.65,0,17.18,12.92,17.18,22.69,0,0,36.82,10.47,36.82,23.39,0,9.46-9,10.39-14.94,10.39-1.46,0-2.73-.06-3.63-.06a7,7,0,0,0-1,.06c-2.77.46-8.54.23,3,18.92s15.23,31.38,7.62,31.38-23.77.47-27.69.47S130.85,11.64,126.7,11.64s-13.39,20.77-17.31,20.77-20.07-.47-27.69-.47S77.78,19.25,89.32.56s5.76-18.46,3-18.92a7.14,7.14,0,0,0-1-.06c-.91,0-2.17.06-3.63.06-5.92,0-14.94-.93-14.94-10.39,0-12.92,36.82-23.39,36.82-23.39,0-9.77,2.53-22.69,17.18-22.69m0-10.8c-10.45,0-18.81,4.71-23.54,13.25a35.7,35.7,0,0,0-3.89,12.21c-3.59,1.26-8.12,3-12.67,5.07a70.76,70.76,0,0,0-14.95,8.86C65.18-41,61.9-35.11,61.9-28.75c0,4.53,1.54,18.41,19.91,20.83-.49.85-1,1.78-1.69,2.81C67.64,15.11,64.28,27.25,68.88,35.49A14.19,14.19,0,0,0,81.7,42.74c4.32,0,11.71.16,17.65.29,4.63.1,8.29.18,10,.18,7.75,0,12-6.51,17.31-14.81,5.3,8.3,9.56,14.81,17.31,14.81,1.75,0,5.41-.08,10-.18,5.94-.13,13.33-.29,17.65-.29a14.19,14.19,0,0,0,12.82-7.25c4.6-8.24,1.23-20.38-11.25-40.6-.63-1-1.19-2-1.68-2.81C190-10.34,191.5-24.22,191.5-28.75c0-15-18.59-23.54-24.7-26.35-4.55-2.09-9.08-3.81-12.67-5.07a35.71,35.71,0,0,0-3.9-12.21c-4.72-8.54-13.08-13.25-23.53-13.25Z"/><path class="cls-3" d="M144,124.28c-4.9,0-8.11-5-13-12.65-1.2-1.88-2.93-4.59-4.33-6.49-1.4,1.9-3.13,4.61-4.33,6.49-4.87,7.62-8.09,12.65-13,12.65-1.7,0-5.51-.08-9.92-.17-6-.13-13.39-.29-17.77-.29a8.91,8.91,0,0,1-8.1-4.48c-2.16-3.86-3.35-11.7,11.12-35.14a60.48,60.48,0,0,0,5.61-10.73H90c-.7,0-1.5,0-2.36,0-17.7,0-20.34-9.89-20.34-15.78,0-7.77,7-14.78,21.55-21.45a148.1,148.1,0,0,1,15.41-6,32.88,32.88,0,0,1,3.63-13.61c2.64-4.77,8-10.46,18.81-10.46s16.17,5.69,18.81,10.46a33,33,0,0,1,3.63,13.61,148.1,148.1,0,0,1,15.41,6C179.05,43,186.1,50,186.1,57.73c0,5.89-2.64,15.78-20.34,15.78-.86,0-1.66,0-2.36,0h-.33a60.48,60.48,0,0,0,5.61,10.73c14.47,23.44,13.28,31.28,11.12,35.14a8.93,8.93,0,0,1-8.1,4.48c-4.38,0-11.8.16-17.77.29C149.52,124.2,145.7,124.28,144,124.28Z"/><path class="cls-2" d="M126.7,11.65c14.65,0,17.18,12.92,17.18,22.69,0,0,36.82,10.47,36.82,23.39,0,9.45-9,10.38-14.94,10.38-1.46,0-2.73,0-3.63,0a7.31,7.31,0,0,0-1,0c-2.77.46-8.54.23,3,18.93s15.23,31.38,7.62,31.38-23.77.46-27.69.46S130.85,98.11,126.7,98.11s-13.39,20.77-17.31,20.77-20.07-.46-27.69-.46S77.78,105.73,89.32,87s5.76-18.47,3-18.93a7.39,7.39,0,0,0-1,0c-.91,0-2.17,0-3.63,0-5.92,0-14.94-.93-14.94-10.38,0-12.92,36.82-23.39,36.82-23.39,0-9.77,2.53-22.69,17.18-22.69m0-10.8c-10.45,0-18.81,4.7-23.54,13.25a35.63,35.63,0,0,0-3.89,12.21c-3.59,1.25-8.12,3-12.67,5.07a71.19,71.19,0,0,0-14.95,8.85c-6.47,5.25-9.75,11.14-9.75,17.5,0,4.53,1.54,18.41,19.91,20.82-.49.85-1,1.79-1.69,2.81C67.64,101.58,64.28,113.73,68.88,122a14.19,14.19,0,0,0,12.82,7.25c4.32,0,11.71.16,17.65.28,4.63.1,8.29.18,10,.18,7.75,0,12-6.5,17.31-14.8,5.3,8.3,9.56,14.8,17.31,14.8,1.75,0,5.41-.08,10-.18,5.94-.12,13.33-.28,17.65-.28A14.19,14.19,0,0,0,184.52,122c4.6-8.24,1.23-20.39-11.25-40.61-.63-1-1.19-2-1.68-2.81C190,76.14,191.5,62.26,191.5,57.73c0-15-18.59-23.55-24.7-26.35-4.55-2.1-9.08-3.82-12.67-5.07a35.64,35.64,0,0,0-3.9-12.21C145.51,5.55,137.15.85,126.7.85Z"/><path class="cls-1" d="M21.78,210.81c-4.9,0-8.11-5-13-12.66-1.2-1.88-2.93-4.58-4.33-6.49-1.4,1.91-3.13,4.61-4.33,6.49-4.87,7.62-8.09,12.66-13,12.66-1.7,0-5.51-.09-9.92-.18-6-.13-13.39-.29-17.77-.29a8.91,8.91,0,0,1-8.1-4.48c-2.16-3.86-3.35-11.7,11.12-35.14A60.53,60.53,0,0,0-31.9,160h-.33c-.7,0-1.5,0-2.36,0-17.7,0-20.34-9.89-20.34-15.79,0-7.76,7-14.78,21.55-21.44a145.43,145.43,0,0,1,15.41-6,32.83,32.83,0,0,1,3.63-13.6c2.64-4.78,8.05-10.47,18.81-10.47s16.17,5.69,18.81,10.47a33,33,0,0,1,3.63,13.6,145.4,145.4,0,0,1,15.4,6c14.51,6.66,21.56,13.68,21.56,21.44,0,5.9-2.64,15.79-20.34,15.79-.86,0-1.66,0-2.36,0h-.33a59.81,59.81,0,0,0,5.61,10.72C60.92,194.16,59.73,202,57.57,205.86a8.93,8.93,0,0,1-8.1,4.48c-4.38,0-11.8.16-17.77.29C27.29,210.72,23.47,210.81,21.78,210.81Z"/><path class="cls-2" d="M4.47,98.17c14.65,0,17.18,12.92,17.18,22.69,0,0,36.82,10.47,36.82,23.39,0,9.46-9,10.39-14.94,10.39-1.46,0-2.73-.06-3.63-.06a7,7,0,0,0-1,.06c-2.77.46-8.54.23,3,18.92s15.23,31.38,7.62,31.38-23.77.47-27.69.47S8.62,184.64,4.47,184.64s-13.39,20.77-17.31,20.77-20.08-.47-27.69-.47-3.92-12.69,7.61-31.38,5.77-18.46,3-18.92a6.9,6.9,0,0,0-1-.06c-.91,0-2.17.06-3.63.06-5.93,0-14.94-.93-14.94-10.39,0-12.92,36.82-23.39,36.82-23.39,0-9.77,2.52-22.69,17.18-22.69m0-10.8c-10.45,0-18.81,4.71-23.54,13.25A35.7,35.7,0,0,0-23,112.83c-3.59,1.26-8.12,3-12.67,5.07a70.5,70.5,0,0,0-14.95,8.86c-6.47,5.24-9.75,11.13-9.75,17.49,0,4.53,1.54,18.41,19.91,20.83-.5.85-1,1.78-1.69,2.81-12.48,20.22-15.84,32.36-11.24,40.6a14.19,14.19,0,0,0,12.82,7.25c4.32,0,11.71.16,17.65.29,4.63.1,8.29.18,10,.18,7.74,0,12-6.51,17.31-14.81,5.3,8.3,9.56,14.81,17.31,14.81,1.75,0,5.41-.08,10-.18,5.94-.13,13.33-.29,17.65-.29a14.2,14.2,0,0,0,12.82-7.25c4.6-8.24,1.23-20.38-11.25-40.6-.63-1-1.19-2-1.68-2.81,18.37-2.42,19.91-16.3,19.91-20.83,0-15-18.59-23.54-24.7-26.35-4.55-2.09-9.08-3.81-12.67-5.07A35.71,35.71,0,0,0,28,100.62C23.27,92.08,14.92,87.37,4.47,87.37Z"/><path class="cls-3" d="M83.06,210.81c-4.89,0-8.1-5-13-12.66-1.2-1.88-2.93-4.58-4.33-6.49-1.41,1.91-3.14,4.61-4.33,6.49-4.87,7.62-8.09,12.66-13,12.66-1.7,0-5.51-.09-9.92-.18-6-.13-13.4-.29-17.77-.29a8.94,8.94,0,0,1-8.11-4.48c-2.15-3.86-3.34-11.7,11.13-35.14A61.26,61.26,0,0,0,29.39,160h-.33c-.7,0-1.5,0-2.36,0C9,160,6.36,150.15,6.36,144.25c0-7.76,7.05-14.78,21.55-21.44a145.43,145.43,0,0,1,15.41-6A32.83,32.83,0,0,1,47,103.24c2.64-4.78,8-10.47,18.81-10.47s16.16,5.69,18.81,10.47a33,33,0,0,1,3.63,13.6,145.4,145.4,0,0,1,15.4,6c14.51,6.66,21.56,13.68,21.56,21.44,0,5.9-2.65,15.79-20.35,15.79-.86,0-1.65,0-2.36,0h-.32a59.81,59.81,0,0,0,5.61,10.72C122.2,194.16,121,202,118.86,205.86a8.93,8.93,0,0,1-8.1,4.48c-4.38,0-11.81.16-17.77.29C88.57,210.72,84.76,210.81,83.06,210.81Z"/><path class="cls-2" d="M65.76,98.17c14.65,0,17.18,12.92,17.18,22.69,0,0,36.82,10.47,36.82,23.39,0,9.46-9,10.39-14.94,10.39-1.46,0-2.73-.06-3.63-.06a7,7,0,0,0-1,.06c-2.77.46-8.54.23,3,18.92s15.23,31.38,7.62,31.38-23.77.47-27.7.47-13.15-20.77-17.3-20.77-13.39,20.77-17.31,20.77-20.08-.47-27.69-.47-3.93-12.69,7.61-31.38,5.77-18.46,3-18.92a6.9,6.9,0,0,0-1-.06c-.91,0-2.18.06-3.63.06-5.93,0-14.94-.93-14.94-10.39,0-12.92,36.81-23.39,36.81-23.39,0-9.77,2.53-22.69,17.19-22.69m0-10.8c-10.45,0-18.81,4.71-23.54,13.25a35.92,35.92,0,0,0-3.9,12.21c-3.58,1.26-8.11,3-12.67,5.07a70.66,70.66,0,0,0-14.94,8.86C4.24,132,1,137.89,1,144.25c0,4.53,1.54,18.41,19.91,20.83-.5.85-1.06,1.78-1.69,2.81C6.7,188.11,3.34,200.25,7.94,208.49a14.19,14.19,0,0,0,12.82,7.25c4.32,0,11.71.16,17.65.29,4.63.1,8.28.18,10,.18,7.74,0,12-6.51,17.31-14.81,5.3,8.3,9.56,14.81,17.3,14.81,1.76,0,5.41-.08,10-.18,5.94-.13,13.34-.29,17.66-.29a14.2,14.2,0,0,0,12.82-7.25c4.59-8.24,1.23-20.38-11.25-40.6-.63-1-1.19-2-1.68-2.81,18.36-2.42,19.91-16.3,19.91-20.83,0-15-18.59-23.54-24.7-26.35-4.56-2.09-9.08-3.81-12.67-5.07a35.71,35.71,0,0,0-3.9-12.21C84.56,92.08,76.2,87.37,65.76,87.37Z"/><path class="cls-1" d="M144,210.81c-4.9,0-8.11-5-13-12.66-1.2-1.88-2.93-4.58-4.33-6.49-1.4,1.91-3.13,4.61-4.33,6.49-4.87,7.62-8.09,12.66-13,12.66-1.7,0-5.51-.09-9.92-.18-6-.13-13.39-.29-17.77-.29a8.91,8.91,0,0,1-8.1-4.48c-2.16-3.86-3.35-11.7,11.12-35.14A60.53,60.53,0,0,0,90.33,160H90c-.7,0-1.5,0-2.36,0-17.7,0-20.34-9.89-20.34-15.79,0-7.76,7-14.78,21.55-21.44a146.27,146.27,0,0,1,15.41-6,32.83,32.83,0,0,1,3.63-13.6c2.64-4.78,8-10.47,18.81-10.47s16.17,5.69,18.81,10.47a33,33,0,0,1,3.63,13.6,146.27,146.27,0,0,1,15.41,6c14.5,6.66,21.55,13.68,21.55,21.44,0,5.9-2.64,15.79-20.34,15.79-.86,0-1.66,0-2.36,0h-.33a60.53,60.53,0,0,0,5.61,10.72C183.15,194.16,182,202,179.8,205.86a8.93,8.93,0,0,1-8.1,4.48c-4.38,0-11.8.16-17.77.29C149.52,210.72,145.7,210.81,144,210.81Z"/><path class="cls-2" d="M126.7,98.17c14.65,0,17.18,12.92,17.18,22.69,0,0,36.82,10.47,36.82,23.39,0,9.46-9,10.39-14.94,10.39-1.46,0-2.73-.06-3.63-.06a7,7,0,0,0-1,.06c-2.77.46-8.54.23,3,18.92s15.23,31.38,7.62,31.38-23.77.47-27.69.47-13.16-20.77-17.31-20.77-13.39,20.77-17.31,20.77-20.07-.47-27.69-.47-3.92-12.69,7.62-31.38,5.76-18.46,3-18.92a7.14,7.14,0,0,0-1-.06c-.91,0-2.17.06-3.63.06-5.92,0-14.94-.93-14.94-10.39,0-12.92,36.82-23.39,36.82-23.39,0-9.77,2.53-22.69,17.18-22.69m0-10.8c-10.45,0-18.81,4.71-23.54,13.25a35.7,35.7,0,0,0-3.89,12.21c-3.59,1.26-8.12,3-12.67,5.07a70.76,70.76,0,0,0-14.95,8.86c-6.47,5.24-9.75,11.13-9.75,17.49,0,4.53,1.54,18.41,19.91,20.83-.49.85-1,1.78-1.69,2.81-12.48,20.22-15.84,32.36-11.24,40.6a14.19,14.19,0,0,0,12.82,7.25c4.32,0,11.71.16,17.65.29,4.63.1,8.29.18,10,.18,7.75,0,12-6.51,17.31-14.81,5.3,8.3,9.56,14.81,17.31,14.81,1.75,0,5.41-.08,10-.18,5.94-.13,13.33-.29,17.65-.29a14.19,14.19,0,0,0,12.82-7.25c4.6-8.24,1.23-20.38-11.25-40.6-.63-1-1.19-2-1.68-2.81,18.37-2.42,19.91-16.3,19.91-20.83,0-15-18.59-23.54-24.7-26.35-4.55-2.09-9.08-3.81-12.67-5.07a35.71,35.71,0,0,0-3.9-12.21c-4.72-8.54-13.08-13.25-23.53-13.25Z"/></svg>