<?xml version="1.0" encoding="UTF-8"?>
<svg baseProfile="tiny" version="1.1" viewBox="0 0 792 792" xml:space="preserve" xmlns="http://www.w3.org/2000/svg">
<g fill="none" stroke="#339" stroke-miterlimit="10">
	<path d="m396.2 774.7c-101.2 0-196.3-39.4-267.8-110.9s-111-166.7-111-267.9c0-101.1 39.4-196.3 110.9-267.8s166.7-111 267.9-111 196.3 39.4 267.8 110.9 110.9 166.7 110.9 267.8c0 101.2-39.4 196.3-110.9 267.8-71.5 71.7-166.7 111.1-267.8 111.1z" stroke-width="2.2575"/>
	<path d="M396.2,765.3c-98.7,0-191.4-38.4-261.2-108.2   S26.8,494.6,26.8,395.9S65.2,204.5,135,134.7S297.5,26.6,396.2,26.6S587.6,65,657.4,134.8S765.6,297.3,765.6,396   s-38.4,191.4-108.2,261.2C587.6,726.9,494.8,765.3,396.2,765.3z" stroke-width="2.2013"/>
	<circle cx="396.2" cy="395.9" r="128.5" stroke-width="2.2536"/>
	<path d="M396.2,782.3C293,782.3,196,742.1,123,669.1   S9.8,499.1,9.8,395.9S50,195.7,123,122.7S293,9.6,396.2,9.6s200.2,40.2,273.1,113.2c73,73,113.2,170,113.2,273.2   s-40.2,200.2-113.2,273.2C596.4,742.1,499.4,782.3,396.2,782.3z" stroke-width="2.3025"/>
	<g stroke-width="2.2013">
		<line x1="396.2" x2="396.2" y1="395.9" y2="1.8"/>
		<line x1="396.2" x2="454.2" y1="395.9" y2="1.8"/>
		<line x1="514.8" x2="396.2" y1="1.8" y2="395.9"/>
		<line x1="581" x2="396.2" y1="1.8" y2="395.9"/>
		<line x1="396.2" x2="657" y1="395.9" y2="1.8"/>
		<line x1="396.2" x2="749.4" y1="395.9" y2="1.8"/>
		<line x1="396.2" x2="787.9" y1="395.9" y2="70"/>
		<line x1="396.2" x2="787.9" y1="395.9" y2="156.9"/>
		<line x1="396.2" x2="787.9" y1="395.9" y2="229.5"/>
		<line x1="396.2" x2="787.9" y1="395.9" y2="293.5"/>
		<line x1="396.2" x2="787.9" y1="395.9" y2="352.8"/>
		<line x1="396.2" x2="787.9" y1="395.9" y2="410.3"/>
		<line x1="396.2" x2="787.9" y1="395.9" y2="468.3"/>
		<line x1="396.2" x2="787.9" y1="395.9" y2="529.6"/>
		<line x1="396.2" x2="787.9" y1="395.9" y2="597.3"/>
		<line x1="396.2" x2="787.9" y1="395.9" y2="676.2"/>
		<line x1="396.2" x2="787.9" y1="395.9" y2="773.6"/>
		<line x1="396.2" x2="698.8" y1="395.9" y2="787.9"/>
		<line x1="396.2" x2="616.1" y1="395.9" y2="787.9"/>
		<line x1="396.2" x2="546.1" y1="395.9" y2="787.9"/>
		<line x1="396.2" x2="483.5" y1="395.9" y2="787.9"/>
		<line x1="396.2" x2="424.9" y1="395.9" y2="787.9"/>
		<line x1="396.2" x2="367.5" y1="395.9" y2="787.9"/>
		<line x1="396.2" x2="308.9" y1="395.9" y2="787.9"/>
		<line x1="396.2" x2="246.3" y1="395.9" y2="787.9"/>
		<line x1="396.2" x2="176.2" y1="395.9" y2="787.9"/>
		<line x1="396.2" x2="93.6" y1="395.9" y2="787.9"/>
		<line x1="396.2" x2="1.8" y1="395.9" y2="776.2"/>
		<line x1="396.2" x2="1.8" y1="395.9" y2="678.1"/>
		<line x1="396.2" x2="1.8" y1="395.9" y2="598.7"/>
		<line x1="396.2" x2="1.8" y1="395.9" y2="530.5"/>
		<line x1="396.2" x2="1.8" y1="395.9" y2="468.8"/>
		<line x1="396.2" x2="1.8" y1="395.9" y2="410.4"/>
		<line x1="396.2" x2="1.8" y1="395.9" y2="352.5"/>
		<line x1="396.2" x2="1.8" y1="395.9" y2="292.8"/>
		<line x1="396.2" x2="1.8" y1="395.9" y2="228.3"/>
		<line x1="396.2" x2="1.8" y1="395.9" y2="155.2"/>
		<line x1="396.2" x2="1.8" y1="395.9" y2="67.7"/>
		<line x1="396.2" x2="43" y1="395.9" y2="1.8"/>
		<line x1="396.2" x2="135.4" y1="395.9" y2="1.8"/>
		<line x1="396.2" x2="211.4" y1="395.9" y2="1.8"/>
		<line x1="396.2" x2="277.6" y1="395.9" y2="1.8"/>
		<line x1="396.2" x2="338.2" y1="395.9" y2="1.8"/>
	</g>
</g>
<g display="none" fill="none" stroke="#339" stroke-miterlimit="10">
	<g display="inline" stroke-width="2.2536">
		<path d="m395.2 240.1c-25.1 0-29.4-22.1-29.4-38.8 0 0-63-17.9-63-40 0-16.2 15.4-17.8 25.5-17.8 2.5 0 4.7 0.1 6.2 0.1 0.6 0 1.1 0 1.7-0.1 4.7-0.8 14.6-0.4-5.1-32.4s-26-53.7-13-53.7 40.6-0.8 47.4-0.8c6.7 0 22.6 35.5 29.7 35.5s22.9-35.5 29.6-35.5 34.3 0.8 47.4 0.8c13 0 6.7 21.7-13 53.7s-9.9 31.6-5.1 32.4c0.6 0.1 1.1 0.1 1.7 0.1 1.6 0 3.7-0.1 6.2-0.1 10.1 0 25.5 1.6 25.5 17.8 0 22.1-63 40-63 40 0 16.7-4.3 38.8-29.3 38.8"/>
		<path d="m273.8 298.9c-15.6 19.6-35.6 9.2-48.7-1.2 0 0-53.3 38.1-70.5 24.3-12.6-10.1-4.3-23.1 2-31.1 1.6-2 3-3.6 4-4.8 0.4-0.4 0.7-0.9 1-1.4 2.3-4.2 8.8-11.7-28.5-16.2s-58.2-13.1-50.1-23.3 24.7-32.3 28.9-37.5 41.9 4.5 46.3-1.1c4.4-5.5-13.5-40-9.3-45.3 4.2-5.2 22-26.3 30.2-36.5 8.1-10.2 21.1 8.3 33.8 43.6s18.5 27.4 22.1 24.2c0.4-0.4 0.8-0.8 1.1-1.3 1-1.2 2.2-3 3.8-4.9 6.3-7.9 17.2-19 29.8-8.9 17.3 13.8-8 74.2-8 74.2 13.1 10.5 27.7 27.7 12.1 47.2"/>
		<path d="m244.2 430.3c5.6 24.4-15 33.6-31.3 37.3 0 0-3.4 65.4-25 70.3-15.8 3.6-20.7-11.1-23-21-0.6-2.4-0.9-4.6-1.3-6.1-0.1-0.6-0.3-1.1-0.5-1.6-1.8-4.4-3.6-14.2-30.4 12.2-26.7 26.3-46.5 37.3-49.4 24.6s-9.8-39.4-11.3-46c-1.5-6.5 29.6-29.9 28-36.8s-39.7-14.4-41.2-21c-1.5-6.5-6.9-33.7-9.8-46.3s19.7-11.4 55.2 0.7 33 2.6 32.7-2.2c-0.1-0.6-0.1-1.1-0.3-1.7-0.3-1.5-0.9-3.6-1.5-6-2.3-9.9-4.1-25.3 11.6-28.9 21.5-4.9 53 52.5 53 52.5 16.4-3.7 38.9-4.4 44.5 20"/>
		<path d="m328.4 535.4c22.6 10.9 16.9 32.7 9.6 47.7 0 0 49 43.4 39.4 63.4-7 14.6-21.6 9.3-30.7 4.9-2.2-1.1-4.2-2.1-5.5-2.8-0.5-0.3-1-0.5-1.6-0.6-4.6-1.3-13.3-6-9.4 31.4s0.2 59.6-11.5 54-37-16.9-43-19.8-4.9-41.8-11.3-44.9-36 22.1-42.1 19.2c-6-2.9-30.6-15.6-42.3-21.3s3.4-22.5 35-42.7 22.6-24.2 18.7-26.9c-0.5-0.3-1-0.6-1.5-0.8-1.4-0.7-3.4-1.5-5.6-2.6-9.1-4.4-22.3-12.5-15.3-27.1 9.6-19.9 74.1-8.7 74.1-8.7 7-15.3 20.4-33.3 43-22.4"/>
		<path d="m463.1 535.1c22.6-10.9 36.1 7.2 43.3 22.2 0 0 64.5-11.2 74.1 8.7 7 14.6-6.2 22.7-15.3 27.1-2.2 1.1-4.3 1.9-5.6 2.6-0.5 0.2-1 0.5-1.5 0.8-3.9 2.8-13 6.7 18.7 26.9s46.7 37 35 42.7c-11.7 5.6-36.3 18.4-42.3 21.3s-35.8-22.2-42.2-19.1-5.2 41.9-11.3 44.8c-6 2.9-31.3 14.2-43 19.8s-15.5-16.6-11.6-54-4.8-32.7-9.4-31.4c-0.5 0.2-1.1 0.4-1.6 0.6-1.4 0.7-3.3 1.7-5.5 2.8-9.1 4.4-23.7 9.7-30.7-4.9-9.6-19.9 39.4-63.4 39.4-63.4-7.3-14.9-13-36.6 9.5-47.5"/>
		<path d="m547 429.6c5.6-24.4 28.1-23.7 44.4-20 0 0 31.5-57.4 53-52.5 15.8 3.6 13.9 19 11.6 28.9-0.6 2.4-1.1 4.5-1.5 6-0.1 0.6-0.2 1.1-0.3 1.7-0.3 4.8-2.9 14.3 32.7 2.2 35.5-12.1 58.1-13.5 55.2-0.8s-8.3 39.8-9.7 46.3c-1.5 6.5-39.7 14.1-41.2 21-1.6 6.9 29.5 30.2 28 36.8-1.5 6.5-8.4 33.3-11.3 46s-22.6 1.7-49.4-24.6-28.6-16.6-30.4-12.2c-0.2 0.5-0.4 1.1-0.5 1.6-0.3 1.5-0.7 3.6-1.3 6.1-2.3 9.9-7.2 24.6-23 21-21.5-4.9-25-70.3-25-70.3-16.3-3.7-36.9-12.8-31.3-37.2"/>
		<path d="m516.8 298.3c-15.6-19.6-1-36.7 12-47.2 0 0-25.3-60.4-8-74.2 12.6-10.1 23.5 1 29.8 8.9 1.6 2 2.8 3.7 3.8 4.9 0.4 0.5 0.7 0.9 1.1 1.3 3.6 3.2 9.4 11.2 22.1-24.2s25.7-53.8 33.8-43.6 26 31.3 30.2 36.5-13.7 39.8-9.3 45.4 42-4.2 46.2 1 20.8 27.3 28.9 37.5-12.8 18.8-50.1 23.3-30.8 12-28.5 16.2c0.3 0.5 0.6 1 1 1.4 1 1.2 2.4 2.8 4 4.8 6.3 7.9 14.7 21 2 31.1-17.1 13.6-70.4-24.4-70.4-24.4-13.1 10.4-33 20.8-48.6 1.3"/>
		<polygon points="333.5 57.5 395.1 240.1 456.7 57.5 317.6 179.3 472.7 179.3" stroke-linejoin="round"/>
		<polygon points="92.3 234.4 273.5 300.1 169.1 138.1 177.6 322.8 274.3 201.5" stroke-linejoin="round"/>
		<polygon points="80.3 533.3 244.6 432.6 52.9 413.2 202.6 521.7 168 370.5" stroke-linejoin="round"/>
		<polygon points="306.5 729 330.1 537.7 195.5 675.6 373.6 626.1 233.9 558.9" stroke-linejoin="round"/>
		<polygon points="600.5 674.1 465.7 536.4 489.6 727.6 561.9 557.5 422.3 624.9" stroke-linejoin="round"/>
		<polygon points="740.9 410 549.2 429.5 713.6 530.1 625.6 367.4 591.3 518.7" stroke-linejoin="round"/>
		<polygon points="621.8 135.6 517.6 297.7 698.7 231.8 516.7 199.2 613.6 320.3" stroke-linejoin="round"/>
	</g>
	<path d="m624.9 563.7c-60.7-13.9-98.7-74.3-84.8-135s74.3-98.7 135-84.8c28.1 6.4 51.3 22.8 66.8 44.6-1.1-47.6-11.7-93.7-31-135.9-4.6 26.1-18.4 50.6-40.7 68.4-48.7 38.8-119.6 30.8-158.5-17.8-38.8-48.7-30.8-119.6 17.8-158.5 22.2-17.7 48.9-25.6 75.2-24.5-37-28.2-78.9-48.4-123.7-59.7 17.2 19.8 27.6 45.6 27.6 73.9 0 62.3-50.5 112.7-112.7 112.7s-112.7-50.5-112.7-112.7c0-28.4 10.5-54.3 27.8-74.1-44.8 11.2-86.9 31.4-124.1 59.5 26.2-1.1 52.9 6.9 75 24.5 48.7 38.8 56.7 109.8 17.9 158.5s-109.8 56.7-158.4 17.9c-22.4-17.9-36.2-42.5-40.8-68.7-19.5 42-30.2 88-31.4 135.6 15.5-21.6 38.6-37.9 66.6-44.3 60.7-13.9 121.2 24.1 135 84.8 13.9 60.7-24.1 121.2-84.8 135-28.5 6.5-56.9 1.6-80.4-11.7 16.5 32.8 38.3 63.2 65 89.9 7.5 7.5 15.2 14.5 23.3 21.2-7.7-26-6.2-54.8 6.5-81.1 27-56.1 94.4-79.7 150.5-52.7s79.7 94.4 52.7 150.5c-12.8 26.6-34.7 45.9-60.2 56 23.5 5 47.7 7.5 72.3 7.5 24.2 0 48-2.5 71.2-7.3-25.3-10.1-47.1-29.3-59.9-55.8-27-56.1-3.4-123.5 52.7-150.5s123.5-3.4 150.5 52.7c12.7 26.4 14.2 55.4 6.4 81.5 8.3-6.9 16.4-14.2 24.1-22 26.5-26.5 48.2-56.6 64.7-89.2-23.8 13.3-52.1 18.1-80.5 11.6z" display="inline" stroke-width="2.2423"/>
</g>
</svg>
