<?xml version="1.0" encoding="utf-8"?>
<!-- Generator: Adobe Illustrator 22.1.0, SVG Export Plug-In . SVG Version: 6.00 Build 0)  -->
<svg version="1.1" id="Layer_1" xmlns="http://www.w3.org/2000/svg" xmlns:xlink="http://www.w3.org/1999/xlink" x="0px" y="0px"
	 viewBox="0 0 792 792" style="enable-background:new 0 0 792 792;" xml:space="preserve">
<style type="text/css">
	.st0{fill:none;stroke:#333676;stroke-width:2.2636;stroke-miterlimit:10;}
	.st1{fill:none;stroke:#333676;stroke-width:2.2072;stroke-miterlimit:10;}
	.st2{fill:none;stroke:#333676;stroke-width:2.3034;stroke-miterlimit:10;}
	.st3{fill:none;stroke:#333676;stroke-width:2.3087;stroke-miterlimit:10;}
	.st4{fill:none;stroke:#333676;stroke-width:2.25;stroke-miterlimit:10;}
	.st5{display:none;}
	.st6{display:inline;}
	.st7{fill:none;stroke:#333399;stroke-width:2.2536;stroke-miterlimit:10;}
	.st8{fill:none;stroke:#333399;stroke-width:2.2536;stroke-linejoin:round;stroke-miterlimit:10;}
	.st9{display:inline;fill:none;stroke:#333399;stroke-width:2.2423;stroke-miterlimit:10;}
</style>
<path class="st0" d="M396.2,775.7c-101.5,0-196.8-39.5-268.5-111.2S16.4,497.4,16.4,395.9c0-101.4,39.5-196.8,111.2-268.5
	S294.8,16.1,396.2,16.1s196.8,39.5,268.5,111.2S776,294.5,776,395.8c0,101.5-39.5,196.8-111.2,268.5
	C593.1,736.2,497.6,775.7,396.2,775.7L396.2,775.7z"/>
<path class="st1" d="M396.2,766.3c-99,0-191.9-38.5-261.9-108.5S25.8,494.9,25.8,395.9S64.3,204,134.3,134S297.3,25.6,396.2,25.6
	s191.9,38.5,261.9,108.5S766.6,297.1,766.6,396s-38.5,191.9-108.5,261.9C588.1,727.8,495.1,766.3,396.2,766.3z"/>
<circle class="st2" cx="396.2" cy="395.9" r="131.3"/>
<path class="st3" d="M396.2,783.4c-103.5,0-200.7-40.3-273.9-113.5S8.8,499.4,8.8,395.9S49.1,195.2,122.3,122S292.8,8.6,396.2,8.6
	S597,48.9,670.1,122.1c73.2,73.2,113.5,170.5,113.5,273.9S743.3,596.8,670.1,670C597,743.1,499.7,783.4,396.2,783.4z"/>
<g>
	<line class="st4" x1="396.2" y1="395.9" x2="396.2" y2="-6.9"/>
	<line class="st4" x1="396.2" y1="395.9" x2="455.5" y2="-6.9"/>
	<line class="st4" x1="517.5" y1="-6.9" x2="396.2" y2="395.9"/>
	<line class="st4" x1="585.1" y1="-6.9" x2="396.2" y2="395.9"/>
	<line class="st4" x1="396.2" y1="395.9" x2="662.8" y2="-6.9"/>
	<line class="st4" x1="396.2" y1="395.9" x2="757.2" y2="-6.9"/>
	<line class="st4" x1="396.2" y1="395.9" x2="796.6" y2="62.8"/>
	<line class="st4" x1="396.2" y1="395.9" x2="796.6" y2="151.6"/>
	<line class="st4" x1="396.2" y1="395.9" x2="796.6" y2="225.8"/>
	<line class="st4" x1="396.2" y1="395.9" x2="796.6" y2="291.3"/>
	<line class="st4" x1="396.2" y1="395.9" x2="796.6" y2="351.9"/>
	<line class="st4" x1="396.2" y1="395.9" x2="796.6" y2="410.6"/>
	<line class="st4" x1="396.2" y1="395.9" x2="796.6" y2="469.9"/>
	<line class="st4" x1="396.2" y1="395.9" x2="796.6" y2="532.6"/>
	<line class="st4" x1="396.2" y1="395.9" x2="796.6" y2="601.8"/>
	<line class="st4" x1="396.2" y1="395.9" x2="796.6" y2="682.4"/>
	<line class="st4" x1="396.2" y1="395.9" x2="796.6" y2="782"/>
	<line class="st4" x1="396.2" y1="395.9" x2="705.5" y2="796.6"/>
	<line class="st4" x1="396.2" y1="395.9" x2="621" y2="796.6"/>
	<line class="st4" x1="396.2" y1="395.9" x2="549.4" y2="796.6"/>
	<line class="st4" x1="396.2" y1="395.9" x2="485.5" y2="796.6"/>
	<line class="st4" x1="396.2" y1="395.9" x2="425.6" y2="796.6"/>
	<line class="st4" x1="396.2" y1="395.9" x2="366.9" y2="796.6"/>
	<line class="st4" x1="396.2" y1="395.9" x2="307" y2="796.6"/>
	<line class="st4" x1="396.2" y1="395.9" x2="243" y2="796.6"/>
	<line class="st4" x1="396.2" y1="395.9" x2="171.4" y2="796.6"/>
	<line class="st4" x1="396.2" y1="395.9" x2="86.9" y2="796.6"/>
	<line class="st4" x1="396.2" y1="395.9" x2="-6.9" y2="784.6"/>
	<line class="st4" x1="396.2" y1="395.9" x2="-6.9" y2="684.4"/>
	<line class="st4" x1="396.2" y1="395.9" x2="-6.9" y2="603.2"/>
	<line class="st4" x1="396.2" y1="395.9" x2="-6.9" y2="533.5"/>
	<line class="st4" x1="396.2" y1="395.9" x2="-6.9" y2="470.4"/>
	<line class="st4" x1="396.2" y1="395.9" x2="-6.9" y2="410.7"/>
	<line class="st4" x1="396.2" y1="395.9" x2="-6.9" y2="351.6"/>
	<line class="st4" x1="396.2" y1="395.9" x2="-6.9" y2="290.5"/>
	<line class="st4" x1="396.2" y1="395.9" x2="-6.9" y2="224.6"/>
	<line class="st4" x1="396.2" y1="395.9" x2="-6.9" y2="149.9"/>
	<line class="st4" x1="396.2" y1="395.9" x2="-6.9" y2="60.5"/>
	<line class="st4" x1="396.2" y1="395.9" x2="35.2" y2="-6.9"/>
	<line class="st4" x1="396.2" y1="395.9" x2="129.7" y2="-6.9"/>
	<line class="st4" x1="396.2" y1="395.9" x2="207.3" y2="-6.9"/>
	<line class="st4" x1="396.2" y1="395.9" x2="275" y2="-6.9"/>
	<line class="st4" x1="396.2" y1="395.9" x2="336.9" y2="-6.9"/>
</g>
<g class="st5">
	<g class="st6">
		<path class="st7" d="M395.2,240.1c-25.1,0-29.4-22.1-29.4-38.8c0,0-63-17.9-63-40c0-16.2,15.4-17.8,25.5-17.8
			c2.5,0,4.7,0.1,6.2,0.1c0.6,0,1.1,0,1.7-0.1c4.7-0.8,14.6-0.4-5.1-32.4s-26-53.7-13-53.7s40.6-0.8,47.4-0.8
			c6.7,0,22.6,35.5,29.7,35.5s22.9-35.5,29.6-35.5s34.3,0.8,47.4,0.8c13,0,6.7,21.7-13,53.7s-9.9,31.6-5.1,32.4
			c0.6,0.1,1.1,0.1,1.7,0.1c1.6,0,3.7-0.1,6.2-0.1c10.1,0,25.5,1.6,25.5,17.8c0,22.1-63,40-63,40C424.5,218,420.2,240.1,395.2,240.1
			"/>
		<path class="st7" d="M273.8,298.9c-15.6,19.6-35.6,9.2-48.7-1.2c0,0-53.3,38.1-70.5,24.3c-12.6-10.1-4.3-23.1,2-31.1
			c1.6-2,3-3.6,4-4.8c0.4-0.4,0.7-0.9,1-1.4c2.3-4.2,8.8-11.7-28.5-16.2S74.9,255.4,83,245.2s24.7-32.3,28.9-37.5s41.9,4.5,46.3-1.1
			c4.4-5.5-13.5-40-9.3-45.3c4.2-5.2,22-26.3,30.2-36.5c8.1-10.2,21.1,8.3,33.8,43.6s18.5,27.4,22.1,24.2c0.4-0.4,0.8-0.8,1.1-1.3
			c1-1.2,2.2-3,3.8-4.9c6.3-7.9,17.2-19,29.8-8.9c17.3,13.8-8,74.2-8,74.2C274.8,262.2,289.4,279.4,273.8,298.9"/>
		<path class="st7" d="M244.2,430.3c5.6,24.4-15,33.6-31.3,37.3c0,0-3.4,65.4-25,70.3c-15.8,3.6-20.7-11.1-23-21
			c-0.6-2.4-0.9-4.6-1.3-6.1c-0.1-0.6-0.3-1.1-0.5-1.6c-1.8-4.4-3.6-14.2-30.4,12.2C106,547.7,86.2,558.7,83.3,546
			s-9.8-39.4-11.3-46c-1.5-6.5,29.6-29.9,28-36.8s-39.7-14.4-41.2-21c-1.5-6.5-6.9-33.7-9.8-46.3s19.7-11.4,55.2,0.7
			s33,2.6,32.7-2.2c-0.1-0.6-0.1-1.1-0.3-1.7c-0.3-1.5-0.9-3.6-1.5-6c-2.3-9.9-4.1-25.3,11.6-28.9c21.5-4.9,53,52.5,53,52.5
			C216.1,406.6,238.6,405.9,244.2,430.3"/>
		<path class="st7" d="M328.4,535.4c22.6,10.9,16.9,32.7,9.6,47.7c0,0,49,43.4,39.4,63.4c-7,14.6-21.6,9.3-30.7,4.9
			c-2.2-1.1-4.2-2.1-5.5-2.8c-0.5-0.3-1-0.5-1.6-0.6c-4.6-1.3-13.3-6-9.4,31.4s0.2,59.6-11.5,54s-37-16.9-43-19.8
			s-4.9-41.8-11.3-44.9s-36,22.1-42.1,19.2c-6-2.9-30.6-15.6-42.3-21.3s3.4-22.5,35-42.7s22.6-24.2,18.7-26.9
			c-0.5-0.3-1-0.6-1.5-0.8c-1.4-0.7-3.4-1.5-5.6-2.6c-9.1-4.4-22.3-12.5-15.3-27.1c9.6-19.9,74.1-8.7,74.1-8.7
			C292.4,542.5,305.8,524.5,328.4,535.4"/>
		<path class="st7" d="M463.1,535.1c22.6-10.9,36.1,7.2,43.3,22.2c0,0,64.5-11.2,74.1,8.7c7,14.6-6.2,22.7-15.3,27.1
			c-2.2,1.1-4.3,1.9-5.6,2.6c-0.5,0.2-1,0.5-1.5,0.8c-3.9,2.8-13,6.7,18.7,26.9s46.7,37,35,42.7c-11.7,5.6-36.3,18.4-42.3,21.3
			s-35.8-22.2-42.2-19.1s-5.2,41.9-11.3,44.8c-6,2.9-31.3,14.2-43,19.8s-15.5-16.6-11.6-54s-4.8-32.7-9.4-31.4
			c-0.5,0.2-1.1,0.4-1.6,0.6c-1.4,0.7-3.3,1.7-5.5,2.8c-9.1,4.4-23.7,9.7-30.7-4.9c-9.6-19.9,39.4-63.4,39.4-63.4
			C446.3,567.7,440.6,546,463.1,535.1"/>
		<path class="st7" d="M547,429.6c5.6-24.4,28.1-23.7,44.4-20c0,0,31.5-57.4,53-52.5c15.8,3.6,13.9,19,11.6,28.9
			c-0.6,2.4-1.1,4.5-1.5,6c-0.1,0.6-0.2,1.1-0.3,1.7c-0.3,4.8-2.9,14.3,32.7,2.2c35.5-12.1,58.1-13.5,55.2-0.8s-8.3,39.8-9.7,46.3
			c-1.5,6.5-39.7,14.1-41.2,21c-1.6,6.9,29.5,30.2,28,36.8c-1.5,6.5-8.4,33.3-11.3,46s-22.6,1.7-49.4-24.6s-28.6-16.6-30.4-12.2
			c-0.2,0.5-0.4,1.1-0.5,1.6c-0.3,1.5-0.7,3.6-1.3,6.1c-2.3,9.9-7.2,24.6-23,21c-21.5-4.9-25-70.3-25-70.3
			C562,463.1,541.4,454,547,429.6"/>
		<path class="st7" d="M516.8,298.3c-15.6-19.6-1-36.7,12-47.2c0,0-25.3-60.4-8-74.2c12.6-10.1,23.5,1,29.8,8.9
			c1.6,2,2.8,3.7,3.8,4.9c0.4,0.5,0.7,0.9,1.1,1.3c3.6,3.2,9.4,11.2,22.1-24.2s25.7-53.8,33.8-43.6s26,31.3,30.2,36.5
			s-13.7,39.8-9.3,45.4s42-4.2,46.2,1s20.8,27.3,28.9,37.5s-12.8,18.8-50.1,23.3s-30.8,12-28.5,16.2c0.3,0.5,0.6,1,1,1.4
			c1,1.2,2.4,2.8,4,4.8c6.3,7.9,14.7,21,2,31.1C618.7,335,565.4,297,565.4,297C552.3,307.4,532.4,317.8,516.8,298.3"/>
		<polygon class="st8" points="333.5,57.5 395.1,240.1 456.7,57.5 317.6,179.3 472.7,179.3 		"/>
		<polygon class="st8" points="92.3,234.4 273.5,300.1 169.1,138.1 177.6,322.8 274.3,201.5 		"/>
		<polygon class="st8" points="80.3,533.3 244.6,432.6 52.9,413.2 202.6,521.7 168,370.5 		"/>
		<polygon class="st8" points="306.5,729 330.1,537.7 195.5,675.6 373.6,626.1 233.9,558.9 		"/>
		<polygon class="st8" points="600.5,674.1 465.7,536.4 489.6,727.6 561.9,557.5 422.3,624.9 		"/>
		<polygon class="st8" points="740.9,410 549.2,429.5 713.6,530.1 625.6,367.4 591.3,518.7 		"/>
		<polygon class="st8" points="621.8,135.6 517.6,297.7 698.7,231.8 516.7,199.2 613.6,320.3 		"/>
	</g>
	<path class="st9" d="M624.9,563.7c-60.7-13.9-98.7-74.3-84.8-135s74.3-98.7,135-84.8c28.1,6.4,51.3,22.8,66.8,44.6
		c-1.1-47.6-11.7-93.7-31-135.9c-4.6,26.1-18.4,50.6-40.7,68.4c-48.7,38.8-119.6,30.8-158.5-17.8c-38.8-48.7-30.8-119.6,17.8-158.5
		c22.2-17.7,48.9-25.6,75.2-24.5C567.7,92,525.8,71.8,481,60.5c17.2,19.8,27.6,45.6,27.6,73.9c0,62.3-50.5,112.7-112.7,112.7
		s-112.7-50.5-112.7-112.7c0-28.4,10.5-54.3,27.8-74.1c-44.8,11.2-86.9,31.4-124.1,59.5c26.2-1.1,52.9,6.9,75,24.5
		c48.7,38.8,56.7,109.8,17.9,158.5S170,359.5,121.4,320.7C99,302.8,85.2,278.2,80.6,252c-19.5,42-30.2,88-31.4,135.6
		c15.5-21.6,38.6-37.9,66.6-44.3c60.7-13.9,121.2,24.1,135,84.8c13.9,60.7-24.1,121.2-84.8,135c-28.5,6.5-56.9,1.6-80.4-11.7
		c16.5,32.8,38.3,63.2,65,89.9c7.5,7.5,15.2,14.5,23.3,21.2c-7.7-26-6.2-54.8,6.5-81.1c27-56.1,94.4-79.7,150.5-52.7
		s79.7,94.4,52.7,150.5c-12.8,26.6-34.7,45.9-60.2,56c23.5,5,47.7,7.5,72.3,7.5c24.2,0,48-2.5,71.2-7.3
		c-25.3-10.1-47.1-29.3-59.9-55.8c-27-56.1-3.4-123.5,52.7-150.5s123.5-3.4,150.5,52.7c12.7,26.4,14.2,55.4,6.4,81.5
		c8.3-6.9,16.4-14.2,24.1-22c26.5-26.5,48.2-56.6,64.7-89.2C681.6,565.4,653.3,570.2,624.9,563.7L624.9,563.7z"/>
</g>
</svg>
