<?xml version="1.0" encoding="UTF-8"?>
<svg baseProfile="tiny" version="1.1" viewBox="0 0 17.3 17.5" xml:space="preserve" xmlns="http://www.w3.org/2000/svg">
	<path d="m1.3 0.4c0.8 0.3 1.7 0.5 2.5 0.8 0.6 0.2 0.6 0.6 0.7 2.2 0.2 0 10.8 1.2 11.7 1.3s0.8 0.9 0.8 1.1c-0.1 0.3 0.1-0.5-0.7 4.1-0.1 0.3-0.3 0.7-0.9 0.7h-10.1c-0.3 0-0.2-0.1-0.4 1.2h9.8c1.4 0 1.3 1.8 0 1.8h-10.9c-0.5 0-0.9-0.5-0.8-1 0.2-1.4 0.5-2.3 0.4-3-1-8.3 0.2-6.6-2.6-7.5-1.2-0.4-0.7-2.1 0.5-1.7z"/>
	<path d="m5.2 16.7c-1.8 0-1.8-2.7 0-2.7 1.8-0.1 1.7 2.6 0 2.7z"/>
	<path d="m13.2 16.7c-1.8-0.1-1.7-2.7 0.1-2.7 1.7 0 1.6 2.7-0.1 2.7z"/>
</svg>
